<?xml version="1.0" encoding="UTF-8" standalone="no"?>
<!-- Created with Inkscape (http://www.inkscape.org/) -->

<svg
   xmlns:dc="http://purl.org/dc/elements/1.1/"
   xmlns:cc="http://creativecommons.org/ns#"
   xmlns:rdf="http://www.w3.org/1999/02/22-rdf-syntax-ns#"
   xmlns:svg="http://www.w3.org/2000/svg"
   xmlns="http://www.w3.org/2000/svg"
   xmlns:sodipodi="http://sodipodi.sourceforge.net/DTD/sodipodi-0.dtd"
   xmlns:inkscape="http://www.inkscape.org/namespaces/inkscape"
   version="1.0"
   width="77.406677"
   height="40.12381"
   viewBox="0 0 77.406676 40.123811"
   id="svg2547"
   xml:space="preserve"
   inkscape:version="0.48.5 r10040"
   sodipodi:docname="crocodile.svg"><metadata
     id="metadata13"><rdf:RDF><cc:Work
         rdf:about=""><dc:format>image/svg+xml</dc:format><dc:type
           rdf:resource="http://purl.org/dc/dcmitype/StillImage" /><dc:title /></cc:Work></rdf:RDF></metadata><sodipodi:namedview
     pagecolor="#ff7dff"
     bordercolor="#666666"
     borderopacity="1"
     objecttolerance="10"
     gridtolerance="10"
     guidetolerance="10"
     inkscape:pageopacity="0"
     inkscape:pageshadow="2"
     inkscape:window-width="1366"
     inkscape:window-height="702"
     id="namedview11"
     showgrid="false"
     fit-margin-top="0"
     fit-margin-left="0"
     fit-margin-right="0"
     fit-margin-bottom="0"
     inkscape:zoom="6.1341463"
     inkscape:cx="45"
     inkscape:cy="19"
     inkscape:window-x="0"
     inkscape:window-y="27"
     inkscape:window-maximized="1"
     inkscape:current-layer="svg2547" /><defs
     id="defs2564" /><path
     inkscape:connector-curvature="0"
     id="path4713"
     style="fill:none;fill-opacity:1;stroke:#ffffff;stroke-width:1.00000003000000004;stroke-miterlimit:4;stroke-opacity:1;stroke-dasharray:none"
     d="m 65.49188,27.175006 c -0.626473,-0.995492 -1.98964,-0.884467 -3.021335,-0.958753 -0.700226,-1.25214 -1.363434,-2.541825 -2.100401,-3.831246 -0.294729,1.47366 -0.589191,2.984329 -0.957676,4.457989 -0.700219,0.11022 -1.363434,0.33201 -2.06366,0.441964 -0.994686,-1.252945 -1.916157,-2.505086 -2.836825,-3.794773 -0.257993,1.289687 -0.442236,2.616112 -0.921208,3.868792 -1.068701,0.626202 -2.358389,0.626202 -3.57406,0.699684 -0.626469,-1.326426 -1.215933,-2.616115 -1.842405,-3.942272 -0.442233,1.289685 -0.921475,2.579105 -1.400182,3.832049 -1.363703,0.110234 -2.726603,0.147495 -4.090039,0.07348 -0.515716,-1.252946 -1.068436,-2.542632 -1.584417,-3.794774 -0.589198,1.142188 -1.141919,2.320846 -1.731652,3.463034 -1.142452,-0.14696 -2.321381,-0.257721 -3.500578,-0.368481 -0.515446,-1.142187 -1.068166,-2.284107 -1.584149,-3.426294 -0.442232,1.142187 -0.884463,2.320844 -1.363435,3.426294 -1.105316,-0.03675 -2.17375,-0.03675 -3.24232,-0.07348 -0.552723,-1.105179 -1.068706,-2.210625 -1.547678,-3.316071 -0.478974,1.031964 -0.921205,2.099866 -1.326694,3.16857 -1.547276,0 -3.094819,0 -4.642497,-0.07348 1.805667,-1.952899 4.348166,-2.910844 6.484905,-4.457985 0.958213,0.773435 1.916427,1.547141 2.910979,2.284103 -0.03675,-1.216206 -0.03675,-2.468346 -0.03675,-3.721292 0.994553,-0.479238 1.989776,-0.884463 3.058212,-1.252945 1.105179,0.847724 2.210626,1.657901 3.35308,2.468346 0.03677,-1.399643 -0.110759,-2.836826 0.110233,-4.237271 0.736966,-0.552726 1.58469,-0.847187 2.394864,-1.2154 1.3267,0.773433 2.653392,1.547139 3.979821,2.320843 -0.331743,-1.326427 -0.626472,-2.616113 -0.884463,-3.942272 0.957673,-0.552725 1.915891,-1.105446 2.910845,-1.65817 1.105447,0.773707 2.284641,1.473929 3.426562,2.247366 -0.294466,-1.25268 -0.552458,-2.505088 -0.847187,-3.757767 0.99495,-0.70022 1.98937,-1.437186 2.947583,-2.1741479 1.215938,0.8101779 2.431608,1.6214269 3.610798,2.4316029 -0.331198,-1.252944 -0.70022,-2.5050847 -1.031425,-3.7947715 0.736693,-0.5524553 1.473659,-1.1051765 2.210619,-1.6954471 1.068705,0.6634843 2.174152,1.326967 3.316072,1.9164297 C 59.743671,7.4247551 59.375191,6.0985978 59.043989,4.7721695 59.522961,4.2561859 60.296394,3.8877062 60.517648,3.1874815 60.406885,2.5248024 60.075415,1.8977917 59.486219,1.5668572 57.938542,0.68239163 56.022383,0.46140897 54.327205,0.90337413 53.074795,1.6768117 52.411581,3.1139959 51.306132,4.0352026 46.515873,8.2724735 40.65744,11.331089 34.430793,12.730731 c -3.647944,0.957944 -7.222138,-1.731385 -10.869682,-0.589466 -3.832049,1.363169 -5.563966,5.711202 -9.322266,7.18513 -1.363035,0.626204 -2.800221,-0.257723 -4.163526,-0.07348 -0.7369617,0.515446 -1.1054437,1.36317 -1.5476763,2.099863 -2.2474968,4.237542 -4.6791017,8.401336 -6.8532536,12.675347 1.3630352,0.257724 2.4317379,-0.552722 3.2424541,-1.547946 1.5842852,-1.915621 4.5320044,-2.357588 6.7060218,-1.178924 1.437185,0.773703 2.284238,2.284371 3.758033,2.947852 1.621425,0.110759 2.616247,-1.400444 3.758701,-2.284104 1.621025,-1.473928 4.163254,-1.584687 6.005531,-0.552724 1.142455,0.699419 1.768928,1.952367 2.91098,2.615846 0.921204,0.405223 2.100266,0.478436 2.947722,-0.184238 1.25281,-0.995224 2.284505,-2.469152 3.979681,-2.837632 1.952367,-0.699421 4.237274,-0.03675 5.563703,1.547945 0.773436,0.810446 1.547141,2.06339 2.83683,1.76839 2.284905,-0.294465 2.947586,-3.168836 5.158739,-3.57379 1.915629,-0.441966 3.721296,0.589195 5.600713,0.920934 3.24232,0.773707 6.558385,0.147493 9.727228,-0.663479 0.773434,-1.105446 2.431603,-2.320847 1.621154,-3.831246 z M 31.408919,14.86814 c -0.810311,0.589464 -1.658033,1.105443 -2.505087,1.658168 -0.03701,-0.847724 -0.147493,-1.69491 -0.147493,-2.50589 0.884467,0.258259 1.768524,0.515979 2.652587,0.847722 z m -7.663566,0.700223 c 0.368484,-1.584686 2.100001,-1.953171 3.500447,-1.916429 0.03673,1.179464 0.184239,2.358391 0.294328,3.537049 -1.105446,1.363705 -4.642496,0.479242 -3.794775,-1.62062 z" /><path
     inkscape:connector-curvature="0"
     id="path4715"
     style="fill:none;fill-opacity:1;stroke:#ffffff;stroke-width:1.00000003000000004;stroke-miterlimit:4;stroke-dasharray:none;stroke-opacity:1"
     d="m 58.785993,35.907006 c 1.399914,-1.105177 2.542364,-2.910846 4.53201,-2.947586 1.621159,-0.07348 2.542358,1.400444 3.610799,2.35839 1.363433,1.326158 3.758295,1.54714 5.195486,0.220982 1.3629,-1.216205 2.72634,-2.468615 4.605754,-2.763615 0,0.921206 0,1.879153 -0.03701,2.800086 -2.689866,0.552726 -4.200267,3.648081 -7.111382,3.537053 -2.026376,0.03756 -3.316065,-1.6579 -4.753251,-2.836829 -0.810181,-0.773435 -2.173615,-0.700224 -2.984326,0 -1.584424,1.216205 -2.984331,2.911115 -5.121468,3.095354 -1.915894,0.184242 -3.35308,-1.252946 -4.642767,-2.431872 -0.957943,-0.958482 -2.505353,-1.547946 -3.684549,-0.699954 -1.731921,1.17866 -3.09482,3.168568 -5.342722,3.205309 -2.947586,0.110759 -4.05303,-3.72156 -7.000886,-3.573791 -2.247768,0.404954 -3.389819,2.763348 -5.563834,3.389552 -1.694776,0.515979 -3.463301,-0.368485 -4.715843,-1.51067 -1.068709,-0.847723 -2.174152,-2.174152 -3.721695,-1.878882 -2.35799,0.625936 -3.647542,3.389552 -6.263924,3.389552 -2.984727,0.258255 -4.347761,-3.794775 -7.3320882,-3.426293 -1.8422785,0.662677 -2.9847299,2.541827 -4.8641488,3.168569 -0.95781,0.294196 -1.9157581,-0.220983 -2.83682784,-0.479242 0,-0.847187 0,-1.731651 -0.0367415,-2.616113 0.73696254,0.220983 1.51053414,0.441965 2.24749624,0.626204 2.35826,-0.662677 3.5370543,-3.68455 6.1900404,-3.426292 1.9895067,-0.110758 3.0948177,1.768125 4.5320057,2.800088 1.179197,0.921203 2.984328,0.884462 4.089775,-0.07322 1.437186,-1.068705 2.65339,-2.911115 4.642763,-2.726874 1.87942,-0.110758 3.131961,1.39964 4.421647,2.542632 1.215803,1.141916 3.353213,1.436382 4.642764,0.257455 1.473793,-1.216205 2.873705,-2.874105 4.937096,-2.763345 1.916161,-0.07348 3.353347,1.400444 4.605755,2.615844 0.589732,0.663484 1.436917,1.068705 2.358124,0.884463 2.616112,-0.147495 3.537318,-3.684549 6.30093,-3.500307 2.026386,-0.295 3.35308,1.400444 4.679501,2.615844 1.141925,1.179463 3.168575,1.179463 4.421517,0.147494 l 0,0 z" /><path
     d="m 65.49188,27.175006 c -0.626473,-0.995492 -1.98964,-0.884467 -3.021335,-0.958753 -0.700226,-1.25214 -1.363434,-2.541825 -2.100401,-3.831246 -0.294729,1.47366 -0.589191,2.984329 -0.957676,4.457989 -0.700219,0.11022 -1.363434,0.33201 -2.06366,0.441964 -0.994686,-1.252945 -1.916157,-2.505086 -2.836825,-3.794773 -0.257993,1.289687 -0.442236,2.616112 -0.921208,3.868792 -1.068701,0.626202 -2.358389,0.626202 -3.57406,0.699684 -0.626469,-1.326426 -1.215933,-2.616115 -1.842405,-3.942272 -0.442233,1.289685 -0.921475,2.579105 -1.400182,3.832049 -1.363703,0.110234 -2.726603,0.147495 -4.090039,0.07348 -0.515716,-1.252946 -1.068436,-2.542632 -1.584417,-3.794774 -0.589198,1.142188 -1.141919,2.320846 -1.731652,3.463034 -1.142452,-0.14696 -2.321381,-0.257721 -3.500578,-0.368481 -0.515446,-1.142187 -1.068166,-2.284107 -1.584149,-3.426294 -0.442232,1.142187 -0.884463,2.320844 -1.363435,3.426294 -1.105316,-0.03675 -2.17375,-0.03675 -3.24232,-0.07348 -0.552723,-1.105179 -1.068706,-2.210625 -1.547678,-3.316071 -0.478974,1.031964 -0.921205,2.099866 -1.326694,3.16857 -1.547276,0 -3.094819,0 -4.642497,-0.07348 1.805667,-1.952899 4.348166,-2.910844 6.484905,-4.457985 0.958213,0.773435 1.916427,1.547141 2.910979,2.284103 -0.03675,-1.216206 -0.03675,-2.468346 -0.03675,-3.721292 0.994553,-0.479238 1.989776,-0.884463 3.058212,-1.252945 1.105179,0.847724 2.210626,1.657901 3.35308,2.468346 0.03677,-1.399643 -0.110759,-2.836826 0.110233,-4.237271 0.736966,-0.552726 1.58469,-0.847187 2.394864,-1.2154 1.3267,0.773433 2.653392,1.547139 3.979821,2.320843 -0.331743,-1.326427 -0.626472,-2.616113 -0.884463,-3.942272 0.957673,-0.552725 1.915891,-1.105446 2.910845,-1.65817 1.105447,0.773707 2.284641,1.473929 3.426562,2.247366 -0.294466,-1.25268 -0.552458,-2.505088 -0.847187,-3.757767 0.99495,-0.70022 1.98937,-1.437186 2.947583,-2.1741479 1.215938,0.8101779 2.431608,1.6214269 3.610798,2.4316029 -0.331198,-1.252944 -0.70022,-2.5050847 -1.031425,-3.7947715 0.736693,-0.5524553 1.473659,-1.1051765 2.210619,-1.6954471 1.068705,0.6634843 2.174152,1.326967 3.316072,1.9164297 C 59.743671,7.4247551 59.375191,6.0985978 59.043989,4.7721695 59.522961,4.2561859 60.296394,3.8877062 60.517648,3.1874815 60.406885,2.5248024 60.075415,1.8977917 59.486219,1.5668572 57.938542,0.68239163 56.022383,0.46140897 54.327205,0.90337413 53.074795,1.6768117 52.411581,3.1139959 51.306132,4.0352026 46.515873,8.2724735 40.65744,11.331089 34.430793,12.730731 c -3.647944,0.957944 -7.222138,-1.731385 -10.869682,-0.589466 -3.832049,1.363169 -5.563966,5.711202 -9.322266,7.18513 -1.363035,0.626204 -2.800221,-0.257723 -4.163526,-0.07348 -0.7369617,0.515446 -1.1054437,1.36317 -1.5476763,2.099863 -2.2474968,4.237542 -4.6791017,8.401336 -6.8532536,12.675347 1.3630352,0.257724 2.4317379,-0.552722 3.2424541,-1.547946 1.5842852,-1.915621 4.5320044,-2.357588 6.7060218,-1.178924 1.437185,0.773703 2.284238,2.284371 3.758033,2.947852 1.621425,0.110759 2.616247,-1.400444 3.758701,-2.284104 1.621025,-1.473928 4.163254,-1.584687 6.005531,-0.552724 1.142455,0.699419 1.768928,1.952367 2.91098,2.615846 0.921204,0.405223 2.100266,0.478436 2.947722,-0.184238 1.25281,-0.995224 2.284505,-2.469152 3.979681,-2.837632 1.952367,-0.699421 4.237274,-0.03675 5.563703,1.547945 0.773436,0.810446 1.547141,2.06339 2.83683,1.76839 2.284905,-0.294465 2.947586,-3.168836 5.158739,-3.57379 1.915629,-0.441966 3.721296,0.589195 5.600713,0.920934 3.24232,0.773707 6.558385,0.147493 9.727228,-0.663479 0.773434,-1.105446 2.431603,-2.320847 1.621154,-3.831246 z M 31.408919,14.86814 c -0.810311,0.589464 -1.658033,1.105443 -2.505087,1.658168 -0.03701,-0.847724 -0.147493,-1.69491 -0.147493,-2.50589 0.884467,0.258259 1.768524,0.515979 2.652587,0.847722 z m -7.663566,0.700223 c 0.368484,-1.584686 2.100001,-1.953171 3.500447,-1.916429 0.03673,1.179464 0.184239,2.358391 0.294328,3.537049 -1.105446,1.363705 -4.642496,0.479242 -3.794775,-1.62062 z"
     style="fill:#005e00;fill-opacity:1;stroke:none;stroke-width:1.38087081999999994;stroke-miterlimit:4;stroke-opacity:1;stroke-dasharray:none"
     id="path2559"
     inkscape:connector-curvature="0" /><path
     d="m 58.785993,35.907006 c 1.399914,-1.105177 2.542364,-2.910846 4.53201,-2.947586 1.621159,-0.07348 2.542358,1.400444 3.610799,2.35839 1.363433,1.326158 3.758295,1.54714 5.195486,0.220982 1.3629,-1.216205 2.72634,-2.468615 4.605754,-2.763615 0,0.921206 0,1.879153 -0.03701,2.800086 -2.689866,0.552726 -4.200267,3.648081 -7.111382,3.537053 -2.026376,0.03756 -3.316065,-1.6579 -4.753251,-2.836829 -0.810181,-0.773435 -2.173615,-0.700224 -2.984326,0 -1.584424,1.216205 -2.984331,2.911115 -5.121468,3.095354 -1.915894,0.184242 -3.35308,-1.252946 -4.642767,-2.431872 -0.957943,-0.958482 -2.505353,-1.547946 -3.684549,-0.699954 -1.731921,1.17866 -3.09482,3.168568 -5.342722,3.205309 -2.947586,0.110759 -4.05303,-3.72156 -7.000886,-3.573791 -2.247768,0.404954 -3.389819,2.763348 -5.563834,3.389552 -1.694776,0.515979 -3.463301,-0.368485 -4.715843,-1.51067 -1.068709,-0.847723 -2.174152,-2.174152 -3.721695,-1.878882 -2.35799,0.625936 -3.647542,3.389552 -6.263924,3.389552 -2.984727,0.258255 -4.347761,-3.794775 -7.3320882,-3.426293 -1.8422785,0.662677 -2.9847299,2.541827 -4.8641488,3.168569 -0.95781,0.294196 -1.9157581,-0.220983 -2.83682784,-0.479242 0,-0.847187 0,-1.731651 -0.0367415,-2.616113 0.73696254,0.220983 1.51053414,0.441965 2.24749624,0.626204 2.35826,-0.662677 3.5370543,-3.68455 6.1900404,-3.426292 1.9895067,-0.110758 3.0948177,1.768125 4.5320057,2.800088 1.179197,0.921203 2.984328,0.884462 4.089775,-0.07322 1.437186,-1.068705 2.65339,-2.911115 4.642763,-2.726874 1.87942,-0.110758 3.131961,1.39964 4.421647,2.542632 1.215803,1.141916 3.353213,1.436382 4.642764,0.257455 1.473793,-1.216205 2.873705,-2.874105 4.937096,-2.763345 1.916161,-0.07348 3.353347,1.400444 4.605755,2.615844 0.589732,0.663484 1.436917,1.068705 2.358124,0.884463 2.616112,-0.147495 3.537318,-3.684549 6.30093,-3.500307 2.026386,-0.295 3.35308,1.400444 4.679501,2.615844 1.141925,1.179463 3.168575,1.179463 4.421517,0.147494 l 0,0 z"
     style="fill:#005e00;fill-opacity:1;stroke:none;stroke-width:1.38087081999999994;stroke-miterlimit:4;stroke-dasharray:none"
     id="path2561"
     inkscape:connector-curvature="0" /></svg>