<?xml version="1.0" encoding="UTF-8" standalone="no"?>
<!-- Created with Inkscape (http://www.inkscape.org/) -->

<svg
   xmlns:dc="http://purl.org/dc/elements/1.1/"
   xmlns:cc="http://creativecommons.org/ns#"
   xmlns:rdf="http://www.w3.org/1999/02/22-rdf-syntax-ns#"
   xmlns:svg="http://www.w3.org/2000/svg"
   xmlns="http://www.w3.org/2000/svg"
   xmlns:sodipodi="http://sodipodi.sourceforge.net/DTD/sodipodi-0.dtd"
   xmlns:inkscape="http://www.inkscape.org/namespaces/inkscape"
   width="160.74197"
   height="43.927799"
   id="svg3439"
   version="1.1"
   inkscape:version="0.92+devel unknown"
   sodipodi:docname="ludanto.svg">
  <defs
     id="defs3441" />
  <sodipodi:namedview
     id="base"
     pagecolor="#cb00c0"
     bordercolor="#666666"
     borderopacity="1.0"
     inkscape:pageopacity="0"
     inkscape:pageshadow="2"
     inkscape:zoom="1.580546"
     inkscape:cx="-50.28312"
     inkscape:cy="29.65022"
     inkscape:document-units="px"
     inkscape:current-layer="layer1"
     showgrid="false"
     inkscape:window-width="1366"
     inkscape:window-height="704"
     inkscape:window-x="0"
     inkscape:window-y="0"
     inkscape:window-maximized="1"
     fit-margin-top="3"
     fit-margin-left="15"
     fit-margin-right="3"
     fit-margin-bottom="3"
     inkscape:document-rotation="0" />
  <metadata
     id="metadata3444">
    <rdf:RDF>
      <cc:Work
         rdf:about="">
        <dc:format>image/svg+xml</dc:format>
        <dc:type
           rdf:resource="http://purl.org/dc/dcmitype/StillImage" />
        <dc:title></dc:title>
      </cc:Work>
    </rdf:RDF>
  </metadata>
  <g
     inkscape:label="Layer 1"
     inkscape:groupmode="layer"
     id="layer1"
     transform="translate(-239.25408,-1028.369)">
    <path
       inkscape:connector-curvature="0"
       d="m 255.85408,1032.969 h 3.22398 v 27.2636 h -3.22398 v -27.2636"
       style="font-style:normal;font-weight:normal;font-size:medium;line-height:125%;font-family:Sans;text-align:center;letter-spacing:0px;word-spacing:0px;text-anchor:middle;fill:#4467eb;fill-opacity:1;stroke:#ffffff;stroke-width:3.20000005;stroke-linecap:round;stroke-miterlimit:4;stroke-dasharray:none;stroke-opacity:1"
       id="path3933" />
    <path
       sodipodi:nodetypes="cccscsccccccccssc"
       inkscape:connector-curvature="0"
       d="m 265.47343,1052.4881 v -11.8797 h 3.22398 v 11.757 c -10e-6,1.8573 0.3621,3.2532 1.08633,4.1876 0.72423,0.9229 1.81056,1.3842 3.25902,1.3842 1.74047,0 3.113,-0.5547 4.11757,-1.6645 1.01625,-1.1097 1.52436,-2.6224 1.52439,-4.5381 v -11.1262 h 3.22396 v 19.6242 h -3.22396 v -3.0138 c -0.78265,1.1915 -1.69378,2.0793 -2.73337,2.6634 -1.02795,0.5724 -2.22526,0.8586 -3.59193,0.8586 -2.25445,0 -3.96572,-0.701 -5.13383,-2.1027 -1.16811,-1.4017 -1.75216,-3.4517 -1.75216,-6.15"
       style="font-style:normal;font-weight:normal;font-size:medium;line-height:125%;font-family:Sans;text-align:center;letter-spacing:0px;word-spacing:0px;text-anchor:middle;fill:#4467eb;fill-opacity:1;stroke:#ffffff;stroke-width:3.20000005;stroke-linecap:round;stroke-miterlimit:4;stroke-dasharray:none;stroke-opacity:1"
       id="path3935" />
    <path
       inkscape:connector-curvature="0"
       d="m 301.49784,1043.587 v -10.618 h 3.22396 v 27.2636 h -3.22396 v -2.9437 c -0.67752,1.1681 -1.53608,2.0384 -2.57568,2.6108 -1.02794,0.5606 -2.26614,0.8411 -3.71457,0.8411 -2.37127,0 -4.30448,-0.9463 -5.79965,-2.8386 -1.4835,-1.8923 -2.22525,-4.3803 -2.22525,-7.4642 0,-3.0838 0.74175,-5.5718 2.22525,-7.4642 1.49517,-1.8922 3.42838,-2.8385 5.79965,-2.8385 1.44843,0 2.68663,0.2862 3.71457,0.8586 1.0396,0.5607 1.89816,1.425 2.57568,2.5931 m -10.98604,6.851 c -10e-6,2.3712 0.48476,4.2344 1.45429,5.5894 0.9812,1.3433 2.32452,2.015 4.02996,2.015 1.70542,0 3.04875,-0.6717 4.02997,-2.015 0.98119,-1.355 1.47179,-3.2182 1.47182,-5.5894 -3e-5,-2.3713 -0.49063,-4.2286 -1.47182,-5.5718 -0.98122,-1.355 -2.32455,-2.0325 -4.02997,-2.0325 -1.70544,0 -3.04876,0.6775 -4.02996,2.0325 -0.96953,1.3432 -1.4543,3.2005 -1.45429,5.5718"
       style="font-style:normal;font-weight:normal;font-size:medium;line-height:125%;font-family:Sans;text-align:center;letter-spacing:0px;word-spacing:0px;text-anchor:middle;fill:#4467eb;fill-opacity:1;stroke:#ffffff;stroke-width:3.20000005;stroke-linecap:round;stroke-miterlimit:4;stroke-dasharray:none;stroke-opacity:1"
       id="path3937" />
    <path
       inkscape:connector-curvature="0"
       d="m 320.28097,1050.368 c -2.60488,0 -4.40961,0.2978 -5.41417,0.8935 -1.00458,0.5957 -1.50686,1.6121 -1.50686,3.0487 0,1.1448 0.37379,2.0559 1.12138,2.7335 0.75927,0.6658 1.78719,0.9987 3.0838,0.9987 1.78719,0 3.21812,-0.6308 4.29279,-1.8924 1.08633,-1.2731 1.62949,-2.961 1.62952,-5.0636 v -0.7184 h -3.20646 m 6.43042,-1.3317 v 11.1963 h -3.22396 v -2.9787 c -0.73593,1.1915 -1.65289,2.0734 -2.75089,2.6458 -1.09804,0.5606 -2.44136,0.8411 -4.02998,0.8411 -2.00914,0 -3.60945,-0.5608 -4.8009,-1.6822 -1.1798,-1.133 -1.76969,-2.6457 -1.76969,-4.538 0,-2.2078 0.7359,-3.8723 2.20772,-4.9937 1.48349,-1.1214 3.69121,-1.682 6.62316,-1.682 h 4.52058 v -0.3155 c -3e-5,-1.4835 -0.49063,-2.6282 -1.47182,-3.4342 -0.96954,-0.8177 -2.33623,-1.2264 -4.10006,-1.2266 -1.12138,2e-4 -2.21356,0.1344 -3.27653,0.4031 -1.06299,0.2686 -2.08508,0.6717 -3.06628,1.209 v -2.9787 c 1.17978,-0.4555 2.32452,-0.7943 3.43423,-1.0163 1.10969,-0.2336 2.19019,-0.3504 3.2415,-0.3504 2.83849,0 4.95859,0.7359 6.36033,2.2077 1.40172,1.4719 2.10258,3.7029 2.10259,6.6933"
       style="font-style:normal;font-weight:normal;font-size:medium;line-height:125%;font-family:Sans;text-align:center;letter-spacing:0px;word-spacing:0px;text-anchor:middle;fill:#4467eb;fill-opacity:1;stroke:#ffffff;stroke-width:3.20000005;stroke-linecap:round;stroke-miterlimit:4;stroke-dasharray:none;stroke-opacity:1"
       id="path3939" />
    <path
       inkscape:connector-curvature="0"
       d="m 349.68221,1048.388 v 11.8446 h -3.22397 v -11.7395 c -2e-5,-1.8572 -0.36213,-3.2473 -1.08633,-4.1702 -0.72425,-0.9227 -1.81058,-1.3841 -3.25902,-1.3842 -1.74049,10e-5 -3.11302,0.5549 -4.11758,1.6647 -1.00458,1.1096 -1.50686,2.6224 -1.50686,4.538 v 11.0912 h -3.24149 v -19.6242 h 3.24149 v 3.0487 c 0.77094,-1.1797 1.67622,-2.0616 2.71585,-2.6457 1.05129,-0.584 2.26028,-0.8761 3.62697,-0.8761 2.25443,0 3.95987,0.7009 5.11631,2.1026 1.1564,1.3901 1.73462,3.4401 1.73463,6.1501"
       style="font-style:normal;font-weight:normal;font-size:medium;line-height:125%;font-family:Sans;text-align:center;letter-spacing:0px;word-spacing:0px;text-anchor:middle;fill:#4467eb;fill-opacity:1;stroke:#ffffff;stroke-width:3.20000005;stroke-linecap:round;stroke-miterlimit:4;stroke-dasharray:none;stroke-opacity:1"
       id="path3941" />
    <path
       inkscape:connector-curvature="0"
       d="m 359.3366,1035.0365 v 5.5719 h 6.64068 v 2.5056 h -6.64068 v 10.6531 c -10e-6,1.6003 0.2161,2.6283 0.6483,3.0838 0.44387,0.4556 1.33747,0.6833 2.6808,0.6833 h 3.31158 v 2.6984 h -3.31158 c -2.48806,0 -4.20518,-0.4614 -5.15134,-1.3842 -0.94618,-0.9345 -1.41925,-2.6283 -1.41925,-5.0813 v -10.6531 h -2.36542 v -2.5056 h 2.36542 v -5.5719 h 3.24149"
       style="font-style:normal;font-weight:normal;font-size:medium;line-height:125%;font-family:Sans;text-align:center;letter-spacing:0px;word-spacing:0px;text-anchor:middle;fill:#4467eb;fill-opacity:1;stroke:#ffffff;stroke-width:3.20000005;stroke-linecap:round;stroke-miterlimit:4;stroke-dasharray:none;stroke-opacity:1"
       id="path3943" />
    <path
       inkscape:connector-curvature="0"
       d="m 377.83942,1042.8686 c -1.72881,2e-4 -3.09549,0.6776 -4.10006,2.0326 -1.00457,1.3433 -1.50687,3.189 -1.50686,5.5368 -1e-5,2.3479 0.49644,4.1994 1.48934,5.5544 1.00456,1.3433 2.37709,2.0149 4.11758,2.0149 1.7171,0 3.07794,-0.6774 4.08253,-2.0324 1.00455,-1.355 1.50683,-3.2007 1.50685,-5.5369 -2e-5,-2.3244 -0.5023,-4.1642 -1.50685,-5.5193 -1.00459,-1.3666 -2.36543,-2.0499 -4.08253,-2.0501 m 0,-2.7333 c 2.80343,0 5.00531,0.9112 6.60563,2.7333 1.60029,1.8223 2.40045,4.3454 2.40046,7.5694 -10e-6,3.2123 -0.80017,5.7354 -2.40046,7.5693 -1.60032,1.8223 -3.8022,2.7335 -6.60563,2.7335 -2.81515,0 -5.02287,-0.9112 -6.62317,-2.7335 -1.58863,-1.8339 -2.38293,-4.357 -2.38293,-7.5693 0,-3.224 0.7943,-5.7471 2.38293,-7.5694 1.6003,-1.8221 3.80802,-2.7333 6.62317,-2.7333"
       style="font-style:normal;font-weight:normal;font-size:medium;line-height:125%;font-family:Sans;text-align:center;letter-spacing:0px;word-spacing:0px;text-anchor:middle;fill:#4467eb;fill-opacity:1;stroke:#ffffff;stroke-width:3.20000005;stroke-linecap:round;stroke-miterlimit:4;stroke-dasharray:none;stroke-opacity:1"
       id="path3945" />
    <path
       inkscape:connector-curvature="0"
       id="path3074"
       style="font-style:normal;font-weight:normal;font-size:medium;line-height:125%;font-family:Sans;text-align:center;letter-spacing:0px;word-spacing:0px;text-anchor:middle;fill:#4467eb;fill-opacity:1;stroke:none;stroke-width:1.06666672"
       d="m 255.85408,1032.969 h 3.22398 v 27.2636 h -3.22398 v -27.2636" />
    <path
       inkscape:connector-curvature="0"
       id="path3076"
       style="font-style:normal;font-weight:normal;font-size:medium;line-height:125%;font-family:Sans;text-align:center;letter-spacing:0px;word-spacing:0px;text-anchor:middle;fill:#4467eb;fill-opacity:1;stroke:none;stroke-width:1.06666672"
       d="m 265.47343,1052.4881 v -11.8797 h 3.22398 v 11.757 c -10e-6,1.8573 0.3621,3.2532 1.08633,4.1876 0.72423,0.9229 1.81056,1.3842 3.25902,1.3842 1.74047,0 3.113,-0.5547 4.11757,-1.6645 1.01625,-1.1097 1.52436,-2.6224 1.52439,-4.5381 v -11.1262 h 3.22396 v 19.6242 h -3.22396 v -3.0138 c -0.78265,1.1915 -1.69378,2.0793 -2.73337,2.6634 -1.02795,0.5724 -2.22526,0.8586 -3.59193,0.8586 -2.25445,0 -3.96572,-0.701 -5.13383,-2.1027 -1.16811,-1.4017 -1.75216,-3.4517 -1.75216,-6.15 m 8.1125,-12.3528 v 0" />
    <path
       inkscape:connector-curvature="0"
       id="path3078"
       style="font-style:normal;font-weight:normal;font-size:medium;line-height:125%;font-family:Sans;text-align:center;letter-spacing:0px;word-spacing:0px;text-anchor:middle;fill:#4467eb;fill-opacity:1;stroke:none;stroke-width:1.06666672"
       d="m 301.49784,1043.587 v -10.618 h 3.22396 v 27.2636 h -3.22396 v -2.9437 c -0.67752,1.1681 -1.53608,2.0384 -2.57568,2.6108 -1.02794,0.5606 -2.26614,0.8411 -3.71457,0.8411 -2.37127,0 -4.30448,-0.9463 -5.79965,-2.8386 -1.4835,-1.8923 -2.22525,-4.3803 -2.22525,-7.4642 0,-3.0838 0.74175,-5.5718 2.22525,-7.4642 1.49517,-1.8922 3.42838,-2.8385 5.79965,-2.8385 1.44843,0 2.68663,0.2862 3.71457,0.8586 1.0396,0.5607 1.89816,1.425 2.57568,2.5931 m -10.98604,6.851 c -10e-6,2.3712 0.48476,4.2344 1.45429,5.5894 0.9812,1.3433 2.32452,2.015 4.02996,2.015 1.70542,0 3.04875,-0.6717 4.02997,-2.015 0.98119,-1.355 1.47179,-3.2182 1.47182,-5.5894 -3e-5,-2.3713 -0.49063,-4.2286 -1.47182,-5.5718 -0.98122,-1.355 -2.32455,-2.0325 -4.02997,-2.0325 -1.70544,0 -3.04876,0.6775 -4.02996,2.0325 -0.96953,1.3432 -1.4543,3.2005 -1.45429,5.5718" />
    <path
       inkscape:connector-curvature="0"
       id="path3080"
       style="font-style:normal;font-weight:normal;font-size:medium;line-height:125%;font-family:Sans;text-align:center;letter-spacing:0px;word-spacing:0px;text-anchor:middle;fill:#4467eb;fill-opacity:1;stroke:none;stroke-width:1.06666672"
       d="m 320.28097,1050.368 c -2.60488,0 -4.40961,0.2978 -5.41417,0.8935 -1.00458,0.5957 -1.50686,1.6121 -1.50686,3.0487 0,1.1448 0.37379,2.0559 1.12138,2.7335 0.75927,0.6658 1.78719,0.9987 3.0838,0.9987 1.78719,0 3.21812,-0.6308 4.29279,-1.8924 1.08633,-1.2731 1.62949,-2.961 1.62952,-5.0636 v -0.7184 h -3.20646 m 6.43042,-1.3317 v 11.1963 h -3.22396 v -2.9787 c -0.73593,1.1915 -1.65289,2.0734 -2.75089,2.6458 -1.09804,0.5606 -2.44136,0.8411 -4.02998,0.8411 -2.00914,0 -3.60945,-0.5608 -4.8009,-1.6822 -1.1798,-1.133 -1.76969,-2.6457 -1.76969,-4.538 0,-2.2078 0.7359,-3.8723 2.20772,-4.9937 1.48349,-1.1214 3.69121,-1.682 6.62316,-1.682 h 4.52058 v -0.3155 c -3e-5,-1.4835 -0.49063,-2.6282 -1.47182,-3.4342 -0.96954,-0.8177 -2.33623,-1.2264 -4.10006,-1.2266 -1.12138,2e-4 -2.21356,0.1344 -3.27653,0.4031 -1.06299,0.2686 -2.08508,0.6717 -3.06628,1.209 v -2.9787 c 1.17978,-0.4555 2.32452,-0.7943 3.43423,-1.0163 1.10969,-0.2336 2.19019,-0.3504 3.2415,-0.3504 2.83849,0 4.95859,0.7359 6.36033,2.2077 1.40172,1.4719 2.10258,3.7029 2.10259,6.6933" />
    <path
       inkscape:connector-curvature="0"
       id="path3082"
       style="font-style:normal;font-weight:normal;font-size:medium;line-height:125%;font-family:Sans;text-align:center;letter-spacing:0px;word-spacing:0px;text-anchor:middle;fill:#4467eb;fill-opacity:1;stroke:none;stroke-width:1.06666672"
       d="m 349.68221,1048.388 v 11.8446 h -3.22397 v -11.7395 c -2e-5,-1.8572 -0.36213,-3.2473 -1.08633,-4.1702 -0.72425,-0.9227 -1.81058,-1.3841 -3.25902,-1.3842 -1.74049,10e-5 -3.11302,0.5549 -4.11758,1.6647 -1.00458,1.1096 -1.50686,2.6224 -1.50686,4.538 v 11.0912 h -3.24149 v -19.6242 h 3.24149 v 3.0487 c 0.77094,-1.1797 1.67622,-2.0616 2.71585,-2.6457 1.05129,-0.584 2.26028,-0.8761 3.62697,-0.8761 2.25443,0 3.95987,0.7009 5.11631,2.1026 1.1564,1.3901 1.73462,3.4401 1.73463,6.1501" />
    <path
       inkscape:connector-curvature="0"
       id="path3084"
       style="font-style:normal;font-weight:normal;font-size:medium;line-height:125%;font-family:Sans;text-align:center;letter-spacing:0px;word-spacing:0px;text-anchor:middle;fill:#4467eb;fill-opacity:1;stroke:none;stroke-width:1.06666672"
       d="m 359.3366,1035.0365 v 5.5719 h 6.64068 v 2.5056 h -6.64068 v 10.6531 c -10e-6,1.6003 0.2161,2.6283 0.6483,3.0838 0.44387,0.4556 1.33747,0.6833 2.6808,0.6833 h 3.31158 v 2.6984 h -3.31158 c -2.48806,0 -4.20518,-0.4614 -5.15134,-1.3842 -0.94618,-0.9345 -1.41925,-2.6283 -1.41925,-5.0813 v -10.6531 h -2.36542 v -2.5056 h 2.36542 v -5.5719 h 3.24149" />
    <path
       inkscape:connector-curvature="0"
       id="path3086"
       style="font-style:normal;font-weight:normal;font-size:medium;line-height:125%;font-family:Sans;text-align:center;letter-spacing:0px;word-spacing:0px;text-anchor:middle;fill:#4467eb;fill-opacity:1;stroke:none;stroke-width:1.06666672"
       d="m 377.83942,1042.8686 c -1.72881,2e-4 -3.09549,0.6776 -4.10006,2.0326 -1.00457,1.3433 -1.50687,3.189 -1.50686,5.5368 -1e-5,2.3479 0.49644,4.1994 1.48934,5.5544 1.00456,1.3433 2.37709,2.0149 4.11758,2.0149 1.7171,0 3.07794,-0.6774 4.08253,-2.0324 1.00455,-1.355 1.50683,-3.2007 1.50685,-5.5369 -2e-5,-2.3244 -0.5023,-4.1642 -1.50685,-5.5193 -1.00459,-1.3666 -2.36543,-2.0499 -4.08253,-2.0501 m 0,-2.7333 c 2.80343,0 5.00531,0.9112 6.60563,2.7333 1.60029,1.8223 2.40045,4.3454 2.40046,7.5694 -10e-6,3.2123 -0.80017,5.7354 -2.40046,7.5693 -1.60032,1.8223 -3.8022,2.7335 -6.60563,2.7335 -2.81515,0 -5.02287,-0.9112 -6.62317,-2.7335 -1.58863,-1.8339 -2.38293,-4.357 -2.38293,-7.5693 0,-3.224 0.7943,-5.7471 2.38293,-7.5694 1.6003,-1.8221 3.80802,-2.7333 6.62317,-2.7333" />
  </g>
</svg>
