<?xml version="1.0" encoding="UTF-8" standalone="no"?>
<!-- Created with Inkscape (http://www.inkscape.org/) -->

<svg
   xmlns:dc="http://purl.org/dc/elements/1.1/"
   xmlns:cc="http://creativecommons.org/ns#"
   xmlns:rdf="http://www.w3.org/1999/02/22-rdf-syntax-ns#"
   xmlns:svg="http://www.w3.org/2000/svg"
   xmlns="http://www.w3.org/2000/svg"
   xmlns:sodipodi="http://sodipodi.sourceforge.net/DTD/sodipodi-0.dtd"
   xmlns:inkscape="http://www.inkscape.org/namespaces/inkscape"
   width="27.74197"
   height="43.927799"
   id="svg3439"
   version="1.1"
   inkscape:version="0.92+devel unknown"
   sodipodi:docname="num_players_3.svg">
  <defs
     id="defs3441" />
  <sodipodi:namedview
     id="base"
     pagecolor="#cb00c0"
     bordercolor="#666666"
     borderopacity="1.0"
     inkscape:pageopacity="0"
     inkscape:pageshadow="2"
     inkscape:zoom="3.2302839"
     inkscape:cx="81.233257"
     inkscape:cy="31.443848"
     inkscape:document-units="px"
     inkscape:current-layer="layer1"
     showgrid="false"
     inkscape:window-width="1366"
     inkscape:window-height="704"
     inkscape:window-x="0"
     inkscape:window-y="0"
     inkscape:window-maximized="1"
     fit-margin-top="3"
     fit-margin-left="15"
     fit-margin-right="3"
     fit-margin-bottom="3"
     inkscape:document-rotation="0" />
  <metadata
     id="metadata3444">
    <rdf:RDF>
      <cc:Work
         rdf:about="">
        <dc:format>image/svg+xml</dc:format>
        <dc:type
           rdf:resource="http://purl.org/dc/dcmitype/StillImage" />
        <dc:title></dc:title>
      </cc:Work>
    </rdf:RDF>
  </metadata>
  <g
     inkscape:label="Layer 1"
     inkscape:groupmode="layer"
     id="layer1"
     transform="translate(-239.25408,-1028.369)">
    <g
       aria-label="3"
       style="font-style:normal;font-variant:normal;font-weight:normal;font-stretch:normal;font-size:36.9649086px;line-height:61.60864258px;font-family:'DejaVu Sans';-inkscape-font-specification:'DejaVu Sans, Normal';font-variant-ligatures:normal;font-variant-position:normal;font-variant-caps:normal;font-variant-numeric:normal;font-variant-alternates:normal;font-feature-settings:normal;text-indent:0;text-align:start;text-decoration:none;text-decoration-line:none;text-decoration-style:solid;text-decoration-color:#000000;letter-spacing:0px;word-spacing:0px;text-transform:none;writing-mode:lr-tb;direction:ltr;text-orientation:mixed;dominant-baseline:auto;baseline-shift:baseline;text-anchor:start;white-space:normal;shape-padding:0;opacity:1;vector-effect:none;fill:#4467eb;fill-opacity:1;stroke:#ffffff;stroke-width:3.08043194px;stroke-linecap:butt;stroke-linejoin:miter;stroke-miterlimit:4;stroke-dasharray:none;stroke-dashoffset:0;stroke-opacity:1"
       id="text379">
      <path
         d="m 258.78682,1045.9585 q 2.61714,0.5595 4.07913,2.3284 1.48004,1.7688 1.48004,4.3679 0,3.9889 -2.74349,6.1728 -2.74349,2.184 -7.79728,2.184 -1.69663,0 -3.50156,-0.3429 -1.78688,-0.3249 -3.7001,-0.9928 v -3.5196 q 1.51614,0.8844 3.32106,1.3357 1.80493,0.4512 3.7723,0.4512 3.42936,0 5.21624,-1.3537 1.80493,-1.3537 1.80493,-3.9347 0,-2.3825 -1.67858,-3.7182 -1.66054,-1.3537 -4.63867,-1.3537 h -3.14057 v -2.9961 h 3.28497 q 2.68934,0 4.11523,-1.065 1.42589,-1.0829 1.42589,-3.1044 0,-2.0757 -1.48004,-3.1767 -1.46199,-1.1191 -4.20548,-1.1191 -1.49809,0 -3.21277,0.3249 -1.71468,0.3249 -3.77229,1.0108 v -3.2489 q 2.07566,-0.5776 3.88059,-0.8663 1.82298,-0.2888 3.42936,-0.2888 4.15133,0 6.56994,1.8951 2.4186,1.8772 2.4186,5.0899 0,2.2381 -1.2815,3.7904 -1.2815,1.5342 -3.64595,2.1298 z"
         style="font-style:normal;font-variant:normal;font-weight:normal;font-stretch:normal;font-size:36.9649086px;font-family:'DejaVu Sans';-inkscape-font-specification:'DejaVu Sans, Normal';font-variant-ligatures:normal;font-variant-caps:normal;font-variant-numeric:normal;font-feature-settings:normal;text-align:start;writing-mode:lr-tb;text-anchor:start;fill:#4467eb;fill-opacity:1;stroke:#ffffff;stroke-width:3.08043194px;stroke-opacity:1"
         id="path434" />
    </g>
    <g
       aria-label="3"
       style="font-style:normal;font-variant:normal;font-weight:normal;font-stretch:normal;font-size:36.9649086px;line-height:61.60864258px;font-family:'DejaVu Sans';-inkscape-font-specification:'DejaVu Sans, Normal';font-variant-ligatures:normal;font-variant-position:normal;font-variant-caps:normal;font-variant-numeric:normal;font-variant-alternates:normal;font-feature-settings:normal;text-indent:0;text-align:start;text-decoration:none;text-decoration-line:none;text-decoration-style:solid;text-decoration-color:#000000;letter-spacing:0px;word-spacing:0px;text-transform:none;writing-mode:lr-tb;direction:ltr;text-orientation:mixed;dominant-baseline:auto;baseline-shift:baseline;text-anchor:start;white-space:normal;shape-padding:0;opacity:1;vector-effect:none;fill:#4467eb;fill-opacity:1;stroke:none;stroke-width:3.08043194px;stroke-linecap:butt;stroke-linejoin:miter;stroke-miterlimit:4;stroke-dasharray:none;stroke-dashoffset:0;stroke-opacity:1"
       id="text375">
      <path
         d="m 258.78682,1045.9585 q 2.61714,0.5595 4.07913,2.3284 1.48004,1.7688 1.48004,4.3679 0,3.9889 -2.74349,6.1728 -2.74349,2.184 -7.79728,2.184 -1.69663,0 -3.50156,-0.3429 -1.78688,-0.3249 -3.7001,-0.9928 v -3.5196 q 1.51614,0.8844 3.32106,1.3357 1.80493,0.4512 3.7723,0.4512 3.42936,0 5.21624,-1.3537 1.80493,-1.3537 1.80493,-3.9347 0,-2.3825 -1.67858,-3.7182 -1.66054,-1.3537 -4.63867,-1.3537 h -3.14057 v -2.9961 h 3.28497 q 2.68934,0 4.11523,-1.065 1.42589,-1.0829 1.42589,-3.1044 0,-2.0757 -1.48004,-3.1767 -1.46199,-1.1191 -4.20548,-1.1191 -1.49809,0 -3.21277,0.3249 -1.71468,0.3249 -3.77229,1.0108 v -3.2489 q 2.07566,-0.5776 3.88059,-0.8663 1.82298,-0.2888 3.42936,-0.2888 4.15133,0 6.56994,1.8951 2.4186,1.8772 2.4186,5.0899 0,2.2381 -1.2815,3.7904 -1.2815,1.5342 -3.64595,2.1298 z"
         style="font-style:normal;font-variant:normal;font-weight:normal;font-stretch:normal;font-size:36.9649086px;font-family:'DejaVu Sans';-inkscape-font-specification:'DejaVu Sans, Normal';font-variant-ligatures:normal;font-variant-caps:normal;font-variant-numeric:normal;font-feature-settings:normal;text-align:start;writing-mode:lr-tb;text-anchor:start;fill:#4467eb;fill-opacity:1;stroke-width:3.08043194px"
         id="path431" />
    </g>
  </g>
</svg>
