<?xml version="1.0" encoding="UTF-8" standalone="no"?>
<!-- Created with Inkscape (http://www.inkscape.org/) -->

<svg
   xmlns:dc="http://purl.org/dc/elements/1.1/"
   xmlns:cc="http://creativecommons.org/ns#"
   xmlns:rdf="http://www.w3.org/1999/02/22-rdf-syntax-ns#"
   xmlns:svg="http://www.w3.org/2000/svg"
   xmlns="http://www.w3.org/2000/svg"
   xmlns:sodipodi="http://sodipodi.sourceforge.net/DTD/sodipodi-0.dtd"
   xmlns:inkscape="http://www.inkscape.org/namespaces/inkscape"
   width="379.5"
   height="84.5625"
   id="svg3439"
   version="1.1"
   inkscape:version="0.48.5 r10040"
   sodipodi:docname="player_select.svg">
  <defs
     id="defs3441" />
  <sodipodi:namedview
     id="base"
     pagecolor="#cb00c0"
     bordercolor="#666666"
     borderopacity="1.0"
     inkscape:pageopacity="0"
     inkscape:pageshadow="2"
     inkscape:zoom="2.2352296"
     inkscape:cx="194.09596"
     inkscape:cy="29.303414"
     inkscape:document-units="px"
     inkscape:current-layer="layer1"
     showgrid="false"
     inkscape:window-width="1366"
     inkscape:window-height="702"
     inkscape:window-x="0"
     inkscape:window-y="27"
     inkscape:window-maximized="1"
     fit-margin-top="0"
     fit-margin-left="0"
     fit-margin-right="0"
     fit-margin-bottom="0" />
  <metadata
     id="metadata3444">
    <rdf:RDF>
      <cc:Work
         rdf:about="">
        <dc:format>image/svg+xml</dc:format>
        <dc:type
           rdf:resource="http://purl.org/dc/dcmitype/StillImage" />
        <dc:title />
      </cc:Work>
    </rdf:RDF>
  </metadata>
  <g
     inkscape:label="Layer 1"
     inkscape:groupmode="layer"
     id="layer1"
     transform="translate(5.125,-981.75)">
    <g
       id="g3877"
       style="font-size:33.64146042000000136px;font-style:normal;font-weight:normal;text-align:center;line-height:125%;letter-spacing:0px;word-spacing:0px;text-anchor:middle;fill:#4467eb;fill-opacity:1;stroke:#ffffff;stroke-width:3;stroke-miterlimit:4;stroke-opacity:1;stroke-dasharray:none;font-family:Sans;stroke-linecap:round">
      <path
         id="path3879"
         style="fill:#4467eb;fill-opacity:1;stroke:#ffffff;stroke-width:3;stroke-miterlimit:4;stroke-opacity:1;stroke-dasharray:none;stroke-linecap:round"
         d="m 32.043399,1010.5159 0,9.7574 -3.038901,0 0,-25.3954 3.038901,0 0,2.7925 c 0.635152,-1.09508 1.434573,-1.90545 2.398269,-2.43112 0.974629,-0.53658 2.135433,-0.80488 3.482416,-0.8049 2.233989,2e-5 4.046378,0.88705 5.43717,2.6611 1.401709,1.77407 2.102572,4.10662 2.102591,6.99772 -1.9e-5,2.891 -0.700882,5.2236 -2.102591,6.9976 -1.390792,1.7741 -3.203181,2.6611 -5.43717,2.6611 -1.346983,0 -2.507787,-0.2628 -3.482416,-0.7884 -0.963696,-0.5366 -1.763117,-1.3525 -2.398269,-2.4476 m 10.282986,-6.4227 c -1.6e-5,-2.2231 -0.459958,-3.9643 -1.379826,-5.22366 -0.908946,-1.2703 -2.162834,-1.90546 -3.761667,-1.90548 -1.598855,2e-5 -2.858218,0.63518 -3.778094,1.90548 -0.908939,1.25936 -1.363405,3.00056 -1.363399,5.22366 -6e-6,2.223 0.45446,3.9697 1.363399,5.24 0.919876,1.2594 2.179239,1.8891 3.778094,1.8891 1.598833,0 2.852721,-0.6297 3.761667,-1.8891 0.919868,-1.2703 1.37981,-3.017 1.379826,-5.24"
         inkscape:connector-curvature="0" />
      <path
         id="path3881"
         style="fill:#4467eb;fill-opacity:1;stroke:#ffffff;stroke-width:3;stroke-linecap:round;stroke-miterlimit:4;stroke-opacity:1;stroke-dasharray:none"
         d="m 50.161823,1006.0151 0,-11.1372 3.022475,0 0,11.0222 c -6e-6,1.7412 0.339474,3.0498 1.018442,3.9259 0.678954,0.8651 1.697396,1.2977 3.055328,1.2977 1.631687,0 2.918428,-0.5202 3.860226,-1.5605 0.952722,-1.0404 1.42909,-2.4585 1.429105,-4.2545 l 0,-10.4308 3.022475,0 0,18.3977 -3.022475,0 0,-2.8254 c -0.733731,1.117 -1.587908,1.9493 -2.562533,2.4968 -0.963699,0.5366 -2.086175,0.8049 -3.367431,0.8049 -2.11355,0 -3.717869,-0.657 -4.812963,-1.9711 -1.095103,-1.3142 -1.642652,-3.2361 -1.642649,-5.7657"
         inkscape:connector-curvature="0"
         sodipodi:nodetypes="cccscscsccccccscc" />
      <path
         id="path3883"
         style="fill:#4467eb;fill-opacity:1;stroke:#ffffff;stroke-width:3;stroke-miterlimit:4;stroke-opacity:1;stroke-dasharray:none;stroke-linecap:round"
         d="m 76.46064,986.36898 2.431121,0 4.024491,6.17636 -2.283282,0 -2.956769,-4.02449 -2.956769,4.02449 -2.283283,0 4.024491,-6.17636 m 7.096246,9.05099 0,2.85821 c -0.854192,-0.43802 -1.741222,-0.76655 -2.661092,-0.98559 -0.919895,-0.219 -1.872631,-0.32851 -2.85821,-0.32853 -1.500295,2e-5 -2.628246,0.22999 -3.383858,0.68992 -0.744673,0.45995 -1.117007,1.14987 -1.117002,2.06974 -5e-6,0.70088 0.268294,1.25388 0.804898,1.65908 0.536593,0.3942 1.615265,0.772 3.23602,1.1334 l 1.034869,0.23 c 2.146383,0.4599 3.66857,1.1115 4.566565,1.9547 0.908918,0.8323 1.363383,1.9986 1.363399,3.4989 -1.6e-5,1.7083 -0.678977,3.0608 -2.036885,4.0573 -1.346985,0.9966 -3.203177,1.4948 -5.568582,1.4948 -0.985597,0 -2.014989,-0.098 -3.088181,-0.2956 -1.06225,-0.1862 -2.184726,-0.4709 -3.367431,-0.8542 l 0,-3.121 c 1.116999,0.5804 2.217573,1.0184 3.301725,1.3141 1.084143,0.2847 2.157339,0.4271 3.219593,0.4271 1.42362,0 2.518719,-0.241 3.285299,-0.7228 0.766558,-0.4928 1.149842,-1.1827 1.149855,-2.0697 -1.3e-5,-0.8214 -0.279263,-1.451 -0.837751,-1.8891 -0.547562,-0.438 -1.757645,-0.8596 -3.630256,-1.2648 l -1.051295,-0.2464 c -1.872626,-0.3943 -3.225073,-0.9966 -4.057344,-1.8069 -0.832278,-0.8214 -1.248416,-1.9438 -1.248414,-3.36747 -2e-6,-1.73024 0.613253,-3.06626 1.839767,-4.00807 1.226507,-0.94176 2.967714,-1.41266 5.223626,-1.41268 1.116991,2e-5 2.168286,0.0822 3.153887,0.2464 0.985576,0.16429 1.894508,0.41068 2.726798,0.73919"
         inkscape:connector-curvature="0" />
      <path
         id="path3885"
         style="fill:#4467eb;fill-opacity:1;stroke:#ffffff;stroke-width:3;stroke-linecap:round;stroke-miterlimit:4;stroke-opacity:1;stroke-dasharray:none"
         d="m 89.05976,1006.0151 0,-11.1372 3.022475,0 0,11.0222 c -5e-6,1.7412 0.339475,3.0498 1.018443,3.9259 0.678954,0.8651 1.697396,1.2977 3.055328,1.2977 1.631687,0 2.918428,-0.5202 3.860224,-1.5605 0.95272,-1.0404 1.42909,-2.4585 1.42911,-4.2545 l 0,-10.4308 3.02247,0 0,18.3977 -3.02247,0 0,-2.8254 c -0.73373,1.117 -1.587911,1.9493 -2.562536,2.4968 -0.963699,0.5366 -2.086175,0.8049 -3.367431,0.8049 -2.11355,0 -3.717869,-0.657 -4.812963,-1.9711 -1.095103,-1.3142 -1.642652,-3.2361 -1.64265,-5.7657"
         inkscape:connector-curvature="0"
         sodipodi:nodetypes="cccscsccccccccscc" />
      <path
         id="path3887"
         style="fill:#4467eb;fill-opacity:1;stroke:#ffffff;stroke-width:3;stroke-miterlimit:4;stroke-opacity:1;stroke-dasharray:none;stroke-linecap:round"
         d="m 122.43839,1010.4831 5.42075,0 0,-18.70981 -5.89711,1.18271 0,-3.02247 5.86425,-1.18271 3.31816,0 0,21.73228 5.42074,0 0,2.7925 -14.12679,0 0,-2.7925"
         inkscape:connector-curvature="0" />
      <path
         id="path3889"
         style="fill:#4467eb;fill-opacity:1;stroke:#ffffff;stroke-width:3;stroke-miterlimit:4;stroke-opacity:1;stroke-dasharray:none;stroke-linecap:round"
         d="m 141.32886,1002.7133 8.85389,0 0,2.694 -8.85389,0 0,-2.694"
         inkscape:connector-curvature="0" />
      <path
         id="path3891"
         style="fill:#4467eb;fill-opacity:1;stroke:#ffffff;stroke-width:3;stroke-miterlimit:4;stroke-opacity:1;stroke-dasharray:none;stroke-linecap:round"
         d="m 164.55593,991.64188 -8.37751,13.09192 8.37751,0 0,-13.09192 m -0.8706,-2.89106 4.17233,0 0,15.98298 3.49884,0 0,2.7596 -3.49884,0 0,5.7822 -3.30173,0 0,-5.7822 -11.07146,0 0,-3.2031 10.20086,-15.53948"
         inkscape:connector-curvature="0" />
      <path
         id="path3893"
         style="fill:#4467eb;fill-opacity:1;stroke:#ffffff;stroke-width:3;stroke-miterlimit:4;stroke-opacity:1;stroke-dasharray:none;stroke-linecap:round"
         d="m 190.06627,1010.5159 0,9.7574 -3.0389,0 0,-25.3954 3.0389,0 0,2.7925 c 0.63515,-1.09508 1.43458,-1.90545 2.39827,-2.43112 0.97463,-0.53658 2.13543,-0.80488 3.48242,-0.8049 2.23399,2e-5 4.04637,0.88705 5.43717,2.6611 1.40171,1.77407 2.10257,4.10662 2.10259,6.99772 -2e-5,2.891 -0.70088,5.2236 -2.10259,6.9976 -1.3908,1.7741 -3.20318,2.6611 -5.43717,2.6611 -1.34699,0 -2.50779,-0.2628 -3.48242,-0.7884 -0.96369,-0.5366 -1.76312,-1.3525 -2.39827,-2.4476 m 10.28299,-6.4227 c -2e-5,-2.2231 -0.45996,-3.9643 -1.37983,-5.22366 -0.90894,-1.2703 -2.16283,-1.90546 -3.76166,-1.90548 -1.59886,2e-5 -2.85822,0.63518 -3.7781,1.90548 -0.90894,1.25936 -1.3634,3.00056 -1.3634,5.22366 0,2.223 0.45446,3.9697 1.3634,5.24 0.91988,1.2594 2.17924,1.8891 3.7781,1.8891 1.59883,0 2.85272,-0.6297 3.76166,-1.8891 0.91987,-1.2703 1.37981,-3.017 1.37983,-5.24"
         inkscape:connector-curvature="0" />
      <path
         id="path3895"
         style="fill:#4467eb;fill-opacity:1;stroke:#ffffff;stroke-width:3;stroke-miterlimit:4;stroke-opacity:1;stroke-dasharray:none;stroke-linecap:round"
         d="m 215.6259,996.99692 c -1.62075,10e-6 -2.90202,0.63517 -3.8438,1.90547 -0.94179,1.25941 -1.41268,2.98961 -1.41268,5.19081 0,2.2011 0.46541,3.9369 1.39626,5.2072 0.94177,1.2593 2.22851,1.889 3.86022,1.889 1.60979,0 2.88558,-0.6351 3.82737,-1.9055 0.94178,-1.2703 1.41267,-3.0005 1.41268,-5.1907 -1e-5,-2.1793 -0.4709,-3.9041 -1.41268,-5.17438 -0.94179,-1.28125 -2.21758,-1.92189 -3.82737,-1.9219 m 0,-2.56254 c 2.62823,2e-5 4.69249,0.8542 6.19279,2.56254 1.50027,1.70837 2.25041,4.07378 2.25043,7.09628 -2e-5,3.0115 -0.75016,5.3769 -2.25043,7.0962 -1.5003,1.7084 -3.56456,2.5625 -6.19279,2.5625 -2.6392,0 -4.70893,-0.8541 -6.20921,-2.5625 -1.48934,-1.7193 -2.23401,-4.0847 -2.23401,-7.0962 0,-3.0225 0.74467,-5.38791 2.23401,-7.09628 1.50028,-1.70834 3.57001,-2.56252 6.20921,-2.56254"
         inkscape:connector-curvature="0" />
      <path
         id="path3897"
         style="fill:#4467eb;fill-opacity:1;stroke:#ffffff;stroke-width:3;stroke-miterlimit:4;stroke-opacity:1;stroke-dasharray:none;stroke-linecap:round"
         d="m 239.72356,997.70326 c -0.33949,-0.19711 -0.71183,-0.33947 -1.117,-0.42709 -0.39425,-0.0985 -0.83229,-0.14782 -1.31412,-0.14784 -1.70836,2e-5 -3.02248,0.55852 -3.94236,1.6755 -0.90894,1.10607 -1.3634,2.69947 -1.3634,4.78007 l 0,9.6917 -3.0389,0 0,-18.3977 3.0389,0 0,2.85821 c 0.63515,-1.11698 1.46195,-1.94378 2.4804,-2.4804 1.01844,-0.54753 2.2559,-0.82131 3.71239,-0.82133 0.20806,2e-5 0.43803,0.0164 0.68991,0.0493 0.25186,0.0219 0.53111,0.0602 0.83775,0.11499 l 0.0164,3.10461"
         inkscape:connector-curvature="0" />
      <path
         id="path3899"
         style="fill:#4467eb;fill-opacity:1;stroke:#ffffff;stroke-width:3;stroke-miterlimit:4;stroke-opacity:1;stroke-dasharray:none;stroke-linecap:round"
         d="m 269.37338,1003.3211 0,1.4784 -13.89681,0 c 0.13141,2.0807 0.75561,3.6686 1.87262,4.7637 1.12794,1.0841 2.69394,1.6262 4.69798,1.6262 1.16079,0 2.28327,-0.1424 3.36743,-0.4271 1.09508,-0.2847 2.17923,-0.7118 3.25244,-1.2812 l 0,2.8582 c -1.08416,0.4599 -2.19569,0.8103 -3.33457,1.0513 -1.13892,0.2409 -2.29425,0.3613 -3.46599,0.3613 -2.93488,0 -5.26196,-0.8541 -6.98126,-2.5625 -1.70836,-1.7083 -2.56254,-4.019 -2.56254,-6.932 0,-3.0115 0.81037,-5.3988 2.43112,-7.16192 1.6317,-1.77405 3.82737,-2.66108 6.58703,-2.6611 2.47491,2e-5 4.42966,0.79945 5.86426,2.39827 1.44551,1.58791 2.16827,3.75075 2.16829,6.48845 m -3.02247,-0.887 c -0.0219,-1.6536 -0.48734,-2.97319 -1.39625,-3.9588 -0.898,-0.98557 -2.09166,-1.47837 -3.58098,-1.47838 -1.68646,10e-6 -3.03891,0.47638 -4.05734,1.4291 -1.0075,0.95275 -1.5879,2.29428 -1.74121,4.02448 l 10.77578,-0.016"
         inkscape:connector-curvature="0" />
      <path
         id="path3901"
         style="fill:#4467eb;fill-opacity:1;stroke:#ffffff;stroke-width:3;stroke-miterlimit:4;stroke-opacity:1;stroke-dasharray:none;stroke-linecap:round"
         d="m 274.33419,987.71595 3.02247,0 0,25.55965 -3.02247,0 0,-25.55965"
         inkscape:connector-curvature="0" />
      <path
         id="path3903"
         style="fill:#4467eb;fill-opacity:1;stroke:#ffffff;stroke-width:3;stroke-miterlimit:4;stroke-opacity:1;stroke-dasharray:none;stroke-linecap:round"
         d="m 299.40102,1003.3211 0,1.4784 -13.89682,0 c 0.13141,2.0807 0.75562,3.6686 1.87262,4.7637 1.12795,1.0841 2.69394,1.6262 4.69798,1.6262 1.16079,0 2.28327,-0.1424 3.36743,-0.4271 1.09509,-0.2847 2.17923,-0.7118 3.25245,-1.2812 l 0,2.8582 c -1.08417,0.4599 -2.19569,0.8103 -3.33458,1.0513 -1.13892,0.2409 -2.29425,0.3613 -3.46599,0.3613 -2.93488,0 -5.26196,-0.8541 -6.98126,-2.5625 -1.70836,-1.7083 -2.56254,-4.019 -2.56253,-6.932 -1e-5,-3.0115 0.81037,-5.3988 2.43112,-7.16192 1.63169,-1.77405 3.82736,-2.66108 6.58702,-2.6611 2.47491,2e-5 4.42966,0.79945 5.86426,2.39827 1.44551,1.58791 2.16828,3.75075 2.1683,6.48845 m -3.02248,-0.887 c -0.0219,-1.6536 -0.48733,-2.97319 -1.39625,-3.9588 -0.89799,-0.98557 -2.09165,-1.47837 -3.58098,-1.47838 -1.68646,10e-6 -3.0389,0.47638 -4.05734,1.4291 -1.0075,0.95275 -1.5879,2.29428 -1.74121,4.02448 l 10.77578,-0.016"
         inkscape:connector-curvature="0" />
      <path
         id="path3905"
         style="fill:#4467eb;fill-opacity:1;stroke:#ffffff;stroke-width:3;stroke-miterlimit:4;stroke-opacity:1;stroke-dasharray:none;stroke-linecap:round"
         d="m 304.24684,987.71595 3.0389,0 0,15.09595 9.01814,-7.934 3.86023,0 -9.75734,8.6075 10.168,9.7902 -3.94236,0 -9.34667,-8.9853 0,8.9853 -3.0389,0 0,-25.55965"
         inkscape:connector-curvature="0" />
      <path
         id="path3907"
         style="fill:#4467eb;fill-opacity:1;stroke:#ffffff;stroke-width:3;stroke-miterlimit:4;stroke-opacity:1;stroke-dasharray:none;stroke-linecap:round"
         d="m 326.86612,989.65427 0,5.22363 6.22565,0 0,2.34899 -6.22565,0 0,9.98731 c 0,1.5003 0.20259,2.464 0.60778,2.8911 0.41614,0.4271 1.25389,0.6406 2.51326,0.6406 l 3.10461,0 0,2.5297 -3.10461,0 c -2.33257,0 -3.94237,-0.4326 -4.82939,-1.2977 -0.88704,-0.8761 -1.33055,-2.464 -1.33055,-4.7637 l 0,-9.98731 -2.21757,0 0,-2.34899 2.21757,0 0,-5.22363 3.0389,0"
         inkscape:connector-curvature="0" />
      <path
         id="path3909"
         style="fill:#4467eb;fill-opacity:1;stroke:#ffffff;stroke-width:3;stroke-miterlimit:4;stroke-opacity:1;stroke-dasharray:none;stroke-linecap:round"
         d="m 337.08341,994.8779 3.02248,0 0,18.3977 -3.02248,0 0,-18.3977 m 0,-7.16195 3.02248,0 0,3.82737 -3.02248,0 0,-3.82737"
         inkscape:connector-curvature="0" />
      <path
         id="path3911"
         style="fill:#4467eb;fill-opacity:1;stroke:#ffffff;stroke-width:3;stroke-miterlimit:4;stroke-opacity:1;stroke-dasharray:none;stroke-linecap:round"
         d="m -1.1381191,1029.7678 3.0224749,0 0,25.5596 -3.0224749,0 0,-25.5596"
         inkscape:connector-curvature="0" />
      <path
         id="path3913"
         style="fill:#4467eb;fill-opacity:1;stroke:#ffffff;stroke-width:3;stroke-miterlimit:4;stroke-opacity:1;stroke-dasharray:none;stroke-linecap:round"
         d="m 16.553215,1046.0793 c -2.442081,0 -4.134008,0.2792 -5.075786,0.8377 -0.941792,0.5585 -1.412684,1.5113 -1.412679,2.8582 -5e-6,1.0732 0.350427,1.9274 1.051296,2.5626 0.711808,0.6242 1.675494,0.9363 2.891063,0.9363 1.675491,0 3.016987,-0.5914 4.024491,-1.7741 1.018428,-1.1936 1.527649,-2.776 1.527664,-4.7472 l 0,-0.6735 -3.006049,0 m 6.028524,-1.2484 0,10.4965 -3.022475,0 0,-2.7925 c -0.689927,1.117 -1.549579,1.9438 -2.57896,2.4804 -1.029404,0.5256 -2.288768,0.7885 -3.778094,0.7885 -1.883577,0 -3.3838621,-0.5257 -4.500859,-1.577 -1.1060532,-1.0622 -1.6590779,-2.4804 -1.6590759,-4.2544 -2e-6,-2.0698 0.6899101,-3.6303 2.0697383,-4.6816 1.3907706,-1.0513 3.4605076,-1.5769 6.2092146,-1.5769 l 4.238036,0 0,-0.2957 c -1.5e-5,-1.3908 -0.459956,-2.464 -1.379826,-3.2196 -0.908945,-0.7666 -2.19021,-1.1498 -3.843799,-1.1499 -1.051304,10e-5 -2.075221,0.126 -3.071755,0.3779 -0.996546,0.2518 -1.954757,0.6297 -2.8746364,1.1334 l 0,-2.7925 c 1.1060462,-0.4271 2.1792424,-0.7447 3.2195934,-0.9528 1.040337,-0.219 2.053303,-0.3285 3.038901,-0.3285 2.66108,0 4.648684,0.6899 5.962817,2.0697 1.314103,1.3799 1.971162,3.4715 1.97118,6.275"
         inkscape:connector-curvature="0" />
      <path
         id="path3915"
         style="fill:#4467eb;fill-opacity:1;stroke:#ffffff;stroke-width:3;stroke-miterlimit:4;stroke-opacity:1;stroke-dasharray:none;stroke-linecap:round"
         d="m 39.418896,1029.7678 3.038902,0 0,15.0959 9.018145,-7.934 3.860226,0 -9.757337,8.6075 10.168,9.7902 -3.942359,0 -9.346675,-8.9853 0,8.9853 -3.038902,0 0,-25.5596"
         inkscape:connector-curvature="0" />
      <path
         id="path3917"
         style="fill:#4467eb;fill-opacity:1;stroke:#ffffff;stroke-width:3;stroke-miterlimit:4;stroke-opacity:1;stroke-dasharray:none;stroke-linecap:round"
         d="m 56.88026,1036.9297 3.203166,0 5.749273,15.4409 5.749273,-15.4409 3.203166,0 -6.899127,18.3977 -4.106624,0 -6.899127,-18.3977"
         inkscape:connector-curvature="0" />
      <path
         id="path3919"
         style="fill:#4467eb;fill-opacity:1;stroke:#ffffff;stroke-width:3;stroke-miterlimit:4;stroke-opacity:1;stroke-dasharray:none;stroke-linecap:round"
         d="m 87.318555,1046.0793 c -2.442081,0 -4.134008,0.2792 -5.075787,0.8377 -0.941791,0.5585 -1.412683,1.5113 -1.412678,2.8582 -5e-6,1.0732 0.350426,1.9274 1.051296,2.5626 0.711808,0.6242 1.675494,0.9363 2.891063,0.9363 1.675491,0 3.016987,-0.5914 4.024491,-1.7741 1.018428,-1.1936 1.527649,-2.776 1.527664,-4.7472 l 0,-0.6735 -3.006049,0 m 6.028524,-1.2484 0,10.4965 -3.022475,0 0,-2.7925 c -0.689927,1.117 -1.549579,1.9438 -2.57896,2.4804 -1.029405,0.5256 -2.288768,0.7885 -3.778094,0.7885 -1.883577,0 -3.383862,-0.5257 -4.500859,-1.577 -1.106053,-1.0622 -1.659078,-2.4804 -1.659076,-4.2544 -2e-6,-2.0698 0.68991,-3.6303 2.069738,-4.6816 1.390771,-1.0513 3.460508,-1.5769 6.209215,-1.5769 l 4.238036,0 0,-0.2957 c -1.5e-5,-1.3908 -0.459956,-2.464 -1.379826,-3.2196 -0.908945,-0.7666 -2.19021,-1.1498 -3.8438,-1.1499 -1.051303,10e-5 -2.075221,0.126 -3.071754,0.3779 -0.996546,0.2518 -1.954757,0.6297 -2.874637,1.1334 l 0,-2.7925 c 1.106047,-0.4271 2.179243,-0.7447 3.219593,-0.9528 1.040337,-0.219 2.053304,-0.3285 3.038902,-0.3285 2.66108,0 4.648683,0.6899 5.962817,2.0697 1.314103,1.3799 1.971162,3.4715 1.97118,6.275"
         inkscape:connector-curvature="0" />
      <path
         id="path3921"
         style="fill:#4467eb;fill-opacity:1;stroke:#ffffff;stroke-width:3;stroke-miterlimit:4;stroke-opacity:1;stroke-dasharray:none;stroke-linecap:round"
         d="m 114.88221,1044.2231 0,11.1043 -3.02247,0 0,-11.0058 c -2e-5,-1.7411 -0.3395,-3.0443 -1.01845,-3.9095 -0.67897,-0.8651 -1.69741,-1.2976 -3.05532,-1.2977 -1.63171,10e-5 -2.91845,0.5202 -3.86023,1.5606 -0.94179,1.0403 -1.41268,2.4585 -1.41268,4.2544 l 0,10.398 -3.0389,0 0,-18.3977 3.0389,0 0,2.8582 c 0.72276,-1.106 1.57146,-1.9328 2.54611,-2.4804 0.98558,-0.5475 2.119,-0.8213 3.40028,-0.8213 2.11353,0 3.71237,0.6571 4.79654,1.9712 1.08413,1.3032 1.6262,3.2251 1.62622,5.7657"
         inkscape:connector-curvature="0" />
      <path
         id="path3923"
         style="fill:#4467eb;fill-opacity:1;stroke:#ffffff;stroke-width:3;stroke-miterlimit:4;stroke-opacity:1;stroke-dasharray:none;stroke-linecap:round"
         d="m 123.93321,1031.7061 0,5.2236 6.22565,0 0,2.349 -6.22565,0 0,9.9873 c 0,1.5003 0.20259,2.464 0.60778,2.8911 0.41613,0.4271 1.25389,0.6406 2.51326,0.6406 l 3.10461,0 0,2.5297 -3.10461,0 c -2.33257,0 -3.94237,-0.4326 -4.82939,-1.2977 -0.88704,-0.8761 -1.33055,-2.464 -1.33055,-4.7637 l 0,-9.9873 -2.21757,0 0,-2.349 2.21757,0 0,-5.2236 3.0389,0"
         inkscape:connector-curvature="0" />
      <path
         id="path3925"
         style="fill:#4467eb;fill-opacity:1;stroke:#ffffff;stroke-width:3;stroke-miterlimit:4;stroke-opacity:1;stroke-dasharray:none;stroke-linecap:round"
         d="m 141.27958,1039.0487 c -1.62075,10e-5 -2.90202,0.6352 -3.8438,1.9055 -0.94179,1.2594 -1.41268,2.9897 -1.41267,5.1908 -1e-5,2.2011 0.46541,3.9369 1.39625,5.2072 0.94178,1.2594 2.22852,1.889 3.86022,1.889 1.60979,0 2.88558,-0.6351 3.82738,-1.9054 0.94177,-1.2703 1.41266,-3.0006 1.41268,-5.1908 -2e-5,-2.1792 -0.47091,-3.904 -1.41268,-5.1744 -0.9418,-1.2812 -2.21759,-1.9218 -3.82738,-1.9219 m 0,-2.5625 c 2.62823,0 4.69249,0.8542 6.19279,2.5625 1.50027,1.7084 2.25041,4.0738 2.25043,7.0963 -2e-5,3.0115 -0.75016,5.3769 -2.25043,7.0962 -1.5003,1.7084 -3.56456,2.5626 -6.19279,2.5626 -2.63919,0 -4.70893,-0.8542 -6.20921,-2.5626 -1.48934,-1.7193 -2.23401,-4.0847 -2.234,-7.0962 -10e-6,-3.0225 0.74466,-5.3879 2.234,-7.0963 1.50028,-1.7083 3.57002,-2.5625 6.20921,-2.5625"
         inkscape:connector-curvature="0" />
      <path
         id="path3927"
         style="fill:#4467eb;fill-opacity:1;stroke:#ffffff;stroke-width:3;stroke-miterlimit:4;stroke-opacity:1;stroke-dasharray:none;stroke-linecap:round"
         d="m 170.00953,1044.2231 0,11.1043 -3.02247,0 0,-11.0058 c -2e-5,-1.7411 -0.3395,-3.0443 -1.01845,-3.9095 -0.67897,-0.8651 -1.69741,-1.2976 -3.05532,-1.2977 -1.63171,10e-5 -2.91845,0.5202 -3.86023,1.5606 -0.94179,1.0403 -1.41269,2.4585 -1.41268,4.2544 l 0,10.398 -3.0389,0 0,-18.3977 3.0389,0 0,2.8582 c 0.72276,-1.106 1.57146,-1.9328 2.54611,-2.4804 0.98558,-0.5475 2.119,-0.8213 3.40028,-0.8213 2.11353,0 3.71237,0.6571 4.79654,1.9712 1.08413,1.3032 1.6262,3.2251 1.62622,5.7657"
         inkscape:connector-curvature="0" />
      <path
         id="path3929"
         style="fill:#4467eb;fill-opacity:1;stroke:#ffffff;stroke-width:3;stroke-miterlimit:4;stroke-opacity:1;stroke-dasharray:none;stroke-linecap:round"
         d="m 198.88731,1039.7222 0,-9.9544 3.02247,0 0,25.5596 -3.02247,0 0,-2.7597 c -0.63518,1.0951 -1.44007,1.911 -2.4147,2.4476 -0.9637,0.5256 -2.1245,0.7885 -3.48242,0.7885 -2.22306,0 -4.03544,-0.8871 -5.43717,-2.6611 -1.39078,-1.7741 -2.08616,-4.1066 -2.08616,-6.9977 0,-2.8911 0.69538,-5.2236 2.08616,-6.9977 1.40173,-1.774 3.21411,-2.6611 5.43717,-2.6611 1.35792,0 2.51872,0.2683 3.48242,0.8049 0.97463,0.5257 1.77952,1.336 2.4147,2.4311 m -10.29942,6.4228 c 0,2.223 0.45446,3.9697 1.3634,5.24 0.91988,1.2594 2.17924,1.8891 3.7781,1.8891 1.59883,0 2.85819,-0.6297 3.77809,-1.8891 0.91987,-1.2703 1.37981,-3.017 1.37983,-5.24 -2e-5,-2.2231 -0.45996,-3.9643 -1.37983,-5.2236 -0.9199,-1.2703 -2.17926,-1.9055 -3.77809,-1.9055 -1.59886,0 -2.85822,0.6352 -3.7781,1.9055 -0.90894,1.2593 -1.3634,3.0005 -1.3634,5.2236"
         inkscape:connector-curvature="0" />
      <path
         id="path3931"
         style="fill:#4467eb;fill-opacity:1;stroke:#ffffff;stroke-width:3;stroke-miterlimit:4;stroke-opacity:1;stroke-dasharray:none;stroke-linecap:round"
         d="m 223.87201,1045.3729 0,1.4784 -13.89682,0 c 0.13141,2.0807 0.75562,3.6686 1.87262,4.7637 1.12795,1.0842 2.69394,1.6262 4.69798,1.6262 1.16079,0 2.28327,-0.1423 3.36743,-0.4271 1.09509,-0.2847 2.17923,-0.7118 3.25245,-1.2812 l 0,2.8582 c -1.08417,0.4599 -2.19569,0.8104 -3.33458,1.0513 -1.13892,0.2409 -2.29425,0.3614 -3.46599,0.3614 -2.93488,0 -5.26196,-0.8542 -6.98126,-2.5626 -1.70836,-1.7083 -2.56254,-4.019 -2.56253,-6.9319 -1e-5,-3.0116 0.81037,-5.3989 2.43112,-7.162 1.63169,-1.774 3.82736,-2.6611 6.58702,-2.6611 2.47491,0 4.42966,0.7995 5.86426,2.3983 1.44551,1.5879 2.16828,3.7507 2.1683,6.4884 m -3.02248,-0.887 c -0.0219,-1.6536 -0.48733,-2.9732 -1.39625,-3.9588 -0.898,-0.9855 -2.09165,-1.4783 -3.58098,-1.4784 -1.68646,10e-5 -3.03891,0.4764 -4.05734,1.4291 -1.0075,0.9528 -1.5879,2.2943 -1.74121,4.0245 l 10.77578,-0.016"
         inkscape:connector-curvature="0" />
      <path
         id="path3933"
         style="fill:#4467eb;fill-opacity:1;stroke:#ffffff;stroke-width:3;stroke-miterlimit:4;stroke-opacity:1;stroke-dasharray:none;stroke-linecap:round"
         d="m 239.54288,1029.7678 3.02248,0 0,25.5596 -3.02248,0 0,-25.5596"
         inkscape:connector-curvature="0" />
      <path
         id="path3935"
         style="fill:#4467eb;fill-opacity:1;stroke:#ffffff;stroke-width:3;stroke-linecap:round;stroke-miterlimit:4;stroke-opacity:1;stroke-dasharray:none"
         d="m 248.56102,1048.0669 0,-11.1372 3.02248,0 0,11.0222 c -10e-6,1.7412 0.33947,3.0499 1.01844,3.9259 0.67896,0.8652 1.6974,1.2977 3.05533,1.2977 1.63169,0 2.91843,-0.5201 3.86022,-1.5605 0.95273,-1.0403 1.42909,-2.4585 1.42911,-4.2545 l 0,-10.4308 3.02247,0 0,18.3977 -3.02247,0 0,-2.8254 c -0.73373,1.117 -1.58791,1.9493 -2.56253,2.4969 -0.9637,0.5366 -2.08618,0.8049 -3.36743,0.8049 -2.11355,0 -3.71787,-0.6571 -4.81297,-1.9712 -1.0951,-1.3141 -1.64265,-3.236 -1.64265,-5.7657"
         inkscape:connector-curvature="0"
         sodipodi:nodetypes="cccscsccccccccssc" />
      <path
         id="path3937"
         style="fill:#4467eb;fill-opacity:1;stroke:#ffffff;stroke-width:3;stroke-miterlimit:4;stroke-opacity:1;stroke-dasharray:none;stroke-linecap:round"
         d="m 282.3339,1039.7222 0,-9.9544 3.02247,0 0,25.5596 -3.02247,0 0,-2.7597 c -0.63517,1.0951 -1.44007,1.911 -2.4147,2.4476 -0.96369,0.5256 -2.1245,0.7885 -3.48241,0.7885 -2.22306,0 -4.03545,-0.8871 -5.43717,-2.6611 -1.39078,-1.7741 -2.08617,-4.1066 -2.08617,-6.9977 0,-2.8911 0.69539,-5.2236 2.08617,-6.9977 1.40172,-1.774 3.21411,-2.6611 5.43717,-2.6611 1.35791,0 2.51872,0.2683 3.48241,0.8049 0.97463,0.5257 1.77953,1.336 2.4147,2.4311 m -10.29941,6.4228 c -1e-5,2.223 0.45446,3.9697 1.3634,5.24 0.91987,1.2594 2.17924,1.8891 3.77809,1.8891 1.59883,0 2.8582,-0.6297 3.77809,-1.8891 0.91987,-1.2703 1.37981,-3.017 1.37983,-5.24 -2e-5,-2.2231 -0.45996,-3.9643 -1.37983,-5.2236 -0.91989,-1.2703 -2.17926,-1.9055 -3.77809,-1.9055 -1.59885,0 -2.85822,0.6352 -3.77809,1.9055 -0.90894,1.2593 -1.36341,3.0005 -1.3634,5.2236"
         inkscape:connector-curvature="0" />
      <path
         id="path3939"
         style="fill:#4467eb;fill-opacity:1;stroke:#ffffff;stroke-width:3;stroke-miterlimit:4;stroke-opacity:1;stroke-dasharray:none;stroke-linecap:round"
         d="m 299.94309,1046.0793 c -2.44208,0 -4.13401,0.2792 -5.07579,0.8377 -0.94179,0.5585 -1.41268,1.5113 -1.41268,2.8582 0,1.0732 0.35043,1.9274 1.0513,2.5626 0.71181,0.6242 1.67549,0.9363 2.89106,0.9363 1.67549,0 3.01699,-0.5914 4.02449,-1.7741 1.01843,-1.1936 1.52765,-2.776 1.52767,-4.7472 l 0,-0.6735 -3.00605,0 m 6.02852,-1.2484 0,10.4965 -3.02247,0 0,-2.7925 c -0.68993,1.117 -1.54958,1.9438 -2.57896,2.4804 -1.02941,0.5256 -2.28877,0.7885 -3.7781,0.7885 -1.88357,0 -3.38386,-0.5257 -4.50085,-1.577 -1.10606,-1.0622 -1.65908,-2.4804 -1.65908,-4.2544 0,-2.0698 0.68991,-3.6303 2.06974,-4.6816 1.39077,-1.0513 3.46051,-1.5769 6.20921,-1.5769 l 4.23804,0 0,-0.2957 c -2e-5,-1.3908 -0.45996,-2.464 -1.37983,-3.2196 -0.90894,-0.7666 -2.19021,-1.1498 -3.8438,-1.1499 -1.0513,10e-5 -2.07522,0.126 -3.07175,0.3779 -0.99655,0.2518 -1.95476,0.6297 -2.87464,1.1334 l 0,-2.7925 c 1.10605,-0.4271 2.17924,-0.7447 3.21959,-0.9528 1.04034,-0.219 2.05331,-0.3285 3.03891,-0.3285 2.66108,0 4.64868,0.6899 5.96281,2.0697 1.31411,1.3799 1.97117,3.4715 1.97118,6.275"
         inkscape:connector-curvature="0" />
      <path
         id="path3941"
         style="fill:#4467eb;fill-opacity:1;stroke:#ffffff;stroke-width:3;stroke-miterlimit:4;stroke-opacity:1;stroke-dasharray:none;stroke-linecap:round"
         d="m 327.50675,1044.2231 0,11.1043 -3.02247,0 0,-11.0058 c -2e-5,-1.7411 -0.3395,-3.0443 -1.01844,-3.9095 -0.67898,-0.8651 -1.69742,-1.2976 -3.05533,-1.2977 -1.63171,10e-5 -2.91845,0.5202 -3.86023,1.5606 -0.94179,1.0403 -1.41268,2.4585 -1.41268,4.2544 l 0,10.398 -3.0389,0 0,-18.3977 3.0389,0 0,2.8582 c 0.72276,-1.106 1.57146,-1.9328 2.54611,-2.4804 0.98558,-0.5475 2.11901,-0.8213 3.40028,-0.8213 2.11353,0 3.71238,0.6571 4.79654,1.9712 1.08413,1.3032 1.62621,3.2251 1.62622,5.7657"
         inkscape:connector-curvature="0" />
      <path
         id="path3943"
         style="fill:#4467eb;fill-opacity:1;stroke:#ffffff;stroke-width:3;stroke-miterlimit:4;stroke-opacity:1;stroke-dasharray:none;stroke-linecap:round"
         d="m 336.55774,1031.7061 0,5.2236 6.22564,0 0,2.349 -6.22564,0 0,9.9873 c -1e-5,1.5003 0.20259,2.464 0.60778,2.8911 0.41613,0.4271 1.25388,0.6406 2.51325,0.6406 l 3.10461,0 0,2.5297 -3.10461,0 c -2.33256,0 -3.94236,-0.4326 -4.82938,-1.2977 -0.88704,-0.8761 -1.33055,-2.464 -1.33055,-4.7637 l 0,-9.9873 -2.21758,0 0,-2.349 2.21758,0 0,-5.2236 3.0389,0"
         inkscape:connector-curvature="0" />
      <path
         id="path3945"
         style="fill:#4467eb;fill-opacity:1;stroke:#ffffff;stroke-width:3;stroke-miterlimit:4;stroke-opacity:1;stroke-dasharray:none;stroke-linecap:round"
         d="m 353.90413,1039.0487 c -1.62076,10e-5 -2.90202,0.6352 -3.8438,1.9055 -0.94179,1.2594 -1.41269,2.9897 -1.41268,5.1908 -10e-6,2.2011 0.46541,3.9369 1.39625,5.2072 0.94178,1.2594 2.22852,1.889 3.86023,1.889 1.60978,0 2.88557,-0.6351 3.82737,-1.9054 0.94177,-1.2703 1.41266,-3.0006 1.41268,-5.1908 -2e-5,-2.1792 -0.47091,-3.904 -1.41268,-5.1744 -0.9418,-1.2812 -2.21759,-1.9218 -3.82737,-1.9219 m 0,-2.5625 c 2.62822,0 4.69248,0.8542 6.19278,2.5625 1.50027,1.7084 2.25042,4.0738 2.25043,7.0963 -10e-6,3.0115 -0.75016,5.3769 -2.25043,7.0962 -1.5003,1.7084 -3.56456,2.5626 -6.19278,2.5626 -2.6392,0 -4.70894,-0.8542 -6.20922,-2.5626 -1.48934,-1.7193 -2.234,-4.0847 -2.234,-7.0962 0,-3.0225 0.74466,-5.3879 2.234,-7.0963 1.50028,-1.7083 3.57002,-2.5625 6.20922,-2.5625"
         inkscape:connector-curvature="0" />
      <path
         id="path3947"
         style="fill:#4467eb;fill-opacity:1;stroke:#ffffff;stroke-width:3;stroke-miterlimit:4;stroke-opacity:1;stroke-dasharray:none;stroke-linecap:round"
         d="m 367.34101,1036.9297 3.02247,0 0,18.7262 c 0,2.3435 -0.44899,4.0409 -1.34697,5.0922 -0.88704,1.0513 -2.32161,1.577 -4.30374,1.577 l -1.14986,0 0,-2.5625 0.8049,0 c 1.14985,-10e-5 1.93285,-0.2684 2.34899,-0.8049 0.41613,-0.5257 0.6242,-1.6263 0.62421,-3.3018 l 0,-18.7262 m 0,-7.1619 3.02247,0 0,3.8273 -3.02247,0 0,-3.8273"
         inkscape:connector-curvature="0" />
    </g>
    <g
       style="font-size:33.64146042px;font-style:normal;font-weight:normal;text-align:center;line-height:125%;letter-spacing:0px;word-spacing:0px;text-anchor:middle;fill:#4467eb;fill-opacity:1;stroke:none;font-family:Sans"
       id="text3013">
      <path
         d="m 32.043399,1010.5159 0,9.7574 -3.038901,0 0,-25.3954 3.038901,0 0,2.7925 c 0.635152,-1.09508 1.434573,-1.90545 2.398269,-2.43112 0.974629,-0.53658 2.135433,-0.80488 3.482416,-0.8049 2.233989,2e-5 4.046378,0.88705 5.43717,2.6611 1.401709,1.77407 2.102572,4.10662 2.102591,6.99772 -1.9e-5,2.891 -0.700882,5.2236 -2.102591,6.9976 -1.390792,1.7741 -3.203181,2.6611 -5.43717,2.6611 -1.346983,0 -2.507787,-0.2628 -3.482416,-0.7884 -0.963696,-0.5366 -1.763117,-1.3525 -2.398269,-2.4476 m 10.282986,-6.4227 c -1.6e-5,-2.2231 -0.459958,-3.9643 -1.379826,-5.22366 -0.908946,-1.2703 -2.162834,-1.90546 -3.761667,-1.90548 -1.598855,2e-5 -2.858218,0.63518 -3.778094,1.90548 -0.908939,1.25936 -1.363405,3.00056 -1.363399,5.22366 -6e-6,2.223 0.45446,3.9697 1.363399,5.24 0.919876,1.2594 2.179239,1.8891 3.778094,1.8891 1.598833,0 2.852721,-0.6297 3.761667,-1.8891 0.919868,-1.2703 1.37981,-3.017 1.379826,-5.24"
         style="fill:#4467eb;fill-opacity:1"
         id="path3020"
         inkscape:connector-curvature="0" />
      <path
         d="m 50.161823,1006.0151 0,-11.1372 3.022475,0 0,11.0222 c -6e-6,1.7412 0.339474,3.0498 1.018442,3.9259 0.678954,0.8651 1.697396,1.2977 3.055328,1.2977 1.631687,0 2.918428,-0.5202 3.860226,-1.5605 0.952722,-1.0404 1.42909,-2.4585 1.429105,-4.2545 l 0,-10.4308 3.022475,0 0,18.3977 -3.022475,0 0,-2.8254 c -0.733731,1.117 -1.587908,1.9493 -2.562533,2.4968 -0.963699,0.5366 -2.086175,0.8049 -3.367431,0.8049 -2.11355,0 -3.717869,-0.657 -4.812963,-1.9711 -1.095103,-1.3142 -1.642652,-3.2361 -1.642649,-5.7657 m 7.605467,-11.58072 0,0"
         style="fill:#4467eb;fill-opacity:1"
         id="path3022"
         inkscape:connector-curvature="0" />
      <path
         d="m 76.46064,986.36898 2.431121,0 4.024491,6.17636 -2.283282,0 -2.956769,-4.02449 -2.956769,4.02449 -2.283283,0 4.024491,-6.17636 m 7.096246,9.05099 0,2.85821 c -0.854192,-0.43802 -1.741222,-0.76655 -2.661092,-0.98559 -0.919895,-0.219 -1.872631,-0.32851 -2.85821,-0.32853 -1.500295,2e-5 -2.628246,0.22999 -3.383858,0.68992 -0.744673,0.45995 -1.117007,1.14987 -1.117002,2.06974 -5e-6,0.70088 0.268294,1.25388 0.804898,1.65908 0.536593,0.3942 1.615265,0.772 3.23602,1.1334 l 1.034869,0.23 c 2.146383,0.4599 3.66857,1.1115 4.566565,1.9547 0.908918,0.8323 1.363383,1.9986 1.363399,3.4989 -1.6e-5,1.7083 -0.678977,3.0608 -2.036885,4.0573 -1.346985,0.9966 -3.203177,1.4948 -5.568582,1.4948 -0.985597,0 -2.014989,-0.098 -3.088181,-0.2956 -1.06225,-0.1862 -2.184726,-0.4709 -3.367431,-0.8542 l 0,-3.121 c 1.116999,0.5804 2.217573,1.0184 3.301725,1.3141 1.084143,0.2847 2.157339,0.4271 3.219593,0.4271 1.42362,0 2.518719,-0.241 3.285299,-0.7228 0.766558,-0.4928 1.149842,-1.1827 1.149855,-2.0697 -1.3e-5,-0.8214 -0.279263,-1.451 -0.837751,-1.8891 -0.547562,-0.438 -1.757645,-0.8596 -3.630256,-1.2648 l -1.051295,-0.2464 c -1.872626,-0.3943 -3.225073,-0.9966 -4.057344,-1.8069 -0.832278,-0.8214 -1.248416,-1.9438 -1.248414,-3.36747 -2e-6,-1.73024 0.613253,-3.06626 1.839767,-4.00807 1.226507,-0.94176 2.967714,-1.41266 5.223626,-1.41268 1.116991,2e-5 2.168286,0.0822 3.153887,0.2464 0.985576,0.16429 1.894508,0.41068 2.726798,0.73919"
         style="fill:#4467eb;fill-opacity:1"
         id="path3024"
         inkscape:connector-curvature="0" />
      <path
         d="m 89.05976,1006.0151 0,-11.1372 3.022475,0 0,11.0222 c -5e-6,1.7412 0.339475,3.0498 1.018443,3.9259 0.678954,0.8651 1.697396,1.2977 3.055328,1.2977 1.631687,0 2.918428,-0.5202 3.860224,-1.5605 0.95272,-1.0404 1.42909,-2.4585 1.42911,-4.2545 l 0,-10.4308 3.02247,0 0,18.3977 -3.02247,0 0,-2.8254 c -0.73373,1.117 -1.587911,1.9493 -2.562536,2.4968 -0.963699,0.5366 -2.086175,0.8049 -3.367431,0.8049 -2.11355,0 -3.717869,-0.657 -4.812963,-1.9711 -1.095103,-1.3142 -1.642652,-3.2361 -1.64265,-5.7657 m 7.605467,-11.58072 0,0"
         style="fill:#4467eb;fill-opacity:1"
         id="path3026"
         inkscape:connector-curvature="0" />
      <path
         d="m 122.43839,1010.4831 5.42075,0 0,-18.70981 -5.89711,1.18271 0,-3.02247 5.86425,-1.18271 3.31816,0 0,21.73228 5.42074,0 0,2.7925 -14.12679,0 0,-2.7925"
         style="fill:#4467eb;fill-opacity:1"
         id="path3028"
         inkscape:connector-curvature="0" />
      <path
         d="m 141.32886,1002.7133 8.85389,0 0,2.694 -8.85389,0 0,-2.694"
         style="fill:#4467eb;fill-opacity:1"
         id="path3030"
         inkscape:connector-curvature="0" />
      <path
         d="m 164.55593,991.64188 -8.37751,13.09192 8.37751,0 0,-13.09192 m -0.8706,-2.89106 4.17233,0 0,15.98298 3.49884,0 0,2.7596 -3.49884,0 0,5.7822 -3.30173,0 0,-5.7822 -11.07146,0 0,-3.2031 10.20086,-15.53948"
         style="fill:#4467eb;fill-opacity:1"
         id="path3032"
         inkscape:connector-curvature="0" />
      <path
         d="m 190.06627,1010.5159 0,9.7574 -3.0389,0 0,-25.3954 3.0389,0 0,2.7925 c 0.63515,-1.09508 1.43458,-1.90545 2.39827,-2.43112 0.97463,-0.53658 2.13543,-0.80488 3.48242,-0.8049 2.23399,2e-5 4.04637,0.88705 5.43717,2.6611 1.40171,1.77407 2.10257,4.10662 2.10259,6.99772 -2e-5,2.891 -0.70088,5.2236 -2.10259,6.9976 -1.3908,1.7741 -3.20318,2.6611 -5.43717,2.6611 -1.34699,0 -2.50779,-0.2628 -3.48242,-0.7884 -0.96369,-0.5366 -1.76312,-1.3525 -2.39827,-2.4476 m 10.28299,-6.4227 c -2e-5,-2.2231 -0.45996,-3.9643 -1.37983,-5.22366 -0.90894,-1.2703 -2.16283,-1.90546 -3.76166,-1.90548 -1.59886,2e-5 -2.85822,0.63518 -3.7781,1.90548 -0.90894,1.25936 -1.3634,3.00056 -1.3634,5.22366 0,2.223 0.45446,3.9697 1.3634,5.24 0.91988,1.2594 2.17924,1.8891 3.7781,1.8891 1.59883,0 2.85272,-0.6297 3.76166,-1.8891 0.91987,-1.2703 1.37981,-3.017 1.37983,-5.24"
         style="fill:#4467eb;fill-opacity:1"
         id="path3034"
         inkscape:connector-curvature="0" />
      <path
         d="m 215.6259,996.99692 c -1.62075,10e-6 -2.90202,0.63517 -3.8438,1.90547 -0.94179,1.25941 -1.41268,2.98961 -1.41268,5.19081 0,2.2011 0.46541,3.9369 1.39626,5.2072 0.94177,1.2593 2.22851,1.889 3.86022,1.889 1.60979,0 2.88558,-0.6351 3.82737,-1.9055 0.94178,-1.2703 1.41267,-3.0005 1.41268,-5.1907 -1e-5,-2.1793 -0.4709,-3.9041 -1.41268,-5.17438 -0.94179,-1.28125 -2.21758,-1.92189 -3.82737,-1.9219 m 0,-2.56254 c 2.62823,2e-5 4.69249,0.8542 6.19279,2.56254 1.50027,1.70837 2.25041,4.07378 2.25043,7.09628 -2e-5,3.0115 -0.75016,5.3769 -2.25043,7.0962 -1.5003,1.7084 -3.56456,2.5625 -6.19279,2.5625 -2.6392,0 -4.70893,-0.8541 -6.20921,-2.5625 -1.48934,-1.7193 -2.23401,-4.0847 -2.23401,-7.0962 0,-3.0225 0.74467,-5.38791 2.23401,-7.09628 1.50028,-1.70834 3.57001,-2.56252 6.20921,-2.56254"
         style="fill:#4467eb;fill-opacity:1"
         id="path3036"
         inkscape:connector-curvature="0" />
      <path
         d="m 239.72356,997.70326 c -0.33949,-0.19711 -0.71183,-0.33947 -1.117,-0.42709 -0.39425,-0.0985 -0.83229,-0.14782 -1.31412,-0.14784 -1.70836,2e-5 -3.02248,0.55852 -3.94236,1.6755 -0.90894,1.10607 -1.3634,2.69947 -1.3634,4.78007 l 0,9.6917 -3.0389,0 0,-18.3977 3.0389,0 0,2.85821 c 0.63515,-1.11698 1.46195,-1.94378 2.4804,-2.4804 1.01844,-0.54753 2.2559,-0.82131 3.71239,-0.82133 0.20806,2e-5 0.43803,0.0164 0.68991,0.0493 0.25186,0.0219 0.53111,0.0602 0.83775,0.11499 l 0.0164,3.10461"
         style="fill:#4467eb;fill-opacity:1"
         id="path3038"
         inkscape:connector-curvature="0" />
      <path
         d="m 269.37338,1003.3211 0,1.4784 -13.89681,0 c 0.13141,2.0807 0.75561,3.6686 1.87262,4.7637 1.12794,1.0841 2.69394,1.6262 4.69798,1.6262 1.16079,0 2.28327,-0.1424 3.36743,-0.4271 1.09508,-0.2847 2.17923,-0.7118 3.25244,-1.2812 l 0,2.8582 c -1.08416,0.4599 -2.19569,0.8103 -3.33457,1.0513 -1.13892,0.2409 -2.29425,0.3613 -3.46599,0.3613 -2.93488,0 -5.26196,-0.8541 -6.98126,-2.5625 -1.70836,-1.7083 -2.56254,-4.019 -2.56254,-6.932 0,-3.0115 0.81037,-5.3988 2.43112,-7.16192 1.6317,-1.77405 3.82737,-2.66108 6.58703,-2.6611 2.47491,2e-5 4.42966,0.79945 5.86426,2.39827 1.44551,1.58791 2.16827,3.75075 2.16829,6.48845 m -3.02247,-0.887 c -0.0219,-1.6536 -0.48734,-2.97319 -1.39625,-3.9588 -0.898,-0.98557 -2.09166,-1.47837 -3.58098,-1.47838 -1.68646,10e-6 -3.03891,0.47638 -4.05734,1.4291 -1.0075,0.95275 -1.5879,2.29428 -1.74121,4.02448 l 10.77578,-0.016"
         style="fill:#4467eb;fill-opacity:1"
         id="path3040"
         inkscape:connector-curvature="0" />
      <path
         d="m 274.33419,987.71595 3.02247,0 0,25.55965 -3.02247,0 0,-25.55965"
         style="fill:#4467eb;fill-opacity:1"
         id="path3042"
         inkscape:connector-curvature="0" />
      <path
         d="m 299.40102,1003.3211 0,1.4784 -13.89682,0 c 0.13141,2.0807 0.75562,3.6686 1.87262,4.7637 1.12795,1.0841 2.69394,1.6262 4.69798,1.6262 1.16079,0 2.28327,-0.1424 3.36743,-0.4271 1.09509,-0.2847 2.17923,-0.7118 3.25245,-1.2812 l 0,2.8582 c -1.08417,0.4599 -2.19569,0.8103 -3.33458,1.0513 -1.13892,0.2409 -2.29425,0.3613 -3.46599,0.3613 -2.93488,0 -5.26196,-0.8541 -6.98126,-2.5625 -1.70836,-1.7083 -2.56254,-4.019 -2.56253,-6.932 -1e-5,-3.0115 0.81037,-5.3988 2.43112,-7.16192 1.63169,-1.77405 3.82736,-2.66108 6.58702,-2.6611 2.47491,2e-5 4.42966,0.79945 5.86426,2.39827 1.44551,1.58791 2.16828,3.75075 2.1683,6.48845 m -3.02248,-0.887 c -0.0219,-1.6536 -0.48733,-2.97319 -1.39625,-3.9588 -0.89799,-0.98557 -2.09165,-1.47837 -3.58098,-1.47838 -1.68646,10e-6 -3.0389,0.47638 -4.05734,1.4291 -1.0075,0.95275 -1.5879,2.29428 -1.74121,4.02448 l 10.77578,-0.016"
         style="fill:#4467eb;fill-opacity:1"
         id="path3044"
         inkscape:connector-curvature="0" />
      <path
         d="m 304.24684,987.71595 3.0389,0 0,15.09595 9.01814,-7.934 3.86023,0 -9.75734,8.6075 10.168,9.7902 -3.94236,0 -9.34667,-8.9853 0,8.9853 -3.0389,0 0,-25.55965"
         style="fill:#4467eb;fill-opacity:1"
         id="path3046"
         inkscape:connector-curvature="0" />
      <path
         d="m 326.86612,989.65427 0,5.22363 6.22565,0 0,2.34899 -6.22565,0 0,9.98731 c 0,1.5003 0.20259,2.464 0.60778,2.8911 0.41614,0.4271 1.25389,0.6406 2.51326,0.6406 l 3.10461,0 0,2.5297 -3.10461,0 c -2.33257,0 -3.94237,-0.4326 -4.82939,-1.2977 -0.88704,-0.8761 -1.33055,-2.464 -1.33055,-4.7637 l 0,-9.98731 -2.21757,0 0,-2.34899 2.21757,0 0,-5.22363 3.0389,0"
         style="fill:#4467eb;fill-opacity:1"
         id="path3048"
         inkscape:connector-curvature="0" />
      <path
         d="m 337.08341,994.8779 3.02248,0 0,18.3977 -3.02248,0 0,-18.3977 m 0,-7.16195 3.02248,0 0,3.82737 -3.02248,0 0,-3.82737"
         style="fill:#4467eb;fill-opacity:1"
         id="path3050"
         inkscape:connector-curvature="0" />
      <path
         d="m -1.1381191,1029.7678 3.0224749,0 0,25.5596 -3.0224749,0 0,-25.5596"
         style="fill:#4467eb;fill-opacity:1"
         id="path3052"
         inkscape:connector-curvature="0" />
      <path
         d="m 16.553215,1046.0793 c -2.442081,0 -4.134008,0.2792 -5.075786,0.8377 -0.941792,0.5585 -1.412684,1.5113 -1.412679,2.8582 -5e-6,1.0732 0.350427,1.9274 1.051296,2.5626 0.711808,0.6242 1.675494,0.9363 2.891063,0.9363 1.675491,0 3.016987,-0.5914 4.024491,-1.7741 1.018428,-1.1936 1.527649,-2.776 1.527664,-4.7472 l 0,-0.6735 -3.006049,0 m 6.028524,-1.2484 0,10.4965 -3.022475,0 0,-2.7925 c -0.689927,1.117 -1.549579,1.9438 -2.57896,2.4804 -1.029404,0.5256 -2.288768,0.7885 -3.778094,0.7885 -1.883577,0 -3.3838621,-0.5257 -4.500859,-1.577 -1.1060532,-1.0622 -1.6590779,-2.4804 -1.6590759,-4.2544 -2e-6,-2.0698 0.6899101,-3.6303 2.0697383,-4.6816 1.3907706,-1.0513 3.4605076,-1.5769 6.2092146,-1.5769 l 4.238036,0 0,-0.2957 c -1.5e-5,-1.3908 -0.459956,-2.464 -1.379826,-3.2196 -0.908945,-0.7666 -2.19021,-1.1498 -3.843799,-1.1499 -1.051304,10e-5 -2.075221,0.126 -3.071755,0.3779 -0.996546,0.2518 -1.954757,0.6297 -2.8746364,1.1334 l 0,-2.7925 c 1.1060462,-0.4271 2.1792424,-0.7447 3.2195934,-0.9528 1.040337,-0.219 2.053303,-0.3285 3.038901,-0.3285 2.66108,0 4.648684,0.6899 5.962817,2.0697 1.314103,1.3799 1.971162,3.4715 1.97118,6.275"
         style="fill:#4467eb;fill-opacity:1"
         id="path3054"
         inkscape:connector-curvature="0" />
      <path
         d="m 39.418896,1029.7678 3.038902,0 0,15.0959 9.018145,-7.934 3.860226,0 -9.757337,8.6075 10.168,9.7902 -3.942359,0 -9.346675,-8.9853 0,8.9853 -3.038902,0 0,-25.5596"
         style="fill:#4467eb;fill-opacity:1"
         id="path3056"
         inkscape:connector-curvature="0" />
      <path
         d="m 56.88026,1036.9297 3.203166,0 5.749273,15.4409 5.749273,-15.4409 3.203166,0 -6.899127,18.3977 -4.106624,0 -6.899127,-18.3977"
         style="fill:#4467eb;fill-opacity:1"
         id="path3058"
         inkscape:connector-curvature="0" />
      <path
         d="m 87.318555,1046.0793 c -2.442081,0 -4.134008,0.2792 -5.075787,0.8377 -0.941791,0.5585 -1.412683,1.5113 -1.412678,2.8582 -5e-6,1.0732 0.350426,1.9274 1.051296,2.5626 0.711808,0.6242 1.675494,0.9363 2.891063,0.9363 1.675491,0 3.016987,-0.5914 4.024491,-1.7741 1.018428,-1.1936 1.527649,-2.776 1.527664,-4.7472 l 0,-0.6735 -3.006049,0 m 6.028524,-1.2484 0,10.4965 -3.022475,0 0,-2.7925 c -0.689927,1.117 -1.549579,1.9438 -2.57896,2.4804 -1.029405,0.5256 -2.288768,0.7885 -3.778094,0.7885 -1.883577,0 -3.383862,-0.5257 -4.500859,-1.577 -1.106053,-1.0622 -1.659078,-2.4804 -1.659076,-4.2544 -2e-6,-2.0698 0.68991,-3.6303 2.069738,-4.6816 1.390771,-1.0513 3.460508,-1.5769 6.209215,-1.5769 l 4.238036,0 0,-0.2957 c -1.5e-5,-1.3908 -0.459956,-2.464 -1.379826,-3.2196 -0.908945,-0.7666 -2.19021,-1.1498 -3.8438,-1.1499 -1.051303,10e-5 -2.075221,0.126 -3.071754,0.3779 -0.996546,0.2518 -1.954757,0.6297 -2.874637,1.1334 l 0,-2.7925 c 1.106047,-0.4271 2.179243,-0.7447 3.219593,-0.9528 1.040337,-0.219 2.053304,-0.3285 3.038902,-0.3285 2.66108,0 4.648683,0.6899 5.962817,2.0697 1.314103,1.3799 1.971162,3.4715 1.97118,6.275"
         style="fill:#4467eb;fill-opacity:1"
         id="path3060"
         inkscape:connector-curvature="0" />
      <path
         d="m 114.88221,1044.2231 0,11.1043 -3.02247,0 0,-11.0058 c -2e-5,-1.7411 -0.3395,-3.0443 -1.01845,-3.9095 -0.67897,-0.8651 -1.69741,-1.2976 -3.05532,-1.2977 -1.63171,10e-5 -2.91845,0.5202 -3.86023,1.5606 -0.94179,1.0403 -1.41268,2.4585 -1.41268,4.2544 l 0,10.398 -3.0389,0 0,-18.3977 3.0389,0 0,2.8582 c 0.72276,-1.106 1.57146,-1.9328 2.54611,-2.4804 0.98558,-0.5475 2.119,-0.8213 3.40028,-0.8213 2.11353,0 3.71237,0.6571 4.79654,1.9712 1.08413,1.3032 1.6262,3.2251 1.62622,5.7657"
         style="fill:#4467eb;fill-opacity:1"
         id="path3062"
         inkscape:connector-curvature="0" />
      <path
         d="m 123.93321,1031.7061 0,5.2236 6.22565,0 0,2.349 -6.22565,0 0,9.9873 c 0,1.5003 0.20259,2.464 0.60778,2.8911 0.41613,0.4271 1.25389,0.6406 2.51326,0.6406 l 3.10461,0 0,2.5297 -3.10461,0 c -2.33257,0 -3.94237,-0.4326 -4.82939,-1.2977 -0.88704,-0.8761 -1.33055,-2.464 -1.33055,-4.7637 l 0,-9.9873 -2.21757,0 0,-2.349 2.21757,0 0,-5.2236 3.0389,0"
         style="fill:#4467eb;fill-opacity:1"
         id="path3064"
         inkscape:connector-curvature="0" />
      <path
         d="m 141.27958,1039.0487 c -1.62075,10e-5 -2.90202,0.6352 -3.8438,1.9055 -0.94179,1.2594 -1.41268,2.9897 -1.41267,5.1908 -1e-5,2.2011 0.46541,3.9369 1.39625,5.2072 0.94178,1.2594 2.22852,1.889 3.86022,1.889 1.60979,0 2.88558,-0.6351 3.82738,-1.9054 0.94177,-1.2703 1.41266,-3.0006 1.41268,-5.1908 -2e-5,-2.1792 -0.47091,-3.904 -1.41268,-5.1744 -0.9418,-1.2812 -2.21759,-1.9218 -3.82738,-1.9219 m 0,-2.5625 c 2.62823,0 4.69249,0.8542 6.19279,2.5625 1.50027,1.7084 2.25041,4.0738 2.25043,7.0963 -2e-5,3.0115 -0.75016,5.3769 -2.25043,7.0962 -1.5003,1.7084 -3.56456,2.5626 -6.19279,2.5626 -2.63919,0 -4.70893,-0.8542 -6.20921,-2.5626 -1.48934,-1.7193 -2.23401,-4.0847 -2.234,-7.0962 -10e-6,-3.0225 0.74466,-5.3879 2.234,-7.0963 1.50028,-1.7083 3.57002,-2.5625 6.20921,-2.5625"
         style="fill:#4467eb;fill-opacity:1"
         id="path3066"
         inkscape:connector-curvature="0" />
      <path
         d="m 170.00953,1044.2231 0,11.1043 -3.02247,0 0,-11.0058 c -2e-5,-1.7411 -0.3395,-3.0443 -1.01845,-3.9095 -0.67897,-0.8651 -1.69741,-1.2976 -3.05532,-1.2977 -1.63171,10e-5 -2.91845,0.5202 -3.86023,1.5606 -0.94179,1.0403 -1.41269,2.4585 -1.41268,4.2544 l 0,10.398 -3.0389,0 0,-18.3977 3.0389,0 0,2.8582 c 0.72276,-1.106 1.57146,-1.9328 2.54611,-2.4804 0.98558,-0.5475 2.119,-0.8213 3.40028,-0.8213 2.11353,0 3.71237,0.6571 4.79654,1.9712 1.08413,1.3032 1.6262,3.2251 1.62622,5.7657"
         style="fill:#4467eb;fill-opacity:1"
         id="path3068"
         inkscape:connector-curvature="0" />
      <path
         d="m 198.88731,1039.7222 0,-9.9544 3.02247,0 0,25.5596 -3.02247,0 0,-2.7597 c -0.63518,1.0951 -1.44007,1.911 -2.4147,2.4476 -0.9637,0.5256 -2.1245,0.7885 -3.48242,0.7885 -2.22306,0 -4.03544,-0.8871 -5.43717,-2.6611 -1.39078,-1.7741 -2.08616,-4.1066 -2.08616,-6.9977 0,-2.8911 0.69538,-5.2236 2.08616,-6.9977 1.40173,-1.774 3.21411,-2.6611 5.43717,-2.6611 1.35792,0 2.51872,0.2683 3.48242,0.8049 0.97463,0.5257 1.77952,1.336 2.4147,2.4311 m -10.29942,6.4228 c 0,2.223 0.45446,3.9697 1.3634,5.24 0.91988,1.2594 2.17924,1.8891 3.7781,1.8891 1.59883,0 2.85819,-0.6297 3.77809,-1.8891 0.91987,-1.2703 1.37981,-3.017 1.37983,-5.24 -2e-5,-2.2231 -0.45996,-3.9643 -1.37983,-5.2236 -0.9199,-1.2703 -2.17926,-1.9055 -3.77809,-1.9055 -1.59886,0 -2.85822,0.6352 -3.7781,1.9055 -0.90894,1.2593 -1.3634,3.0005 -1.3634,5.2236"
         style="fill:#4467eb;fill-opacity:1"
         id="path3070"
         inkscape:connector-curvature="0" />
      <path
         d="m 223.87201,1045.3729 0,1.4784 -13.89682,0 c 0.13141,2.0807 0.75562,3.6686 1.87262,4.7637 1.12795,1.0842 2.69394,1.6262 4.69798,1.6262 1.16079,0 2.28327,-0.1423 3.36743,-0.4271 1.09509,-0.2847 2.17923,-0.7118 3.25245,-1.2812 l 0,2.8582 c -1.08417,0.4599 -2.19569,0.8104 -3.33458,1.0513 -1.13892,0.2409 -2.29425,0.3614 -3.46599,0.3614 -2.93488,0 -5.26196,-0.8542 -6.98126,-2.5626 -1.70836,-1.7083 -2.56254,-4.019 -2.56253,-6.9319 -1e-5,-3.0116 0.81037,-5.3989 2.43112,-7.162 1.63169,-1.774 3.82736,-2.6611 6.58702,-2.6611 2.47491,0 4.42966,0.7995 5.86426,2.3983 1.44551,1.5879 2.16828,3.7507 2.1683,6.4884 m -3.02248,-0.887 c -0.0219,-1.6536 -0.48733,-2.9732 -1.39625,-3.9588 -0.898,-0.9855 -2.09165,-1.4783 -3.58098,-1.4784 -1.68646,10e-5 -3.03891,0.4764 -4.05734,1.4291 -1.0075,0.9528 -1.5879,2.2943 -1.74121,4.0245 l 10.77578,-0.016"
         style="fill:#4467eb;fill-opacity:1"
         id="path3072"
         inkscape:connector-curvature="0" />
      <path
         d="m 239.54288,1029.7678 3.02248,0 0,25.5596 -3.02248,0 0,-25.5596"
         style="fill:#4467eb;fill-opacity:1"
         id="path3074"
         inkscape:connector-curvature="0" />
      <path
         d="m 248.56102,1048.0669 0,-11.1372 3.02248,0 0,11.0222 c -10e-6,1.7412 0.33947,3.0499 1.01844,3.9259 0.67896,0.8652 1.6974,1.2977 3.05533,1.2977 1.63169,0 2.91843,-0.5201 3.86022,-1.5605 0.95273,-1.0403 1.42909,-2.4585 1.42911,-4.2545 l 0,-10.4308 3.02247,0 0,18.3977 -3.02247,0 0,-2.8254 c -0.73373,1.117 -1.58791,1.9493 -2.56253,2.4969 -0.9637,0.5366 -2.08618,0.8049 -3.36743,0.8049 -2.11355,0 -3.71787,-0.6571 -4.81297,-1.9712 -1.0951,-1.3141 -1.64265,-3.236 -1.64265,-5.7657 m 7.60547,-11.5807 0,0"
         style="fill:#4467eb;fill-opacity:1"
         id="path3076"
         inkscape:connector-curvature="0" />
      <path
         d="m 282.3339,1039.7222 0,-9.9544 3.02247,0 0,25.5596 -3.02247,0 0,-2.7597 c -0.63517,1.0951 -1.44007,1.911 -2.4147,2.4476 -0.96369,0.5256 -2.1245,0.7885 -3.48241,0.7885 -2.22306,0 -4.03545,-0.8871 -5.43717,-2.6611 -1.39078,-1.7741 -2.08617,-4.1066 -2.08617,-6.9977 0,-2.8911 0.69539,-5.2236 2.08617,-6.9977 1.40172,-1.774 3.21411,-2.6611 5.43717,-2.6611 1.35791,0 2.51872,0.2683 3.48241,0.8049 0.97463,0.5257 1.77953,1.336 2.4147,2.4311 m -10.29941,6.4228 c -1e-5,2.223 0.45446,3.9697 1.3634,5.24 0.91987,1.2594 2.17924,1.8891 3.77809,1.8891 1.59883,0 2.8582,-0.6297 3.77809,-1.8891 0.91987,-1.2703 1.37981,-3.017 1.37983,-5.24 -2e-5,-2.2231 -0.45996,-3.9643 -1.37983,-5.2236 -0.91989,-1.2703 -2.17926,-1.9055 -3.77809,-1.9055 -1.59885,0 -2.85822,0.6352 -3.77809,1.9055 -0.90894,1.2593 -1.36341,3.0005 -1.3634,5.2236"
         style="fill:#4467eb;fill-opacity:1"
         id="path3078"
         inkscape:connector-curvature="0" />
      <path
         d="m 299.94309,1046.0793 c -2.44208,0 -4.13401,0.2792 -5.07579,0.8377 -0.94179,0.5585 -1.41268,1.5113 -1.41268,2.8582 0,1.0732 0.35043,1.9274 1.0513,2.5626 0.71181,0.6242 1.67549,0.9363 2.89106,0.9363 1.67549,0 3.01699,-0.5914 4.02449,-1.7741 1.01843,-1.1936 1.52765,-2.776 1.52767,-4.7472 l 0,-0.6735 -3.00605,0 m 6.02852,-1.2484 0,10.4965 -3.02247,0 0,-2.7925 c -0.68993,1.117 -1.54958,1.9438 -2.57896,2.4804 -1.02941,0.5256 -2.28877,0.7885 -3.7781,0.7885 -1.88357,0 -3.38386,-0.5257 -4.50085,-1.577 -1.10606,-1.0622 -1.65908,-2.4804 -1.65908,-4.2544 0,-2.0698 0.68991,-3.6303 2.06974,-4.6816 1.39077,-1.0513 3.46051,-1.5769 6.20921,-1.5769 l 4.23804,0 0,-0.2957 c -2e-5,-1.3908 -0.45996,-2.464 -1.37983,-3.2196 -0.90894,-0.7666 -2.19021,-1.1498 -3.8438,-1.1499 -1.0513,10e-5 -2.07522,0.126 -3.07175,0.3779 -0.99655,0.2518 -1.95476,0.6297 -2.87464,1.1334 l 0,-2.7925 c 1.10605,-0.4271 2.17924,-0.7447 3.21959,-0.9528 1.04034,-0.219 2.05331,-0.3285 3.03891,-0.3285 2.66108,0 4.64868,0.6899 5.96281,2.0697 1.31411,1.3799 1.97117,3.4715 1.97118,6.275"
         style="fill:#4467eb;fill-opacity:1"
         id="path3080"
         inkscape:connector-curvature="0" />
      <path
         d="m 327.50675,1044.2231 0,11.1043 -3.02247,0 0,-11.0058 c -2e-5,-1.7411 -0.3395,-3.0443 -1.01844,-3.9095 -0.67898,-0.8651 -1.69742,-1.2976 -3.05533,-1.2977 -1.63171,10e-5 -2.91845,0.5202 -3.86023,1.5606 -0.94179,1.0403 -1.41268,2.4585 -1.41268,4.2544 l 0,10.398 -3.0389,0 0,-18.3977 3.0389,0 0,2.8582 c 0.72276,-1.106 1.57146,-1.9328 2.54611,-2.4804 0.98558,-0.5475 2.11901,-0.8213 3.40028,-0.8213 2.11353,0 3.71238,0.6571 4.79654,1.9712 1.08413,1.3032 1.62621,3.2251 1.62622,5.7657"
         style="fill:#4467eb;fill-opacity:1"
         id="path3082"
         inkscape:connector-curvature="0" />
      <path
         d="m 336.55774,1031.7061 0,5.2236 6.22564,0 0,2.349 -6.22564,0 0,9.9873 c -1e-5,1.5003 0.20259,2.464 0.60778,2.8911 0.41613,0.4271 1.25388,0.6406 2.51325,0.6406 l 3.10461,0 0,2.5297 -3.10461,0 c -2.33256,0 -3.94236,-0.4326 -4.82938,-1.2977 -0.88704,-0.8761 -1.33055,-2.464 -1.33055,-4.7637 l 0,-9.9873 -2.21758,0 0,-2.349 2.21758,0 0,-5.2236 3.0389,0"
         style="fill:#4467eb;fill-opacity:1"
         id="path3084"
         inkscape:connector-curvature="0" />
      <path
         d="m 353.90413,1039.0487 c -1.62076,10e-5 -2.90202,0.6352 -3.8438,1.9055 -0.94179,1.2594 -1.41269,2.9897 -1.41268,5.1908 -10e-6,2.2011 0.46541,3.9369 1.39625,5.2072 0.94178,1.2594 2.22852,1.889 3.86023,1.889 1.60978,0 2.88557,-0.6351 3.82737,-1.9054 0.94177,-1.2703 1.41266,-3.0006 1.41268,-5.1908 -2e-5,-2.1792 -0.47091,-3.904 -1.41268,-5.1744 -0.9418,-1.2812 -2.21759,-1.9218 -3.82737,-1.9219 m 0,-2.5625 c 2.62822,0 4.69248,0.8542 6.19278,2.5625 1.50027,1.7084 2.25042,4.0738 2.25043,7.0963 -10e-6,3.0115 -0.75016,5.3769 -2.25043,7.0962 -1.5003,1.7084 -3.56456,2.5626 -6.19278,2.5626 -2.6392,0 -4.70894,-0.8542 -6.20922,-2.5626 -1.48934,-1.7193 -2.234,-4.0847 -2.234,-7.0962 0,-3.0225 0.74466,-5.3879 2.234,-7.0963 1.50028,-1.7083 3.57002,-2.5625 6.20922,-2.5625"
         style="fill:#4467eb;fill-opacity:1"
         id="path3086"
         inkscape:connector-curvature="0" />
      <path
         d="m 367.34101,1036.9297 3.02247,0 0,18.7262 c 0,2.3435 -0.44899,4.0409 -1.34697,5.0922 -0.88704,1.0513 -2.32161,1.577 -4.30374,1.577 l -1.14986,0 0,-2.5625 0.8049,0 c 1.14985,-10e-5 1.93285,-0.2684 2.34899,-0.8049 0.41613,-0.5257 0.6242,-1.6263 0.62421,-3.3018 l 0,-18.7262 m 0,-7.1619 3.02247,0 0,3.8273 -3.02247,0 0,-3.8273"
         style="fill:#4467eb;fill-opacity:1"
         id="path3088"
         inkscape:connector-curvature="0" />
    </g>
  </g>
</svg>
