<?xml version="1.0" encoding="UTF-8" standalone="no"?>
<!-- Created with Inkscape (http://www.inkscape.org/) -->

<svg
   xmlns:dc="http://purl.org/dc/elements/1.1/"
   xmlns:cc="http://creativecommons.org/ns#"
   xmlns:rdf="http://www.w3.org/1999/02/22-rdf-syntax-ns#"
   xmlns:svg="http://www.w3.org/2000/svg"
   xmlns="http://www.w3.org/2000/svg"
   xmlns:sodipodi="http://sodipodi.sourceforge.net/DTD/sodipodi-0.dtd"
   xmlns:inkscape="http://www.inkscape.org/namespaces/inkscape"
   width="213.68076"
   height="93.590515"
   id="svg3439"
   version="1.1"
   inkscape:version="0.92+devel unknown"
   sodipodi:docname="press_a_button.svg">
  <defs
     id="defs3441" />
  <sodipodi:namedview
     id="base"
     pagecolor="#cb00c0"
     bordercolor="#666666"
     borderopacity="1.0"
     inkscape:pageopacity="0"
     inkscape:pageshadow="2"
     inkscape:zoom="4.4704592"
     inkscape:cx="51.103407"
     inkscape:cy="68.756739"
     inkscape:document-units="px"
     inkscape:current-layer="layer1"
     showgrid="false"
     inkscape:window-width="1366"
     inkscape:window-height="704"
     inkscape:window-x="0"
     inkscape:window-y="0"
     inkscape:window-maximized="1"
     fit-margin-top="2"
     fit-margin-left="2"
     fit-margin-right="2"
     fit-margin-bottom="2"
     inkscape:document-rotation="0" />
  <metadata
     id="metadata3444">
    <rdf:RDF>
      <cc:Work
         rdf:about="">
        <dc:format>image/svg+xml</dc:format>
        <dc:type
           rdf:resource="http://purl.org/dc/dcmitype/StillImage" />
        <dc:title></dc:title>
      </cc:Work>
    </rdf:RDF>
  </metadata>
  <g
     inkscape:label="Layer 1"
     inkscape:groupmode="layer"
     id="layer1"
     transform="translate(-6.6828991,-988.69917)">
    <g
       aria-label="puŝu butonon ĉe
la regilo de
ĉi tiu ludantoj"
       style="font-style:normal;font-variant:normal;font-weight:bold;font-stretch:normal;font-size:13.95512962px;line-height:120.00000477%;font-family:'Liberation Sans';-inkscape-font-specification:'Liberation Sans, Bold';font-variant-ligatures:normal;font-variant-position:normal;font-variant-caps:normal;font-variant-numeric:normal;font-variant-alternates:normal;font-feature-settings:normal;text-indent:0;text-align:center;text-decoration:none;text-decoration-line:none;text-decoration-style:solid;text-decoration-color:#000000;letter-spacing:0px;word-spacing:0px;text-transform:none;writing-mode:lr-tb;direction:ltr;text-orientation:mixed;dominant-baseline:auto;baseline-shift:baseline;text-anchor:middle;white-space:normal;shape-padding:0;opacity:1;vector-effect:none;fill:none;fill-opacity:1;stroke:#ffffff;stroke-width:1.29999995;stroke-linecap:butt;stroke-linejoin:miter;stroke-miterlimit:4;stroke-dasharray:none;stroke-dashoffset:0;stroke-opacity:1"
       id="text105"
       transform="matrix(1.8621474,0,0,1.8621474,-188.26167,-931.36897)">
      <path
         d="m 113.50043,1039.5265 q 0,0.8381 -0.17036,1.5468 -0.16353,0.7086 -0.51105,1.2197 -0.34751,0.511 -0.88582,0.804 -0.5315,0.2862 -1.2606,0.2862 -0.32707,0 -0.65414,-0.068 -0.32026,-0.068 -0.61327,-0.2181 -0.293,-0.1567 -0.54512,-0.402 -0.2453,-0.2521 -0.42247,-0.6201 h -0.0409 q 0.007,0.034 0.0136,0.1704 0.007,0.1363 0.0136,0.3202 0.007,0.1772 0.007,0.3816 0.007,0.1976 0.007,0.368 v 2.8278 h -1.91474 v -8.572 q 0,-0.5656 -0.0204,-1.0085 -0.0136,-0.4429 -0.0341,-0.6882 h 1.86023 q 0.0136,0.048 0.0272,0.1839 0.0204,0.1363 0.0273,0.3135 0.0136,0.1772 0.0204,0.368 0.007,0.1907 0.007,0.3338 h 0.0273 q 0.34752,-0.7291 0.95397,-1.0425 0.60645,-0.3135 1.40369,-0.3135 0.70184,0 1.21289,0.2862 0.51106,0.2862 0.83813,0.7905 0.33389,0.5042 0.49061,1.206 0.16354,0.6951 0.16354,1.5264 z m -1.99651,0 q 0,-1.2606 -0.38159,-1.8671 -0.38159,-0.6132 -1.13794,-0.6132 -0.28619,0 -0.57238,0.1226 -0.27938,0.1159 -0.50424,0.4089 -0.21805,0.2862 -0.36114,0.7768 -0.13628,0.4838 -0.13628,1.2265 0,0.7223 0.13628,1.2061 0.13628,0.477 0.35433,0.7632 0.22486,0.2861 0.50423,0.4088 0.27938,0.1158 0.56557,0.1158 0.36796,0 0.65415,-0.1431 0.28618,-0.1499 0.47698,-0.4565 0.1976,-0.3134 0.29981,-0.7972 0.10222,-0.4838 0.10222,-1.1516 z"
         style="line-height:120.00000477%;fill:none;fill-opacity:1;stroke:#ffffff;stroke-width:1.29999995;stroke-miterlimit:4;stroke-dasharray:none;stroke-opacity:1"
         id="path912"
         inkscape:connector-curvature="0" />
      <path
         d="m 116.85974,1035.8742 v 4.1361 q 0,0.4293 0.0681,0.7904 0.0681,0.3543 0.22486,0.6133 0.15673,0.2521 0.40203,0.3952 0.25212,0.1431 0.61326,0.1431 0.34752,0 0.6269,-0.1499 0.28618,-0.1567 0.49061,-0.4361 0.20442,-0.2862 0.31344,-0.6746 0.11584,-0.3952 0.11584,-0.8654 v -3.9521 h 1.91474 v 5.7238 q 0,0.2316 0,0.4906 0.007,0.2521 0.0136,0.4838 0.0136,0.2248 0.0204,0.4088 0.0136,0.1772 0.0204,0.2657 h -1.82616 q -0.007,-0.082 -0.0273,-0.2589 -0.0136,-0.184 -0.0273,-0.402 -0.007,-0.2181 -0.0204,-0.4361 -0.007,-0.2181 -0.007,-0.368 h -0.0341 q -0.38159,0.8382 -0.97441,1.2197 -0.58601,0.3816 -1.39688,0.3816 -0.66096,0 -1.12431,-0.218 -0.46336,-0.2181 -0.75636,-0.5928 -0.28619,-0.3816 -0.41565,-0.8995 -0.12947,-0.5179 -0.12947,-1.1175 v -4.6812 z"
         style="line-height:120.00000477%;fill:none;fill-opacity:1;stroke:#ffffff;stroke-width:1.29999995;stroke-miterlimit:4;stroke-dasharray:none;stroke-opacity:1"
         id="path914"
         inkscape:connector-curvature="0" />
      <path
         d="m 129.79958,1041.0937 q 0,0.5315 -0.22486,0.954 -0.21805,0.4224 -0.64052,0.7223 -0.42247,0.293 -1.03573,0.4565 -0.61327,0.1567 -1.39688,0.1567 -0.70184,0 -1.26741,-0.1022 -0.56556,-0.1022 -0.99485,-0.3339 -0.42247,-0.2385 -0.70866,-0.6132 -0.28618,-0.3748 -0.42928,-0.9267 l 1.68307,-0.2522 q 0.0818,0.3067 0.22486,0.4975 0.14309,0.1908 0.35433,0.293 0.21123,0.1022 0.49061,0.1362 0.28619,0.034 0.64733,0.034 0.32707,0 0.60645,-0.034 0.28619,-0.041 0.49061,-0.1294 0.21123,-0.095 0.32707,-0.259 0.11584,-0.1703 0.11584,-0.4224 0,-0.2862 -0.17035,-0.4497 -0.16354,-0.1704 -0.45654,-0.2726 -0.28619,-0.109 -0.6814,-0.184 -0.3884,-0.082 -0.83131,-0.184 -0.46336,-0.1022 -0.91308,-0.2453 -0.44973,-0.1431 -0.80406,-0.3884 -0.35433,-0.2453 -0.57238,-0.62 -0.21805,-0.3816 -0.21805,-0.9608 0,-0.5247 0.20443,-0.9335 0.20442,-0.4157 0.59963,-0.7019 0.39521,-0.293 0.97441,-0.4429 0.586,-0.1567 1.34236,-0.1567 0.59963,0 1.1175,0.1158 0.51787,0.109 0.92671,0.3543 0.40884,0.2385 0.6814,0.6133 0.27938,0.3748 0.3884,0.9063 l -1.69669,0.1771 q -0.0477,-0.2657 -0.17035,-0.4361 -0.12266,-0.1771 -0.30663,-0.2793 -0.17717,-0.1022 -0.41566,-0.1363 -0.23849,-0.041 -0.52468,-0.041 -0.6814,0 -1.02211,0.1772 -0.3407,0.1703 -0.3407,0.5792 0,0.2521 0.13628,0.402 0.1431,0.1499 0.39522,0.2521 0.25893,0.095 0.60645,0.1704 0.35433,0.068 0.76998,0.1703 0.51105,0.109 1.00166,0.2589 0.49743,0.1431 0.87901,0.4021 0.3884,0.2521 0.62008,0.6541 0.23849,0.402 0.23849,1.0221 z m -0.81768,-6.0985 v 0.1908 h -1.08343 l -1.38325,-1.3083 h -0.0273 l -1.43776,1.3083 h -1.09024 v -0.1908 l 1.75802,-2.1669 h 1.56041 z"
         style="line-height:120.00000477%;fill:none;fill-opacity:1;stroke:#ffffff;stroke-width:1.29999995;stroke-miterlimit:4;stroke-dasharray:none;stroke-opacity:1"
         id="path916"
         inkscape:connector-curvature="0" />
      <path
         d="m 133.1589,1035.8742 v 4.1361 q 0,0.4293 0.0681,0.7904 0.0681,0.3543 0.22486,0.6133 0.15672,0.2521 0.40203,0.3952 0.25212,0.1431 0.61326,0.1431 0.34752,0 0.62689,-0.1499 0.28619,-0.1567 0.49061,-0.4361 0.20442,-0.2862 0.31345,-0.6746 0.11583,-0.3952 0.11583,-0.8654 v -3.9521 h 1.91475 v 5.7238 q 0,0.2316 0,0.4906 0.007,0.2521 0.0136,0.4838 0.0136,0.2248 0.0205,0.4088 0.0136,0.1772 0.0204,0.2657 h -1.82616 q -0.007,-0.082 -0.0273,-0.2589 -0.0136,-0.184 -0.0272,-0.402 -0.007,-0.2181 -0.0205,-0.4361 -0.007,-0.2181 -0.007,-0.368 h -0.0341 q -0.38159,0.8382 -0.97441,1.2197 -0.586,0.3816 -1.39687,0.3816 -0.66096,0 -1.12432,-0.218 -0.46335,-0.2181 -0.75635,-0.5928 -0.28619,-0.3816 -0.41566,-0.8995 -0.12947,-0.5179 -0.12947,-1.1175 v -4.6812 z"
         style="line-height:120.00000477%;fill:none;fill-opacity:1;stroke:#ffffff;stroke-width:1.29999995;stroke-miterlimit:4;stroke-dasharray:none;stroke-opacity:1"
         id="path918"
         inkscape:connector-curvature="0" />
      <path
         d="m 150.73228,1039.5333 q 0,0.8381 -0.17036,1.5468 -0.16353,0.7018 -0.51105,1.2197 -0.34751,0.5111 -0.88582,0.7972 -0.5315,0.2862 -1.2606,0.2862 -0.32707,0 -0.65414,-0.068 -0.32708,-0.068 -0.62008,-0.2249 -0.293,-0.1567 -0.53831,-0.4088 -0.2453,-0.2521 -0.42247,-0.6201 h -0.0136 q 0,0.1431 -0.0136,0.3271 -0.007,0.184 -0.0205,0.3611 -0.0136,0.1704 -0.0341,0.3067 -0.0136,0.1362 -0.0273,0.1907 h -1.86023 q 0.0204,-0.2384 0.0341,-0.6745 0.0204,-0.443 0.0204,-1.0085 v -8.429 h 1.91474 v 2.821 q 0,0.2181 -0.007,0.4293 0,0.2044 -0.007,0.3816 -0.007,0.2044 -0.0136,0.3884 h 0.0273 q 0.34752,-0.7632 0.95397,-1.0902 0.60644,-0.3271 1.40369,-0.3271 0.70865,0 1.21971,0.2862 0.51105,0.2794 0.83812,0.7904 0.33389,0.5042 0.49061,1.1993 0.15673,0.695 0.15673,1.5195 z m -1.99652,0 q 0,-1.2538 -0.36795,-1.8602 -0.36796,-0.6065 -1.13795,-0.6065 -0.293,0 -0.57919,0.1159 -0.28619,0.1158 -0.51105,0.4088 -0.22486,0.2862 -0.36114,0.7768 -0.13628,0.4838 -0.13628,1.2265 0,0.7223 0.13628,1.1993 0.13628,0.477 0.35433,0.7632 0.21805,0.2862 0.50423,0.402 0.28619,0.1158 0.5792,0.1158 0.7291,0 1.12431,-0.5996 0.39521,-0.6064 0.39521,-1.942 z"
         style="line-height:120.00000477%;fill:none;fill-opacity:1;stroke:#ffffff;stroke-width:1.29999995;stroke-miterlimit:4;stroke-dasharray:none;stroke-opacity:1"
         id="path920"
         inkscape:connector-curvature="0" />
      <path
         d="m 154.09159,1035.8742 v 4.1361 q 0,0.4293 0.0681,0.7904 0.0681,0.3543 0.22486,0.6133 0.15673,0.2521 0.40203,0.3952 0.25212,0.1431 0.61326,0.1431 0.34752,0 0.62689,-0.1499 0.28619,-0.1567 0.49061,-0.4361 0.20442,-0.2862 0.31345,-0.6746 0.11584,-0.3952 0.11584,-0.8654 v -3.9521 h 1.91474 v 5.7238 q 0,0.2316 0,0.4906 0.007,0.2521 0.0136,0.4838 0.0136,0.2248 0.0204,0.4088 0.0136,0.1772 0.0204,0.2657 h -1.82616 q -0.007,-0.082 -0.0273,-0.2589 -0.0136,-0.184 -0.0273,-0.402 -0.007,-0.2181 -0.0204,-0.4361 -0.007,-0.2181 -0.007,-0.368 h -0.0341 q -0.38158,0.8382 -0.9744,1.2197 -0.58601,0.3816 -1.39688,0.3816 -0.66096,0 -1.12431,-0.218 -0.46336,-0.2181 -0.75636,-0.5928 -0.28619,-0.3816 -0.41566,-0.8995 -0.12946,-0.5179 -0.12946,-1.1175 v -4.6812 z"
         style="line-height:120.00000477%;fill:none;fill-opacity:1;stroke:#ffffff;stroke-width:1.29999995;stroke-miterlimit:4;stroke-dasharray:none;stroke-opacity:1"
         id="path922"
         inkscape:connector-curvature="0" />
      <path
         d="m 162.70452,1043.3696 q -0.84494,0 -1.30148,-0.4565 -0.45654,-0.4634 -0.45654,-1.3969 v -4.3474 h -0.93352 v -1.2946 h 1.02892 l 0.59963,-1.7308 h 1.19927 v 1.7308 h 1.39688 v 1.2946 h -1.39688 v 3.8295 q 0,0.5383 0.20442,0.7973 0.20442,0.2521 0.63371,0.2521 0.17716,0 0.32026,-0.027 0.14309,-0.027 0.32026,-0.068 v 1.1856 q -0.35433,0.1159 -0.74955,0.1704 -0.39521,0.061 -0.86538,0.061 z"
         style="line-height:120.00000477%;fill:none;fill-opacity:1;stroke:#ffffff;stroke-width:1.29999995;stroke-miterlimit:4;stroke-dasharray:none;stroke-opacity:1"
         id="path924"
         inkscape:connector-curvature="0" />
      <path
         d="m 172.48265,1039.5537 q 0,0.845 -0.23849,1.5468 -0.23168,0.7019 -0.70184,1.2129 -0.47017,0.5043 -1.17202,0.7905 -0.70184,0.2793 -1.63536,0.2793 -0.89945,0 -1.58767,-0.2793 -0.68822,-0.2794 -1.15839,-0.7837 -0.46335,-0.5042 -0.70184,-1.206 -0.23849,-0.7087 -0.23849,-1.5605 0,-0.8245 0.22486,-1.5195 0.23168,-0.7018 0.69503,-1.2129 0.46336,-0.511 1.1652,-0.7972 0.70185,-0.2862 1.64218,-0.2862 0.99485,0 1.69669,0.2862 0.70185,0.2862 1.14476,0.7972 0.44973,0.5043 0.65415,1.2061 0.21123,0.695 0.21123,1.5263 z m -2.00332,0 q 0,-1.3151 -0.42929,-1.9079 -0.42928,-0.5928 -1.24696,-0.5928 -0.84494,0 -1.29467,0.5996 -0.44972,0.5997 -0.44972,1.9011 0,0.661 0.11583,1.138 0.12266,0.477 0.34071,0.7836 0.21805,0.3066 0.52468,0.4565 0.30663,0.1431 0.67459,0.1431 0.42247,0 0.74954,-0.1431 0.33389,-0.1499 0.55875,-0.4565 0.22486,-0.3066 0.3407,-0.7836 0.11584,-0.477 0.11584,-1.138 z"
         style="line-height:120.00000477%;fill:none;fill-opacity:1;stroke:#ffffff;stroke-width:1.29999995;stroke-miterlimit:4;stroke-dasharray:none;stroke-opacity:1"
         id="path926"
         inkscape:connector-curvature="0" />
      <path
         d="m 178.78563,1043.2469 v -4.1361 q 0,-0.4293 -0.0681,-0.7836 -0.0681,-0.3611 -0.22486,-0.6132 -0.15672,-0.259 -0.40884,-0.4021 -0.25212,-0.1431 -0.61327,-0.1431 -0.34751,0 -0.6337,0.1568 -0.27938,0.1499 -0.4838,0.4361 -0.20442,0.2793 -0.32026,0.6745 -0.10902,0.3884 -0.10902,0.8586 v 3.9521 H 174.009 v -5.7237 q 0,-0.2385 -0.007,-0.4906 0,-0.2522 -0.0136,-0.477 -0.007,-0.2317 -0.0136,-0.4089 -0.007,-0.1839 -0.0204,-0.2725 h 1.82616 q 0.0136,0.082 0.0272,0.2657 0.0136,0.1772 0.0273,0.3952 0.0136,0.2181 0.0204,0.4361 0.0136,0.2181 0.0136,0.368 h 0.0273 q 0.3884,-0.845 0.97441,-1.2265 0.58601,-0.3816 1.39688,-0.3816 0.66777,0 1.12431,0.218 0.46335,0.2181 0.74954,0.5997 0.29301,0.3815 0.42247,0.8994 0.12947,0.5179 0.12947,1.1175 v 4.6812 z"
         style="line-height:120.00000477%;fill:none;fill-opacity:1;stroke:#ffffff;stroke-width:1.29999995;stroke-miterlimit:4;stroke-dasharray:none;stroke-opacity:1"
         id="path928"
         inkscape:connector-curvature="0" />
      <path
         d="m 189.54498,1039.5537 q 0,0.845 -0.23849,1.5468 -0.23168,0.7019 -0.70185,1.2129 -0.47017,0.5043 -1.17201,0.7905 -0.70185,0.2793 -1.63537,0.2793 -0.89945,0 -1.58767,-0.2793 -0.68821,-0.2794 -1.15838,-0.7837 -0.46336,-0.5042 -0.70185,-1.206 -0.23849,-0.7087 -0.23849,-1.5605 0,-0.8245 0.22487,-1.5195 0.23167,-0.7018 0.69503,-1.2129 0.46335,-0.511 1.1652,-0.7972 0.70184,-0.2862 1.64218,-0.2862 0.99484,0 1.69669,0.2862 0.70184,0.2862 1.14476,0.7972 0.44972,0.5043 0.65414,1.2061 0.21124,0.695 0.21124,1.5263 z m -2.00333,0 q 0,-1.3151 -0.42928,-1.9079 -0.42928,-0.5928 -1.24697,-0.5928 -0.84494,0 -1.29466,0.5996 -0.44973,0.5997 -0.44973,1.9011 0,0.661 0.11584,1.138 0.12265,0.477 0.3407,0.7836 0.21805,0.3066 0.52468,0.4565 0.30663,0.1431 0.67459,0.1431 0.42247,0 0.74954,-0.1431 0.33389,-0.1499 0.55875,-0.4565 0.22487,-0.3066 0.3407,-0.7836 0.11584,-0.477 0.11584,-1.138 z"
         style="line-height:120.00000477%;fill:none;fill-opacity:1;stroke:#ffffff;stroke-width:1.29999995;stroke-miterlimit:4;stroke-dasharray:none;stroke-opacity:1"
         id="path930"
         inkscape:connector-curvature="0" />
      <path
         d="m 195.84796,1043.2469 v -4.1361 q 0,-0.4293 -0.0681,-0.7836 -0.0681,-0.3611 -0.22487,-0.6132 -0.15672,-0.259 -0.40884,-0.4021 -0.25212,-0.1431 -0.61326,-0.1431 -0.34752,0 -0.63371,0.1568 -0.27937,0.1499 -0.48379,0.4361 -0.20442,0.2793 -0.32026,0.6745 -0.10903,0.3884 -0.10903,0.8586 v 3.9521 h -1.91474 v -5.7237 q 0,-0.2385 -0.007,-0.4906 0,-0.2522 -0.0136,-0.477 -0.007,-0.2317 -0.0136,-0.4089 -0.007,-0.1839 -0.0204,-0.2725 h 1.82616 q 0.0136,0.082 0.0273,0.2657 0.0136,0.1772 0.0273,0.3952 0.0136,0.2181 0.0204,0.4361 0.0136,0.2181 0.0136,0.368 h 0.0273 q 0.3884,-0.845 0.9744,-1.2265 0.58601,-0.3816 1.39688,-0.3816 0.66777,0 1.12431,0.218 0.46336,0.2181 0.74955,0.5997 0.293,0.3815 0.42247,0.8994 0.12946,0.5179 0.12946,1.1175 v 4.6812 z"
         style="line-height:120.00000477%;fill:none;fill-opacity:1;stroke:#ffffff;stroke-width:1.29999995;stroke-miterlimit:4;stroke-dasharray:none;stroke-opacity:1"
         id="path932"
         inkscape:connector-curvature="0" />
      <path
         d="m 206.54598,1043.3832 q -0.87901,0 -1.53997,-0.2725 -0.65415,-0.2726 -1.09025,-0.77 -0.4361,-0.4974 -0.65414,-1.1925 -0.21805,-0.7018 -0.21805,-1.5468 0,-0.9199 0.23849,-1.6353 0.23849,-0.7223 0.68821,-1.2129 0.44973,-0.4974 1.10388,-0.7564 0.66096,-0.2589 1.49908,-0.2589 0.71548,0 1.26741,0.1908 0.55875,0.1908 0.96078,0.5247 0.40203,0.327 0.64733,0.7768 0.25212,0.4497 0.34752,0.9676 l -1.92837,0.095 q -0.0818,-0.5655 -0.40884,-0.8994 -0.32708,-0.3407 -0.92671,-0.3407 -0.76999,0 -1.12432,0.6337 -0.35433,0.6337 -0.35433,1.8398 0,2.5484 1.5059,2.5484 0.54513,0 0.91308,-0.3407 0.36796,-0.3475 0.45654,-1.0289 l 1.92156,0.089 q -0.0681,0.5111 -0.31344,0.9812 -0.2385,0.4634 -0.65415,0.8245 -0.40884,0.3543 -0.99485,0.5724 -0.58601,0.2112 -1.34236,0.2112 z m 2.54163,-8.388 v 0.1908 h -1.08343 l -1.38325,-1.3083 h -0.0273 l -1.43776,1.3083 h -1.09024 v -0.1908 l 1.75802,-2.1669 h 1.56041 z"
         style="line-height:120.00000477%;fill:none;fill-opacity:1;stroke:#ffffff;stroke-width:1.29999995;stroke-miterlimit:4;stroke-dasharray:none;stroke-opacity:1"
         id="path934"
         inkscape:connector-curvature="0" />
      <path
         d="m 214.25946,1043.3832 q -0.79724,0 -1.43776,-0.2316 -0.6337,-0.2385 -1.08343,-0.7155 -0.44972,-0.4838 -0.68822,-1.2061 -0.23849,-0.7291 -0.23849,-1.7035 0,-1.0562 0.27938,-1.7785 0.28619,-0.7223 0.76317,-1.1652 0.4838,-0.4497 1.11069,-0.6473 0.62689,-0.1976 1.32192,-0.1976 0.87219,0 1.48546,0.3066 0.62007,0.2998 1.01529,0.845 0.39521,0.5451 0.57919,1.3083 0.18398,0.7563 0.18398,1.6762 v 0.054 h -4.72894 q 0,0.4634 0.0818,0.8654 0.0818,0.3952 0.26575,0.6882 0.18398,0.2862 0.47698,0.4566 0.293,0.1635 0.70866,0.1635 0.50424,0 0.8245,-0.2112 0.32026,-0.2181 0.45654,-0.6678 l 1.80571,0.1567 q -0.12265,0.3134 -0.34751,0.6678 -0.21805,0.3543 -0.58601,0.6541 -0.36796,0.293 -0.91989,0.4906 -0.54512,0.1908 -1.32874,0.1908 z m 0,-6.4392 q -0.293,0 -0.55193,0.1022 -0.25212,0.095 -0.44292,0.3134 -0.18397,0.2113 -0.29981,0.552 -0.11584,0.3407 -0.12947,0.8176 h 2.86189 q -0.0545,-0.8926 -0.42928,-1.3355 -0.37477,-0.4497 -1.00848,-0.4497 z"
         style="line-height:120.00000477%;fill:none;fill-opacity:1;stroke:#ffffff;stroke-width:1.29999995;stroke-miterlimit:4;stroke-dasharray:none;stroke-opacity:1"
         id="path936"
         inkscape:connector-curvature="0" />
      <path
         d="m 125.92921,1059.9931 v -10.112 h 1.91474 v 10.112 z"
         style="line-height:120.00000477%;fill:none;fill-opacity:1;stroke:#ffffff;stroke-width:1.29999995;stroke-miterlimit:4;stroke-dasharray:none;stroke-opacity:1"
         id="path938"
         inkscape:connector-curvature="0" />
      <path
         d="m 131.50309,1060.1294 q -0.5315,0 -0.95397,-0.1431 -0.41565,-0.1499 -0.70866,-0.4293 -0.293,-0.2862 -0.44972,-0.7018 -0.15672,-0.4157 -0.15672,-0.9472 0,-0.6541 0.22486,-1.097 0.23168,-0.4498 0.62689,-0.7223 0.39521,-0.2794 0.92671,-0.4021 0.53149,-0.1294 1.13113,-0.1362 l 1.58767,-0.027 v -0.3748 q 0,-0.402 -0.075,-0.6677 -0.0681,-0.2726 -0.20442,-0.443 -0.13628,-0.1703 -0.3407,-0.2384 -0.19761,-0.075 -0.45654,-0.075 -0.23849,0 -0.42929,0.048 -0.18397,0.048 -0.32025,0.1703 -0.13629,0.1159 -0.22487,0.3203 -0.0818,0.1976 -0.11584,0.5042 l -1.99651,-0.095 q 0.0818,-0.4837 0.29982,-0.879 0.21805,-0.402 0.59964,-0.695 0.3884,-0.293 0.94715,-0.4497 0.56556,-0.1636 1.32192,-0.1636 0.68821,0 1.22652,0.1704 0.53831,0.1703 0.91308,0.511 0.37477,0.3339 0.57238,0.8245 0.19761,0.4907 0.19761,1.138 v 2.6847 q 0,0.2589 0.0204,0.4634 0.0273,0.2044 0.0886,0.3475 0.0681,0.1363 0.18398,0.2112 0.12265,0.068 0.31345,0.068 0.21804,0 0.42247,-0.041 v 1.0357 q -0.17036,0.041 -0.30664,0.075 -0.13628,0.034 -0.27256,0.054 -0.13628,0.02 -0.293,0.034 -0.14991,0.014 -0.35433,0.014 -0.72229,0 -1.0698,-0.3544 -0.3407,-0.3543 -0.40884,-1.0425 h -0.0409 q -0.38158,0.6882 -0.98122,1.0698 -0.59282,0.3816 -1.44457,0.3816 z m 2.22819,-3.5501 -0.98123,0.014 q -0.30663,0.014 -0.586,0.054 -0.27256,0.034 -0.4838,0.1567 -0.20442,0.1159 -0.32707,0.3407 -0.12265,0.2249 -0.12265,0.6133 0,0.5247 0.23849,0.7836 0.2453,0.2521 0.64733,0.2521 0.36796,0 0.66778,-0.1567 0.29981,-0.1567 0.50423,-0.4088 0.21124,-0.259 0.32708,-0.5928 0.11584,-0.3339 0.11584,-0.6815 z"
         style="line-height:120.00000477%;fill:none;fill-opacity:1;stroke:#ffffff;stroke-width:1.29999995;stroke-miterlimit:4;stroke-dasharray:none;stroke-opacity:1"
         id="path940"
         inkscape:connector-curvature="0" />
      <path
         d="m 141.43794,1059.9931 v -5.642 q 0,-0.2385 -0.007,-0.5042 0,-0.2658 -0.0136,-0.5043 -0.007,-0.2453 -0.0136,-0.4361 -0.007,-0.1976 -0.0204,-0.2862 h 1.82616 q 0.0136,0.082 0.0273,0.2862 0.0136,0.1976 0.0273,0.4361 0.0136,0.2385 0.0204,0.477 0.0136,0.2317 0.0136,0.3748 h 0.0273 q 0.14309,-0.4021 0.28619,-0.7155 0.14309,-0.3203 0.33388,-0.5383 0.19761,-0.2249 0.47017,-0.3407 0.27256,-0.1227 0.67459,-0.1227 0.17035,0 0.33389,0.034 0.17035,0.027 0.25893,0.068 v 1.6013 q -0.18398,-0.041 -0.37477,-0.068 -0.18398,-0.034 -0.44291,-0.034 -0.71548,0 -1.1175,0.5792 -0.39522,0.5792 -0.39522,1.7172 v 3.6182 z"
         style="line-height:120.00000477%;fill:none;fill-opacity:1;stroke:#ffffff;stroke-width:1.29999995;stroke-miterlimit:4;stroke-dasharray:none;stroke-opacity:1"
         id="path942"
         inkscape:connector-curvature="0" />
      <path
         d="m 149.88052,1060.1294 q -0.79724,0 -1.43776,-0.2317 -0.6337,-0.2385 -1.08343,-0.7155 -0.44973,-0.4838 -0.68822,-1.206 -0.23849,-0.7291 -0.23849,-1.7036 0,-1.0561 0.27938,-1.7784 0.28619,-0.7223 0.76317,-1.1652 0.48379,-0.4497 1.11069,-0.6473 0.62689,-0.1977 1.32192,-0.1977 0.87219,0 1.48545,0.3067 0.62008,0.2998 1.0153,0.8449 0.39521,0.5451 0.57919,1.3083 0.18398,0.7564 0.18398,1.6763 v 0.054 h -4.72894 q 0,0.4633 0.0818,0.8654 0.0818,0.3952 0.26575,0.6882 0.18397,0.2862 0.47698,0.4565 0.293,0.1635 0.70866,0.1635 0.50424,0 0.82449,-0.2112 0.32026,-0.218 0.45654,-0.6678 l 1.80572,0.1568 q -0.12265,0.3134 -0.34751,0.6677 -0.21805,0.3544 -0.58601,0.6542 -0.36796,0.293 -0.91989,0.4906 -0.54513,0.1908 -1.32874,0.1908 z m 0,-6.4393 q -0.293,0 -0.55194,0.1022 -0.25211,0.095 -0.44291,0.3135 -0.18398,0.2112 -0.29981,0.5519 -0.11584,0.3407 -0.12947,0.8177 h 2.86189 q -0.0545,-0.8926 -0.42928,-1.3355 -0.37477,-0.4498 -1.00848,-0.4498 z"
         style="line-height:120.00000477%;fill:none;fill-opacity:1;stroke:#ffffff;stroke-width:1.29999995;stroke-miterlimit:4;stroke-dasharray:none;stroke-opacity:1"
         id="path944"
         inkscape:connector-curvature="0" />
      <path
         d="m 157.71665,1062.9504 q -0.7291,0 -1.28785,-0.1499 -0.55193,-0.1431 -0.94715,-0.4089 -0.3884,-0.2589 -0.62689,-0.6268 -0.23167,-0.3612 -0.32026,-0.7973 l 1.91475,-0.2249 q 0.10221,0.443 0.43609,0.6951 0.3407,0.2521 0.88583,0.2521 0.3407,0 0.62007,-0.095 0.28619,-0.095 0.4838,-0.3271 0.20442,-0.2248 0.31345,-0.5996 0.11583,-0.3748 0.11583,-0.9267 0,-0.1908 0,-0.3884 0,-0.1976 0.007,-0.3612 0.007,-0.1908 0.007,-0.3679 h -0.0136 q -0.33388,0.7155 -0.94033,1.0357 -0.59964,0.3203 -1.43095,0.3203 -0.70184,0 -1.2129,-0.2726 -0.50423,-0.2794 -0.83812,-0.77 -0.33389,-0.4974 -0.49742,-1.1788 -0.15673,-0.6882 -0.15673,-1.5127 0,-0.8518 0.17035,-1.54 0.17035,-0.695 0.51787,-1.1924 0.35433,-0.4975 0.88582,-0.7632 0.53831,-0.2726 1.27423,-0.2726 0.73591,0 1.3151,0.3135 0.58601,0.3134 0.91308,1.0153 h 0.0341 q 0,-0.1431 0.007,-0.3271 0.0136,-0.1908 0.0272,-0.3611 0.0136,-0.1772 0.0273,-0.3135 0.0204,-0.1363 0.0341,-0.184 h 1.81253 q -0.0136,0.2453 -0.0273,0.6882 -0.0136,0.443 -0.0136,1.0153 v 5.4444 q 0,0.8041 -0.23168,1.3969 -0.23168,0.5997 -0.6814,0.9949 -0.44291,0.3952 -1.09706,0.5928 -0.64733,0.1976 -1.47865,0.1976 z m 1.6013,-6.7459 q 0,-0.695 -0.13628,-1.1584 -0.13628,-0.4633 -0.35433,-0.7427 -0.21805,-0.2794 -0.50424,-0.3952 -0.27937,-0.1159 -0.56556,-0.1159 -0.36796,0 -0.65415,0.1431 -0.27937,0.1431 -0.47698,0.4429 -0.19761,0.2999 -0.29982,0.7632 -0.10221,0.4634 -0.10221,1.1039 0,1.1924 0.38159,1.7989 0.38158,0.6064 1.13794,0.6064 0.28619,0 0.56557,-0.109 0.28618,-0.1158 0.51105,-0.3952 0.22486,-0.2862 0.36114,-0.7564 0.13628,-0.4701 0.13628,-1.1856 z"
         style="line-height:120.00000477%;fill:none;fill-opacity:1;stroke:#ffffff;stroke-width:1.29999995;stroke-miterlimit:4;stroke-dasharray:none;stroke-opacity:1"
         id="path946"
         inkscape:connector-curvature="0" />
      <path
         d="m 163.16106,1051.2916 v -1.4105 h 1.91474 v 1.4105 z m 0,8.7015 v -7.3728 h 1.91474 v 7.3728 z"
         style="line-height:120.00000477%;fill:none;fill-opacity:1;stroke:#ffffff;stroke-width:1.29999995;stroke-miterlimit:4;stroke-dasharray:none;stroke-opacity:1"
         id="path948"
         inkscape:connector-curvature="0" />
      <path
         d="m 167.03143,1059.9931 v -10.112 h 1.91474 v 10.112 z"
         style="line-height:120.00000477%;fill:none;fill-opacity:1;stroke:#ffffff;stroke-width:1.29999995;stroke-miterlimit:4;stroke-dasharray:none;stroke-opacity:1"
         id="path950"
         inkscape:connector-curvature="0" />
      <path
         d="m 177.90662,1056.2999 q 0,0.8449 -0.23849,1.5468 -0.23168,0.7018 -0.70184,1.2129 -0.47017,0.5042 -1.17202,0.7904 -0.70184,0.2794 -1.63536,0.2794 -0.89946,0 -1.58767,-0.2794 -0.68822,-0.2794 -1.15839,-0.7836 -0.46335,-0.5042 -0.70184,-1.2061 -0.23849,-0.7086 -0.23849,-1.5604 0,-0.8245 0.22486,-1.5195 0.23168,-0.7019 0.69503,-1.2129 0.46335,-0.5111 1.1652,-0.7973 0.70184,-0.2862 1.64218,-0.2862 0.99485,0 1.69669,0.2862 0.70185,0.2862 1.14476,0.7973 0.44973,0.5042 0.65415,1.2061 0.21123,0.695 0.21123,1.5263 z m -2.00332,0 q 0,-1.3151 -0.42929,-1.9079 -0.42928,-0.5928 -1.24696,-0.5928 -0.84494,0 -1.29467,0.5996 -0.44973,0.5996 -0.44973,1.9011 0,0.661 0.11584,1.1379 0.12266,0.477 0.3407,0.7837 0.21805,0.3066 0.52468,0.4565 0.30664,0.1431 0.67459,0.1431 0.42247,0 0.74955,-0.1431 0.33388,-0.1499 0.55875,-0.4565 0.22486,-0.3067 0.3407,-0.7837 0.11584,-0.4769 0.11584,-1.1379 z"
         style="line-height:120.00000477%;fill:none;fill-opacity:1;stroke:#ffffff;stroke-width:1.29999995;stroke-miterlimit:4;stroke-dasharray:none;stroke-opacity:1"
         id="path952"
         inkscape:connector-curvature="0" />
      <path
         d="m 188.07996,1059.9931 q -0.0136,-0.054 -0.0341,-0.1908 -0.0136,-0.1431 -0.0341,-0.3202 -0.0136,-0.1772 -0.0273,-0.3612 -0.007,-0.184 -0.007,-0.3271 h -0.0273 q -0.33388,0.7155 -0.93352,1.029 -0.59282,0.3066 -1.42413,0.3066 -0.69503,0 -1.20608,-0.2862 -0.50424,-0.2862 -0.83813,-0.7972 -0.32707,-0.5111 -0.49061,-1.2061 -0.15672,-0.7019 -0.15672,-1.5264 0,-0.8381 0.16354,-1.5399 0.17035,-0.7019 0.51786,-1.2061 0.34752,-0.5111 0.87901,-0.7973 0.53831,-0.2862 1.27423,-0.2862 0.36114,0 0.69503,0.075 0.33388,0.075 0.62007,0.2317 0.28619,0.1567 0.51787,0.402 0.23168,0.2453 0.39521,0.5928 h 0.0136 q 0,-0.068 -0.007,-0.1976 0,-0.1363 0,-0.3066 0,-0.1704 -0.007,-0.3543 0,-0.184 0,-0.3544 v -2.6915 h 1.91474 v 8.5039 q 0,0.5383 0.0205,0.9608 0.0204,0.4156 0.0341,0.6473 z m -0.0886,-3.7273 q 0,-0.7291 -0.13628,-1.2061 -0.13628,-0.4837 -0.36114,-0.7631 -0.21805,-0.2862 -0.50424,-0.3952 -0.27938,-0.1159 -0.57238,-0.1159 -0.36796,0 -0.65415,0.1431 -0.27937,0.1431 -0.47698,0.4497 -0.19079,0.3067 -0.293,0.7837 -0.0954,0.4769 -0.0954,1.1515 0,2.5076 1.5059,2.5076 0.28619,0 0.57238,-0.1227 0.28619,-0.1226 0.51105,-0.4156 0.22486,-0.293 0.36114,-0.7836 0.1431,-0.4975 0.1431,-1.2334 z"
         style="line-height:120.00000477%;fill:none;fill-opacity:1;stroke:#ffffff;stroke-width:1.29999995;stroke-miterlimit:4;stroke-dasharray:none;stroke-opacity:1"
         id="path954"
         inkscape:connector-curvature="0" />
      <path
         d="m 194.85311,1060.1294 q -0.79724,0 -1.43776,-0.2317 -0.63371,-0.2385 -1.08343,-0.7155 -0.44973,-0.4838 -0.68822,-1.206 -0.23849,-0.7291 -0.23849,-1.7036 0,-1.0561 0.27938,-1.7784 0.28618,-0.7223 0.76317,-1.1652 0.48379,-0.4497 1.11068,-0.6473 0.62689,-0.1977 1.32192,-0.1977 0.8722,0 1.48546,0.3067 0.62008,0.2998 1.01529,0.8449 0.39522,0.5451 0.5792,1.3083 0.18397,0.7564 0.18397,1.6763 v 0.054 h -4.72893 q 0,0.4633 0.0818,0.8654 0.0818,0.3952 0.26574,0.6882 0.18398,0.2862 0.47699,0.4565 0.293,0.1635 0.70865,0.1635 0.50424,0 0.8245,-0.2112 0.32026,-0.218 0.45654,-0.6678 l 1.80572,0.1568 q -0.12265,0.3134 -0.34752,0.6677 -0.21804,0.3544 -0.586,0.6542 -0.36796,0.293 -0.9199,0.4906 -0.54512,0.1908 -1.32873,0.1908 z m 0,-6.4393 q -0.293,0 -0.55194,0.1022 -0.25212,0.095 -0.44291,0.3135 -0.18398,0.2112 -0.29982,0.5519 -0.11584,0.3407 -0.12946,0.8177 h 2.86189 q -0.0545,-0.8926 -0.42929,-1.3355 -0.37477,-0.4498 -1.00847,-0.4498 z"
         style="line-height:120.00000477%;fill:none;fill-opacity:1;stroke:#ffffff;stroke-width:1.29999995;stroke-miterlimit:4;stroke-dasharray:none;stroke-opacity:1"
         id="path956"
         inkscape:connector-curvature="0" />
      <path
         d="m 120.47118,1076.8755 q -0.87901,0 -1.53997,-0.2725 -0.65415,-0.2726 -1.09025,-0.77 -0.4361,-0.4974 -0.65415,-1.1925 -0.21804,-0.7018 -0.21804,-1.5467 0,-0.9199 0.23849,-1.6354 0.23849,-0.7223 0.68821,-1.2129 0.44973,-0.4974 1.10388,-0.7564 0.66096,-0.2589 1.49908,-0.2589 0.71548,0 1.26741,0.1908 0.55875,0.1908 0.96078,0.5247 0.40203,0.327 0.64733,0.7768 0.25212,0.4497 0.34752,0.9676 l -1.92837,0.095 q -0.0818,-0.5656 -0.40884,-0.8995 -0.32708,-0.3407 -0.92671,-0.3407 -0.76999,0 -1.12432,0.6337 -0.35433,0.6337 -0.35433,1.8398 0,2.5484 1.5059,2.5484 0.54513,0 0.91308,-0.3407 0.36796,-0.3475 0.45654,-1.0289 l 1.92156,0.089 q -0.0681,0.5111 -0.31345,0.9812 -0.23849,0.4634 -0.65414,0.8245 -0.40884,0.3544 -0.99485,0.5724 -0.58601,0.2112 -1.34236,0.2112 z m 2.54163,-8.388 v 0.1908 h -1.08343 l -1.38325,-1.3083 h -0.0273 l -1.43776,1.3083 h -1.09024 v -0.1908 l 1.75802,-2.1669 h 1.56041 z"
         style="line-height:120.00000477%;fill:none;fill-opacity:1;stroke:#ffffff;stroke-width:1.29999995;stroke-miterlimit:4;stroke-dasharray:none;stroke-opacity:1"
         id="path958"
         inkscape:connector-curvature="0" />
      <path
         d="m 125.16604,1068.0377 v -1.4105 h 1.91474 v 1.4105 z m 0,8.7016 v -7.3728 h 1.91474 v 7.3728 z"
         style="line-height:120.00000477%;fill:none;fill-opacity:1;stroke:#ffffff;stroke-width:1.29999995;stroke-miterlimit:4;stroke-dasharray:none;stroke-opacity:1"
         id="path960"
         inkscape:connector-curvature="0" />
      <path
         d="m 134.79426,1076.8619 q -0.84494,0 -1.30148,-0.4565 -0.45654,-0.4634 -0.45654,-1.3969 v -4.3474 h -0.93352 v -1.2946 h 1.02892 l 0.59963,-1.7308 h 1.19927 v 1.7308 h 1.39688 v 1.2946 h -1.39688 v 3.8295 q 0,0.5383 0.20442,0.7973 0.20443,0.2521 0.63371,0.2521 0.17716,0 0.32026,-0.027 0.14309,-0.027 0.32026,-0.068 v 1.1856 q -0.35433,0.1159 -0.74955,0.1704 -0.39521,0.061 -0.86538,0.061 z"
         style="line-height:120.00000477%;fill:none;fill-opacity:1;stroke:#ffffff;stroke-width:1.29999995;stroke-miterlimit:4;stroke-dasharray:none;stroke-opacity:1"
         id="path962"
         inkscape:connector-curvature="0" />
      <path
         d="m 137.56757,1068.0377 v -1.4105 h 1.91474 v 1.4105 z m 0,8.7016 v -7.3728 h 1.91474 v 7.3728 z"
         style="line-height:120.00000477%;fill:none;fill-opacity:1;stroke:#ffffff;stroke-width:1.29999995;stroke-miterlimit:4;stroke-dasharray:none;stroke-opacity:1"
         id="path964"
         inkscape:connector-curvature="0" />
      <path
         d="m 143.24366,1069.3665 v 4.1361 q 0,0.4293 0.0681,0.7904 0.0681,0.3544 0.22486,0.6133 0.15672,0.2521 0.40203,0.3952 0.25212,0.1431 0.61326,0.1431 0.34752,0 0.62689,-0.1499 0.28619,-0.1567 0.49061,-0.4361 0.20442,-0.2862 0.31345,-0.6746 0.11584,-0.3952 0.11584,-0.8654 v -3.9521 h 1.91474 v 5.7238 q 0,0.2316 0,0.4906 0.007,0.2521 0.0136,0.4838 0.0136,0.2248 0.0204,0.4088 0.0136,0.1772 0.0204,0.2658 h -1.82616 q -0.007,-0.082 -0.0273,-0.259 -0.0136,-0.184 -0.0273,-0.402 -0.007,-0.218 -0.0204,-0.4361 -0.007,-0.218 -0.007,-0.368 h -0.0341 q -0.38158,0.8382 -0.9744,1.2198 -0.58601,0.3815 -1.39688,0.3815 -0.66096,0 -1.12432,-0.218 -0.46335,-0.2181 -0.75635,-0.5928 -0.28619,-0.3816 -0.41566,-0.8995 -0.12946,-0.5178 -0.12946,-1.1175 v -4.6812 z"
         style="line-height:120.00000477%;fill:none;fill-opacity:1;stroke:#ffffff;stroke-width:1.29999995;stroke-miterlimit:4;stroke-dasharray:none;stroke-opacity:1"
         id="path966"
         inkscape:connector-curvature="0" />
      <path
         d="m 153.83947,1076.7393 v -10.1121 h 1.91474 v 10.1121 z"
         style="line-height:120.00000477%;fill:none;fill-opacity:1;stroke:#ffffff;stroke-width:1.29999995;stroke-miterlimit:4;stroke-dasharray:none;stroke-opacity:1"
         id="path968"
         inkscape:connector-curvature="0" />
      <path
         d="m 159.51556,1069.3665 v 4.1361 q 0,0.4293 0.0681,0.7904 0.0681,0.3544 0.22486,0.6133 0.15672,0.2521 0.40203,0.3952 0.25212,0.1431 0.61326,0.1431 0.34752,0 0.62689,-0.1499 0.28619,-0.1567 0.49061,-0.4361 0.20442,-0.2862 0.31345,-0.6746 0.11584,-0.3952 0.11584,-0.8654 v -3.9521 h 1.91474 v 5.7238 q 0,0.2316 0,0.4906 0.007,0.2521 0.0136,0.4838 0.0136,0.2248 0.0204,0.4088 0.0136,0.1772 0.0204,0.2658 h -1.82616 q -0.007,-0.082 -0.0273,-0.259 -0.0136,-0.184 -0.0273,-0.402 -0.007,-0.218 -0.0204,-0.4361 -0.007,-0.218 -0.007,-0.368 h -0.0341 q -0.38158,0.8382 -0.9744,1.2198 -0.58601,0.3815 -1.39688,0.3815 -0.66096,0 -1.12432,-0.218 -0.46335,-0.2181 -0.75635,-0.5928 -0.28619,-0.3816 -0.41566,-0.8995 -0.12946,-0.5178 -0.12946,-1.1175 v -4.6812 z"
         style="line-height:120.00000477%;fill:none;fill-opacity:1;stroke:#ffffff;stroke-width:1.29999995;stroke-miterlimit:4;stroke-dasharray:none;stroke-opacity:1"
         id="path970"
         inkscape:connector-curvature="0" />
      <path
         d="m 171.01764,1076.7393 q -0.0136,-0.055 -0.0341,-0.1908 -0.0136,-0.1431 -0.0341,-0.3203 -0.0136,-0.1772 -0.0273,-0.3611 -0.007,-0.184 -0.007,-0.3271 h -0.0273 q -0.33389,0.7155 -0.93352,1.0289 -0.59282,0.3066 -1.42413,0.3066 -0.69504,0 -1.20609,-0.2861 -0.50424,-0.2862 -0.83812,-0.7973 -0.32708,-0.511 -0.49061,-1.2061 -0.15673,-0.7018 -0.15673,-1.5263 0,-0.8381 0.16354,-1.54 0.17035,-0.7018 0.51787,-1.2061 0.34751,-0.511 0.87901,-0.7972 0.53831,-0.2862 1.27422,-0.2862 0.36114,0 0.69503,0.075 0.33389,0.075 0.62008,0.2316 0.28619,0.1568 0.51786,0.4021 0.23168,0.2453 0.39522,0.5928 h 0.0136 q 0,-0.068 -0.007,-0.1976 0,-0.1363 0,-0.3067 0,-0.1703 -0.007,-0.3543 0,-0.184 0,-0.3543 v -2.6916 h 1.91474 v 8.504 q 0,0.5383 0.0204,0.9607 0.0204,0.4157 0.0341,0.6474 z m -0.0886,-3.7273 q 0,-0.7291 -0.13628,-1.2061 -0.13628,-0.4838 -0.36114,-0.7632 -0.21805,-0.2862 -0.50424,-0.3952 -0.27937,-0.1158 -0.57238,-0.1158 -0.36795,0 -0.65414,0.1431 -0.27938,0.1431 -0.47699,0.4497 -0.19079,0.3066 -0.293,0.7836 -0.0954,0.477 -0.0954,1.1516 0,2.5075 1.50591,2.5075 0.28618,0 0.57237,-0.1226 0.28619,-0.1227 0.51106,-0.4157 0.22486,-0.293 0.36114,-0.7836 0.14309,-0.4974 0.14309,-1.2333 z"
         style="line-height:120.00000477%;fill:none;fill-opacity:1;stroke:#ffffff;stroke-width:1.29999995;stroke-miterlimit:4;stroke-dasharray:none;stroke-opacity:1"
         id="path972"
         inkscape:connector-curvature="0" />
      <path
         d="m 176.47567,1076.8755 q -0.53149,0 -0.95396,-0.1431 -0.41566,-0.1499 -0.70866,-0.4292 -0.293,-0.2862 -0.44973,-0.7019 -0.15672,-0.4156 -0.15672,-0.9471 0,-0.6542 0.22486,-1.0971 0.23168,-0.4497 0.62689,-0.7223 0.39522,-0.2794 0.92671,-0.402 0.5315,-0.1295 1.13113,-0.1363 l 1.58767,-0.027 v -0.3748 q 0,-0.402 -0.075,-0.6678 -0.0681,-0.2725 -0.20442,-0.4429 -0.13628,-0.1704 -0.3407,-0.2385 -0.1976,-0.075 -0.45654,-0.075 -0.23849,0 -0.42928,0.048 -0.18398,0.048 -0.32026,0.1703 -0.13628,0.1158 -0.22486,0.3203 -0.0818,0.1976 -0.11584,0.5042 l -1.99651,-0.095 q 0.0818,-0.4838 0.29981,-0.879 0.21805,-0.402 0.59964,-0.695 0.3884,-0.293 0.94715,-0.4498 0.56556,-0.1635 1.32192,-0.1635 0.68822,0 1.22653,0.1704 0.5383,0.1703 0.91308,0.511 0.37477,0.3339 0.57237,0.8245 0.19761,0.4906 0.19761,1.1379 v 2.6848 q 0,0.2589 0.0204,0.4633 0.0273,0.2044 0.0886,0.3475 0.0681,0.1363 0.18397,0.2113 0.12266,0.068 0.31345,0.068 0.21805,0 0.42247,-0.041 v 1.0358 q -0.17035,0.041 -0.30663,0.075 -0.13628,0.034 -0.27256,0.054 -0.13628,0.02 -0.29301,0.034 -0.14991,0.014 -0.35433,0.014 -0.72228,0 -1.0698,-0.3543 -0.3407,-0.3543 -0.40884,-1.0425 h -0.0409 q -0.38159,0.6882 -0.98122,1.0698 -0.59282,0.3815 -1.44458,0.3815 z m 2.22819,-3.5501 -0.98122,0.014 q -0.30663,0.014 -0.58601,0.055 -0.27256,0.034 -0.48379,0.1567 -0.20442,0.1158 -0.32708,0.3407 -0.12265,0.2249 -0.12265,0.6133 0,0.5246 0.23849,0.7836 0.24531,0.2521 0.64733,0.2521 0.36796,0 0.66778,-0.1567 0.29982,-0.1568 0.50424,-0.4089 0.21123,-0.2589 0.32707,-0.5928 0.11584,-0.3339 0.11584,-0.6814 z"
         style="line-height:120.00000477%;fill:none;fill-opacity:1;stroke:#ffffff;stroke-width:1.29999995;stroke-miterlimit:4;stroke-dasharray:none;stroke-opacity:1"
         id="path974"
         inkscape:connector-curvature="0" />
      <path
         d="m 187.31679,1076.7393 v -4.1362 q 0,-0.4292 -0.0681,-0.7836 -0.0681,-0.3611 -0.22486,-0.6132 -0.15673,-0.259 -0.40885,-0.4021 -0.25212,-0.1431 -0.61326,-0.1431 -0.34751,0 -0.6337,0.1568 -0.27938,0.1499 -0.4838,0.4361 -0.20442,0.2793 -0.32026,0.6746 -0.10902,0.3884 -0.10902,0.8585 v 3.9522 h -1.91475 v -5.7238 q 0,-0.2385 -0.007,-0.4906 0,-0.2522 -0.0136,-0.477 -0.007,-0.2317 -0.0136,-0.4089 -0.007,-0.1839 -0.0204,-0.2725 h 1.82616 q 0.0136,0.082 0.0273,0.2657 0.0136,0.1772 0.0273,0.3952 0.0136,0.2181 0.0205,0.4361 0.0136,0.2181 0.0136,0.368 h 0.0273 q 0.3884,-0.8449 0.97441,-1.2265 0.586,-0.3816 1.39687,-0.3816 0.66778,0 1.12432,0.218 0.46335,0.2181 0.74954,0.5997 0.293,0.3816 0.42247,0.8994 0.12947,0.5179 0.12947,1.1175 v 4.6813 z"
         style="line-height:120.00000477%;fill:none;fill-opacity:1;stroke:#ffffff;stroke-width:1.29999995;stroke-miterlimit:4;stroke-dasharray:none;stroke-opacity:1"
         id="path976"
         inkscape:connector-curvature="0" />
      <path
         d="m 192.95881,1076.8619 q -0.84494,0 -1.30148,-0.4565 -0.45654,-0.4634 -0.45654,-1.3969 v -4.3474 h -0.93352 v -1.2946 h 1.02891 l 0.59964,-1.7308 h 1.19927 v 1.7308 h 1.39687 v 1.2946 h -1.39687 v 3.8295 q 0,0.5383 0.20442,0.7973 0.20442,0.2521 0.6337,0.2521 0.17717,0 0.32026,-0.027 0.1431,-0.027 0.32026,-0.068 v 1.1856 q -0.35433,0.1159 -0.74954,0.1704 -0.39522,0.061 -0.86538,0.061 z"
         style="line-height:120.00000477%;fill:none;fill-opacity:1;stroke:#ffffff;stroke-width:1.29999995;stroke-miterlimit:4;stroke-dasharray:none;stroke-opacity:1"
         id="path978"
         inkscape:connector-curvature="0" />
      <path
         d="m 202.73694,1073.0461 q 0,0.8449 -0.23849,1.5467 -0.23168,0.7019 -0.70185,1.2129 -0.47017,0.5043 -1.17201,0.7905 -0.70184,0.2793 -1.63537,0.2793 -0.89945,0 -1.58767,-0.2793 -0.68821,-0.2794 -1.15838,-0.7836 -0.46335,-0.5043 -0.70184,-1.2061 -0.2385,-0.7087 -0.2385,-1.5604 0,-0.8245 0.22487,-1.5196 0.23167,-0.7018 0.69503,-1.2129 0.46335,-0.511 1.1652,-0.7972 0.70184,-0.2862 1.64218,-0.2862 0.99485,0 1.69669,0.2862 0.70185,0.2862 1.14476,0.7972 0.44972,0.5043 0.65414,1.2061 0.21124,0.695 0.21124,1.5264 z m -2.00333,0 q 0,-1.3152 -0.42928,-1.908 -0.42928,-0.5928 -1.24697,-0.5928 -0.84494,0 -1.29466,0.5996 -0.44973,0.5997 -0.44973,1.9012 0,0.6609 0.11584,1.1379 0.12265,0.477 0.3407,0.7836 0.21805,0.3066 0.52468,0.4566 0.30663,0.143 0.67459,0.143 0.42247,0 0.74954,-0.143 0.33389,-0.15 0.55875,-0.4566 0.22487,-0.3066 0.34071,-0.7836 0.11583,-0.477 0.11583,-1.1379 z"
         style="line-height:120.00000477%;fill:none;fill-opacity:1;stroke:#ffffff;stroke-width:1.29999995;stroke-miterlimit:4;stroke-dasharray:none;stroke-opacity:1"
         id="path980"
         inkscape:connector-curvature="0" />
      <path
         d="m 204.2701,1068.0377 v -1.4105 h 1.91474 v 1.4105 z m -0.0409,11.5975 q -0.38158,0 -0.66777,-0.02 -0.27938,-0.014 -0.49061,-0.041 v -1.3492 q 0.0886,0.014 0.17716,0.021 0.0886,0.01 0.17035,0.01 0.26575,0 0.42929,-0.054 0.16353,-0.054 0.25893,-0.184 0.0954,-0.1295 0.12947,-0.3407 0.0341,-0.2113 0.0341,-0.5247 v -7.7816 h 1.91474 v 8.245 q 0,0.4429 -0.10902,0.8108 -0.10903,0.368 -0.34752,0.6405 -0.23168,0.2726 -0.60645,0.4225 -0.36796,0.1499 -0.89264,0.1499 z"
         style="line-height:120.00000477%;fill:none;fill-opacity:1;stroke:#ffffff;stroke-width:1.29999995;stroke-miterlimit:4;stroke-dasharray:none;stroke-opacity:1"
         id="path982"
         inkscape:connector-curvature="0" />
    </g>
    <g
       aria-label="puŝu butonon ĉe
la regilo de
ĉi tiu ludantoj"
       style="font-style:normal;font-variant:normal;font-weight:bold;font-stretch:normal;font-size:13.95512962px;line-height:120.00000477%;font-family:'Liberation Sans';-inkscape-font-specification:'Liberation Sans, Bold';font-variant-ligatures:normal;font-variant-position:normal;font-variant-caps:normal;font-variant-numeric:normal;font-variant-alternates:normal;font-feature-settings:normal;text-indent:0;text-align:center;text-decoration:none;text-decoration-line:none;text-decoration-style:solid;text-decoration-color:#000000;letter-spacing:0px;word-spacing:0px;text-transform:none;writing-mode:lr-tb;direction:ltr;text-orientation:mixed;dominant-baseline:auto;baseline-shift:baseline;text-anchor:middle;white-space:normal;shape-padding:0;opacity:1;vector-effect:none;fill:#4467eb;fill-opacity:1;stroke:none;stroke-width:1.16292739px;stroke-linecap:butt;stroke-linejoin:miter;stroke-miterlimit:4;stroke-dasharray:none;stroke-dashoffset:0;stroke-opacity:1"
       id="text89"
       transform="matrix(1.8621474,0,0,1.8621474,-188.26167,-931.36897)">
      <path
         d="m 113.50043,1039.5265 q 0,0.8381 -0.17036,1.5468 -0.16353,0.7086 -0.51105,1.2197 -0.34751,0.511 -0.88582,0.804 -0.5315,0.2862 -1.2606,0.2862 -0.32707,0 -0.65414,-0.068 -0.32026,-0.068 -0.61327,-0.2181 -0.293,-0.1567 -0.54512,-0.402 -0.2453,-0.2521 -0.42247,-0.6201 h -0.0409 q 0.007,0.034 0.0136,0.1704 0.007,0.1363 0.0136,0.3202 0.007,0.1772 0.007,0.3816 0.007,0.1976 0.007,0.368 v 2.8278 h -1.91474 v -8.572 q 0,-0.5656 -0.0204,-1.0085 -0.0136,-0.4429 -0.0341,-0.6882 h 1.86023 q 0.0136,0.048 0.0272,0.1839 0.0204,0.1363 0.0273,0.3135 0.0136,0.1772 0.0204,0.368 0.007,0.1907 0.007,0.3338 h 0.0273 q 0.34752,-0.7291 0.95397,-1.0425 0.60645,-0.3135 1.40369,-0.3135 0.70184,0 1.21289,0.2862 0.51106,0.2862 0.83813,0.7905 0.33389,0.5042 0.49061,1.206 0.16354,0.6951 0.16354,1.5264 z m -1.99651,0 q 0,-1.2606 -0.38159,-1.8671 -0.38159,-0.6132 -1.13794,-0.6132 -0.28619,0 -0.57238,0.1226 -0.27938,0.1159 -0.50424,0.4089 -0.21805,0.2862 -0.36114,0.7768 -0.13628,0.4838 -0.13628,1.2265 0,0.7223 0.13628,1.2061 0.13628,0.477 0.35433,0.7632 0.22486,0.2861 0.50423,0.4088 0.27938,0.1158 0.56557,0.1158 0.36796,0 0.65415,-0.1431 0.28618,-0.1499 0.47698,-0.4565 0.1976,-0.3134 0.29981,-0.7972 0.10222,-0.4838 0.10222,-1.1516 z"
         style="line-height:120.00000477%;fill:#4467eb;fill-opacity:1;stroke-width:1.16292739px"
         id="path985"
         inkscape:connector-curvature="0" />
      <path
         d="m 116.85974,1035.8742 v 4.1361 q 0,0.4293 0.0681,0.7904 0.0681,0.3543 0.22486,0.6133 0.15673,0.2521 0.40203,0.3952 0.25212,0.1431 0.61326,0.1431 0.34752,0 0.6269,-0.1499 0.28618,-0.1567 0.49061,-0.4361 0.20442,-0.2862 0.31344,-0.6746 0.11584,-0.3952 0.11584,-0.8654 v -3.9521 h 1.91474 v 5.7238 q 0,0.2316 0,0.4906 0.007,0.2521 0.0136,0.4838 0.0136,0.2248 0.0204,0.4088 0.0136,0.1772 0.0204,0.2657 h -1.82616 q -0.007,-0.082 -0.0273,-0.2589 -0.0136,-0.184 -0.0273,-0.402 -0.007,-0.2181 -0.0204,-0.4361 -0.007,-0.2181 -0.007,-0.368 h -0.0341 q -0.38159,0.8382 -0.97441,1.2197 -0.58601,0.3816 -1.39688,0.3816 -0.66096,0 -1.12431,-0.218 -0.46336,-0.2181 -0.75636,-0.5928 -0.28619,-0.3816 -0.41565,-0.8995 -0.12947,-0.5179 -0.12947,-1.1175 v -4.6812 z"
         style="line-height:120.00000477%;fill:#4467eb;fill-opacity:1;stroke-width:1.16292739px"
         id="path987"
         inkscape:connector-curvature="0" />
      <path
         d="m 129.79958,1041.0937 q 0,0.5315 -0.22486,0.954 -0.21805,0.4224 -0.64052,0.7223 -0.42247,0.293 -1.03573,0.4565 -0.61327,0.1567 -1.39688,0.1567 -0.70184,0 -1.26741,-0.1022 -0.56556,-0.1022 -0.99485,-0.3339 -0.42247,-0.2385 -0.70866,-0.6132 -0.28618,-0.3748 -0.42928,-0.9267 l 1.68307,-0.2522 q 0.0818,0.3067 0.22486,0.4975 0.14309,0.1908 0.35433,0.293 0.21123,0.1022 0.49061,0.1362 0.28619,0.034 0.64733,0.034 0.32707,0 0.60645,-0.034 0.28619,-0.041 0.49061,-0.1294 0.21123,-0.095 0.32707,-0.259 0.11584,-0.1703 0.11584,-0.4224 0,-0.2862 -0.17035,-0.4497 -0.16354,-0.1704 -0.45654,-0.2726 -0.28619,-0.109 -0.6814,-0.184 -0.3884,-0.082 -0.83131,-0.184 -0.46336,-0.1022 -0.91308,-0.2453 -0.44973,-0.1431 -0.80406,-0.3884 -0.35433,-0.2453 -0.57238,-0.62 -0.21805,-0.3816 -0.21805,-0.9608 0,-0.5247 0.20443,-0.9335 0.20442,-0.4157 0.59963,-0.7019 0.39521,-0.293 0.97441,-0.4429 0.586,-0.1567 1.34236,-0.1567 0.59963,0 1.1175,0.1158 0.51787,0.109 0.92671,0.3543 0.40884,0.2385 0.6814,0.6133 0.27938,0.3748 0.3884,0.9063 l -1.69669,0.1771 q -0.0477,-0.2657 -0.17035,-0.4361 -0.12266,-0.1771 -0.30663,-0.2793 -0.17717,-0.1022 -0.41566,-0.1363 -0.23849,-0.041 -0.52468,-0.041 -0.6814,0 -1.02211,0.1772 -0.3407,0.1703 -0.3407,0.5792 0,0.2521 0.13628,0.402 0.1431,0.1499 0.39522,0.2521 0.25893,0.095 0.60645,0.1704 0.35433,0.068 0.76998,0.1703 0.51105,0.109 1.00166,0.2589 0.49743,0.1431 0.87901,0.4021 0.3884,0.2521 0.62008,0.6541 0.23849,0.402 0.23849,1.0221 z m -0.81768,-6.0985 v 0.1908 h -1.08343 l -1.38325,-1.3083 h -0.0273 l -1.43776,1.3083 h -1.09024 v -0.1908 l 1.75802,-2.1669 h 1.56041 z"
         style="line-height:120.00000477%;fill:#4467eb;fill-opacity:1;stroke-width:1.16292739px"
         id="path989"
         inkscape:connector-curvature="0" />
      <path
         d="m 133.1589,1035.8742 v 4.1361 q 0,0.4293 0.0681,0.7904 0.0681,0.3543 0.22486,0.6133 0.15672,0.2521 0.40203,0.3952 0.25212,0.1431 0.61326,0.1431 0.34752,0 0.62689,-0.1499 0.28619,-0.1567 0.49061,-0.4361 0.20442,-0.2862 0.31345,-0.6746 0.11583,-0.3952 0.11583,-0.8654 v -3.9521 h 1.91475 v 5.7238 q 0,0.2316 0,0.4906 0.007,0.2521 0.0136,0.4838 0.0136,0.2248 0.0205,0.4088 0.0136,0.1772 0.0204,0.2657 h -1.82616 q -0.007,-0.082 -0.0273,-0.2589 -0.0136,-0.184 -0.0272,-0.402 -0.007,-0.2181 -0.0205,-0.4361 -0.007,-0.2181 -0.007,-0.368 h -0.0341 q -0.38159,0.8382 -0.97441,1.2197 -0.586,0.3816 -1.39687,0.3816 -0.66096,0 -1.12432,-0.218 -0.46335,-0.2181 -0.75635,-0.5928 -0.28619,-0.3816 -0.41566,-0.8995 -0.12947,-0.5179 -0.12947,-1.1175 v -4.6812 z"
         style="line-height:120.00000477%;fill:#4467eb;fill-opacity:1;stroke-width:1.16292739px"
         id="path991"
         inkscape:connector-curvature="0" />
      <path
         d="m 150.73228,1039.5333 q 0,0.8381 -0.17036,1.5468 -0.16353,0.7018 -0.51105,1.2197 -0.34751,0.5111 -0.88582,0.7972 -0.5315,0.2862 -1.2606,0.2862 -0.32707,0 -0.65414,-0.068 -0.32708,-0.068 -0.62008,-0.2249 -0.293,-0.1567 -0.53831,-0.4088 -0.2453,-0.2521 -0.42247,-0.6201 h -0.0136 q 0,0.1431 -0.0136,0.3271 -0.007,0.184 -0.0205,0.3611 -0.0136,0.1704 -0.0341,0.3067 -0.0136,0.1362 -0.0273,0.1907 h -1.86023 q 0.0204,-0.2384 0.0341,-0.6745 0.0204,-0.443 0.0204,-1.0085 v -8.429 h 1.91474 v 2.821 q 0,0.2181 -0.007,0.4293 0,0.2044 -0.007,0.3816 -0.007,0.2044 -0.0136,0.3884 h 0.0273 q 0.34752,-0.7632 0.95397,-1.0902 0.60644,-0.3271 1.40369,-0.3271 0.70865,0 1.21971,0.2862 0.51105,0.2794 0.83812,0.7904 0.33389,0.5042 0.49061,1.1993 0.15673,0.695 0.15673,1.5195 z m -1.99652,0 q 0,-1.2538 -0.36795,-1.8602 -0.36796,-0.6065 -1.13795,-0.6065 -0.293,0 -0.57919,0.1159 -0.28619,0.1158 -0.51105,0.4088 -0.22486,0.2862 -0.36114,0.7768 -0.13628,0.4838 -0.13628,1.2265 0,0.7223 0.13628,1.1993 0.13628,0.477 0.35433,0.7632 0.21805,0.2862 0.50423,0.402 0.28619,0.1158 0.5792,0.1158 0.7291,0 1.12431,-0.5996 0.39521,-0.6064 0.39521,-1.942 z"
         style="line-height:120.00000477%;fill:#4467eb;fill-opacity:1;stroke-width:1.16292739px"
         id="path993"
         inkscape:connector-curvature="0" />
      <path
         d="m 154.09159,1035.8742 v 4.1361 q 0,0.4293 0.0681,0.7904 0.0681,0.3543 0.22486,0.6133 0.15673,0.2521 0.40203,0.3952 0.25212,0.1431 0.61326,0.1431 0.34752,0 0.62689,-0.1499 0.28619,-0.1567 0.49061,-0.4361 0.20442,-0.2862 0.31345,-0.6746 0.11584,-0.3952 0.11584,-0.8654 v -3.9521 h 1.91474 v 5.7238 q 0,0.2316 0,0.4906 0.007,0.2521 0.0136,0.4838 0.0136,0.2248 0.0204,0.4088 0.0136,0.1772 0.0204,0.2657 h -1.82616 q -0.007,-0.082 -0.0273,-0.2589 -0.0136,-0.184 -0.0273,-0.402 -0.007,-0.2181 -0.0204,-0.4361 -0.007,-0.2181 -0.007,-0.368 h -0.0341 q -0.38158,0.8382 -0.9744,1.2197 -0.58601,0.3816 -1.39688,0.3816 -0.66096,0 -1.12431,-0.218 -0.46336,-0.2181 -0.75636,-0.5928 -0.28619,-0.3816 -0.41566,-0.8995 -0.12946,-0.5179 -0.12946,-1.1175 v -4.6812 z"
         style="line-height:120.00000477%;fill:#4467eb;fill-opacity:1;stroke-width:1.16292739px"
         id="path995"
         inkscape:connector-curvature="0" />
      <path
         d="m 162.70452,1043.3696 q -0.84494,0 -1.30148,-0.4565 -0.45654,-0.4634 -0.45654,-1.3969 v -4.3474 h -0.93352 v -1.2946 h 1.02892 l 0.59963,-1.7308 h 1.19927 v 1.7308 h 1.39688 v 1.2946 h -1.39688 v 3.8295 q 0,0.5383 0.20442,0.7973 0.20442,0.2521 0.63371,0.2521 0.17716,0 0.32026,-0.027 0.14309,-0.027 0.32026,-0.068 v 1.1856 q -0.35433,0.1159 -0.74955,0.1704 -0.39521,0.061 -0.86538,0.061 z"
         style="line-height:120.00000477%;fill:#4467eb;fill-opacity:1;stroke-width:1.16292739px"
         id="path997"
         inkscape:connector-curvature="0" />
      <path
         d="m 172.48265,1039.5537 q 0,0.845 -0.23849,1.5468 -0.23168,0.7019 -0.70184,1.2129 -0.47017,0.5043 -1.17202,0.7905 -0.70184,0.2793 -1.63536,0.2793 -0.89945,0 -1.58767,-0.2793 -0.68822,-0.2794 -1.15839,-0.7837 -0.46335,-0.5042 -0.70184,-1.206 -0.23849,-0.7087 -0.23849,-1.5605 0,-0.8245 0.22486,-1.5195 0.23168,-0.7018 0.69503,-1.2129 0.46336,-0.511 1.1652,-0.7972 0.70185,-0.2862 1.64218,-0.2862 0.99485,0 1.69669,0.2862 0.70185,0.2862 1.14476,0.7972 0.44973,0.5043 0.65415,1.2061 0.21123,0.695 0.21123,1.5263 z m -2.00332,0 q 0,-1.3151 -0.42929,-1.9079 -0.42928,-0.5928 -1.24696,-0.5928 -0.84494,0 -1.29467,0.5996 -0.44972,0.5997 -0.44972,1.9011 0,0.661 0.11583,1.138 0.12266,0.477 0.34071,0.7836 0.21805,0.3066 0.52468,0.4565 0.30663,0.1431 0.67459,0.1431 0.42247,0 0.74954,-0.1431 0.33389,-0.1499 0.55875,-0.4565 0.22486,-0.3066 0.3407,-0.7836 0.11584,-0.477 0.11584,-1.138 z"
         style="line-height:120.00000477%;fill:#4467eb;fill-opacity:1;stroke-width:1.16292739px"
         id="path999"
         inkscape:connector-curvature="0" />
      <path
         d="m 178.78563,1043.2469 v -4.1361 q 0,-0.4293 -0.0681,-0.7836 -0.0681,-0.3611 -0.22486,-0.6132 -0.15672,-0.259 -0.40884,-0.4021 -0.25212,-0.1431 -0.61327,-0.1431 -0.34751,0 -0.6337,0.1568 -0.27938,0.1499 -0.4838,0.4361 -0.20442,0.2793 -0.32026,0.6745 -0.10902,0.3884 -0.10902,0.8586 v 3.9521 H 174.009 v -5.7237 q 0,-0.2385 -0.007,-0.4906 0,-0.2522 -0.0136,-0.477 -0.007,-0.2317 -0.0136,-0.4089 -0.007,-0.1839 -0.0204,-0.2725 h 1.82616 q 0.0136,0.082 0.0272,0.2657 0.0136,0.1772 0.0273,0.3952 0.0136,0.2181 0.0204,0.4361 0.0136,0.2181 0.0136,0.368 h 0.0273 q 0.3884,-0.845 0.97441,-1.2265 0.58601,-0.3816 1.39688,-0.3816 0.66777,0 1.12431,0.218 0.46335,0.2181 0.74954,0.5997 0.29301,0.3815 0.42247,0.8994 0.12947,0.5179 0.12947,1.1175 v 4.6812 z"
         style="line-height:120.00000477%;fill:#4467eb;fill-opacity:1;stroke-width:1.16292739px"
         id="path1001"
         inkscape:connector-curvature="0" />
      <path
         d="m 189.54498,1039.5537 q 0,0.845 -0.23849,1.5468 -0.23168,0.7019 -0.70185,1.2129 -0.47017,0.5043 -1.17201,0.7905 -0.70185,0.2793 -1.63537,0.2793 -0.89945,0 -1.58767,-0.2793 -0.68821,-0.2794 -1.15838,-0.7837 -0.46336,-0.5042 -0.70185,-1.206 -0.23849,-0.7087 -0.23849,-1.5605 0,-0.8245 0.22487,-1.5195 0.23167,-0.7018 0.69503,-1.2129 0.46335,-0.511 1.1652,-0.7972 0.70184,-0.2862 1.64218,-0.2862 0.99484,0 1.69669,0.2862 0.70184,0.2862 1.14476,0.7972 0.44972,0.5043 0.65414,1.2061 0.21124,0.695 0.21124,1.5263 z m -2.00333,0 q 0,-1.3151 -0.42928,-1.9079 -0.42928,-0.5928 -1.24697,-0.5928 -0.84494,0 -1.29466,0.5996 -0.44973,0.5997 -0.44973,1.9011 0,0.661 0.11584,1.138 0.12265,0.477 0.3407,0.7836 0.21805,0.3066 0.52468,0.4565 0.30663,0.1431 0.67459,0.1431 0.42247,0 0.74954,-0.1431 0.33389,-0.1499 0.55875,-0.4565 0.22487,-0.3066 0.3407,-0.7836 0.11584,-0.477 0.11584,-1.138 z"
         style="line-height:120.00000477%;fill:#4467eb;fill-opacity:1;stroke-width:1.16292739px"
         id="path1003"
         inkscape:connector-curvature="0" />
      <path
         d="m 195.84796,1043.2469 v -4.1361 q 0,-0.4293 -0.0681,-0.7836 -0.0681,-0.3611 -0.22487,-0.6132 -0.15672,-0.259 -0.40884,-0.4021 -0.25212,-0.1431 -0.61326,-0.1431 -0.34752,0 -0.63371,0.1568 -0.27937,0.1499 -0.48379,0.4361 -0.20442,0.2793 -0.32026,0.6745 -0.10903,0.3884 -0.10903,0.8586 v 3.9521 h -1.91474 v -5.7237 q 0,-0.2385 -0.007,-0.4906 0,-0.2522 -0.0136,-0.477 -0.007,-0.2317 -0.0136,-0.4089 -0.007,-0.1839 -0.0204,-0.2725 h 1.82616 q 0.0136,0.082 0.0273,0.2657 0.0136,0.1772 0.0273,0.3952 0.0136,0.2181 0.0204,0.4361 0.0136,0.2181 0.0136,0.368 h 0.0273 q 0.3884,-0.845 0.9744,-1.2265 0.58601,-0.3816 1.39688,-0.3816 0.66777,0 1.12431,0.218 0.46336,0.2181 0.74955,0.5997 0.293,0.3815 0.42247,0.8994 0.12946,0.5179 0.12946,1.1175 v 4.6812 z"
         style="line-height:120.00000477%;fill:#4467eb;fill-opacity:1;stroke-width:1.16292739px"
         id="path1005"
         inkscape:connector-curvature="0" />
      <path
         d="m 206.54598,1043.3832 q -0.87901,0 -1.53997,-0.2725 -0.65415,-0.2726 -1.09025,-0.77 -0.4361,-0.4974 -0.65414,-1.1925 -0.21805,-0.7018 -0.21805,-1.5468 0,-0.9199 0.23849,-1.6353 0.23849,-0.7223 0.68821,-1.2129 0.44973,-0.4974 1.10388,-0.7564 0.66096,-0.2589 1.49908,-0.2589 0.71548,0 1.26741,0.1908 0.55875,0.1908 0.96078,0.5247 0.40203,0.327 0.64733,0.7768 0.25212,0.4497 0.34752,0.9676 l -1.92837,0.095 q -0.0818,-0.5655 -0.40884,-0.8994 -0.32708,-0.3407 -0.92671,-0.3407 -0.76999,0 -1.12432,0.6337 -0.35433,0.6337 -0.35433,1.8398 0,2.5484 1.5059,2.5484 0.54513,0 0.91308,-0.3407 0.36796,-0.3475 0.45654,-1.0289 l 1.92156,0.089 q -0.0681,0.5111 -0.31344,0.9812 -0.2385,0.4634 -0.65415,0.8245 -0.40884,0.3543 -0.99485,0.5724 -0.58601,0.2112 -1.34236,0.2112 z m 2.54163,-8.388 v 0.1908 h -1.08343 l -1.38325,-1.3083 h -0.0273 l -1.43776,1.3083 h -1.09024 v -0.1908 l 1.75802,-2.1669 h 1.56041 z"
         style="line-height:120.00000477%;fill:#4467eb;fill-opacity:1;stroke-width:1.16292739px"
         id="path1007"
         inkscape:connector-curvature="0" />
      <path
         d="m 214.25946,1043.3832 q -0.79724,0 -1.43776,-0.2316 -0.6337,-0.2385 -1.08343,-0.7155 -0.44972,-0.4838 -0.68822,-1.2061 -0.23849,-0.7291 -0.23849,-1.7035 0,-1.0562 0.27938,-1.7785 0.28619,-0.7223 0.76317,-1.1652 0.4838,-0.4497 1.11069,-0.6473 0.62689,-0.1976 1.32192,-0.1976 0.87219,0 1.48546,0.3066 0.62007,0.2998 1.01529,0.845 0.39521,0.5451 0.57919,1.3083 0.18398,0.7563 0.18398,1.6762 v 0.054 h -4.72894 q 0,0.4634 0.0818,0.8654 0.0818,0.3952 0.26575,0.6882 0.18398,0.2862 0.47698,0.4566 0.293,0.1635 0.70866,0.1635 0.50424,0 0.8245,-0.2112 0.32026,-0.2181 0.45654,-0.6678 l 1.80571,0.1567 q -0.12265,0.3134 -0.34751,0.6678 -0.21805,0.3543 -0.58601,0.6541 -0.36796,0.293 -0.91989,0.4906 -0.54512,0.1908 -1.32874,0.1908 z m 0,-6.4392 q -0.293,0 -0.55193,0.1022 -0.25212,0.095 -0.44292,0.3134 -0.18397,0.2113 -0.29981,0.552 -0.11584,0.3407 -0.12947,0.8176 h 2.86189 q -0.0545,-0.8926 -0.42928,-1.3355 -0.37477,-0.4497 -1.00848,-0.4497 z"
         style="line-height:120.00000477%;fill:#4467eb;fill-opacity:1;stroke-width:1.16292739px"
         id="path1009"
         inkscape:connector-curvature="0" />
      <path
         d="m 125.92921,1059.9931 v -10.112 h 1.91474 v 10.112 z"
         style="line-height:120.00000477%;fill:#4467eb;fill-opacity:1;stroke-width:1.16292739px"
         id="path1011"
         inkscape:connector-curvature="0" />
      <path
         d="m 131.50309,1060.1294 q -0.5315,0 -0.95397,-0.1431 -0.41565,-0.1499 -0.70866,-0.4293 -0.293,-0.2862 -0.44972,-0.7018 -0.15672,-0.4157 -0.15672,-0.9472 0,-0.6541 0.22486,-1.097 0.23168,-0.4498 0.62689,-0.7223 0.39521,-0.2794 0.92671,-0.4021 0.53149,-0.1294 1.13113,-0.1362 l 1.58767,-0.027 v -0.3748 q 0,-0.402 -0.075,-0.6677 -0.0681,-0.2726 -0.20442,-0.443 -0.13628,-0.1703 -0.3407,-0.2384 -0.19761,-0.075 -0.45654,-0.075 -0.23849,0 -0.42929,0.048 -0.18397,0.048 -0.32025,0.1703 -0.13629,0.1159 -0.22487,0.3203 -0.0818,0.1976 -0.11584,0.5042 l -1.99651,-0.095 q 0.0818,-0.4837 0.29982,-0.879 0.21805,-0.402 0.59964,-0.695 0.3884,-0.293 0.94715,-0.4497 0.56556,-0.1636 1.32192,-0.1636 0.68821,0 1.22652,0.1704 0.53831,0.1703 0.91308,0.511 0.37477,0.3339 0.57238,0.8245 0.19761,0.4907 0.19761,1.138 v 2.6847 q 0,0.2589 0.0204,0.4634 0.0273,0.2044 0.0886,0.3475 0.0681,0.1363 0.18398,0.2112 0.12265,0.068 0.31345,0.068 0.21804,0 0.42247,-0.041 v 1.0357 q -0.17036,0.041 -0.30664,0.075 -0.13628,0.034 -0.27256,0.054 -0.13628,0.02 -0.293,0.034 -0.14991,0.014 -0.35433,0.014 -0.72229,0 -1.0698,-0.3544 -0.3407,-0.3543 -0.40884,-1.0425 h -0.0409 q -0.38158,0.6882 -0.98122,1.0698 -0.59282,0.3816 -1.44457,0.3816 z m 2.22819,-3.5501 -0.98123,0.014 q -0.30663,0.014 -0.586,0.054 -0.27256,0.034 -0.4838,0.1567 -0.20442,0.1159 -0.32707,0.3407 -0.12265,0.2249 -0.12265,0.6133 0,0.5247 0.23849,0.7836 0.2453,0.2521 0.64733,0.2521 0.36796,0 0.66778,-0.1567 0.29981,-0.1567 0.50423,-0.4088 0.21124,-0.259 0.32708,-0.5928 0.11584,-0.3339 0.11584,-0.6815 z"
         style="line-height:120.00000477%;fill:#4467eb;fill-opacity:1;stroke-width:1.16292739px"
         id="path1013"
         inkscape:connector-curvature="0" />
      <path
         d="m 141.43794,1059.9931 v -5.642 q 0,-0.2385 -0.007,-0.5042 0,-0.2658 -0.0136,-0.5043 -0.007,-0.2453 -0.0136,-0.4361 -0.007,-0.1976 -0.0204,-0.2862 h 1.82616 q 0.0136,0.082 0.0273,0.2862 0.0136,0.1976 0.0273,0.4361 0.0136,0.2385 0.0204,0.477 0.0136,0.2317 0.0136,0.3748 h 0.0273 q 0.14309,-0.4021 0.28619,-0.7155 0.14309,-0.3203 0.33388,-0.5383 0.19761,-0.2249 0.47017,-0.3407 0.27256,-0.1227 0.67459,-0.1227 0.17035,0 0.33389,0.034 0.17035,0.027 0.25893,0.068 v 1.6013 q -0.18398,-0.041 -0.37477,-0.068 -0.18398,-0.034 -0.44291,-0.034 -0.71548,0 -1.1175,0.5792 -0.39522,0.5792 -0.39522,1.7172 v 3.6182 z"
         style="line-height:120.00000477%;fill:#4467eb;fill-opacity:1;stroke-width:1.16292739px"
         id="path1015"
         inkscape:connector-curvature="0" />
      <path
         d="m 149.88052,1060.1294 q -0.79724,0 -1.43776,-0.2317 -0.6337,-0.2385 -1.08343,-0.7155 -0.44973,-0.4838 -0.68822,-1.206 -0.23849,-0.7291 -0.23849,-1.7036 0,-1.0561 0.27938,-1.7784 0.28619,-0.7223 0.76317,-1.1652 0.48379,-0.4497 1.11069,-0.6473 0.62689,-0.1977 1.32192,-0.1977 0.87219,0 1.48545,0.3067 0.62008,0.2998 1.0153,0.8449 0.39521,0.5451 0.57919,1.3083 0.18398,0.7564 0.18398,1.6763 v 0.054 h -4.72894 q 0,0.4633 0.0818,0.8654 0.0818,0.3952 0.26575,0.6882 0.18397,0.2862 0.47698,0.4565 0.293,0.1635 0.70866,0.1635 0.50424,0 0.82449,-0.2112 0.32026,-0.218 0.45654,-0.6678 l 1.80572,0.1568 q -0.12265,0.3134 -0.34751,0.6677 -0.21805,0.3544 -0.58601,0.6542 -0.36796,0.293 -0.91989,0.4906 -0.54513,0.1908 -1.32874,0.1908 z m 0,-6.4393 q -0.293,0 -0.55194,0.1022 -0.25211,0.095 -0.44291,0.3135 -0.18398,0.2112 -0.29981,0.5519 -0.11584,0.3407 -0.12947,0.8177 h 2.86189 q -0.0545,-0.8926 -0.42928,-1.3355 -0.37477,-0.4498 -1.00848,-0.4498 z"
         style="line-height:120.00000477%;fill:#4467eb;fill-opacity:1;stroke-width:1.16292739px"
         id="path1017"
         inkscape:connector-curvature="0" />
      <path
         d="m 157.71665,1062.9504 q -0.7291,0 -1.28785,-0.1499 -0.55193,-0.1431 -0.94715,-0.4089 -0.3884,-0.2589 -0.62689,-0.6268 -0.23167,-0.3612 -0.32026,-0.7973 l 1.91475,-0.2249 q 0.10221,0.443 0.43609,0.6951 0.3407,0.2521 0.88583,0.2521 0.3407,0 0.62007,-0.095 0.28619,-0.095 0.4838,-0.3271 0.20442,-0.2248 0.31345,-0.5996 0.11583,-0.3748 0.11583,-0.9267 0,-0.1908 0,-0.3884 0,-0.1976 0.007,-0.3612 0.007,-0.1908 0.007,-0.3679 h -0.0136 q -0.33388,0.7155 -0.94033,1.0357 -0.59964,0.3203 -1.43095,0.3203 -0.70184,0 -1.2129,-0.2726 -0.50423,-0.2794 -0.83812,-0.77 -0.33389,-0.4974 -0.49742,-1.1788 -0.15673,-0.6882 -0.15673,-1.5127 0,-0.8518 0.17035,-1.54 0.17035,-0.695 0.51787,-1.1924 0.35433,-0.4975 0.88582,-0.7632 0.53831,-0.2726 1.27423,-0.2726 0.73591,0 1.3151,0.3135 0.58601,0.3134 0.91308,1.0153 h 0.0341 q 0,-0.1431 0.007,-0.3271 0.0136,-0.1908 0.0272,-0.3611 0.0136,-0.1772 0.0273,-0.3135 0.0204,-0.1363 0.0341,-0.184 h 1.81253 q -0.0136,0.2453 -0.0273,0.6882 -0.0136,0.443 -0.0136,1.0153 v 5.4444 q 0,0.8041 -0.23168,1.3969 -0.23168,0.5997 -0.6814,0.9949 -0.44291,0.3952 -1.09706,0.5928 -0.64733,0.1976 -1.47865,0.1976 z m 1.6013,-6.7459 q 0,-0.695 -0.13628,-1.1584 -0.13628,-0.4633 -0.35433,-0.7427 -0.21805,-0.2794 -0.50424,-0.3952 -0.27937,-0.1159 -0.56556,-0.1159 -0.36796,0 -0.65415,0.1431 -0.27937,0.1431 -0.47698,0.4429 -0.19761,0.2999 -0.29982,0.7632 -0.10221,0.4634 -0.10221,1.1039 0,1.1924 0.38159,1.7989 0.38158,0.6064 1.13794,0.6064 0.28619,0 0.56557,-0.109 0.28618,-0.1158 0.51105,-0.3952 0.22486,-0.2862 0.36114,-0.7564 0.13628,-0.4701 0.13628,-1.1856 z"
         style="line-height:120.00000477%;fill:#4467eb;fill-opacity:1;stroke-width:1.16292739px"
         id="path1019"
         inkscape:connector-curvature="0" />
      <path
         d="m 163.16106,1051.2916 v -1.4105 h 1.91474 v 1.4105 z m 0,8.7015 v -7.3728 h 1.91474 v 7.3728 z"
         style="line-height:120.00000477%;fill:#4467eb;fill-opacity:1;stroke-width:1.16292739px"
         id="path1021"
         inkscape:connector-curvature="0" />
      <path
         d="m 167.03143,1059.9931 v -10.112 h 1.91474 v 10.112 z"
         style="line-height:120.00000477%;fill:#4467eb;fill-opacity:1;stroke-width:1.16292739px"
         id="path1023"
         inkscape:connector-curvature="0" />
      <path
         d="m 177.90662,1056.2999 q 0,0.8449 -0.23849,1.5468 -0.23168,0.7018 -0.70184,1.2129 -0.47017,0.5042 -1.17202,0.7904 -0.70184,0.2794 -1.63536,0.2794 -0.89946,0 -1.58767,-0.2794 -0.68822,-0.2794 -1.15839,-0.7836 -0.46335,-0.5042 -0.70184,-1.2061 -0.23849,-0.7086 -0.23849,-1.5604 0,-0.8245 0.22486,-1.5195 0.23168,-0.7019 0.69503,-1.2129 0.46335,-0.5111 1.1652,-0.7973 0.70184,-0.2862 1.64218,-0.2862 0.99485,0 1.69669,0.2862 0.70185,0.2862 1.14476,0.7973 0.44973,0.5042 0.65415,1.2061 0.21123,0.695 0.21123,1.5263 z m -2.00332,0 q 0,-1.3151 -0.42929,-1.9079 -0.42928,-0.5928 -1.24696,-0.5928 -0.84494,0 -1.29467,0.5996 -0.44973,0.5996 -0.44973,1.9011 0,0.661 0.11584,1.1379 0.12266,0.477 0.3407,0.7837 0.21805,0.3066 0.52468,0.4565 0.30664,0.1431 0.67459,0.1431 0.42247,0 0.74955,-0.1431 0.33388,-0.1499 0.55875,-0.4565 0.22486,-0.3067 0.3407,-0.7837 0.11584,-0.4769 0.11584,-1.1379 z"
         style="line-height:120.00000477%;fill:#4467eb;fill-opacity:1;stroke-width:1.16292739px"
         id="path1025"
         inkscape:connector-curvature="0" />
      <path
         d="m 188.07996,1059.9931 q -0.0136,-0.054 -0.0341,-0.1908 -0.0136,-0.1431 -0.0341,-0.3202 -0.0136,-0.1772 -0.0273,-0.3612 -0.007,-0.184 -0.007,-0.3271 h -0.0273 q -0.33388,0.7155 -0.93352,1.029 -0.59282,0.3066 -1.42413,0.3066 -0.69503,0 -1.20608,-0.2862 -0.50424,-0.2862 -0.83813,-0.7972 -0.32707,-0.5111 -0.49061,-1.2061 -0.15672,-0.7019 -0.15672,-1.5264 0,-0.8381 0.16354,-1.5399 0.17035,-0.7019 0.51786,-1.2061 0.34752,-0.5111 0.87901,-0.7973 0.53831,-0.2862 1.27423,-0.2862 0.36114,0 0.69503,0.075 0.33388,0.075 0.62007,0.2317 0.28619,0.1567 0.51787,0.402 0.23168,0.2453 0.39521,0.5928 h 0.0136 q 0,-0.068 -0.007,-0.1976 0,-0.1363 0,-0.3066 0,-0.1704 -0.007,-0.3543 0,-0.184 0,-0.3544 v -2.6915 h 1.91474 v 8.5039 q 0,0.5383 0.0205,0.9608 0.0204,0.4156 0.0341,0.6473 z m -0.0886,-3.7273 q 0,-0.7291 -0.13628,-1.2061 -0.13628,-0.4837 -0.36114,-0.7631 -0.21805,-0.2862 -0.50424,-0.3952 -0.27938,-0.1159 -0.57238,-0.1159 -0.36796,0 -0.65415,0.1431 -0.27937,0.1431 -0.47698,0.4497 -0.19079,0.3067 -0.293,0.7837 -0.0954,0.4769 -0.0954,1.1515 0,2.5076 1.5059,2.5076 0.28619,0 0.57238,-0.1227 0.28619,-0.1226 0.51105,-0.4156 0.22486,-0.293 0.36114,-0.7836 0.1431,-0.4975 0.1431,-1.2334 z"
         style="line-height:120.00000477%;fill:#4467eb;fill-opacity:1;stroke-width:1.16292739px"
         id="path1027"
         inkscape:connector-curvature="0" />
      <path
         d="m 194.85311,1060.1294 q -0.79724,0 -1.43776,-0.2317 -0.63371,-0.2385 -1.08343,-0.7155 -0.44973,-0.4838 -0.68822,-1.206 -0.23849,-0.7291 -0.23849,-1.7036 0,-1.0561 0.27938,-1.7784 0.28618,-0.7223 0.76317,-1.1652 0.48379,-0.4497 1.11068,-0.6473 0.62689,-0.1977 1.32192,-0.1977 0.8722,0 1.48546,0.3067 0.62008,0.2998 1.01529,0.8449 0.39522,0.5451 0.5792,1.3083 0.18397,0.7564 0.18397,1.6763 v 0.054 h -4.72893 q 0,0.4633 0.0818,0.8654 0.0818,0.3952 0.26574,0.6882 0.18398,0.2862 0.47699,0.4565 0.293,0.1635 0.70865,0.1635 0.50424,0 0.8245,-0.2112 0.32026,-0.218 0.45654,-0.6678 l 1.80572,0.1568 q -0.12265,0.3134 -0.34752,0.6677 -0.21804,0.3544 -0.586,0.6542 -0.36796,0.293 -0.9199,0.4906 -0.54512,0.1908 -1.32873,0.1908 z m 0,-6.4393 q -0.293,0 -0.55194,0.1022 -0.25212,0.095 -0.44291,0.3135 -0.18398,0.2112 -0.29982,0.5519 -0.11584,0.3407 -0.12946,0.8177 h 2.86189 q -0.0545,-0.8926 -0.42929,-1.3355 -0.37477,-0.4498 -1.00847,-0.4498 z"
         style="line-height:120.00000477%;fill:#4467eb;fill-opacity:1;stroke-width:1.16292739px"
         id="path1029"
         inkscape:connector-curvature="0" />
      <path
         d="m 120.47118,1076.8755 q -0.87901,0 -1.53997,-0.2725 -0.65415,-0.2726 -1.09025,-0.77 -0.4361,-0.4974 -0.65415,-1.1925 -0.21804,-0.7018 -0.21804,-1.5467 0,-0.9199 0.23849,-1.6354 0.23849,-0.7223 0.68821,-1.2129 0.44973,-0.4974 1.10388,-0.7564 0.66096,-0.2589 1.49908,-0.2589 0.71548,0 1.26741,0.1908 0.55875,0.1908 0.96078,0.5247 0.40203,0.327 0.64733,0.7768 0.25212,0.4497 0.34752,0.9676 l -1.92837,0.095 q -0.0818,-0.5656 -0.40884,-0.8995 -0.32708,-0.3407 -0.92671,-0.3407 -0.76999,0 -1.12432,0.6337 -0.35433,0.6337 -0.35433,1.8398 0,2.5484 1.5059,2.5484 0.54513,0 0.91308,-0.3407 0.36796,-0.3475 0.45654,-1.0289 l 1.92156,0.089 q -0.0681,0.5111 -0.31345,0.9812 -0.23849,0.4634 -0.65414,0.8245 -0.40884,0.3544 -0.99485,0.5724 -0.58601,0.2112 -1.34236,0.2112 z m 2.54163,-8.388 v 0.1908 h -1.08343 l -1.38325,-1.3083 h -0.0273 l -1.43776,1.3083 h -1.09024 v -0.1908 l 1.75802,-2.1669 h 1.56041 z"
         style="line-height:120.00000477%;fill:#4467eb;fill-opacity:1;stroke-width:1.16292739px"
         id="path1031"
         inkscape:connector-curvature="0" />
      <path
         d="m 125.16604,1068.0377 v -1.4105 h 1.91474 v 1.4105 z m 0,8.7016 v -7.3728 h 1.91474 v 7.3728 z"
         style="line-height:120.00000477%;fill:#4467eb;fill-opacity:1;stroke-width:1.16292739px"
         id="path1033"
         inkscape:connector-curvature="0" />
      <path
         d="m 134.79426,1076.8619 q -0.84494,0 -1.30148,-0.4565 -0.45654,-0.4634 -0.45654,-1.3969 v -4.3474 h -0.93352 v -1.2946 h 1.02892 l 0.59963,-1.7308 h 1.19927 v 1.7308 h 1.39688 v 1.2946 h -1.39688 v 3.8295 q 0,0.5383 0.20442,0.7973 0.20443,0.2521 0.63371,0.2521 0.17716,0 0.32026,-0.027 0.14309,-0.027 0.32026,-0.068 v 1.1856 q -0.35433,0.1159 -0.74955,0.1704 -0.39521,0.061 -0.86538,0.061 z"
         style="line-height:120.00000477%;fill:#4467eb;fill-opacity:1;stroke-width:1.16292739px"
         id="path1035"
         inkscape:connector-curvature="0" />
      <path
         d="m 137.56757,1068.0377 v -1.4105 h 1.91474 v 1.4105 z m 0,8.7016 v -7.3728 h 1.91474 v 7.3728 z"
         style="line-height:120.00000477%;fill:#4467eb;fill-opacity:1;stroke-width:1.16292739px"
         id="path1037"
         inkscape:connector-curvature="0" />
      <path
         d="m 143.24366,1069.3665 v 4.1361 q 0,0.4293 0.0681,0.7904 0.0681,0.3544 0.22486,0.6133 0.15672,0.2521 0.40203,0.3952 0.25212,0.1431 0.61326,0.1431 0.34752,0 0.62689,-0.1499 0.28619,-0.1567 0.49061,-0.4361 0.20442,-0.2862 0.31345,-0.6746 0.11584,-0.3952 0.11584,-0.8654 v -3.9521 h 1.91474 v 5.7238 q 0,0.2316 0,0.4906 0.007,0.2521 0.0136,0.4838 0.0136,0.2248 0.0204,0.4088 0.0136,0.1772 0.0204,0.2658 h -1.82616 q -0.007,-0.082 -0.0273,-0.259 -0.0136,-0.184 -0.0273,-0.402 -0.007,-0.218 -0.0204,-0.4361 -0.007,-0.218 -0.007,-0.368 h -0.0341 q -0.38158,0.8382 -0.9744,1.2198 -0.58601,0.3815 -1.39688,0.3815 -0.66096,0 -1.12432,-0.218 -0.46335,-0.2181 -0.75635,-0.5928 -0.28619,-0.3816 -0.41566,-0.8995 -0.12946,-0.5178 -0.12946,-1.1175 v -4.6812 z"
         style="line-height:120.00000477%;fill:#4467eb;fill-opacity:1;stroke-width:1.16292739px"
         id="path1039"
         inkscape:connector-curvature="0" />
      <path
         d="m 153.83947,1076.7393 v -10.1121 h 1.91474 v 10.1121 z"
         style="line-height:120.00000477%;fill:#4467eb;fill-opacity:1;stroke-width:1.16292739px"
         id="path1041"
         inkscape:connector-curvature="0" />
      <path
         d="m 159.51556,1069.3665 v 4.1361 q 0,0.4293 0.0681,0.7904 0.0681,0.3544 0.22486,0.6133 0.15672,0.2521 0.40203,0.3952 0.25212,0.1431 0.61326,0.1431 0.34752,0 0.62689,-0.1499 0.28619,-0.1567 0.49061,-0.4361 0.20442,-0.2862 0.31345,-0.6746 0.11584,-0.3952 0.11584,-0.8654 v -3.9521 h 1.91474 v 5.7238 q 0,0.2316 0,0.4906 0.007,0.2521 0.0136,0.4838 0.0136,0.2248 0.0204,0.4088 0.0136,0.1772 0.0204,0.2658 h -1.82616 q -0.007,-0.082 -0.0273,-0.259 -0.0136,-0.184 -0.0273,-0.402 -0.007,-0.218 -0.0204,-0.4361 -0.007,-0.218 -0.007,-0.368 h -0.0341 q -0.38158,0.8382 -0.9744,1.2198 -0.58601,0.3815 -1.39688,0.3815 -0.66096,0 -1.12432,-0.218 -0.46335,-0.2181 -0.75635,-0.5928 -0.28619,-0.3816 -0.41566,-0.8995 -0.12946,-0.5178 -0.12946,-1.1175 v -4.6812 z"
         style="line-height:120.00000477%;fill:#4467eb;fill-opacity:1;stroke-width:1.16292739px"
         id="path1043"
         inkscape:connector-curvature="0" />
      <path
         d="m 171.01764,1076.7393 q -0.0136,-0.055 -0.0341,-0.1908 -0.0136,-0.1431 -0.0341,-0.3203 -0.0136,-0.1772 -0.0273,-0.3611 -0.007,-0.184 -0.007,-0.3271 h -0.0273 q -0.33389,0.7155 -0.93352,1.0289 -0.59282,0.3066 -1.42413,0.3066 -0.69504,0 -1.20609,-0.2861 -0.50424,-0.2862 -0.83812,-0.7973 -0.32708,-0.511 -0.49061,-1.2061 -0.15673,-0.7018 -0.15673,-1.5263 0,-0.8381 0.16354,-1.54 0.17035,-0.7018 0.51787,-1.2061 0.34751,-0.511 0.87901,-0.7972 0.53831,-0.2862 1.27422,-0.2862 0.36114,0 0.69503,0.075 0.33389,0.075 0.62008,0.2316 0.28619,0.1568 0.51786,0.4021 0.23168,0.2453 0.39522,0.5928 h 0.0136 q 0,-0.068 -0.007,-0.1976 0,-0.1363 0,-0.3067 0,-0.1703 -0.007,-0.3543 0,-0.184 0,-0.3543 v -2.6916 h 1.91474 v 8.504 q 0,0.5383 0.0204,0.9607 0.0204,0.4157 0.0341,0.6474 z m -0.0886,-3.7273 q 0,-0.7291 -0.13628,-1.2061 -0.13628,-0.4838 -0.36114,-0.7632 -0.21805,-0.2862 -0.50424,-0.3952 -0.27937,-0.1158 -0.57238,-0.1158 -0.36795,0 -0.65414,0.1431 -0.27938,0.1431 -0.47699,0.4497 -0.19079,0.3066 -0.293,0.7836 -0.0954,0.477 -0.0954,1.1516 0,2.5075 1.50591,2.5075 0.28618,0 0.57237,-0.1226 0.28619,-0.1227 0.51106,-0.4157 0.22486,-0.293 0.36114,-0.7836 0.14309,-0.4974 0.14309,-1.2333 z"
         style="line-height:120.00000477%;fill:#4467eb;fill-opacity:1;stroke-width:1.16292739px"
         id="path1045"
         inkscape:connector-curvature="0" />
      <path
         d="m 176.47567,1076.8755 q -0.53149,0 -0.95396,-0.1431 -0.41566,-0.1499 -0.70866,-0.4292 -0.293,-0.2862 -0.44973,-0.7019 -0.15672,-0.4156 -0.15672,-0.9471 0,-0.6542 0.22486,-1.0971 0.23168,-0.4497 0.62689,-0.7223 0.39522,-0.2794 0.92671,-0.402 0.5315,-0.1295 1.13113,-0.1363 l 1.58767,-0.027 v -0.3748 q 0,-0.402 -0.075,-0.6678 -0.0681,-0.2725 -0.20442,-0.4429 -0.13628,-0.1704 -0.3407,-0.2385 -0.1976,-0.075 -0.45654,-0.075 -0.23849,0 -0.42928,0.048 -0.18398,0.048 -0.32026,0.1703 -0.13628,0.1158 -0.22486,0.3203 -0.0818,0.1976 -0.11584,0.5042 l -1.99651,-0.095 q 0.0818,-0.4838 0.29981,-0.879 0.21805,-0.402 0.59964,-0.695 0.3884,-0.293 0.94715,-0.4498 0.56556,-0.1635 1.32192,-0.1635 0.68822,0 1.22653,0.1704 0.5383,0.1703 0.91308,0.511 0.37477,0.3339 0.57237,0.8245 0.19761,0.4906 0.19761,1.1379 v 2.6848 q 0,0.2589 0.0204,0.4633 0.0273,0.2044 0.0886,0.3475 0.0681,0.1363 0.18397,0.2113 0.12266,0.068 0.31345,0.068 0.21805,0 0.42247,-0.041 v 1.0358 q -0.17035,0.041 -0.30663,0.075 -0.13628,0.034 -0.27256,0.054 -0.13628,0.02 -0.29301,0.034 -0.14991,0.014 -0.35433,0.014 -0.72228,0 -1.0698,-0.3543 -0.3407,-0.3543 -0.40884,-1.0425 h -0.0409 q -0.38159,0.6882 -0.98122,1.0698 -0.59282,0.3815 -1.44458,0.3815 z m 2.22819,-3.5501 -0.98122,0.014 q -0.30663,0.014 -0.58601,0.055 -0.27256,0.034 -0.48379,0.1567 -0.20442,0.1158 -0.32708,0.3407 -0.12265,0.2249 -0.12265,0.6133 0,0.5246 0.23849,0.7836 0.24531,0.2521 0.64733,0.2521 0.36796,0 0.66778,-0.1567 0.29982,-0.1568 0.50424,-0.4089 0.21123,-0.2589 0.32707,-0.5928 0.11584,-0.3339 0.11584,-0.6814 z"
         style="line-height:120.00000477%;fill:#4467eb;fill-opacity:1;stroke-width:1.16292739px"
         id="path1047"
         inkscape:connector-curvature="0" />
      <path
         d="m 187.31679,1076.7393 v -4.1362 q 0,-0.4292 -0.0681,-0.7836 -0.0681,-0.3611 -0.22486,-0.6132 -0.15673,-0.259 -0.40885,-0.4021 -0.25212,-0.1431 -0.61326,-0.1431 -0.34751,0 -0.6337,0.1568 -0.27938,0.1499 -0.4838,0.4361 -0.20442,0.2793 -0.32026,0.6746 -0.10902,0.3884 -0.10902,0.8585 v 3.9522 h -1.91475 v -5.7238 q 0,-0.2385 -0.007,-0.4906 0,-0.2522 -0.0136,-0.477 -0.007,-0.2317 -0.0136,-0.4089 -0.007,-0.1839 -0.0204,-0.2725 h 1.82616 q 0.0136,0.082 0.0273,0.2657 0.0136,0.1772 0.0273,0.3952 0.0136,0.2181 0.0205,0.4361 0.0136,0.2181 0.0136,0.368 h 0.0273 q 0.3884,-0.8449 0.97441,-1.2265 0.586,-0.3816 1.39687,-0.3816 0.66778,0 1.12432,0.218 0.46335,0.2181 0.74954,0.5997 0.293,0.3816 0.42247,0.8994 0.12947,0.5179 0.12947,1.1175 v 4.6813 z"
         style="line-height:120.00000477%;fill:#4467eb;fill-opacity:1;stroke-width:1.16292739px"
         id="path1049"
         inkscape:connector-curvature="0" />
      <path
         d="m 192.95881,1076.8619 q -0.84494,0 -1.30148,-0.4565 -0.45654,-0.4634 -0.45654,-1.3969 v -4.3474 h -0.93352 v -1.2946 h 1.02891 l 0.59964,-1.7308 h 1.19927 v 1.7308 h 1.39687 v 1.2946 h -1.39687 v 3.8295 q 0,0.5383 0.20442,0.7973 0.20442,0.2521 0.6337,0.2521 0.17717,0 0.32026,-0.027 0.1431,-0.027 0.32026,-0.068 v 1.1856 q -0.35433,0.1159 -0.74954,0.1704 -0.39522,0.061 -0.86538,0.061 z"
         style="line-height:120.00000477%;fill:#4467eb;fill-opacity:1;stroke-width:1.16292739px"
         id="path1051"
         inkscape:connector-curvature="0" />
      <path
         d="m 202.73694,1073.0461 q 0,0.8449 -0.23849,1.5467 -0.23168,0.7019 -0.70185,1.2129 -0.47017,0.5043 -1.17201,0.7905 -0.70184,0.2793 -1.63537,0.2793 -0.89945,0 -1.58767,-0.2793 -0.68821,-0.2794 -1.15838,-0.7836 -0.46335,-0.5043 -0.70184,-1.2061 -0.2385,-0.7087 -0.2385,-1.5604 0,-0.8245 0.22487,-1.5196 0.23167,-0.7018 0.69503,-1.2129 0.46335,-0.511 1.1652,-0.7972 0.70184,-0.2862 1.64218,-0.2862 0.99485,0 1.69669,0.2862 0.70185,0.2862 1.14476,0.7972 0.44972,0.5043 0.65414,1.2061 0.21124,0.695 0.21124,1.5264 z m -2.00333,0 q 0,-1.3152 -0.42928,-1.908 -0.42928,-0.5928 -1.24697,-0.5928 -0.84494,0 -1.29466,0.5996 -0.44973,0.5997 -0.44973,1.9012 0,0.6609 0.11584,1.1379 0.12265,0.477 0.3407,0.7836 0.21805,0.3066 0.52468,0.4566 0.30663,0.143 0.67459,0.143 0.42247,0 0.74954,-0.143 0.33389,-0.15 0.55875,-0.4566 0.22487,-0.3066 0.34071,-0.7836 0.11583,-0.477 0.11583,-1.1379 z"
         style="line-height:120.00000477%;fill:#4467eb;fill-opacity:1;stroke-width:1.16292739px"
         id="path1053"
         inkscape:connector-curvature="0" />
      <path
         d="m 204.2701,1068.0377 v -1.4105 h 1.91474 v 1.4105 z m -0.0409,11.5975 q -0.38158,0 -0.66777,-0.02 -0.27938,-0.014 -0.49061,-0.041 v -1.3492 q 0.0886,0.014 0.17716,0.021 0.0886,0.01 0.17035,0.01 0.26575,0 0.42929,-0.054 0.16353,-0.054 0.25893,-0.184 0.0954,-0.1295 0.12947,-0.3407 0.0341,-0.2113 0.0341,-0.5247 v -7.7816 h 1.91474 v 8.245 q 0,0.4429 -0.10902,0.8108 -0.10903,0.368 -0.34752,0.6405 -0.23168,0.2726 -0.60645,0.4225 -0.36796,0.1499 -0.89264,0.1499 z"
         style="line-height:120.00000477%;fill:#4467eb;fill-opacity:1;stroke-width:1.16292739px"
         id="path1055"
         inkscape:connector-curvature="0" />
    </g>
  </g>
</svg>
