<?xml version="1.0" encoding="UTF-8" standalone="no"?>
<!-- Created with Inkscape (http://www.inkscape.org/) -->

<svg
   xmlns:dc="http://purl.org/dc/elements/1.1/"
   xmlns:cc="http://creativecommons.org/ns#"
   xmlns:rdf="http://www.w3.org/1999/02/22-rdf-syntax-ns#"
   xmlns:svg="http://www.w3.org/2000/svg"
   xmlns="http://www.w3.org/2000/svg"
   xmlns:sodipodi="http://sodipodi.sourceforge.net/DTD/sodipodi-0.dtd"
   xmlns:inkscape="http://www.inkscape.org/namespaces/inkscape"
   width="288.62"
   height="37.9375"
   id="svg3076"
   version="1.1"
   inkscape:version="0.48.5 r10040"
   sodipodi:docname="push.svg">
  <defs
     id="defs3078" />
  <sodipodi:namedview
     id="base"
     pagecolor="#ffffff"
     bordercolor="#666666"
     borderopacity="1.0"
     inkscape:pageopacity="0.0"
     inkscape:pageshadow="2"
     inkscape:zoom="2.0022523"
     inkscape:cx="81.653403"
     inkscape:cy="-7.3487898"
     inkscape:document-units="px"
     inkscape:current-layer="layer1"
     showgrid="false"
     fit-margin-top="0"
     fit-margin-left="0"
     fit-margin-right="0"
     fit-margin-bottom="0"
     inkscape:window-width="1366"
     inkscape:window-height="702"
     inkscape:window-x="0"
     inkscape:window-y="27"
     inkscape:window-maximized="1" />
  <metadata
     id="metadata3081">
    <rdf:RDF>
      <cc:Work
         rdf:about="">
        <dc:format>image/svg+xml</dc:format>
        <dc:type
           rdf:resource="http://purl.org/dc/dcmitype/StillImage" />
        <dc:title />
      </cc:Work>
    </rdf:RDF>
  </metadata>
  <g
     inkscape:label="Layer 1"
     inkscape:groupmode="layer"
     id="layer1"
     transform="translate(-121.125,-154.21875)">
    <g
       id="g4877"
       style="font-size:34.67614365px;font-style:normal;font-weight:normal;line-height:125%;letter-spacing:0px;word-spacing:0px;fill:none;stroke:#ffffff;stroke-width:3;stroke-miterlimit:4;stroke-opacity:1;stroke-dasharray:none;font-family:Sans">
      <path
         id="path4879"
         style="fill:none;stroke:#ffffff;stroke-width:3;stroke-miterlimit:4;stroke-opacity:1;stroke-dasharray:none"
         d="m 125.76629,180.60269 0,10.05744 -3.13237,0 0,-26.17643 3.13237,0 0,2.87839 c 0.65469,-1.12876 1.4787,-1.96406 2.47203,-2.50589 1.00461,-0.55308 2.20111,-0.82963 3.58952,-0.82965 2.3027,2e-5 4.17083,0.91433 5.6044,2.74293 1.44482,1.82864 2.16724,4.23294 2.16726,7.21291 -2e-5,2.97999 -0.72244,5.38429 -2.16726,7.21291 -1.43357,1.82863 -3.3017,2.74294 -5.6044,2.74294 -1.38841,0 -2.58491,-0.27091 -3.58952,-0.81272 -0.99333,-0.5531 -1.81734,-1.39405 -2.47203,-2.52283 m 10.59925,-6.6203 c -1e-5,-2.29141 -0.4741,-4.08617 -1.42226,-5.38428 -0.9369,-1.30937 -2.22936,-1.96406 -3.87736,-1.96408 -1.64803,2e-5 -2.94613,0.65471 -3.8943,1.96408 -0.93689,1.29811 -1.40533,3.09287 -1.40533,5.38428 0,2.29144 0.46844,4.09184 1.40533,5.40122 0.94817,1.2981 2.24627,1.94715 3.8943,1.94715 1.648,0 2.94046,-0.64905 3.87736,-1.94715 0.94816,-1.30938 1.42225,-3.10978 1.42226,-5.40122"
         inkscape:connector-curvature="0" />
      <path
         id="path4881"
         style="fill:none;stroke:#ffffff;stroke-width:3;stroke-miterlimit:4;stroke-opacity:1;stroke-dasharray:none"
         d="m 144.44197,175.9634 0,-11.4797 3.11543,0 0,11.36118 c 0,1.79477 0.34992,3.14366 1.04977,4.04668 0.69984,0.89174 1.7496,1.33761 3.1493,1.33761 1.68187,0 3.00819,-0.53617 3.97895,-1.60852 0.98202,-1.07233 1.47304,-2.5341 1.47306,-4.38531 l 0,-10.75164 3.11543,0 0,18.96352 -3.11543,0 0,-2.91225 c -0.7563,1.15135 -1.63675,2.00923 -2.64135,2.57362 -0.99334,0.5531 -2.15034,0.82965 -3.471,0.82965 -2.17855,0 -3.83221,-0.67727 -4.96099,-2.03181 -1.12878,-1.35453 -1.69317,-3.33554 -1.69317,-5.94303 m 7.83938,-11.93685 0,0"
         inkscape:connector-curvature="0" />
      <path
         id="path4883"
         style="fill:none;stroke:#ffffff;stroke-width:3;stroke-miterlimit:4;stroke-opacity:1;stroke-dasharray:none"
         d="m 171.54964,155.71308 2.50589,0 4.14827,6.36632 -2.35351,0 -3.0477,-4.14827 -3.04771,4.14827 -2.35351,0 4.14827,-6.36632 m 7.3145,9.32937 0,2.94612 c -0.88047,-0.4515 -1.79478,-0.79013 -2.74294,-1.0159 -0.94819,-0.22574 -1.93022,-0.33862 -2.94612,-0.33864 -1.54643,2e-5 -2.70908,0.23706 -3.48793,0.71113 -0.76758,0.47411 -1.15136,1.18524 -1.15136,2.1334 0,0.72243 0.27655,1.29247 0.82966,1.7101 0.55309,0.40637 1.66494,0.7958 3.33555,1.16829 l 1.06669,0.23704 c 2.2124,0.4741 3.7814,1.14573 4.70702,2.01488 0.93687,0.85788 1.40531,2.06003 1.40533,3.60645 -2e-5,1.7609 -0.69986,3.15495 -2.09953,4.18213 -1.38841,1.02719 -3.3017,1.54079 -5.73985,1.54079 -1.01591,0 -2.07696,-0.10159 -3.18316,-0.30477 -1.09492,-0.19189 -2.25192,-0.48538 -3.471,-0.88045 l 0,-3.21703 c 1.15135,0.59826 2.28577,1.04977 3.40327,1.35454 1.11749,0.29349 2.22369,0.44023 3.31862,0.44023 1.4674,0 2.59618,-0.24833 3.38634,-0.745 0.79013,-0.50795 1.1852,-1.21908 1.18522,-2.13339 -2e-5,-0.84658 -0.28785,-1.49563 -0.86352,-1.94715 -0.5644,-0.45151 -1.8117,-0.88609 -3.74191,-1.30374 l -1.08363,-0.25398 c -1.93022,-0.40635 -3.32426,-1.02718 -4.18213,-1.86249 -0.85788,-0.84657 -1.28681,-2.00357 -1.28681,-3.471 0,-1.78346 0.63211,-3.16057 1.89635,-4.13134 1.26423,-0.97073 3.05899,-1.4561 5.38429,-1.45612 1.15134,2e-5 2.23497,0.0847 3.25088,0.25397 1.01589,0.16934 1.95278,0.42331 2.81067,0.76193"
         inkscape:connector-curvature="0" />
      <path
         id="path4885"
         style="fill:none;stroke:#ffffff;stroke-width:3;stroke-miterlimit:4;stroke-opacity:1;stroke-dasharray:none"
         d="m 184.53626,175.9634 0,-11.4797 3.11543,0 0,11.36118 c 0,1.79477 0.34992,3.14366 1.04977,4.04668 0.69984,0.89174 1.7496,1.33761 3.1493,1.33761 1.68187,0 3.00819,-0.53617 3.97895,-1.60852 0.98202,-1.07233 1.47304,-2.5341 1.47306,-4.38531 l 0,-10.75164 3.11543,0 0,18.96352 -3.11543,0 0,-2.91225 c -0.7563,1.15135 -1.63675,2.00923 -2.64135,2.57362 -0.99334,0.5531 -2.15034,0.82965 -3.471,0.82965 -2.17855,0 -3.83222,-0.67727 -4.96099,-2.03181 -1.12878,-1.35453 -1.69317,-3.33554 -1.69317,-5.94303 m 7.83938,-11.93685 0,0"
         inkscape:connector-curvature="0" />
      <path
         id="path4887"
         style="fill:none;stroke:#ffffff;stroke-width:3;stroke-miterlimit:4;stroke-opacity:1;stroke-dasharray:none"
         d="m 217.79014,157.10148 3.13237,0 0,15.56024 9.29551,-8.17802 3.97895,0 -10.05743,8.87222 10.48072,10.0913 -4.06361,0 -9.63414,-9.26165 0,9.26165 -3.13237,0 0,-26.34574"
         inkscape:connector-curvature="0" />
      <path
         id="path4889"
         style="fill:none;stroke:#ffffff;stroke-width:3;stroke-miterlimit:4;stroke-opacity:1;stroke-dasharray:none"
         d="m 238.02353,157.10148 3.11544,0 0,26.34574 -3.11544,0 0,-26.34574"
         inkscape:connector-curvature="0" />
      <path
         id="path4891"
         style="fill:none;stroke:#ffffff;stroke-width:3;stroke-miterlimit:4;stroke-opacity:1;stroke-dasharray:none"
         d="m 256.25899,173.91467 c -2.51719,1e-5 -4.26116,0.28785 -5.2319,0.86351 -0.97076,0.57569 -1.45614,1.55773 -1.45613,2.94612 -1e-5,1.10621 0.3612,1.98666 1.08363,2.64135 0.7337,0.64341 1.72703,0.96511 2.97998,0.96511 1.72702,0 3.10978,-0.60954 4.14827,-1.82863 1.04975,-1.23036 1.57463,-2.86145 1.57465,-4.89326 l 0,-0.6942 -3.0985,0 m 6.21393,-1.28681 0,10.81936 -3.11543,0 0,-2.87839 c -0.71115,1.15136 -1.59724,2.00359 -2.65828,2.55669 -1.06106,0.54181 -2.35916,0.81272 -3.89429,0.81272 -1.94151,0 -3.48794,-0.54182 -4.63929,-1.62544 -1.14007,-1.09492 -1.71011,-2.55669 -1.7101,-4.38532 -1e-5,-2.13339 0.71112,-3.7419 2.13339,-4.82554 1.43355,-1.08361 3.56694,-1.62543 6.40019,-1.62544 l 4.36838,0 0,-0.30477 c -2e-5,-1.43354 -0.4741,-2.53974 -1.42226,-3.31862 -0.93691,-0.79013 -2.25758,-1.1852 -3.96203,-1.18522 -1.08363,2e-5 -2.13904,0.12983 -3.16623,0.38943 -1.02719,0.25964 -2.01487,0.64907 -2.96304,1.16829 l 0,-2.87839 c 1.14006,-0.4402 2.24626,-0.76755 3.31861,-0.98204 1.07233,-0.22574 2.11646,-0.33861 3.13237,-0.33863 2.74292,2e-5 4.79166,0.71115 6.14621,2.13339 1.35452,1.42228 2.03179,3.57825 2.0318,6.46792"
         inkscape:connector-curvature="0" />
      <path
         id="path4893"
         style="fill:none;stroke:#ffffff;stroke-width:3;stroke-miterlimit:4;stroke-opacity:1;stroke-dasharray:none"
         d="m 266.67199,164.4837 3.30168,0 5.9261,15.91581 5.9261,-15.91581 3.30168,0 -7.11132,18.96352 -4.23292,0 -7.11132,-18.96352"
         inkscape:connector-curvature="0" />
      <path
         id="path4895"
         style="fill:none;stroke:#ffffff;stroke-width:3;stroke-miterlimit:4;stroke-opacity:1;stroke-dasharray:none"
         d="m 296.77658,166.66789 c -1.67061,2e-5 -2.99128,0.65471 -3.96202,1.96408 -0.97076,1.29811 -1.45614,3.08159 -1.45613,5.35042 -10e-6,2.26886 0.47972,4.05798 1.43919,5.36736 0.97075,1.2981 2.29706,1.94714 3.97896,1.94714 1.65929,0 2.97432,-0.65469 3.94508,-1.96408 0.97074,-1.30938 1.45612,-3.09285 1.45613,-5.35042 -1e-5,-2.24626 -0.48539,-4.02409 -1.45613,-5.33349 -0.97076,-1.32065 -2.28579,-1.98099 -3.94508,-1.98101 m 0,-2.64134 c 2.70906,2e-5 4.83681,0.88047 6.38325,2.64134 1.54641,1.76092 2.31963,4.19908 2.31964,7.3145 -10e-6,3.10416 -0.77323,5.54232 -2.31964,7.3145 -1.54644,1.7609 -3.67419,2.64135 -6.38325,2.64135 -2.72037,0 -4.85377,-0.88045 -6.40019,-2.64135 -1.53515,-1.77218 -2.30272,-4.21034 -2.30271,-7.3145 -1e-5,-3.11542 0.76756,-5.55358 2.30271,-7.3145 1.54642,-1.76087 3.67982,-2.64132 6.40019,-2.64134"
         inkscape:connector-curvature="0" />
      <path
         id="path4897"
         style="fill:none;stroke:#ffffff;stroke-width:3;stroke-miterlimit:4;stroke-opacity:1;stroke-dasharray:none"
         d="m 326.39014,172.00138 0,11.44584 -3.11544,0 0,-11.34425 c -10e-6,-1.79474 -0.34994,-3.13799 -1.04976,-4.02974 -0.69986,-0.89172 -1.74963,-1.33759 -3.1493,-1.33761 -1.6819,2e-5 -3.00821,0.53619 -3.97895,1.60851 -0.97076,1.07236 -1.45614,2.53413 -1.45613,4.38532 l 0,10.71777 -3.13237,0 0,-18.96352 3.13237,0 0,2.94612 c 0.74499,-1.14005 1.61979,-1.99228 2.62441,-2.55669 1.0159,-0.56437 2.18418,-0.84656 3.50487,-0.84658 2.17853,2e-5 3.82655,0.67728 4.94406,2.0318 1.11747,1.34327 1.67622,3.32428 1.67624,5.94303"
         inkscape:connector-curvature="0" />
      <path
         id="path4899"
         style="fill:none;stroke:#ffffff;stroke-width:3;stroke-miterlimit:4;stroke-opacity:1;stroke-dasharray:none"
         d="m 346.69125,180.60269 0,10.05744 -3.13237,0 0,-26.17643 3.13237,0 0,2.87839 c 0.65468,-1.12876 1.47869,-1.96406 2.47203,-2.50589 1.0046,-0.55308 2.20111,-0.82963 3.58952,-0.82965 2.3027,2e-5 4.17083,0.91433 5.6044,2.74293 1.44482,1.82864 2.16724,4.23294 2.16726,7.21291 -2e-5,2.97999 -0.72244,5.38429 -2.16726,7.21291 -1.43357,1.82863 -3.3017,2.74294 -5.6044,2.74294 -1.38841,0 -2.58492,-0.27091 -3.58952,-0.81272 -0.99334,-0.5531 -1.81735,-1.39405 -2.47203,-2.52283 m 10.59925,-6.6203 c -2e-5,-2.29141 -0.4741,-4.08617 -1.42226,-5.38428 -0.93691,-1.30937 -2.22936,-1.96406 -3.87737,-1.96408 -1.64803,2e-5 -2.94612,0.65471 -3.89429,1.96408 -0.93689,1.29811 -1.40534,3.09287 -1.40533,5.38428 -1e-5,2.29144 0.46844,4.09184 1.40533,5.40122 0.94817,1.2981 2.24626,1.94715 3.89429,1.94715 1.64801,0 2.94046,-0.64905 3.87737,-1.94715 0.94816,-1.30938 1.42224,-3.10978 1.42226,-5.40122"
         inkscape:connector-curvature="0" />
      <path
         id="path4901"
         style="fill:none;stroke:#ffffff;stroke-width:3;stroke-miterlimit:4;stroke-opacity:1;stroke-dasharray:none"
         d="m 373.037,166.66789 c -1.67061,2e-5 -2.99128,0.65471 -3.96202,1.96408 -0.97076,1.29811 -1.45614,3.08159 -1.45613,5.35042 -1e-5,2.26886 0.47973,4.05798 1.4392,5.36736 0.97074,1.2981 2.29705,1.94714 3.97895,1.94714 1.65929,0 2.97432,-0.65469 3.94509,-1.96408 0.97073,-1.30938 1.45611,-3.09285 1.45612,-5.35042 -1e-5,-2.24626 -0.48539,-4.02409 -1.45612,-5.33349 -0.97077,-1.32065 -2.2858,-1.98099 -3.94509,-1.98101 m 0,-2.64134 c 2.70906,2e-5 4.83681,0.88047 6.38325,2.64134 1.54641,1.76092 2.31963,4.19908 2.31965,7.3145 -2e-5,3.10416 -0.77324,5.54232 -2.31965,7.3145 -1.54644,1.7609 -3.67419,2.64135 -6.38325,2.64135 -2.72037,0 -4.85377,-0.88045 -6.40019,-2.64135 -1.53514,-1.77218 -2.30271,-4.21034 -2.30271,-7.3145 0,-3.11542 0.76757,-5.55358 2.30271,-7.3145 1.54642,-1.76087 3.67982,-2.64132 6.40019,-2.64134"
         inkscape:connector-curvature="0" />
      <path
         id="path4903"
         style="fill:none;stroke:#ffffff;stroke-width:3;stroke-miterlimit:4;stroke-opacity:1;stroke-dasharray:none"
         d="m 397.87583,167.39596 c -0.34993,-0.20317 -0.73372,-0.34991 -1.15135,-0.44023 -0.40638,-0.10157 -0.85789,-0.15237 -1.35454,-0.15238 -1.76091,1e-5 -3.11544,0.57569 -4.06361,1.72703 -0.9369,1.14008 -1.40534,2.78246 -1.40533,4.92713 l 0,9.98971 -3.13237,0 0,-18.96352 3.13237,0 0,2.94612 c 0.65468,-1.15134 1.50691,-2.00357 2.55668,-2.55669 1.04976,-0.56437 2.32528,-0.84656 3.82657,-0.84658 0.21446,2e-5 0.4515,0.017 0.71113,0.0508 0.25961,0.0226 0.54745,0.0621 0.86352,0.11852 l 0.0169,3.2001"
         inkscape:connector-curvature="0" />
      <path
         id="path4905"
         style="fill:none;stroke:#ffffff;stroke-width:3;stroke-miterlimit:4;stroke-opacity:1;stroke-dasharray:none"
         d="m 412.21699,164.4837 3.11543,0 0,18.96352 -3.11543,0 0,-18.96352 m 0,-7.38222 3.11543,0 0,3.94509 -3.11543,0 0,-3.94509"
         inkscape:connector-curvature="0" />
      <path
         id="path4907"
         style="fill:none;stroke:#ffffff;stroke-width:3;stroke-miterlimit:4;stroke-opacity:1;stroke-dasharray:none"
         d="m 432.82285,167.39596 c -0.34993,-0.20317 -0.73372,-0.34991 -1.15135,-0.44023 -0.40638,-0.10157 -0.85789,-0.15237 -1.35454,-0.15238 -1.76091,1e-5 -3.11544,0.57569 -4.06361,1.72703 -0.9369,1.14008 -1.40534,2.78246 -1.40533,4.92713 l 0,9.98971 -3.13237,0 0,-18.96352 3.13237,0 0,2.94612 c 0.65468,-1.15134 1.50691,-2.00357 2.55669,-2.55669 1.04975,-0.56437 2.32527,-0.84656 3.82656,-0.84658 0.21446,2e-5 0.4515,0.017 0.71113,0.0508 0.25961,0.0226 0.54745,0.0621 0.86352,0.11852 l 0.0169,3.2001"
         inkscape:connector-curvature="0" />
      <path
         id="path4909"
         style="fill:none;stroke:#ffffff;stroke-width:3;stroke-miterlimit:4;stroke-opacity:1;stroke-dasharray:none"
         d="m 436.12455,164.4837 3.11543,0 0,18.96352 -3.11543,0 0,-18.96352 m 0,-7.38222 3.11543,0 0,3.94509 -3.11543,0 0,-3.94509"
         inkscape:connector-curvature="0" />
    </g>
    <path
       style="font-size:34.67614365px;font-style:normal;font-weight:normal;line-height:125%;letter-spacing:0px;word-spacing:0px;fill:#4467eb;fill-opacity:1;stroke:none;font-family:Sans"
       inkscape:connector-curvature="0"
       id="path4845"
       d="m 125.76629,180.60269 0,10.05744 -3.13237,0 0,-26.17643 3.13237,0 0,2.87839 c 0.65469,-1.12876 1.4787,-1.96406 2.47203,-2.50589 1.00461,-0.55308 2.20111,-0.82963 3.58952,-0.82965 2.3027,2e-5 4.17083,0.91433 5.6044,2.74293 1.44482,1.82864 2.16724,4.23294 2.16726,7.21291 -2e-5,2.97999 -0.72244,5.38429 -2.16726,7.21291 -1.43357,1.82863 -3.3017,2.74294 -5.6044,2.74294 -1.38841,0 -2.58491,-0.27091 -3.58952,-0.81272 -0.99333,-0.5531 -1.81734,-1.39405 -2.47203,-2.52283 m 10.59925,-6.6203 c -1e-5,-2.29141 -0.4741,-4.08617 -1.42226,-5.38428 -0.9369,-1.30937 -2.22936,-1.96406 -3.87736,-1.96408 -1.64803,2e-5 -2.94613,0.65471 -3.8943,1.96408 -0.93689,1.29811 -1.40533,3.09287 -1.40533,5.38428 0,2.29144 0.46844,4.09184 1.40533,5.40122 0.94817,1.2981 2.24627,1.94715 3.8943,1.94715 1.648,0 2.94046,-0.64905 3.87736,-1.94715 0.94816,-1.30938 1.42225,-3.10978 1.42226,-5.40122" />
    <path
       style="font-size:34.67614365px;font-style:normal;font-weight:normal;line-height:125%;letter-spacing:0px;word-spacing:0px;fill:#4467eb;fill-opacity:1;stroke:none;font-family:Sans"
       inkscape:connector-curvature="0"
       id="path4847"
       d="m 144.44197,175.9634 0,-11.4797 3.11543,0 0,11.36118 c 0,1.79477 0.34992,3.14366 1.04977,4.04668 0.69984,0.89174 1.7496,1.33761 3.1493,1.33761 1.68187,0 3.00819,-0.53617 3.97895,-1.60852 0.98202,-1.07233 1.47304,-2.5341 1.47306,-4.38531 l 0,-10.75164 3.11543,0 0,18.96352 -3.11543,0 0,-2.91225 c -0.7563,1.15135 -1.63675,2.00923 -2.64135,2.57362 -0.99334,0.5531 -2.15034,0.82965 -3.471,0.82965 -2.17855,0 -3.83221,-0.67727 -4.96099,-2.03181 -1.12878,-1.35453 -1.69317,-3.33554 -1.69317,-5.94303 m 7.83938,-11.93685 0,0" />
    <path
       style="font-size:34.67614365px;font-style:normal;font-weight:normal;line-height:125%;letter-spacing:0px;word-spacing:0px;fill:#4467eb;fill-opacity:1;stroke:none;font-family:Sans"
       inkscape:connector-curvature="0"
       id="path4849"
       d="m 171.54964,155.71308 2.50589,0 4.14827,6.36632 -2.35351,0 -3.0477,-4.14827 -3.04771,4.14827 -2.35351,0 4.14827,-6.36632 m 7.3145,9.32937 0,2.94612 c -0.88047,-0.4515 -1.79478,-0.79013 -2.74294,-1.0159 -0.94819,-0.22574 -1.93022,-0.33862 -2.94612,-0.33864 -1.54643,2e-5 -2.70908,0.23706 -3.48793,0.71113 -0.76758,0.47411 -1.15136,1.18524 -1.15136,2.1334 0,0.72243 0.27655,1.29247 0.82966,1.7101 0.55309,0.40637 1.66494,0.7958 3.33555,1.16829 l 1.06669,0.23704 c 2.2124,0.4741 3.7814,1.14573 4.70702,2.01488 0.93687,0.85788 1.40531,2.06003 1.40533,3.60645 -2e-5,1.7609 -0.69986,3.15495 -2.09953,4.18213 -1.38841,1.02719 -3.3017,1.54079 -5.73985,1.54079 -1.01591,0 -2.07696,-0.10159 -3.18316,-0.30477 -1.09492,-0.19189 -2.25192,-0.48538 -3.471,-0.88045 l 0,-3.21703 c 1.15135,0.59826 2.28577,1.04977 3.40327,1.35454 1.11749,0.29349 2.22369,0.44023 3.31862,0.44023 1.4674,0 2.59618,-0.24833 3.38634,-0.745 0.79013,-0.50795 1.1852,-1.21908 1.18522,-2.13339 -2e-5,-0.84658 -0.28785,-1.49563 -0.86352,-1.94715 -0.5644,-0.45151 -1.8117,-0.88609 -3.74191,-1.30374 l -1.08363,-0.25398 c -1.93022,-0.40635 -3.32426,-1.02718 -4.18213,-1.86249 -0.85788,-0.84657 -1.28681,-2.00357 -1.28681,-3.471 0,-1.78346 0.63211,-3.16057 1.89635,-4.13134 1.26423,-0.97073 3.05899,-1.4561 5.38429,-1.45612 1.15134,2e-5 2.23497,0.0847 3.25088,0.25397 1.01589,0.16934 1.95278,0.42331 2.81067,0.76193" />
    <path
       style="font-size:34.67614365px;font-style:normal;font-weight:normal;line-height:125%;letter-spacing:0px;word-spacing:0px;fill:#4467eb;fill-opacity:1;stroke:none;font-family:Sans"
       inkscape:connector-curvature="0"
       id="path4851"
       d="m 184.53626,175.9634 0,-11.4797 3.11543,0 0,11.36118 c 0,1.79477 0.34992,3.14366 1.04977,4.04668 0.69984,0.89174 1.7496,1.33761 3.1493,1.33761 1.68187,0 3.00819,-0.53617 3.97895,-1.60852 0.98202,-1.07233 1.47304,-2.5341 1.47306,-4.38531 l 0,-10.75164 3.11543,0 0,18.96352 -3.11543,0 0,-2.91225 c -0.7563,1.15135 -1.63675,2.00923 -2.64135,2.57362 -0.99334,0.5531 -2.15034,0.82965 -3.471,0.82965 -2.17855,0 -3.83222,-0.67727 -4.96099,-2.03181 -1.12878,-1.35453 -1.69317,-3.33554 -1.69317,-5.94303 m 7.83938,-11.93685 0,0" />
    <path
       style="font-size:34.67614365px;font-style:normal;font-weight:normal;line-height:125%;letter-spacing:0px;word-spacing:0px;fill:#4467eb;fill-opacity:1;stroke:none;font-family:Sans"
       inkscape:connector-curvature="0"
       id="path4853"
       d="m 217.79014,157.10148 3.13237,0 0,15.56024 9.29551,-8.17802 3.97895,0 -10.05743,8.87222 10.48072,10.0913 -4.06361,0 -9.63414,-9.26165 0,9.26165 -3.13237,0 0,-26.34574" />
    <path
       style="font-size:34.67614365px;font-style:normal;font-weight:normal;line-height:125%;letter-spacing:0px;word-spacing:0px;fill:#4467eb;fill-opacity:1;stroke:none;font-family:Sans"
       inkscape:connector-curvature="0"
       id="path4855"
       d="m 238.02353,157.10148 3.11544,0 0,26.34574 -3.11544,0 0,-26.34574" />
    <path
       style="font-size:34.67614365px;font-style:normal;font-weight:normal;line-height:125%;letter-spacing:0px;word-spacing:0px;fill:#4467eb;fill-opacity:1;stroke:none;font-family:Sans"
       inkscape:connector-curvature="0"
       id="path4857"
       d="m 256.25899,173.91467 c -2.51719,1e-5 -4.26116,0.28785 -5.2319,0.86351 -0.97076,0.57569 -1.45614,1.55773 -1.45613,2.94612 -1e-5,1.10621 0.3612,1.98666 1.08363,2.64135 0.7337,0.64341 1.72703,0.96511 2.97998,0.96511 1.72702,0 3.10978,-0.60954 4.14827,-1.82863 1.04975,-1.23036 1.57463,-2.86145 1.57465,-4.89326 l 0,-0.6942 -3.0985,0 m 6.21393,-1.28681 0,10.81936 -3.11543,0 0,-2.87839 c -0.71115,1.15136 -1.59724,2.00359 -2.65828,2.55669 -1.06106,0.54181 -2.35916,0.81272 -3.89429,0.81272 -1.94151,0 -3.48794,-0.54182 -4.63929,-1.62544 -1.14007,-1.09492 -1.71011,-2.55669 -1.7101,-4.38532 -1e-5,-2.13339 0.71112,-3.7419 2.13339,-4.82554 1.43355,-1.08361 3.56694,-1.62543 6.40019,-1.62544 l 4.36838,0 0,-0.30477 c -2e-5,-1.43354 -0.4741,-2.53974 -1.42226,-3.31862 -0.93691,-0.79013 -2.25758,-1.1852 -3.96203,-1.18522 -1.08363,2e-5 -2.13904,0.12983 -3.16623,0.38943 -1.02719,0.25964 -2.01487,0.64907 -2.96304,1.16829 l 0,-2.87839 c 1.14006,-0.4402 2.24626,-0.76755 3.31861,-0.98204 1.07233,-0.22574 2.11646,-0.33861 3.13237,-0.33863 2.74292,2e-5 4.79166,0.71115 6.14621,2.13339 1.35452,1.42228 2.03179,3.57825 2.0318,6.46792" />
    <path
       style="font-size:34.67614365px;font-style:normal;font-weight:normal;line-height:125%;letter-spacing:0px;word-spacing:0px;fill:#4467eb;fill-opacity:1;stroke:none;font-family:Sans"
       inkscape:connector-curvature="0"
       id="path4859"
       d="m 266.67199,164.4837 3.30168,0 5.9261,15.91581 5.9261,-15.91581 3.30168,0 -7.11132,18.96352 -4.23292,0 -7.11132,-18.96352" />
    <path
       style="font-size:34.67614365px;font-style:normal;font-weight:normal;line-height:125%;letter-spacing:0px;word-spacing:0px;fill:#4467eb;fill-opacity:1;stroke:none;font-family:Sans"
       inkscape:connector-curvature="0"
       id="path4861"
       d="m 296.77658,166.66789 c -1.67061,2e-5 -2.99128,0.65471 -3.96202,1.96408 -0.97076,1.29811 -1.45614,3.08159 -1.45613,5.35042 -10e-6,2.26886 0.47972,4.05798 1.43919,5.36736 0.97075,1.2981 2.29706,1.94714 3.97896,1.94714 1.65929,0 2.97432,-0.65469 3.94508,-1.96408 0.97074,-1.30938 1.45612,-3.09285 1.45613,-5.35042 -1e-5,-2.24626 -0.48539,-4.02409 -1.45613,-5.33349 -0.97076,-1.32065 -2.28579,-1.98099 -3.94508,-1.98101 m 0,-2.64134 c 2.70906,2e-5 4.83681,0.88047 6.38325,2.64134 1.54641,1.76092 2.31963,4.19908 2.31964,7.3145 -10e-6,3.10416 -0.77323,5.54232 -2.31964,7.3145 -1.54644,1.7609 -3.67419,2.64135 -6.38325,2.64135 -2.72037,0 -4.85377,-0.88045 -6.40019,-2.64135 -1.53515,-1.77218 -2.30272,-4.21034 -2.30271,-7.3145 -1e-5,-3.11542 0.76756,-5.55358 2.30271,-7.3145 1.54642,-1.76087 3.67982,-2.64132 6.40019,-2.64134" />
    <path
       style="font-size:34.67614365px;font-style:normal;font-weight:normal;line-height:125%;letter-spacing:0px;word-spacing:0px;fill:#4467eb;fill-opacity:1;stroke:none;font-family:Sans"
       inkscape:connector-curvature="0"
       id="path4863"
       d="m 326.39014,172.00138 0,11.44584 -3.11544,0 0,-11.34425 c -10e-6,-1.79474 -0.34994,-3.13799 -1.04976,-4.02974 -0.69986,-0.89172 -1.74963,-1.33759 -3.1493,-1.33761 -1.6819,2e-5 -3.00821,0.53619 -3.97895,1.60851 -0.97076,1.07236 -1.45614,2.53413 -1.45613,4.38532 l 0,10.71777 -3.13237,0 0,-18.96352 3.13237,0 0,2.94612 c 0.74499,-1.14005 1.61979,-1.99228 2.62441,-2.55669 1.0159,-0.56437 2.18418,-0.84656 3.50487,-0.84658 2.17853,2e-5 3.82655,0.67728 4.94406,2.0318 1.11747,1.34327 1.67622,3.32428 1.67624,5.94303" />
    <path
       style="font-size:34.67614365px;font-style:normal;font-weight:normal;line-height:125%;letter-spacing:0px;word-spacing:0px;fill:#4467eb;fill-opacity:1;stroke:none;font-family:Sans"
       inkscape:connector-curvature="0"
       id="path4865"
       d="m 346.69125,180.60269 0,10.05744 -3.13237,0 0,-26.17643 3.13237,0 0,2.87839 c 0.65468,-1.12876 1.47869,-1.96406 2.47203,-2.50589 1.0046,-0.55308 2.20111,-0.82963 3.58952,-0.82965 2.3027,2e-5 4.17083,0.91433 5.6044,2.74293 1.44482,1.82864 2.16724,4.23294 2.16726,7.21291 -2e-5,2.97999 -0.72244,5.38429 -2.16726,7.21291 -1.43357,1.82863 -3.3017,2.74294 -5.6044,2.74294 -1.38841,0 -2.58492,-0.27091 -3.58952,-0.81272 -0.99334,-0.5531 -1.81735,-1.39405 -2.47203,-2.52283 m 10.59925,-6.6203 c -2e-5,-2.29141 -0.4741,-4.08617 -1.42226,-5.38428 -0.93691,-1.30937 -2.22936,-1.96406 -3.87737,-1.96408 -1.64803,2e-5 -2.94612,0.65471 -3.89429,1.96408 -0.93689,1.29811 -1.40534,3.09287 -1.40533,5.38428 -1e-5,2.29144 0.46844,4.09184 1.40533,5.40122 0.94817,1.2981 2.24626,1.94715 3.89429,1.94715 1.64801,0 2.94046,-0.64905 3.87737,-1.94715 0.94816,-1.30938 1.42224,-3.10978 1.42226,-5.40122" />
    <path
       style="font-size:34.67614365px;font-style:normal;font-weight:normal;line-height:125%;letter-spacing:0px;word-spacing:0px;fill:#4467eb;fill-opacity:1;stroke:none;font-family:Sans"
       inkscape:connector-curvature="0"
       id="path4867"
       d="m 373.037,166.66789 c -1.67061,2e-5 -2.99128,0.65471 -3.96202,1.96408 -0.97076,1.29811 -1.45614,3.08159 -1.45613,5.35042 -1e-5,2.26886 0.47973,4.05798 1.4392,5.36736 0.97074,1.2981 2.29705,1.94714 3.97895,1.94714 1.65929,0 2.97432,-0.65469 3.94509,-1.96408 0.97073,-1.30938 1.45611,-3.09285 1.45612,-5.35042 -1e-5,-2.24626 -0.48539,-4.02409 -1.45612,-5.33349 -0.97077,-1.32065 -2.2858,-1.98099 -3.94509,-1.98101 m 0,-2.64134 c 2.70906,2e-5 4.83681,0.88047 6.38325,2.64134 1.54641,1.76092 2.31963,4.19908 2.31965,7.3145 -2e-5,3.10416 -0.77324,5.54232 -2.31965,7.3145 -1.54644,1.7609 -3.67419,2.64135 -6.38325,2.64135 -2.72037,0 -4.85377,-0.88045 -6.40019,-2.64135 -1.53514,-1.77218 -2.30271,-4.21034 -2.30271,-7.3145 0,-3.11542 0.76757,-5.55358 2.30271,-7.3145 1.54642,-1.76087 3.67982,-2.64132 6.40019,-2.64134" />
    <path
       style="font-size:34.67614365px;font-style:normal;font-weight:normal;line-height:125%;letter-spacing:0px;word-spacing:0px;fill:#4467eb;fill-opacity:1;stroke:none;font-family:Sans"
       inkscape:connector-curvature="0"
       id="path4869"
       d="m 397.87583,167.39596 c -0.34993,-0.20317 -0.73372,-0.34991 -1.15135,-0.44023 -0.40638,-0.10157 -0.85789,-0.15237 -1.35454,-0.15238 -1.76091,1e-5 -3.11544,0.57569 -4.06361,1.72703 -0.9369,1.14008 -1.40534,2.78246 -1.40533,4.92713 l 0,9.98971 -3.13237,0 0,-18.96352 3.13237,0 0,2.94612 c 0.65468,-1.15134 1.50691,-2.00357 2.55668,-2.55669 1.04976,-0.56437 2.32528,-0.84656 3.82657,-0.84658 0.21446,2e-5 0.4515,0.017 0.71113,0.0508 0.25961,0.0226 0.54745,0.0621 0.86352,0.11852 l 0.0169,3.2001" />
  </g>
</svg>
