ply
format ascii 1.0
comment Created by Blender 2.69 (sub 0) - www.blender.org, source file: 'player.blend'
element vertex 18
property float x
property float y
property float z
property float nx
property float ny
property float nz
element face 5
property list uchar uint vertex_indices
end_header
0.000000 0.366667 0.000000 -0.894427 0.447214 0.000000
-0.400000 -0.433333 0.000000 -0.894427 0.447214 0.000000
-0.400000 -0.433333 1.800000 -0.894427 0.447214 0.000000
0.000000 0.366667 1.800000 -0.894427 0.447214 0.000000
0.000000 0.366667 1.800000 0.894427 0.447214 0.000000
0.400000 -0.433333 1.800000 0.894427 0.447214 0.000000
0.400000 -0.433333 0.000000 0.894427 0.447214 0.000000
0.000000 0.366667 0.000000 0.894427 0.447214 0.000000
-0.400000 -0.433333 0.000000 0.000000 -1.000000 -0.000000
0.400000 -0.433333 0.000000 0.000000 -1.000000 -0.000000
0.400000 -0.433333 1.800000 0.000000 -1.000000 -0.000000
-0.400000 -0.433333 1.800000 0.000000 -1.000000 -0.000000
-0.400000 -0.433333 0.000000 -0.000000 0.000000 -1.000000
0.000000 0.366667 0.000000 -0.000000 0.000000 -1.000000
0.400000 -0.433333 0.000000 -0.000000 0.000000 -1.000000
0.400000 -0.433333 1.800000 -0.000000 0.000000 1.000000
0.000000 0.366667 1.800000 -0.000000 0.000000 1.000000
-0.400000 -0.433333 1.800000 -0.000000 0.000000 1.000000
4 0 1 2 3
4 4 5 6 7
4 8 9 10 11
3 12 13 14
3 15 16 17
