ply
format ascii 1.0
comment Created by Blender 2.69 (sub 0) - www.blender.org, source file: 'person.blend'
element vertex 18
property float x
property float y
property float z
property float nx
property float ny
property float nz
element face 5
property list uchar uint vertex_indices
end_header
0.533333 -0.166664 0.000000 0.447210 0.894429 0.000000
-0.266668 0.233332 0.000000 0.447210 0.894429 0.000000
-0.266668 0.233332 1.800000 0.447210 0.894429 0.000000
0.533333 -0.166664 1.800000 0.447210 0.894429 0.000000
0.533333 -0.166664 1.800000 0.447217 -0.894425 0.000000
-0.266665 -0.566668 1.800000 0.447217 -0.894425 0.000000
-0.266665 -0.566668 0.000000 0.447217 -0.894425 0.000000
0.533333 -0.166664 0.000000 0.447217 -0.894425 0.000000
-0.266668 0.233332 0.000000 -1.000000 -0.000004 0.000000
-0.266665 -0.566668 0.000000 -1.000000 -0.000004 0.000000
-0.266665 -0.566668 1.800000 -1.000000 -0.000004 0.000000
-0.266668 0.233332 1.800000 -1.000000 -0.000004 0.000000
-0.266668 0.233332 0.000000 0.000000 0.000000 -1.000000
0.533333 -0.166664 0.000000 0.000000 0.000000 -1.000000
-0.266665 -0.566668 0.000000 0.000000 0.000000 -1.000000
-0.266665 -0.566668 1.800000 0.000000 0.000000 1.000000
0.533333 -0.166664 1.800000 0.000000 0.000000 1.000000
-0.266668 0.233332 1.800000 0.000000 0.000000 1.000000
4 0 1 2 3
4 4 5 6 7
4 8 9 10 11
3 12 13 14
3 15 16 17
