ply
format ascii 1.0
comment Created by Blender 2.69 (sub 0) - www.blender.org, source file: 'barrel.blend'
element vertex 176
property float x
property float y
property float z
property uchar red
property uchar green
property uchar blue
element face 94
property list uchar uint vertex_indices
end_header
0.000000 0.467956 0.787983 130 37 19
0.000000 0.377946 1.000000 130 37 19
0.144634 0.349176 1.000000 130 37 19
0.179079 0.432335 0.787983 130 37 19
0.267248 0.267248 1.000000 130 37 19
0.330895 0.330895 0.787983 130 37 19
0.349176 0.144634 1.000000 130 37 19
0.432335 0.179079 0.787983 130 37 19
0.377946 -0.000000 1.000000 130 37 19
0.467956 -0.000000 0.787983 130 37 19
0.349176 -0.144634 1.000000 130 37 19
0.432335 -0.179079 0.787983 130 37 19
0.267248 -0.267248 1.000000 130 37 19
0.330895 -0.330895 0.787983 130 37 19
0.144634 -0.349176 1.000000 130 37 19
0.179079 -0.432335 0.787983 130 37 19
0.000000 -0.377946 1.000000 130 37 19
0.000000 -0.467956 0.787983 130 37 19
-0.144633 -0.349176 1.000000 130 37 19
-0.179079 -0.432335 0.787983 130 37 19
-0.267248 -0.267248 1.000000 130 37 19
-0.330895 -0.330895 0.787983 130 37 19
-0.349176 -0.144634 1.000000 130 37 19
-0.432335 -0.179079 0.787983 130 37 19
-0.377946 0.000000 1.000000 130 37 19
-0.467956 0.000000 0.787983 130 37 19
-0.349176 0.144634 1.000000 130 37 19
-0.432335 0.179079 0.787983 130 37 19
-0.267248 0.267248 1.000000 130 37 19
-0.330895 0.330895 0.787983 130 37 19
0.144634 0.349176 1.000000 184 53 27
0.000000 0.377946 1.000000 184 53 27
-0.144633 0.349176 1.000000 184 53 27
-0.267248 0.267248 1.000000 184 53 27
0.267248 0.267248 1.000000 184 53 27
-0.349176 0.144634 1.000000 184 53 27
0.349176 0.144634 1.000000 184 53 27
-0.377946 0.000000 1.000000 184 53 27
0.377946 -0.000000 1.000000 184 53 27
-0.349176 -0.144634 1.000000 184 53 27
0.349176 -0.144634 1.000000 184 53 27
0.267248 -0.267248 1.000000 184 53 27
-0.267248 -0.267248 1.000000 184 53 27
0.144634 -0.349176 1.000000 184 53 27
-0.144633 -0.349176 1.000000 184 53 27
0.000000 -0.377946 1.000000 184 53 27
-0.179079 0.432335 0.787983 130 37 19
-0.144633 0.349176 1.000000 130 37 19
0.000000 0.500000 0.348425 209 60 31
0.000000 0.500000 0.671061 209 60 31
0.191342 0.461940 0.671061 209 60 31
0.191342 0.461940 0.348425 209 60 31
0.353553 0.353553 0.671061 209 60 31
0.353553 0.353553 0.348425 209 60 31
0.461940 0.191342 0.671061 209 60 31
0.461940 0.191342 0.348425 209 60 31
0.500000 -0.000000 0.671061 209 60 31
0.500000 -0.000000 0.348425 209 60 31
0.461940 -0.191342 0.671061 209 60 31
0.461940 -0.191342 0.348425 209 60 31
0.353553 -0.353553 0.671061 209 60 31
0.353553 -0.353553 0.348425 209 60 31
0.191342 -0.461940 0.671061 209 60 31
0.191342 -0.461940 0.348425 209 60 31
0.000000 -0.500000 0.671061 209 60 31
0.000000 -0.500000 0.348425 209 60 31
-0.191342 -0.461940 0.671061 209 60 31
-0.191342 -0.461940 0.348425 209 60 31
-0.353553 -0.353554 0.671061 209 60 31
-0.353553 -0.353554 0.348425 209 60 31
-0.461940 -0.191342 0.671061 209 60 31
-0.461940 -0.191342 0.348425 209 60 31
-0.500000 0.000000 0.671061 209 60 31
-0.500000 0.000000 0.348425 209 60 31
-0.461940 0.191342 0.671061 209 60 31
-0.461940 0.191342 0.348425 209 60 31
-0.353553 0.353554 0.671061 209 60 31
-0.353553 0.353554 0.348425 209 60 31
-0.191341 0.461940 0.348425 209 60 31
-0.191341 0.461940 0.671061 209 60 31
0.000000 0.467956 0.246851 41 41 41
0.000000 0.500000 0.348425 41 41 41
0.191342 0.461940 0.348425 41 41 41
0.179079 0.432335 0.246851 41 41 41
0.353553 0.353553 0.348425 41 41 41
0.330895 0.330895 0.246851 41 41 41
0.461940 0.191342 0.348425 41 41 41
0.432335 0.179079 0.246851 41 41 41
0.500000 -0.000000 0.348425 41 41 41
0.467956 -0.000000 0.246851 41 41 41
0.461940 -0.191342 0.348425 41 41 41
0.432335 -0.179079 0.246851 41 41 41
0.353553 -0.353553 0.348425 41 41 41
0.330895 -0.330895 0.246851 41 41 41
0.191342 -0.461940 0.348425 41 41 41
0.179079 -0.432335 0.246851 41 41 41
0.000000 -0.500000 0.348425 41 41 41
0.000000 -0.467956 0.246851 41 41 41
-0.191342 -0.461940 0.348425 41 41 41
-0.179079 -0.432335 0.246851 41 41 41
-0.353553 -0.353554 0.348425 41 41 41
-0.330895 -0.330895 0.246851 41 41 41
-0.461940 -0.191342 0.348425 41 41 41
-0.432335 -0.179079 0.246851 41 41 41
-0.500000 0.000000 0.348425 41 41 41
-0.467956 0.000000 0.246851 41 41 41
-0.461940 0.191342 0.348425 41 41 41
-0.432335 0.179079 0.246851 41 41 41
-0.353553 0.353554 0.348425 41 41 41
-0.330895 0.330895 0.246851 41 41 41
-0.179079 0.432335 0.246851 41 41 41
-0.191341 0.461940 0.348425 41 41 41
0.000000 0.500000 0.671061 41 41 41
0.000000 0.467956 0.787983 41 41 41
0.179079 0.432335 0.787983 41 41 41
0.191342 0.461940 0.671061 41 41 41
0.330895 0.330895 0.787983 41 41 41
0.353553 0.353553 0.671061 41 41 41
0.432335 0.179079 0.787983 41 41 41
0.461940 0.191342 0.671061 41 41 41
0.467956 -0.000000 0.787983 41 41 41
0.500000 -0.000000 0.671061 41 41 41
0.432335 -0.179079 0.787983 41 41 41
0.461940 -0.191342 0.671061 41 41 41
0.330895 -0.330895 0.787983 41 41 41
0.353553 -0.353553 0.671061 41 41 41
0.179079 -0.432335 0.787983 41 41 41
0.191342 -0.461940 0.671061 41 41 41
0.000000 -0.467956 0.787983 41 41 41
0.000000 -0.500000 0.671061 41 41 41
-0.179079 -0.432335 0.787983 41 41 41
-0.191342 -0.461940 0.671061 41 41 41
-0.330895 -0.330895 0.787983 41 41 41
-0.353553 -0.353554 0.671061 41 41 41
-0.432335 -0.179079 0.787983 41 41 41
-0.461940 -0.191342 0.671061 41 41 41
-0.467956 0.000000 0.787983 41 41 41
-0.500000 0.000000 0.671061 41 41 41
-0.432335 0.179079 0.787983 41 41 41
-0.461940 0.191342 0.671061 41 41 41
-0.330895 0.330895 0.787983 41 41 41
-0.353553 0.353554 0.671061 41 41 41
-0.191341 0.461940 0.671061 41 41 41
-0.179079 0.432335 0.787983 41 41 41
0.000000 0.377946 0.000000 130 37 19
0.000000 0.467956 0.246851 130 37 19
0.179079 0.432335 0.246851 130 37 19
0.144634 0.349176 0.000000 130 37 19
0.330895 0.330895 0.246851 130 37 19
0.267248 0.267248 0.000000 130 37 19
0.432335 0.179079 0.246851 130 37 19
0.349176 0.144634 0.000000 130 37 19
0.467956 -0.000000 0.246851 130 37 19
0.377946 -0.000000 0.000000 130 37 19
0.432335 -0.179079 0.246851 130 37 19
0.349176 -0.144634 0.000000 130 37 19
0.330895 -0.330895 0.246851 130 37 19
0.267248 -0.267248 0.000000 130 37 19
0.179079 -0.432335 0.246851 130 37 19
0.144634 -0.349176 0.000000 130 37 19
0.000000 -0.467956 0.246851 130 37 19
0.000000 -0.377946 0.000000 130 37 19
-0.179079 -0.432335 0.246851 130 37 19
-0.144633 -0.349176 0.000000 130 37 19
-0.330895 -0.330895 0.246851 130 37 19
-0.267248 -0.267248 0.000000 130 37 19
-0.432335 -0.179079 0.246851 130 37 19
-0.349176 -0.144634 0.000000 130 37 19
-0.467956 0.000000 0.246851 130 37 19
-0.377946 0.000000 0.000000 130 37 19
-0.432335 0.179079 0.246851 130 37 19
-0.349176 0.144634 0.000000 130 37 19
-0.330895 0.330895 0.246851 130 37 19
-0.267248 0.267248 0.000000 130 37 19
-0.144633 0.349176 0.000000 130 37 19
-0.179079 0.432335 0.246851 130 37 19
4 0 1 2 3
4 3 2 4 5
4 5 4 6 7
4 7 6 8 9
4 9 8 10 11
4 11 10 12 13
4 13 12 14 15
4 15 14 16 17
4 17 16 18 19
4 19 18 20 21
4 21 20 22 23
4 23 22 24 25
4 25 24 26 27
4 27 26 28 29
3 30 31 32
3 30 32 33
3 30 33 34
3 33 35 34
3 35 36 34
3 35 37 36
3 37 38 36
3 37 39 38
3 39 40 38
3 39 41 40
3 39 42 41
3 42 43 41
3 42 44 43
3 44 45 43
4 46 47 1 0
4 29 28 47 46
4 48 49 50 51
4 51 50 52 53
4 53 52 54 55
4 55 54 56 57
4 57 56 58 59
4 59 58 60 61
4 61 60 62 63
4 63 62 64 65
4 65 64 66 67
4 67 66 68 69
4 69 68 70 71
4 71 70 72 73
4 73 72 74 75
4 75 74 76 77
4 78 79 49 48
4 77 76 79 78
4 80 81 82 83
4 83 82 84 85
4 85 84 86 87
4 87 86 88 89
4 89 88 90 91
4 91 90 92 93
4 93 92 94 95
4 95 94 96 97
4 97 96 98 99
4 99 98 100 101
4 101 100 102 103
4 103 102 104 105
4 105 104 106 107
4 107 106 108 109
4 110 111 81 80
4 109 108 111 110
4 112 113 114 115
4 115 114 116 117
4 117 116 118 119
4 119 118 120 121
4 121 120 122 123
4 123 122 124 125
4 125 124 126 127
4 127 126 128 129
4 129 128 130 131
4 131 130 132 133
4 133 132 134 135
4 135 134 136 137
4 137 136 138 139
4 139 138 140 141
4 142 143 113 112
4 141 140 143 142
4 144 145 146 147
4 147 146 148 149
4 149 148 150 151
4 151 150 152 153
4 153 152 154 155
4 155 154 156 157
4 157 156 158 159
4 159 158 160 161
4 161 160 162 163
4 163 162 164 165
4 165 164 166 167
4 167 166 168 169
4 169 168 170 171
4 171 170 172 173
4 145 144 174 175
4 173 172 175 174
