ply
format ascii 1.0
comment Created by Blender 2.69 (sub 0) - www.blender.org, source file: 'barrel.blend'
element vertex 176
property float x
property float y
property float z
property float nx
property float ny
property float nz
property uchar red
property uchar green
property uchar blue
element face 94
property list uchar uint vertex_indices
end_header
0.000000 0.467956 0.787983 0.000000 0.945433 0.325724 130 37 19
0.000000 0.377946 1.000000 0.000000 0.920469 0.390759 130 37 19
0.144634 0.349176 1.000000 0.352245 0.850398 0.390759 130 37 19
0.179079 0.432335 0.787983 0.361797 0.873470 0.325724 130 37 19
0.267248 0.267248 1.000000 0.650868 0.650868 0.390759 130 37 19
0.330895 0.330895 0.787983 0.668538 0.668538 0.325724 130 37 19
0.349176 0.144634 1.000000 0.850398 0.352245 0.390759 130 37 19
0.432335 0.179079 0.787983 0.873470 0.361797 0.325724 130 37 19
0.377946 -0.000000 1.000000 0.920469 0.000000 0.390759 130 37 19
0.467956 -0.000000 0.787983 0.945433 0.000000 0.325724 130 37 19
0.349176 -0.144634 1.000000 0.850398 -0.352245 0.390759 130 37 19
0.432335 -0.179079 0.787983 0.873470 -0.361797 0.325724 130 37 19
0.267248 -0.267248 1.000000 0.650868 -0.650868 0.390759 130 37 19
0.330895 -0.330895 0.787983 0.668538 -0.668538 0.325724 130 37 19
0.144634 -0.349176 1.000000 0.352245 -0.850398 0.390759 130 37 19
0.179079 -0.432335 0.787983 0.361797 -0.873470 0.325724 130 37 19
0.000000 -0.377946 1.000000 0.000000 -0.920469 0.390759 130 37 19
0.000000 -0.467956 0.787983 0.000000 -0.945433 0.325724 130 37 19
-0.144633 -0.349176 1.000000 -0.352245 -0.850398 0.390759 130 37 19
-0.179079 -0.432335 0.787983 -0.361797 -0.873470 0.325724 130 37 19
-0.267248 -0.267248 1.000000 -0.650868 -0.650868 0.390759 130 37 19
-0.330895 -0.330895 0.787983 -0.668538 -0.668538 0.325724 130 37 19
-0.349176 -0.144634 1.000000 -0.850398 -0.352245 0.390759 130 37 19
-0.432335 -0.179079 0.787983 -0.873470 -0.361797 0.325724 130 37 19
-0.377946 0.000000 1.000000 -0.920469 0.000000 0.390759 130 37 19
-0.467956 0.000000 0.787983 -0.945433 0.000000 0.325724 130 37 19
-0.349176 0.144634 1.000000 -0.850398 0.352245 0.390759 130 37 19
-0.432335 0.179079 0.787983 -0.873470 0.361797 0.325724 130 37 19
-0.267248 0.267248 1.000000 -0.650868 0.650868 0.390759 130 37 19
-0.330895 0.330895 0.787983 -0.668538 0.668538 0.325724 130 37 19
-0.179079 0.432335 0.787983 -0.361797 0.873470 0.325724 130 37 19
-0.144633 0.349176 1.000000 -0.352245 0.850398 0.390759 130 37 19
0.000000 0.500000 0.348425 0.000000 0.988769 -0.149419 209 60 31
0.000000 0.500000 0.671061 0.000000 0.991333 0.131199 209 60 31
0.191342 0.461940 0.671061 0.379345 0.915891 0.131199 209 60 31
0.191342 0.461940 0.348425 0.378368 0.913480 -0.149419 209 60 31
0.353553 0.353553 0.671061 0.700980 0.700980 0.131199 209 60 31
0.353553 0.353553 0.348425 0.699149 0.699149 -0.149419 209 60 31
0.461940 0.191342 0.671061 0.915891 0.379345 0.131199 209 60 31
0.461940 0.191342 0.348425 0.913480 0.378368 -0.149419 209 60 31
0.500000 -0.000000 0.671061 0.991333 0.000000 0.131199 209 60 31
0.500000 -0.000000 0.348425 0.988769 0.000000 -0.149419 209 60 31
0.461940 -0.191342 0.671061 0.915891 -0.379345 0.131199 209 60 31
0.461940 -0.191342 0.348425 0.913480 -0.378368 -0.149419 209 60 31
0.353553 -0.353553 0.671061 0.700980 -0.700980 0.131199 209 60 31
0.353553 -0.353553 0.348425 0.699149 -0.699149 -0.149419 209 60 31
0.191342 -0.461940 0.671061 0.379345 -0.915891 0.131199 209 60 31
0.191342 -0.461940 0.348425 0.378368 -0.913480 -0.149419 209 60 31
0.000000 -0.500000 0.671061 0.000000 -0.991333 0.131199 209 60 31
0.000000 -0.500000 0.348425 0.000000 -0.988769 -0.149419 209 60 31
-0.191342 -0.461940 0.671061 -0.379345 -0.915891 0.131199 209 60 31
-0.191342 -0.461940 0.348425 -0.378368 -0.913480 -0.149419 209 60 31
-0.353553 -0.353554 0.671061 -0.700980 -0.700980 0.131199 209 60 31
-0.353553 -0.353554 0.348425 -0.699149 -0.699149 -0.149419 209 60 31
-0.461940 -0.191342 0.671061 -0.915891 -0.379345 0.131199 209 60 31
-0.461940 -0.191342 0.348425 -0.913480 -0.378368 -0.149419 209 60 31
-0.500000 0.000000 0.671061 -0.991333 0.000000 0.131199 209 60 31
-0.500000 0.000000 0.348425 -0.988769 0.000000 -0.149419 209 60 31
-0.461940 0.191342 0.671061 -0.915891 0.379345 0.131199 209 60 31
-0.461940 0.191342 0.348425 -0.913480 0.378368 -0.149419 209 60 31
-0.353553 0.353554 0.671061 -0.700980 0.700980 0.131199 209 60 31
-0.353553 0.353554 0.348425 -0.699149 0.699149 -0.149419 209 60 31
-0.191341 0.461940 0.348425 -0.378368 0.913480 -0.149419 209 60 31
-0.191341 0.461940 0.671061 -0.379345 0.915891 0.131199 209 60 31
0.000000 0.467956 0.246851 0.000000 0.947081 -0.320933 41 41 41
0.000000 0.500000 0.348425 0.000000 0.988769 -0.149419 41 41 41
0.191342 0.461940 0.348425 0.378368 0.913480 -0.149419 41 41 41
0.179079 0.432335 0.246851 0.362407 0.874996 -0.320933 41 41 41
0.353553 0.353553 0.348425 0.699149 0.699149 -0.149419 41 41 41
0.330895 0.330895 0.246851 0.669668 0.669668 -0.320933 41 41 41
0.461940 0.191342 0.348425 0.913480 0.378368 -0.149419 41 41 41
0.432335 0.179079 0.246851 0.874996 0.362407 -0.320933 41 41 41
0.500000 -0.000000 0.348425 0.988769 0.000000 -0.149419 41 41 41
0.467956 -0.000000 0.246851 0.947081 0.000000 -0.320933 41 41 41
0.461940 -0.191342 0.348425 0.913480 -0.378368 -0.149419 41 41 41
0.432335 -0.179079 0.246851 0.874996 -0.362407 -0.320933 41 41 41
0.353553 -0.353553 0.348425 0.699149 -0.699149 -0.149419 41 41 41
0.330895 -0.330895 0.246851 0.669668 -0.669668 -0.320933 41 41 41
0.191342 -0.461940 0.348425 0.378368 -0.913480 -0.149419 41 41 41
0.179079 -0.432335 0.246851 0.362407 -0.874996 -0.320933 41 41 41
0.000000 -0.500000 0.348425 0.000000 -0.988769 -0.149419 41 41 41
0.000000 -0.467956 0.246851 0.000000 -0.947081 -0.320933 41 41 41
-0.191342 -0.461940 0.348425 -0.378368 -0.913480 -0.149419 41 41 41
-0.179079 -0.432335 0.246851 -0.362407 -0.874996 -0.320933 41 41 41
-0.353553 -0.353554 0.348425 -0.699149 -0.699149 -0.149419 41 41 41
-0.330895 -0.330895 0.246851 -0.669668 -0.669668 -0.320933 41 41 41
-0.461940 -0.191342 0.348425 -0.913480 -0.378368 -0.149419 41 41 41
-0.432335 -0.179079 0.246851 -0.874996 -0.362407 -0.320933 41 41 41
-0.500000 0.000000 0.348425 -0.988769 0.000000 -0.149419 41 41 41
-0.467956 0.000000 0.246851 -0.947081 0.000000 -0.320933 41 41 41
-0.461940 0.191342 0.348425 -0.913480 0.378368 -0.149419 41 41 41
-0.432335 0.179079 0.246851 -0.874996 0.362407 -0.320933 41 41 41
-0.353553 0.353554 0.348425 -0.699149 0.699149 -0.149419 41 41 41
-0.330895 0.330895 0.246851 -0.669668 0.669668 -0.320933 41 41 41
-0.179079 0.432335 0.246851 -0.362407 0.874996 -0.320933 41 41 41
-0.191341 0.461940 0.348425 -0.378368 0.913480 -0.149419 41 41 41
0.000000 0.500000 0.671061 0.000000 0.991333 0.131199 41 41 41
0.000000 0.467956 0.787983 0.000000 0.945433 0.325724 41 41 41
0.179079 0.432335 0.787983 0.361797 0.873470 0.325724 41 41 41
0.191342 0.461940 0.671061 0.379345 0.915891 0.131199 41 41 41
0.330895 0.330895 0.787983 0.668538 0.668538 0.325724 41 41 41
0.353553 0.353553 0.671061 0.700980 0.700980 0.131199 41 41 41
0.432335 0.179079 0.787983 0.873470 0.361797 0.325724 41 41 41
0.461940 0.191342 0.671061 0.915891 0.379345 0.131199 41 41 41
0.467956 -0.000000 0.787983 0.945433 0.000000 0.325724 41 41 41
0.500000 -0.000000 0.671061 0.991333 0.000000 0.131199 41 41 41
0.432335 -0.179079 0.787983 0.873470 -0.361797 0.325724 41 41 41
0.461940 -0.191342 0.671061 0.915891 -0.379345 0.131199 41 41 41
0.330895 -0.330895 0.787983 0.668538 -0.668538 0.325724 41 41 41
0.353553 -0.353553 0.671061 0.700980 -0.700980 0.131199 41 41 41
0.179079 -0.432335 0.787983 0.361797 -0.873470 0.325724 41 41 41
0.191342 -0.461940 0.671061 0.379345 -0.915891 0.131199 41 41 41
0.000000 -0.467956 0.787983 0.000000 -0.945433 0.325724 41 41 41
0.000000 -0.500000 0.671061 0.000000 -0.991333 0.131199 41 41 41
-0.179079 -0.432335 0.787983 -0.361797 -0.873470 0.325724 41 41 41
-0.191342 -0.461940 0.671061 -0.379345 -0.915891 0.131199 41 41 41
-0.330895 -0.330895 0.787983 -0.668538 -0.668538 0.325724 41 41 41
-0.353553 -0.353554 0.671061 -0.700980 -0.700980 0.131199 41 41 41
-0.432335 -0.179079 0.787983 -0.873470 -0.361797 0.325724 41 41 41
-0.461940 -0.191342 0.671061 -0.915891 -0.379345 0.131199 41 41 41
-0.467956 0.000000 0.787983 -0.945433 0.000000 0.325724 41 41 41
-0.500000 0.000000 0.671061 -0.991333 0.000000 0.131199 41 41 41
-0.432335 0.179079 0.787983 -0.873470 0.361797 0.325724 41 41 41
-0.461940 0.191342 0.671061 -0.915891 0.379345 0.131199 41 41 41
-0.330895 0.330895 0.787983 -0.668538 0.668538 0.325724 41 41 41
-0.353553 0.353554 0.671061 -0.700980 0.700980 0.131199 41 41 41
-0.191341 0.461940 0.671061 -0.379345 0.915891 0.131199 41 41 41
-0.179079 0.432335 0.787983 -0.361797 0.873470 0.325724 41 41 41
0.000000 0.377946 0.000000 0.000000 0.939482 -0.342570 130 37 19
0.000000 0.467956 0.246851 0.000000 0.947081 -0.320933 130 37 19
0.179079 0.432335 0.246851 0.362407 0.874996 -0.320933 130 37 19
0.144634 0.349176 0.000000 0.359508 0.867977 -0.342570 130 37 19
0.330895 0.330895 0.246851 0.669668 0.669668 -0.320933 130 37 19
0.267248 0.267248 0.000000 0.664296 0.664296 -0.342570 130 37 19
0.432335 0.179079 0.246851 0.874996 0.362407 -0.320933 130 37 19
0.349176 0.144634 0.000000 0.867977 0.359508 -0.342570 130 37 19
0.467956 -0.000000 0.246851 0.947081 0.000000 -0.320933 130 37 19
0.377946 -0.000000 0.000000 0.939482 0.000000 -0.342570 130 37 19
0.432335 -0.179079 0.246851 0.874996 -0.362407 -0.320933 130 37 19
0.349176 -0.144634 0.000000 0.867977 -0.359508 -0.342570 130 37 19
0.330895 -0.330895 0.246851 0.669668 -0.669668 -0.320933 130 37 19
0.267248 -0.267248 0.000000 0.664296 -0.664296 -0.342570 130 37 19
0.179079 -0.432335 0.246851 0.362407 -0.874996 -0.320933 130 37 19
0.144634 -0.349176 0.000000 0.359508 -0.867977 -0.342570 130 37 19
0.000000 -0.467956 0.246851 0.000000 -0.947081 -0.320933 130 37 19
0.000000 -0.377946 0.000000 0.000000 -0.939482 -0.342570 130 37 19
-0.179079 -0.432335 0.246851 -0.362407 -0.874996 -0.320933 130 37 19
-0.144633 -0.349176 0.000000 -0.359508 -0.867977 -0.342570 130 37 19
-0.330895 -0.330895 0.246851 -0.669668 -0.669668 -0.320933 130 37 19
-0.267248 -0.267248 0.000000 -0.664296 -0.664296 -0.342570 130 37 19
-0.432335 -0.179079 0.246851 -0.874996 -0.362407 -0.320933 130 37 19
-0.349176 -0.144634 0.000000 -0.867977 -0.359508 -0.342570 130 37 19
-0.467956 0.000000 0.246851 -0.947081 0.000000 -0.320933 130 37 19
-0.377946 0.000000 0.000000 -0.939482 0.000000 -0.342570 130 37 19
-0.432335 0.179079 0.246851 -0.874996 0.362407 -0.320933 130 37 19
-0.349176 0.144634 0.000000 -0.867977 0.359508 -0.342570 130 37 19
-0.330895 0.330895 0.246851 -0.669668 0.669668 -0.320933 130 37 19
-0.267248 0.267248 0.000000 -0.664296 0.664296 -0.342570 130 37 19
-0.144633 0.349176 0.000000 -0.359508 0.867977 -0.342570 130 37 19
-0.179079 0.432335 0.246851 -0.362407 0.874996 -0.320933 130 37 19
0.144634 0.349176 1.000000 -0.000000 0.000000 1.000000 130 37 19
0.000000 0.377946 1.000000 -0.000000 0.000000 1.000000 130 37 19
-0.144633 0.349176 1.000000 -0.000000 0.000000 1.000000 130 37 19
-0.267248 0.267248 1.000000 -0.000000 0.000000 1.000000 130 37 19
0.267248 0.267248 1.000000 0.000000 -0.000000 1.000000 130 37 19
-0.349176 0.144634 1.000000 0.000000 -0.000000 1.000000 130 37 19
0.349176 0.144634 1.000000 0.000000 0.000000 1.000000 130 37 19
-0.377946 0.000000 1.000000 0.000000 -0.000000 1.000000 130 37 19
0.377946 -0.000000 1.000000 0.000000 0.000000 1.000000 130 37 19
-0.349176 -0.144634 1.000000 0.000000 0.000000 1.000000 130 37 19
0.349176 -0.144634 1.000000 0.000000 0.000000 1.000000 130 37 19
0.267248 -0.267248 1.000000 0.000000 0.000000 1.000000 130 37 19
-0.267248 -0.267248 1.000000 0.000000 0.000000 1.000000 130 37 19
0.144634 -0.349176 1.000000 0.000000 0.000000 1.000000 130 37 19
-0.144633 -0.349176 1.000000 0.000000 0.000000 1.000000 130 37 19
0.000000 -0.377946 1.000000 0.000000 0.000000 1.000000 130 37 19
4 0 1 2 3
4 3 2 4 5
4 5 4 6 7
4 7 6 8 9
4 9 8 10 11
4 11 10 12 13
4 13 12 14 15
4 15 14 16 17
4 17 16 18 19
4 19 18 20 21
4 21 20 22 23
4 23 22 24 25
4 25 24 26 27
4 27 26 28 29
4 30 31 1 0
4 29 28 31 30
4 32 33 34 35
4 35 34 36 37
4 37 36 38 39
4 39 38 40 41
4 41 40 42 43
4 43 42 44 45
4 45 44 46 47
4 47 46 48 49
4 49 48 50 51
4 51 50 52 53
4 53 52 54 55
4 55 54 56 57
4 57 56 58 59
4 59 58 60 61
4 62 63 33 32
4 61 60 63 62
4 64 65 66 67
4 67 66 68 69
4 69 68 70 71
4 71 70 72 73
4 73 72 74 75
4 75 74 76 77
4 77 76 78 79
4 79 78 80 81
4 81 80 82 83
4 83 82 84 85
4 85 84 86 87
4 87 86 88 89
4 89 88 90 91
4 91 90 92 93
4 94 95 65 64
4 93 92 95 94
4 96 97 98 99
4 99 98 100 101
4 101 100 102 103
4 103 102 104 105
4 105 104 106 107
4 107 106 108 109
4 109 108 110 111
4 111 110 112 113
4 113 112 114 115
4 115 114 116 117
4 117 116 118 119
4 119 118 120 121
4 121 120 122 123
4 123 122 124 125
4 126 127 97 96
4 125 124 127 126
4 128 129 130 131
4 131 130 132 133
4 133 132 134 135
4 135 134 136 137
4 137 136 138 139
4 139 138 140 141
4 141 140 142 143
4 143 142 144 145
4 145 144 146 147
4 147 146 148 149
4 149 148 150 151
4 151 150 152 153
4 153 152 154 155
4 155 154 156 157
4 129 128 158 159
4 157 156 159 158
3 160 161 162
3 160 162 163
3 160 163 164
3 163 165 164
3 165 166 164
3 165 167 166
3 167 168 166
3 167 169 168
3 169 170 168
3 169 171 170
3 169 172 171
3 172 173 171
3 172 174 173
3 174 175 173
