ply
format ascii 1.0
comment Created by Blender 2.69 (sub 0) - www.blender.org, source file: 'bed.blend'
element vertex 84
property float x
property float y
property float z
property uchar red
property uchar green
property uchar blue
element face 46
property list uchar uint vertex_indices
end_header
1.295450 -0.262813 0.612973 149 119 81
1.295450 -0.426963 0.612973 149 119 81
1.295450 -0.426963 0.000000 149 119 81
1.295450 -0.262813 0.000000 149 119 81
-0.222036 -0.262813 0.612973 149 119 81
-0.222036 -0.262813 0.000000 149 119 81
-0.412402 -0.262813 0.000000 149 119 81
-0.412402 -0.262813 0.612973 149 119 81
1.137002 -0.426963 0.612973 149 119 81
1.137002 -0.426963 0.000000 149 119 81
-0.222036 -0.426963 0.729308 255 255 255
-0.081747 -0.426963 0.729308 255 255 255
-0.081747 -0.426963 1.000000 255 255 255
-0.412402 -0.426963 0.000000 149 119 81
-0.412402 -0.426963 0.612973 149 119 81
-0.222036 -0.426963 0.729308 149 119 81
-0.222036 -0.426963 0.612973 149 119 81
-0.081747 -0.426963 0.729308 149 119 81
1.295450 -0.426963 1.000000 212 80 94
1.137002 -0.426963 0.729308 212 80 94
1.295450 -0.426963 0.729308 212 80 94
-0.222036 -0.426963 0.000000 149 119 81
-0.412402 -0.426963 1.000000 255 255 255
-0.412402 -0.426963 0.729308 255 255 255
1.137002 -0.262813 0.612973 149 119 81
1.137002 -0.262813 0.000000 149 119 81
-0.081747 -0.426963 1.000000 212 80 94
-0.081747 -0.426963 0.729308 212 80 94
-0.412402 -0.426963 0.729308 149 119 81
-0.412402 -0.262813 0.729308 149 119 81
1.295450 -0.262813 0.729308 149 119 81
1.295450 -0.426963 0.729308 149 119 81
1.137002 -0.426963 0.729308 149 119 81
-0.412402 0.262813 0.729308 149 119 81
-0.412402 0.262813 0.612973 149 119 81
1.295450 0.262813 0.612973 149 119 81
1.295450 0.262813 0.000000 149 119 81
1.295450 0.426963 0.000000 149 119 81
1.295450 0.426963 0.612973 149 119 81
-0.222036 0.262813 0.612973 149 119 81
-0.412402 0.262813 0.000000 149 119 81
-0.222036 0.262813 0.000000 149 119 81
1.137002 0.426963 0.000000 149 119 81
1.137002 0.426963 0.612973 149 119 81
1.295450 -0.426963 1.000000 184 69 81
1.295450 0.426963 1.000000 184 69 81
-0.081747 0.426963 1.000000 184 69 81
-0.081747 -0.426963 1.000000 184 69 81
-0.222036 0.426963 0.729308 255 255 255
-0.081747 0.426963 1.000000 255 255 255
-0.081747 0.426963 0.729308 255 255 255
-0.412402 0.426963 0.612973 149 119 81
-0.412402 0.426963 0.000000 149 119 81
-0.222036 0.426963 0.729308 149 119 81
-0.081747 0.426963 0.729308 149 119 81
-0.222036 0.426963 0.612973 149 119 81
1.295450 0.426963 1.000000 212 80 94
1.295450 0.426963 0.729308 212 80 94
1.137002 0.426963 0.729308 212 80 94
-0.222036 0.426963 0.000000 149 119 81
-0.412402 0.426963 1.000000 255 255 255
-0.412402 0.426963 0.729308 255 255 255
1.137002 0.262813 0.612973 149 119 81
1.137002 0.262813 0.000000 149 119 81
1.295450 0.262813 0.729308 212 80 94
1.295450 -0.262813 0.729308 212 80 94
-0.081747 0.426963 0.729308 212 80 94
-0.081747 0.426963 1.000000 212 80 94
-0.412402 0.426963 0.729308 149 119 81
1.295450 0.262813 0.729308 149 119 81
1.295450 0.426963 0.729308 149 119 81
1.137002 0.426963 0.729308 149 119 81
-0.412402 -0.426963 1.000000 183 181 184
-0.081747 -0.426963 1.000000 183 181 184
-0.081747 0.426963 1.000000 183 181 184
-0.412402 0.426963 1.000000 183 181 184
-0.412402 -0.426963 0.729308 255 251 253
-0.412402 -0.426963 1.000000 255 251 253
-0.412402 -0.262813 0.729308 255 251 253
-0.412402 0.262813 0.729308 255 255 255
-0.412402 -0.262813 0.729308 255 255 255
-0.412402 0.426963 0.729308 255 251 253
-0.412402 0.262813 0.729308 255 251 253
-0.412402 0.426963 1.000000 255 251 253
4 0 1 2 3
4 4 5 6 7
4 1 8 9 2
3 10 11 12
4 6 13 14 7
3 15 16 17
3 18 19 20
4 13 21 16 14
4 22 23 10 12
4 24 0 3 25
4 19 18 26 27
4 5 4 16 21
4 28 29 7 14
4 15 28 14 16
4 30 31 1 0
4 31 32 8 1
4 9 8 24 25
4 29 33 34 7
4 17 16 8 32
4 35 36 37 38
4 39 34 40 41
4 38 37 42 43
4 44 45 46 47
3 48 49 50
4 51 52 40 34
3 53 54 55
3 56 57 58
4 55 59 52 51
4 60 49 48 61
4 62 63 36 35
3 57 56 64
4 64 56 18 65
4 58 66 67 56
4 41 59 55 39
4 68 51 34 33
4 53 55 51 68
4 69 35 38 70
4 70 38 43 71
4 42 63 62 43
4 30 0 35 69
3 20 65 18
4 54 71 43 55
4 72 73 74 75
3 76 77 78
4 22 60 79 80
3 81 82 83
