ply
format ascii 1.0
comment Created by Blender 2.75 (sub 0) - www.blender.org, source file: 'bed.blend'
element vertex 122
property float x
property float y
property float z
property float nx
property float ny
property float nz
property uchar red
property uchar green
property uchar blue
element face 46
property list uchar uint vertex_indices
end_header
-0.081747 0.426963 0.729308 0.000000 1.000000 -0.000000 135 72 42
1.137002 0.426963 0.729308 0.000000 1.000000 -0.000000 135 72 42
1.137002 0.426963 0.612973 0.000000 1.000000 -0.000000 135 72 42
-0.222036 0.426963 0.612973 0.000000 1.000000 -0.000000 135 72 42
1.295450 0.426963 0.729308 -0.000000 1.000000 0.000000 135 72 42
1.295450 0.426963 0.612973 -0.000000 1.000000 0.000000 135 72 42
-0.412402 0.426963 0.612973 0.000000 1.000000 0.000000 135 72 42
-0.412402 0.426963 0.729308 0.000000 1.000000 0.000000 135 72 42
-0.222035 0.426963 0.726017 0.000000 1.000000 0.000000 135 72 42
-0.412402 0.426963 0.729308 -1.000000 0.000000 -0.000000 255 251 255
-0.412402 0.262813 0.729308 -1.000000 0.000000 -0.000000 255 251 255
-0.412402 0.426963 1.000000 -1.000000 0.000000 -0.000000 255 251 255
-0.412402 -0.426963 1.000000 -1.000000 0.000000 0.000000 255 251 255
-0.412402 -0.262813 0.729308 -1.000000 0.000000 0.000000 255 251 255
-0.412402 -0.426963 0.729308 -1.000000 -0.000000 -0.000000 255 251 255
-0.412402 0.426963 0.729308 -1.000000 0.000000 0.000000 135 72 42
-0.412402 0.426963 0.612973 -1.000000 0.000000 0.000000 135 72 42
-0.412402 0.262813 0.612973 -1.000000 0.000000 0.000000 135 72 42
-0.412402 0.262813 0.729308 -1.000000 0.000000 0.000000 135 72 42
-0.412402 0.426963 0.000000 -1.000000 0.000000 0.000000 135 72 42
-0.412402 0.262813 0.000000 -1.000000 0.000000 0.000000 135 72 42
1.137002 0.262813 0.612973 -0.000000 -1.000000 0.000000 135 72 42
1.137002 0.262813 0.000000 -0.000000 -1.000000 0.000000 135 72 42
1.295450 0.262813 0.000000 -0.000000 -1.000000 0.000000 135 72 42
1.295450 0.262813 0.612973 -0.000000 -1.000000 0.000000 135 72 42
1.137002 0.426963 0.729308 0.000000 1.000000 0.000000 181 3 0
-0.081747 0.426963 0.729308 0.000000 1.000000 0.000000 181 3 0
-0.081747 0.426963 1.000000 0.000000 1.000000 0.000000 181 3 0
1.295450 0.426963 1.000000 0.000000 1.000000 0.000000 181 3 0
-0.412402 -0.262813 0.729308 -1.000000 0.000000 0.000000 135 72 42
-0.412402 -0.262813 0.612973 -1.000000 0.000000 0.000000 135 72 42
-0.412402 -0.426963 0.729308 -1.000000 0.000000 0.000000 135 72 42
-0.412402 -0.426963 0.612973 -1.000000 0.000000 0.000000 135 72 42
-0.222036 0.262813 0.612973 0.000000 -1.000000 0.000000 135 72 42
-0.412402 0.262813 0.612973 0.000000 -1.000000 0.000000 135 72 42
-0.412402 0.262813 0.000000 0.000000 -1.000000 0.000000 135 72 42
-0.222036 0.262813 0.000000 0.000000 -1.000000 0.000000 135 72 42
-0.222035 0.426963 0.726017 0.000000 1.000000 -0.000000 255 251 255
-0.412402 0.426963 0.729308 0.000000 1.000000 -0.000000 255 251 255
-0.412402 0.426963 1.000000 0.000000 1.000000 -0.000000 255 251 255
-0.081747 0.426963 1.000000 0.000000 1.000000 -0.000000 255 251 255
-0.412402 -0.262813 0.000000 -1.000000 0.000000 0.000000 135 72 42
-0.412402 -0.426963 0.000000 -1.000000 0.000000 0.000000 135 72 42
1.137002 -0.426963 0.000000 -1.000000 -0.000000 0.000000 135 72 42
1.137002 -0.426963 0.612973 -1.000000 -0.000000 0.000000 135 72 42
1.137002 -0.262813 0.612973 -1.000000 -0.000000 0.000000 135 72 42
1.137002 -0.262813 0.000000 -1.000000 -0.000000 0.000000 135 72 42
-0.222036 0.426963 0.000000 -0.000000 1.000000 0.000000 135 72 42
-0.412402 0.426963 0.000000 -0.000000 1.000000 0.000000 135 72 42
1.295450 -0.426963 0.729308 1.000000 0.000000 0.000000 181 3 0
1.295450 -0.262813 0.729308 1.000000 0.000000 0.000000 181 3 0
1.295450 -0.426963 1.000000 1.000000 0.000000 0.000000 181 3 0
1.295450 -0.262813 0.729308 1.000000 0.000000 0.000000 135 72 42
1.295450 -0.262813 0.612973 1.000000 0.000000 0.000000 135 72 42
1.295450 0.262813 0.612973 1.000000 0.000000 0.000000 135 72 42
1.295450 0.262813 0.729308 1.000000 0.000000 0.000000 135 72 42
1.295450 0.426963 0.612973 1.000000 0.000000 0.000000 135 72 42
1.295450 0.426963 0.729308 1.000000 0.000000 0.000000 135 72 42
1.295450 0.262813 0.729308 1.000000 -0.000000 0.000000 181 3 0
1.295450 0.426963 1.000000 1.000000 -0.000000 0.000000 181 3 0
1.137002 0.426963 0.000000 -1.000000 0.000000 -0.000000 135 72 42
1.137002 0.262813 0.000000 -1.000000 0.000000 -0.000000 135 72 42
1.137002 0.262813 0.612973 -1.000000 0.000000 -0.000000 135 72 42
1.137002 0.426963 0.612973 -1.000000 0.000000 -0.000000 135 72 42
1.295450 0.426963 0.729308 1.000000 -0.000000 0.000000 181 3 0
1.137002 -0.262813 0.612973 0.000000 1.000000 -0.000000 135 72 42
1.295450 -0.262813 0.612973 0.000000 1.000000 -0.000000 135 72 42
1.295450 -0.262813 0.000000 0.000000 1.000000 -0.000000 135 72 42
1.137002 -0.262813 0.000000 0.000000 1.000000 -0.000000 135 72 42
1.295450 0.426963 0.729308 0.000000 1.000000 0.000000 181 3 0
1.295450 0.262813 0.000000 1.000000 0.000000 0.000000 135 72 42
1.295450 0.426963 0.000000 1.000000 0.000000 0.000000 135 72 42
-0.222036 0.262813 0.000000 1.000000 0.000000 0.000000 135 72 42
-0.222036 0.426963 0.000000 1.000000 0.000000 0.000000 135 72 42
-0.222036 0.426963 0.612973 1.000000 0.000000 0.000000 135 72 42
-0.222036 0.262813 0.612973 1.000000 0.000000 0.000000 135 72 42
1.295450 -0.426963 0.729308 1.000000 0.000000 -0.000000 135 72 42
1.295450 -0.426963 0.612973 1.000000 0.000000 -0.000000 135 72 42
-0.222036 -0.262813 0.612973 -0.000000 1.000000 0.000000 135 72 42
-0.222036 -0.262813 0.000000 -0.000000 1.000000 0.000000 135 72 42
-0.412402 -0.262813 0.000000 -0.000000 1.000000 0.000000 135 72 42
-0.412402 -0.262813 0.612973 -0.000000 1.000000 0.000000 135 72 42
-0.412402 -0.426963 1.000000 0.000000 0.000000 1.000000 255 251 255
-0.081747 -0.426963 1.000000 0.000000 0.000000 1.000000 255 251 255
-0.081747 0.426963 1.000000 0.000000 0.000000 1.000000 255 251 255
-0.412402 0.426963 1.000000 0.000000 0.000000 1.000000 255 251 255
1.295450 -0.426963 1.000000 -0.000000 0.000000 1.000000 181 3 0
1.295450 0.426963 1.000000 -0.000000 0.000000 1.000000 181 3 0
-0.081747 0.426963 1.000000 -0.000000 0.000000 1.000000 181 3 0
-0.081747 -0.426963 1.000000 -0.000000 0.000000 1.000000 181 3 0
1.295450 -0.426963 0.000000 1.000000 0.000000 -0.000000 135 72 42
1.295450 -0.262813 0.000000 1.000000 0.000000 -0.000000 135 72 42
-0.222036 -0.262813 0.000000 1.000000 -0.000000 0.000000 135 72 42
-0.222036 -0.262813 0.612973 1.000000 -0.000000 0.000000 135 72 42
-0.222036 -0.426963 0.612973 1.000000 -0.000000 0.000000 135 72 42
-0.222036 -0.426963 0.000000 1.000000 -0.000000 0.000000 135 72 42
-0.081747 0.426963 0.729308 -0.000000 1.000000 0.000000 255 251 255
1.295450 0.426963 0.000000 -0.000000 1.000000 0.000000 135 72 42
1.137002 0.426963 0.000000 -0.000000 1.000000 0.000000 135 72 42
1.295450 -0.426963 0.612973 0.000000 -1.000000 0.000000 135 72 42
1.137002 -0.426963 0.612973 0.000000 -1.000000 0.000000 135 72 42
1.137002 -0.426963 0.000000 0.000000 -1.000000 0.000000 135 72 42
1.295450 -0.426963 0.000000 0.000000 -1.000000 0.000000 135 72 42
-0.222035 -0.426963 0.729308 -0.000000 -1.000000 -0.000000 255 251 255
-0.081747 -0.426963 0.729308 -0.000000 -1.000000 -0.000000 255 251 255
-0.081747 -0.426963 1.000000 -0.000000 -1.000000 -0.000000 255 251 255
-0.222035 -0.426963 0.729308 -0.000000 -1.000000 0.000000 135 72 42
-0.222036 -0.426963 0.612973 -0.000000 -1.000000 0.000000 135 72 42
-0.081747 -0.426963 0.729308 -0.000000 -1.000000 0.000000 135 72 42
1.295450 -0.426963 1.000000 0.000000 -1.000000 0.000000 181 3 0
1.137002 -0.426963 0.729308 0.000000 -1.000000 0.000000 181 3 0
1.295450 -0.426963 0.729308 0.000000 -1.000000 0.000000 181 3 0
-0.412402 -0.426963 0.612973 0.000000 -1.000000 0.000000 135 72 42
-0.412402 -0.426963 0.000000 0.000000 -1.000000 0.000000 135 72 42
-0.222036 -0.426963 0.000000 0.000000 -1.000000 0.000000 135 72 42
-0.412402 -0.426963 1.000000 -0.000000 -1.000000 0.000000 255 251 255
-0.412402 -0.426963 0.729308 -0.000000 -1.000000 0.000000 255 251 255
-0.081747 -0.426963 1.000000 0.000000 -1.000000 0.000000 181 3 0
-0.081747 -0.426963 0.729308 0.000000 -1.000000 0.000000 181 3 0
-0.412402 -0.426963 0.729308 0.000000 -1.000000 0.000000 135 72 42
1.295450 -0.426963 0.729308 0.000000 -1.000000 0.000000 135 72 42
1.137002 -0.426963 0.729308 0.000000 -1.000000 0.000000 135 72 42
4 0 1 2 3
4 4 5 2 1
4 6 7 8 3
3 9 10 11
4 12 11 10 13
3 14 12 13
4 15 16 17 18
4 16 19 20 17
4 21 22 23 24
4 25 26 27 28
4 29 18 17 30
4 31 29 30 32
4 33 34 35 36
4 37 38 39 40
4 32 30 41 42
4 43 44 45 46
4 3 47 48 6
3 49 50 51
4 52 53 54 55
4 55 54 56 57
4 58 59 51 50
4 60 61 62 63
3 64 59 58
4 65 66 67 68
3 28 69 25
4 54 70 71 56
4 72 73 74 75
4 52 76 77 53
4 78 79 80 81
4 82 83 84 85
4 86 87 88 89
4 53 77 90 91
4 92 93 94 95
3 8 0 3
3 37 40 96
4 5 97 98 2
4 99 100 101 102
3 103 104 105
3 106 107 108
3 109 110 111
4 107 112 113 114
4 115 116 103 105
4 110 109 117 118
4 106 119 112 107
4 120 121 100 99
4 108 107 100 121
