ply
format ascii 1.0
comment Created by Blender 2.69 (sub 0) - www.blender.org, source file: 'chair.blend'
element vertex 388
property float x
property float y
property float z
property float nx
property float ny
property float nz
property uchar red
property uchar green
property uchar blue
element face 108
property list uchar uint vertex_indices
end_header
-0.419171 -0.384033 0.000445 -0.969038 -0.005538 0.246850 163 162 166
-0.418589 -0.466630 0.000879 -0.969038 -0.005538 0.246850 163 162 166
-0.210891 -0.460881 0.816349 -0.969038 -0.005538 0.246850 163 162 166
-0.211473 -0.378283 0.815915 -0.969038 -0.005538 0.246850 163 162 166
-0.211473 -0.378283 0.815915 -0.007053 0.999961 -0.005254 163 162 166
-0.143717 -0.377896 0.798655 -0.007053 0.999961 -0.005254 163 162 166
-0.351415 -0.383645 -0.016815 -0.007053 0.999961 -0.005254 163 162 166
-0.419171 -0.384033 0.000445 -0.007053 0.999961 -0.005254 163 162 166
-0.143717 -0.377896 0.798655 0.969038 0.005538 -0.246850 163 162 166
-0.143135 -0.460494 0.799089 0.969038 0.005538 -0.246850 163 162 166
-0.350833 -0.466243 -0.016381 0.969038 0.005538 -0.246850 163 162 166
-0.351415 -0.383645 -0.016815 0.969038 0.005538 -0.246850 163 162 166
-0.418589 -0.466630 0.000879 0.007053 -0.999961 0.005254 163 162 166
-0.350833 -0.466243 -0.016381 0.007053 -0.999961 0.005254 163 162 166
-0.143135 -0.460494 0.799089 0.007053 -0.999961 0.005254 163 162 166
-0.210891 -0.460881 0.816349 0.007053 -0.999961 0.005254 163 162 166
-0.418589 -0.466630 0.000879 -0.246812 -0.006832 -0.969039 163 162 166
-0.419171 -0.384033 0.000445 -0.246812 -0.006832 -0.969039 163 162 166
-0.351415 -0.383645 -0.016815 -0.246812 -0.006832 -0.969039 163 162 166
-0.350833 -0.466243 -0.016381 -0.246812 -0.006832 -0.969039 163 162 166
-0.143135 -0.460494 0.799089 0.000013 -0.005254 -0.999986 163 162 166
-0.143717 -0.377896 0.798655 0.000013 -0.005254 -0.999986 163 162 166
0.315889 -0.376922 0.798655 0.000013 -0.005254 -0.999986 163 162 166
0.315889 -0.459520 0.799089 0.000013 -0.005254 -0.999986 163 162 166
-0.143717 -0.377896 0.798655 -0.005523 0.999984 0.000755 163 162 166
-0.211473 -0.378283 0.815915 -0.005523 0.999984 0.000755 163 162 166
-0.143426 -0.377944 0.865227 -0.005523 0.999984 0.000755 163 162 166
-0.211473 -0.378283 0.815915 -0.588449 0.002173 0.808531 163 162 166
-0.210891 -0.460881 0.816349 -0.588449 0.002173 0.808531 163 162 166
-0.143426 -0.460542 0.865661 -0.588449 0.002173 0.808531 163 162 166
-0.143426 -0.377944 0.865227 -0.588449 0.002173 0.808531 163 162 166
-0.210891 -0.460881 0.816349 0.005535 -0.999984 -0.000706 163 162 166
-0.143135 -0.460494 0.799089 0.005535 -0.999984 -0.000706 163 162 166
-0.143426 -0.460542 0.865661 0.005535 -0.999984 -0.000706 163 162 166
0.315889 -0.459520 0.799089 1.000000 0.000000 0.000000 140 140 140
0.315889 -0.376922 0.798655 1.000000 0.000000 0.000000 140 140 140
0.315889 -0.376971 0.865228 1.000000 0.000000 0.000000 140 140 140
0.315889 -0.459568 0.865662 1.000000 0.000000 0.000000 140 140 140
-0.143426 -0.460542 0.865661 0.002121 -0.999998 -0.000726 163 162 166
-0.143135 -0.460494 0.799089 0.002121 -0.999998 -0.000726 163 162 166
0.315889 -0.459520 0.799089 0.002121 -0.999998 -0.000726 163 162 166
0.315889 -0.459568 0.865662 0.002121 -0.999998 -0.000726 163 162 166
-0.143426 -0.377944 0.865227 -0.000013 0.005254 0.999986 163 162 166
-0.143426 -0.460542 0.865661 -0.000013 0.005254 0.999986 163 162 166
0.315889 -0.459568 0.865662 -0.000013 0.005254 0.999986 163 162 166
0.315889 -0.376971 0.865228 -0.000013 0.005254 0.999986 163 162 166
0.315889 -0.376922 0.798655 0.019813 0.999803 0.000731 163 162 166
0.315889 -0.376971 0.865228 0.019813 0.999803 0.000731 163 162 166
0.383936 -0.378283 0.815915 0.019813 0.999803 0.000731 163 162 166
0.383936 -0.378283 0.815915 0.588475 0.002173 0.808512 163 162 166
0.315889 -0.376971 0.865228 0.588475 0.002173 0.808512 163 162 166
0.315889 -0.459568 0.865662 0.588475 0.002173 0.808512 163 162 166
0.383354 -0.460881 0.816349 0.588475 0.002173 0.808512 163 162 166
0.315889 -0.376922 0.798655 -0.969056 0.002120 -0.246833 163 162 166
0.523878 -0.383645 -0.016815 -0.969056 0.002120 -0.246833 163 162 166
0.523295 -0.466243 -0.016381 -0.969056 0.002120 -0.246833 163 162 166
0.315889 -0.459520 0.799089 -0.969056 0.002120 -0.246833 163 162 166
0.591052 -0.466630 0.000879 0.246811 -0.006832 -0.969039 163 162 166
0.523295 -0.466243 -0.016381 0.246811 -0.006832 -0.969039 163 162 166
0.523878 -0.383645 -0.016815 0.246811 -0.006832 -0.969039 163 162 166
0.591634 -0.384033 0.000445 0.246811 -0.006832 -0.969039 163 162 166
0.383354 -0.460881 0.816349 -0.019984 -0.999800 -0.000731 163 162 166
0.315889 -0.459568 0.865662 -0.019984 -0.999800 -0.000731 163 162 166
0.315889 -0.459520 0.799089 -0.019984 -0.999800 -0.000731 163 162 166
0.383936 -0.378283 0.815915 0.013915 0.999895 -0.004100 163 162 166
0.591634 -0.384033 0.000445 0.013915 0.999895 -0.004100 163 162 166
0.523878 -0.383645 -0.016815 0.013915 0.999895 -0.004100 163 162 166
0.315889 -0.376922 0.798655 0.013915 0.999895 -0.004100 163 162 166
0.383354 -0.460881 0.816349 0.969038 -0.005538 0.246850 163 162 166
0.591052 -0.466630 0.000879 0.969038 -0.005538 0.246850 163 162 166
0.591634 -0.384033 0.000445 0.969038 -0.005538 0.246850 163 162 166
0.383936 -0.378283 0.815915 0.969038 -0.005538 0.246850 163 162 166
-0.143717 -0.377896 0.798655 -0.002120 0.999997 0.000735 163 162 166
-0.143426 -0.377944 0.865227 -0.002120 0.999997 0.000735 163 162 166
0.315889 -0.376971 0.865228 -0.002120 0.999997 0.000735 163 162 166
0.315889 -0.376922 0.798655 -0.002120 0.999997 0.000735 163 162 166
0.315889 -0.459520 0.799089 -0.013972 -0.999894 0.004091 163 162 166
0.523295 -0.466243 -0.016381 -0.013972 -0.999894 0.004091 163 162 166
0.591052 -0.466630 0.000879 -0.013972 -0.999894 0.004091 163 162 166
0.383354 -0.460881 0.816349 -0.013972 -0.999894 0.004091 163 162 166
-0.386114 -0.368875 0.763716 -0.054786 -0.993704 0.097732 146 160 199
-0.288212 -0.368875 0.818597 -0.054786 -0.993704 0.097732 146 160 199
-0.322488 -0.360972 0.879741 -0.054786 -0.993704 0.097732 146 160 199
-0.420390 -0.360972 0.824860 -0.054786 -0.993704 0.097732 146 160 199
0.460384 -0.198949 0.785114 1.000000 0.000000 -0.000000 146 160 199
0.460384 -0.368875 0.818597 1.000000 0.000000 -0.000000 146 160 199
0.460384 -0.368875 0.763716 1.000000 0.000000 -0.000000 146 160 199
0.460384 -0.198949 0.730233 1.000000 0.000000 -0.000000 146 160 199
0.460384 -0.368875 0.818597 0.000000 -1.000000 0.000000 146 160 199
-0.288212 -0.368875 0.818597 0.000000 -1.000000 0.000000 146 160 199
-0.288212 -0.368875 0.763716 0.000000 -1.000000 0.000000 146 160 199
0.460384 -0.368875 0.763716 0.000000 -1.000000 0.000000 146 160 199
-0.288212 -0.198949 0.730233 0.000000 -0.062232 -0.998062 146 160 199
-0.288212 0.000000 0.717828 0.000000 -0.062232 -0.998062 146 160 199
0.460384 0.000000 0.717828 0.000000 -0.062232 -0.998062 146 160 199
0.460384 -0.198949 0.730233 0.000000 -0.062232 -0.998062 146 160 199
0.460384 -0.198949 0.785114 0.000000 0.062232 0.998062 146 160 199
0.460384 0.000000 0.772709 0.000000 0.062232 0.998062 146 160 199
-0.288212 0.000000 0.772709 0.000000 0.062232 0.998062 146 160 199
-0.288212 -0.198949 0.785114 0.000000 0.062232 0.998062 146 160 199
-0.386114 -0.198949 0.730233 0.000000 -0.062232 -0.998062 146 160 199
-0.386114 0.000000 0.717828 0.000000 -0.062232 -0.998062 146 160 199
0.460384 0.000000 0.772709 1.000000 0.000000 -0.000000 146 160 199
0.460384 0.000000 0.717828 1.000000 0.000000 -0.000000 146 160 199
-0.288212 -0.368875 0.763716 0.000000 -0.193326 -0.981135 146 160 199
-0.288212 -0.198949 0.730233 0.000000 -0.193326 -0.981135 146 160 199
0.460384 -0.198949 0.730233 0.000000 -0.193326 -0.981135 146 160 199
0.460384 -0.368875 0.763716 0.000000 -0.193326 -0.981135 146 160 199
0.460384 -0.368875 0.818597 0.000000 0.193326 0.981135 146 160 199
0.460384 -0.198949 0.785114 0.000000 0.193326 0.981135 146 160 199
-0.288212 -0.198949 0.785114 0.000000 0.193326 0.981135 146 160 199
-0.288212 -0.368875 0.818597 0.000000 0.193326 0.981135 146 160 199
-0.288212 -0.368875 0.818597 0.873563 0.094094 0.477529 146 160 199
-0.288212 -0.198949 0.785114 0.873563 0.094094 0.477529 146 160 199
-0.322488 -0.191045 0.846258 0.873563 0.094094 0.477529 146 160 199
-0.322488 -0.360972 0.879741 0.873563 0.094094 0.477529 146 160 199
-0.386114 0.000000 0.717828 -0.872728 -0.030995 -0.487222 146 160 199
-0.386114 -0.198949 0.730233 -0.872728 -0.030995 -0.487222 146 160 199
-0.420390 -0.191045 0.791377 -0.872728 -0.030995 -0.487222 146 160 199
-0.420390 0.000000 0.778972 -0.872728 -0.030995 -0.487222 146 160 199
-0.386114 -0.368875 0.763716 0.000000 -0.193326 -0.981135 146 160 199
-0.386114 -0.198949 0.730233 0.000000 -0.193326 -0.981135 146 160 199
-0.382600 -0.141202 1.813308 0.996366 -0.027719 0.080541 146 160 199
-0.371604 -0.152399 1.653725 0.996366 -0.027719 0.080541 146 160 199
-0.366985 0.000000 1.668740 0.996366 -0.027719 0.080541 146 160 199
-0.382600 0.000000 1.842205 0.996366 -0.027719 0.080541 146 160 199
-0.386114 -0.198949 0.730233 -0.873562 -0.094094 -0.477530 146 160 199
-0.386114 -0.368875 0.763716 -0.873562 -0.094094 -0.477530 146 160 199
-0.420390 -0.360972 0.824860 -0.873562 -0.094094 -0.477530 146 160 199
-0.420390 -0.191045 0.791377 -0.873562 -0.094094 -0.477530 146 160 199
-0.322488 -0.191045 0.846258 0.998474 -0.000095 0.055221 146 160 199
-0.322488 0.000000 0.833853 0.998474 -0.000095 0.055221 146 160 199
-0.361061 -0.000000 1.544043 0.998474 -0.000095 0.055221 146 160 199
-0.361399 -0.155168 1.537149 0.998474 -0.000095 0.055221 146 160 199
-0.386114 -0.368875 0.763716 0.000000 -1.000000 0.000000 146 160 199
-0.288212 -0.198949 0.785114 0.872729 0.030995 0.487221 146 160 199
-0.288212 0.000000 0.772709 0.872729 0.030995 0.487221 146 160 199
-0.322488 0.000000 0.833853 0.872729 0.030995 0.487221 146 160 199
-0.322488 -0.191045 0.846258 0.872729 0.030995 0.487221 146 160 199
-0.382600 -0.141202 1.813308 -0.481370 -0.175738 0.858719 146 160 199
-0.382600 0.000000 1.842205 -0.481370 -0.175738 0.858719 146 160 199
-0.480502 0.000000 1.787324 -0.481370 -0.175738 0.858719 146 160 199
-0.480502 -0.141202 1.758427 -0.481370 -0.175738 0.858719 146 160 199
-0.382600 -0.291762 1.721088 -0.431281 -0.471246 0.769366 146 160 199
-0.382600 -0.141202 1.813308 -0.431281 -0.471246 0.769366 146 160 199
-0.480502 -0.141202 1.758427 -0.431281 -0.471246 0.769366 146 160 199
-0.480502 -0.291762 1.666207 -0.431281 -0.471246 0.769366 146 160 199
-0.420390 -0.191045 0.791377 -0.998474 0.000095 -0.055221 146 160 199
-0.459301 -0.155168 1.482268 -0.998474 0.000095 -0.055221 146 160 199
-0.458963 -0.000000 1.489163 -0.998474 0.000095 -0.055221 146 160 199
-0.420390 0.000000 0.778972 -0.998474 0.000095 -0.055221 146 160 199
-0.480502 -0.141202 1.758427 -0.996366 0.027720 -0.080541 146 160 199
-0.480502 0.000000 1.787324 -0.996366 0.027720 -0.080541 146 160 199
-0.464887 0.000000 1.613859 -0.996366 0.027720 -0.080541 146 160 199
-0.469506 -0.152399 1.598844 -0.996366 0.027720 -0.080541 146 160 199
-0.420390 -0.360972 0.824860 -0.044156 -0.995914 0.078770 146 160 199
-0.322488 -0.360972 0.879741 -0.044156 -0.995914 0.078770 146 160 199
-0.382600 -0.291762 1.721088 -0.044156 -0.995914 0.078770 146 160 199
-0.480502 -0.291762 1.666207 -0.044156 -0.995914 0.078770 146 160 199
-0.361399 -0.155168 1.537149 0.012688 0.999663 -0.022635 146 160 199
-0.459301 -0.155168 1.482268 0.012688 0.999663 -0.022635 146 160 199
-0.469506 -0.152399 1.598844 0.012688 0.999663 -0.022635 146 160 199
-0.371604 -0.152399 1.653725 0.012688 0.999663 -0.022635 146 160 199
-0.371604 -0.152399 1.653725 0.487749 0.070945 -0.870096 146 160 199
-0.469506 -0.152399 1.598844 0.487749 0.070945 -0.870096 146 160 199
-0.464887 0.000000 1.613859 0.487749 0.070945 -0.870096 146 160 199
-0.366985 0.000000 1.668740 0.487749 0.070945 -0.870096 146 160 199
-0.361399 -0.155168 1.537149 -0.488633 -0.037667 0.871676 146 160 199
-0.361061 -0.000000 1.544043 -0.488633 -0.037667 0.871676 146 160 199
-0.458963 -0.000000 1.489163 -0.488633 -0.037667 0.871676 146 160 199
-0.459301 -0.155168 1.482268 -0.488633 -0.037667 0.871676 146 160 199
-0.322488 -0.191045 0.846258 0.998390 0.010967 0.055660 146 160 199
-0.361399 -0.155168 1.537149 0.998390 0.010967 0.055660 146 160 199
-0.322488 -0.360972 0.879741 0.998390 0.010967 0.055660 146 160 199
-0.322488 -0.360972 0.879741 0.995743 -0.052890 0.075494 146 160 199
-0.361399 -0.155168 1.537149 0.995743 -0.052890 0.075494 146 160 199
-0.382600 -0.291762 1.721088 0.995743 -0.052890 0.075494 146 160 199
-0.361399 -0.155168 1.537149 0.995470 -0.036008 0.087999 146 160 199
-0.371604 -0.152399 1.653725 0.995470 -0.036008 0.087999 146 160 199
-0.382600 -0.291762 1.721088 0.995470 -0.036008 0.087999 146 160 199
-0.382600 -0.141202 1.813308 0.996455 -0.043943 0.071743 146 160 199
-0.382600 -0.291762 1.721088 0.996455 -0.043943 0.071743 146 160 199
-0.371604 -0.152399 1.653725 0.996455 -0.043943 0.071743 146 160 199
-0.420390 -0.191045 0.791377 -0.998390 -0.010967 -0.055660 146 160 199
-0.420390 -0.360972 0.824860 -0.998390 -0.010967 -0.055660 146 160 199
-0.459301 -0.155168 1.482268 -0.998390 -0.010967 -0.055660 146 160 199
-0.480502 -0.291762 1.666207 -0.995743 0.052890 -0.075494 146 160 199
-0.459301 -0.155168 1.482268 -0.995743 0.052890 -0.075494 146 160 199
-0.420390 -0.360972 0.824860 -0.995743 0.052890 -0.075494 146 160 199
-0.459301 -0.155168 1.482268 -0.995470 0.036008 -0.087999 146 160 199
-0.480502 -0.291762 1.666207 -0.995470 0.036008 -0.087999 146 160 199
-0.469506 -0.152399 1.598844 -0.995470 0.036008 -0.087999 146 160 199
-0.480502 -0.141202 1.758427 -0.996455 0.043943 -0.071743 146 160 199
-0.469506 -0.152399 1.598844 -0.996455 0.043943 -0.071743 146 160 199
-0.480502 -0.291762 1.666207 -0.996455 0.043943 -0.071743 146 160 199
-0.210891 0.460881 0.816349 -0.969038 0.005538 0.246850 163 162 166
-0.418589 0.466630 0.000879 -0.969038 0.005538 0.246850 163 162 166
-0.419171 0.384033 0.000445 -0.969038 0.005538 0.246850 163 162 166
-0.211473 0.378283 0.815915 -0.969038 0.005538 0.246850 163 162 166
-0.211473 0.378283 0.815915 -0.007053 -0.999961 -0.005254 163 162 166
-0.419171 0.384033 0.000445 -0.007053 -0.999961 -0.005254 163 162 166
-0.351415 0.383645 -0.016815 -0.007053 -0.999961 -0.005254 163 162 166
-0.143717 0.377896 0.798655 -0.007053 -0.999961 -0.005254 163 162 166
-0.143717 0.377896 0.798655 0.969038 -0.005538 -0.246850 163 162 166
-0.351415 0.383645 -0.016815 0.969038 -0.005538 -0.246850 163 162 166
-0.350833 0.466243 -0.016381 0.969038 -0.005538 -0.246850 163 162 166
-0.143135 0.460494 0.799089 0.969038 -0.005538 -0.246850 163 162 166
-0.143135 0.460494 0.799089 0.007053 0.999961 0.005254 163 162 166
-0.350833 0.466243 -0.016381 0.007053 0.999961 0.005254 163 162 166
-0.418589 0.466630 0.000879 0.007053 0.999961 0.005254 163 162 166
-0.210891 0.460881 0.816349 0.007053 0.999961 0.005254 163 162 166
-0.418589 0.466630 0.000879 -0.246812 0.006832 -0.969039 163 162 166
-0.350833 0.466243 -0.016381 -0.246812 0.006832 -0.969039 163 162 166
-0.351415 0.383645 -0.016815 -0.246812 0.006832 -0.969039 163 162 166
-0.419171 0.384033 0.000445 -0.246812 0.006832 -0.969039 163 162 166
-0.143135 0.460494 0.799089 0.000013 0.005254 -0.999986 163 162 166
0.315889 0.459520 0.799089 0.000013 0.005254 -0.999986 163 162 166
0.315889 0.376922 0.798655 0.000013 0.005254 -0.999986 163 162 166
-0.143717 0.377896 0.798655 0.000013 0.005254 -0.999986 163 162 166
-0.143717 0.377896 0.798655 -0.005523 -0.999984 0.000755 163 162 166
-0.143426 0.377944 0.865227 -0.005523 -0.999984 0.000755 163 162 166
-0.211473 0.378283 0.815915 -0.005523 -0.999984 0.000755 163 162 166
-0.211473 0.378283 0.815915 -0.588449 -0.002173 0.808531 163 162 166
-0.143426 0.377944 0.865227 -0.588449 -0.002173 0.808531 163 162 166
-0.143426 0.460542 0.865661 -0.588449 -0.002173 0.808531 163 162 166
-0.210891 0.460881 0.816349 -0.588449 -0.002173 0.808531 163 162 166
-0.210891 0.460881 0.816349 0.005535 0.999984 -0.000706 163 162 166
-0.143426 0.460542 0.865661 0.005535 0.999984 -0.000706 163 162 166
-0.143135 0.460494 0.799089 0.005535 0.999984 -0.000706 163 162 166
0.315889 0.459520 0.799089 1.000000 -0.000000 0.000000 140 140 140
0.315889 0.459568 0.865662 1.000000 -0.000000 0.000000 140 140 140
0.315889 0.376971 0.865228 1.000000 -0.000000 0.000000 140 140 140
0.315889 0.376922 0.798655 1.000000 -0.000000 0.000000 140 140 140
-0.143426 0.460542 0.865661 0.002121 0.999998 -0.000726 163 162 166
0.315889 0.459568 0.865662 0.002121 0.999998 -0.000726 163 162 166
0.315889 0.459520 0.799089 0.002121 0.999998 -0.000726 163 162 166
-0.143135 0.460494 0.799089 0.002121 0.999998 -0.000726 163 162 166
-0.143426 0.377944 0.865227 -0.000013 -0.005254 0.999986 163 162 166
0.315889 0.376971 0.865228 -0.000013 -0.005254 0.999986 163 162 166
0.315889 0.459568 0.865662 -0.000013 -0.005254 0.999986 163 162 166
-0.143426 0.460542 0.865661 -0.000013 -0.005254 0.999986 163 162 166
0.315889 0.376922 0.798655 0.019813 -0.999803 0.000731 163 162 166
0.383936 0.378283 0.815915 0.019813 -0.999803 0.000731 163 162 166
0.315889 0.376971 0.865228 0.019813 -0.999803 0.000731 163 162 166
0.383936 0.378283 0.815915 0.588475 -0.002173 0.808512 163 162 166
0.383354 0.460881 0.816349 0.588475 -0.002173 0.808512 163 162 166
0.315889 0.459568 0.865662 0.588475 -0.002173 0.808512 163 162 166
0.315889 0.376971 0.865228 0.588475 -0.002173 0.808512 163 162 166
0.315889 0.376922 0.798655 -0.969056 -0.002120 -0.246833 163 162 166
0.315889 0.459520 0.799089 -0.969056 -0.002120 -0.246833 163 162 166
0.523295 0.466243 -0.016381 -0.969056 -0.002120 -0.246833 163 162 166
0.523878 0.383645 -0.016815 -0.969056 -0.002120 -0.246833 163 162 166
0.591052 0.466630 0.000879 0.246811 0.006832 -0.969039 163 162 166
0.591634 0.384033 0.000445 0.246811 0.006832 -0.969039 163 162 166
0.523878 0.383645 -0.016815 0.246811 0.006832 -0.969039 163 162 166
0.523295 0.466243 -0.016381 0.246811 0.006832 -0.969039 163 162 166
0.383354 0.460881 0.816349 -0.019984 0.999800 -0.000731 163 162 166
0.315889 0.459520 0.799089 -0.019984 0.999800 -0.000731 163 162 166
0.315889 0.459568 0.865662 -0.019984 0.999800 -0.000731 163 162 166
0.383936 0.378283 0.815915 0.013915 -0.999895 -0.004100 163 162 166
0.315889 0.376922 0.798655 0.013915 -0.999895 -0.004100 163 162 166
0.523878 0.383645 -0.016815 0.013915 -0.999895 -0.004100 163 162 166
0.591634 0.384033 0.000445 0.013915 -0.999895 -0.004100 163 162 166
0.383354 0.460881 0.816349 0.969038 0.005538 0.246850 163 162 166
0.383936 0.378283 0.815915 0.969038 0.005538 0.246850 163 162 166
0.591634 0.384033 0.000445 0.969038 0.005538 0.246850 163 162 166
0.591052 0.466630 0.000879 0.969038 0.005538 0.246850 163 162 166
-0.143717 0.377896 0.798655 -0.002120 -0.999997 0.000735 163 162 166
0.315889 0.376922 0.798655 -0.002120 -0.999997 0.000735 163 162 166
0.315889 0.376971 0.865228 -0.002120 -0.999997 0.000735 163 162 166
-0.143426 0.377944 0.865227 -0.002120 -0.999997 0.000735 163 162 166
0.315889 0.459520 0.799089 -0.013972 0.999894 0.004091 163 162 166
0.383354 0.460881 0.816349 -0.013972 0.999894 0.004091 163 162 166
0.591052 0.466630 0.000879 -0.013972 0.999894 0.004091 163 162 166
0.523295 0.466243 -0.016381 -0.013972 0.999894 0.004091 163 162 166
-0.386114 0.368875 0.763716 -0.054786 0.993704 0.097732 146 160 199
-0.420390 0.360972 0.824860 -0.054786 0.993704 0.097732 146 160 199
-0.322488 0.360972 0.879741 -0.054786 0.993704 0.097732 146 160 199
-0.288212 0.368875 0.818597 -0.054786 0.993704 0.097732 146 160 199
0.460384 0.198949 0.785114 1.000000 0.000000 0.000000 146 160 199
0.460384 0.198949 0.730233 1.000000 0.000000 0.000000 146 160 199
0.460384 0.368875 0.763716 1.000000 0.000000 0.000000 146 160 199
0.460384 0.368875 0.818597 1.000000 0.000000 0.000000 146 160 199
0.460384 0.368875 0.818597 -0.000000 1.000000 0.000000 146 160 199
0.460384 0.368875 0.763716 -0.000000 1.000000 0.000000 146 160 199
-0.288212 0.368875 0.763716 -0.000000 1.000000 0.000000 146 160 199
-0.288212 0.368875 0.818597 -0.000000 1.000000 0.000000 146 160 199
-0.288212 0.198949 0.730233 0.000000 0.062232 -0.998062 146 160 199
0.460384 0.198949 0.730233 0.000000 0.062232 -0.998062 146 160 199
0.460384 0.000000 0.717828 0.000000 0.062232 -0.998062 146 160 199
-0.288212 0.000000 0.717828 0.000000 0.062232 -0.998062 146 160 199
0.460384 0.198949 0.785114 0.000000 -0.062232 0.998062 146 160 199
-0.288212 0.198949 0.785114 0.000000 -0.062232 0.998062 146 160 199
-0.288212 0.000000 0.772709 0.000000 -0.062232 0.998062 146 160 199
0.460384 0.000000 0.772709 0.000000 -0.062232 0.998062 146 160 199
-0.386114 0.000000 0.717828 0.000000 0.062232 -0.998062 146 160 199
-0.386114 0.198949 0.730233 0.000000 0.062232 -0.998062 146 160 199
-0.288212 0.368875 0.763716 0.000000 0.193326 -0.981135 146 160 199
0.460384 0.368875 0.763716 0.000000 0.193326 -0.981135 146 160 199
0.460384 0.198949 0.730233 0.000000 0.193326 -0.981135 146 160 199
-0.288212 0.198949 0.730233 0.000000 0.193326 -0.981135 146 160 199
0.460384 0.368875 0.818597 0.000000 -0.193326 0.981135 146 160 199
-0.288212 0.368875 0.818597 0.000000 -0.193326 0.981135 146 160 199
-0.288212 0.198949 0.785114 0.000000 -0.193326 0.981135 146 160 199
0.460384 0.198949 0.785114 0.000000 -0.193326 0.981135 146 160 199
-0.288212 0.368875 0.818597 0.873563 -0.094094 0.477529 146 160 199
-0.322488 0.360972 0.879741 0.873563 -0.094094 0.477529 146 160 199
-0.322488 0.191045 0.846258 0.873563 -0.094094 0.477529 146 160 199
-0.288212 0.198949 0.785114 0.873563 -0.094094 0.477529 146 160 199
-0.386114 0.000000 0.717828 -0.872728 0.030995 -0.487222 146 160 199
-0.420390 0.000000 0.778972 -0.872728 0.030995 -0.487222 146 160 199
-0.420390 0.191045 0.791377 -0.872728 0.030995 -0.487222 146 160 199
-0.386114 0.198949 0.730233 -0.872728 0.030995 -0.487222 146 160 199
-0.386114 0.198949 0.730233 0.000000 0.193326 -0.981135 146 160 199
-0.386114 0.368875 0.763716 0.000000 0.193326 -0.981135 146 160 199
-0.382600 0.141202 1.813308 0.996366 0.027719 0.080541 146 160 199
-0.382600 0.000000 1.842205 0.996366 0.027719 0.080541 146 160 199
-0.366985 0.000000 1.668740 0.996366 0.027719 0.080541 146 160 199
-0.371604 0.152399 1.653725 0.996366 0.027719 0.080541 146 160 199
-0.386114 0.198949 0.730233 -0.873562 0.094094 -0.477530 146 160 199
-0.420390 0.191045 0.791377 -0.873562 0.094094 -0.477530 146 160 199
-0.420390 0.360972 0.824860 -0.873562 0.094094 -0.477530 146 160 199
-0.386114 0.368875 0.763716 -0.873562 0.094094 -0.477530 146 160 199
-0.322488 0.191045 0.846258 0.998474 0.000095 0.055221 146 160 199
-0.361399 0.155168 1.537149 0.998474 0.000095 0.055221 146 160 199
-0.361061 -0.000000 1.544043 0.998474 0.000095 0.055221 146 160 199
-0.322488 0.000000 0.833853 0.998474 0.000095 0.055221 146 160 199
-0.386114 0.368875 0.763716 -0.000000 1.000000 0.000000 146 160 199
-0.288212 0.198949 0.785114 0.872729 -0.030995 0.487221 146 160 199
-0.322488 0.191045 0.846258 0.872729 -0.030995 0.487221 146 160 199
-0.322488 0.000000 0.833853 0.872729 -0.030995 0.487221 146 160 199
-0.288212 0.000000 0.772709 0.872729 -0.030995 0.487221 146 160 199
-0.382600 0.141202 1.813308 -0.481370 0.175738 0.858719 146 160 199
-0.480502 0.141202 1.758427 -0.481370 0.175738 0.858719 146 160 199
-0.480502 0.000000 1.787324 -0.481370 0.175738 0.858719 146 160 199
-0.382600 0.000000 1.842205 -0.481370 0.175738 0.858719 146 160 199
-0.382600 0.291762 1.721088 -0.431281 0.471246 0.769366 146 160 199
-0.480502 0.291762 1.666207 -0.431281 0.471246 0.769366 146 160 199
-0.480502 0.141202 1.758427 -0.431281 0.471246 0.769366 146 160 199
-0.382600 0.141202 1.813308 -0.431281 0.471246 0.769366 146 160 199
-0.420390 0.191045 0.791377 -0.998474 -0.000095 -0.055221 146 160 199
-0.420390 0.000000 0.778972 -0.998474 -0.000095 -0.055221 146 160 199
-0.458963 -0.000000 1.489163 -0.998474 -0.000095 -0.055221 146 160 199
-0.459301 0.155168 1.482268 -0.998474 -0.000095 -0.055221 146 160 199
-0.480502 0.141202 1.758427 -0.996366 -0.027720 -0.080541 146 160 199
-0.469506 0.152399 1.598844 -0.996366 -0.027720 -0.080541 146 160 199
-0.464887 0.000000 1.613859 -0.996366 -0.027720 -0.080541 146 160 199
-0.480502 0.000000 1.787324 -0.996366 -0.027720 -0.080541 146 160 199
-0.420390 0.360972 0.824860 -0.044156 0.995914 0.078770 146 160 199
-0.480502 0.291762 1.666207 -0.044156 0.995914 0.078770 146 160 199
-0.382600 0.291762 1.721088 -0.044156 0.995914 0.078770 146 160 199
-0.322488 0.360972 0.879741 -0.044156 0.995914 0.078770 146 160 199
-0.361399 0.155168 1.537149 0.012688 -0.999663 -0.022635 146 160 199
-0.371604 0.152399 1.653725 0.012688 -0.999663 -0.022635 146 160 199
-0.469506 0.152399 1.598844 0.012688 -0.999663 -0.022635 146 160 199
-0.459301 0.155168 1.482268 0.012688 -0.999663 -0.022635 146 160 199
-0.371604 0.152399 1.653725 0.487749 -0.070945 -0.870096 146 160 199
-0.366985 0.000000 1.668740 0.487749 -0.070945 -0.870096 146 160 199
-0.464887 0.000000 1.613859 0.487749 -0.070945 -0.870096 146 160 199
-0.469506 0.152399 1.598844 0.487749 -0.070945 -0.870096 146 160 199
-0.361399 0.155168 1.537149 -0.488633 0.037667 0.871676 146 160 199
-0.459301 0.155168 1.482268 -0.488633 0.037667 0.871676 146 160 199
-0.458963 -0.000000 1.489163 -0.488633 0.037667 0.871676 146 160 199
-0.361061 -0.000000 1.544043 -0.488633 0.037667 0.871676 146 160 199
-0.322488 0.191045 0.846258 0.998390 -0.010967 0.055660 146 160 199
-0.322488 0.360972 0.879741 0.998390 -0.010967 0.055660 146 160 199
-0.361399 0.155168 1.537149 0.998390 -0.010967 0.055660 146 160 199
-0.322488 0.360972 0.879741 0.995743 0.052890 0.075494 146 160 199
-0.382600 0.291762 1.721088 0.995743 0.052890 0.075494 146 160 199
-0.361399 0.155168 1.537149 0.995743 0.052890 0.075494 146 160 199
-0.361399 0.155168 1.537149 0.995470 0.036008 0.087999 146 160 199
-0.382600 0.291762 1.721088 0.995470 0.036008 0.087999 146 160 199
-0.371604 0.152399 1.653725 0.995470 0.036008 0.087999 146 160 199
-0.382600 0.141202 1.813308 0.996455 0.043943 0.071743 146 160 199
-0.371604 0.152399 1.653725 0.996455 0.043943 0.071743 146 160 199
-0.382600 0.291762 1.721088 0.996455 0.043943 0.071743 146 160 199
-0.420390 0.191045 0.791377 -0.998390 0.010967 -0.055660 146 160 199
-0.459301 0.155168 1.482268 -0.998390 0.010967 -0.055660 146 160 199
-0.420390 0.360972 0.824860 -0.998390 0.010967 -0.055660 146 160 199
-0.480502 0.291762 1.666207 -0.995743 -0.052890 -0.075494 146 160 199
-0.420390 0.360972 0.824860 -0.995743 -0.052890 -0.075494 146 160 199
-0.459301 0.155168 1.482268 -0.995743 -0.052890 -0.075494 146 160 199
-0.459301 0.155168 1.482268 -0.995470 -0.036008 -0.087999 146 160 199
-0.469506 0.152399 1.598844 -0.995470 -0.036008 -0.087999 146 160 199
-0.480502 0.291762 1.666207 -0.995470 -0.036008 -0.087999 146 160 199
-0.480502 0.141202 1.758427 -0.996455 -0.043943 -0.071743 146 160 199
-0.480502 0.291762 1.666207 -0.996455 -0.043943 -0.071743 146 160 199
-0.469506 0.152399 1.598844 -0.996455 -0.043943 -0.071743 146 160 199
4 0 1 2 3
4 4 5 6 7
4 8 9 10 11
4 12 13 14 15
4 16 17 18 19
4 20 21 22 23
3 24 25 26
4 27 28 29 30
3 31 32 33
4 34 35 36 37
4 38 39 40 41
4 42 43 44 45
3 46 47 48
4 49 50 51 52
4 53 54 55 56
4 57 58 59 60
3 61 62 63
4 64 65 66 67
4 68 69 70 71
4 72 73 74 75
4 76 77 78 79
4 80 81 82 83
4 84 85 86 87
4 88 89 90 91
4 92 93 94 95
4 96 97 98 99
4 93 92 100 101
4 102 84 87 103
4 104 105 106 107
4 108 109 110 111
4 112 113 114 115
4 116 117 118 119
4 105 104 120 121
4 122 123 124 125
4 126 127 128 129
4 130 131 132 133
3 90 89 134
4 135 136 137 138
4 139 140 141 142
4 143 144 145 146
4 147 148 149 150
4 151 152 153 154
4 155 156 157 158
4 159 160 161 162
4 163 164 165 166
4 167 168 169 170
3 171 172 173
3 174 175 176
3 177 178 179
3 180 181 182
3 183 184 185
3 186 187 188
3 189 190 191
3 192 193 194
4 195 196 197 198
4 199 200 201 202
4 203 204 205 206
4 207 208 209 210
4 211 212 213 214
4 215 216 217 218
3 219 220 221
4 222 223 224 225
3 226 227 228
4 229 230 231 232
4 233 234 235 236
4 237 238 239 240
3 241 242 243
4 244 245 246 247
4 248 249 250 251
4 252 253 254 255
3 256 257 258
4 259 260 261 262
4 263 264 265 266
4 267 268 269 270
4 271 272 273 274
4 275 276 277 278
4 279 280 281 282
4 283 284 285 286
4 287 288 289 290
4 291 292 293 294
4 290 295 296 287
4 102 103 280 279
4 297 298 299 300
4 301 302 303 304
4 305 306 307 308
4 309 310 311 312
4 300 313 314 297
4 315 316 317 318
4 319 320 321 322
4 323 324 325 326
3 285 327 286
4 328 329 330 331
4 332 333 334 335
4 336 337 338 339
4 340 341 342 343
4 344 345 346 347
4 348 349 350 351
4 352 353 354 355
4 356 357 358 359
4 360 361 362 363
3 364 365 366
3 367 368 369
3 370 371 372
3 373 374 375
3 376 377 378
3 379 380 381
3 382 383 384
3 385 386 387
