ply
format ascii 1.0
comment Created by Blender 2.69 (sub 0) - www.blender.org, source file: 'chair.blend'
element vertex 327
property float x
property float y
property float z
property float nx
property float ny
property float nz
property uchar red
property uchar green
property uchar blue
element face 108
property list uchar uint vertex_indices
end_header
-0.419171 -0.384033 0.000445 -0.969038 -0.005538 0.246850 163 162 166
-0.418589 -0.466630 0.000879 -0.969038 -0.005538 0.246850 163 162 166
-0.210891 -0.460881 0.816349 -0.969038 -0.005538 0.246850 163 162 166
-0.211473 -0.378283 0.815915 -0.969038 -0.005538 0.246850 163 162 166
-0.211473 -0.378283 0.815915 -0.007053 0.999961 -0.005254 163 162 166
-0.143717 -0.377896 0.798655 -0.007053 0.999961 -0.005254 163 162 166
-0.351415 -0.383645 -0.016815 -0.007053 0.999961 -0.005254 163 162 166
-0.419171 -0.384033 0.000445 -0.007053 0.999961 -0.005254 163 162 166
-0.143717 -0.377896 0.798655 0.969038 0.005538 -0.246850 163 162 166
-0.143135 -0.460494 0.799089 0.969038 0.005538 -0.246850 163 162 166
-0.350833 -0.466243 -0.016381 0.969038 0.005538 -0.246850 163 162 166
-0.351415 -0.383645 -0.016815 0.969038 0.005538 -0.246850 163 162 166
-0.418589 -0.466630 0.000879 0.007053 -0.999961 0.005254 163 162 166
-0.350833 -0.466243 -0.016381 0.007053 -0.999961 0.005254 163 162 166
-0.143135 -0.460494 0.799089 0.007053 -0.999961 0.005254 163 162 166
-0.210891 -0.460881 0.816349 0.007053 -0.999961 0.005254 163 162 166
-0.418589 -0.466630 0.000879 -0.246812 -0.006832 -0.969039 163 162 166
-0.419171 -0.384033 0.000445 -0.246812 -0.006832 -0.969039 163 162 166
-0.351415 -0.383645 -0.016815 -0.246812 -0.006832 -0.969039 163 162 166
-0.350833 -0.466243 -0.016381 -0.246812 -0.006832 -0.969039 163 162 166
-0.143135 -0.460494 0.799089 0.000013 -0.005254 -0.999986 163 162 166
-0.143717 -0.377896 0.798655 0.000013 -0.005254 -0.999986 163 162 166
0.315889 -0.376922 0.798655 0.000013 -0.005254 -0.999986 163 162 166
0.315889 -0.459520 0.799089 0.000013 -0.005254 -0.999986 163 162 166
-0.143717 -0.377896 0.798655 -0.005523 0.999984 0.000755 163 162 166
-0.211473 -0.378283 0.815915 -0.005523 0.999984 0.000755 163 162 166
-0.143426 -0.377944 0.865227 -0.005523 0.999984 0.000755 163 162 166
-0.211473 -0.378283 0.815915 -0.588449 0.002173 0.808531 163 162 166
-0.210891 -0.460881 0.816349 -0.588449 0.002173 0.808531 163 162 166
-0.143426 -0.460542 0.865661 -0.588449 0.002173 0.808531 163 162 166
-0.143426 -0.377944 0.865227 -0.588449 0.002173 0.808531 163 162 166
-0.210891 -0.460881 0.816349 0.005535 -0.999984 -0.000706 163 162 166
-0.143135 -0.460494 0.799089 0.005535 -0.999984 -0.000706 163 162 166
-0.143426 -0.460542 0.865661 0.005535 -0.999984 -0.000706 163 162 166
0.315889 -0.459520 0.799089 1.000000 0.000000 0.000000 140 140 140
0.315889 -0.376922 0.798655 1.000000 0.000000 0.000000 140 140 140
0.315889 -0.376971 0.865228 1.000000 0.000000 0.000000 140 140 140
0.315889 -0.459568 0.865662 1.000000 0.000000 0.000000 140 140 140
-0.143426 -0.460542 0.865661 0.002121 -0.999998 -0.000726 163 162 166
-0.143135 -0.460494 0.799089 0.002121 -0.999998 -0.000726 163 162 166
0.315889 -0.459520 0.799089 0.002121 -0.999998 -0.000726 163 162 166
0.315889 -0.459568 0.865662 0.002121 -0.999998 -0.000726 163 162 166
-0.143426 -0.377944 0.865227 -0.000013 0.005254 0.999986 163 162 166
-0.143426 -0.460542 0.865661 -0.000013 0.005254 0.999986 163 162 166
0.315889 -0.459568 0.865662 -0.000013 0.005254 0.999986 163 162 166
0.315889 -0.376971 0.865228 -0.000013 0.005254 0.999986 163 162 166
0.315889 -0.376922 0.798655 0.019813 0.999803 0.000731 163 162 166
0.315889 -0.376971 0.865228 0.019813 0.999803 0.000731 163 162 166
0.383936 -0.378283 0.815915 0.019813 0.999803 0.000731 163 162 166
0.383936 -0.378283 0.815915 0.588475 0.002173 0.808512 163 162 166
0.315889 -0.376971 0.865228 0.588475 0.002173 0.808512 163 162 166
0.315889 -0.459568 0.865662 0.588475 0.002173 0.808512 163 162 166
0.383354 -0.460881 0.816349 0.588475 0.002173 0.808512 163 162 166
0.315889 -0.376922 0.798655 -0.969056 0.002120 -0.246833 163 162 166
0.523878 -0.383645 -0.016815 -0.969056 0.002120 -0.246833 163 162 166
0.523295 -0.466243 -0.016381 -0.969056 0.002120 -0.246833 163 162 166
0.315889 -0.459520 0.799089 -0.969056 0.002120 -0.246833 163 162 166
0.591052 -0.466630 0.000879 0.246811 -0.006832 -0.969039 163 162 166
0.523295 -0.466243 -0.016381 0.246811 -0.006832 -0.969039 163 162 166
0.523878 -0.383645 -0.016815 0.246811 -0.006832 -0.969039 163 162 166
0.591634 -0.384033 0.000445 0.246811 -0.006832 -0.969039 163 162 166
0.383354 -0.460881 0.816349 -0.019984 -0.999800 -0.000731 163 162 166
0.315889 -0.459568 0.865662 -0.019984 -0.999800 -0.000731 163 162 166
0.315889 -0.459520 0.799089 -0.019984 -0.999800 -0.000731 163 162 166
0.383936 -0.378283 0.815915 0.013915 0.999895 -0.004100 163 162 166
0.591634 -0.384033 0.000445 0.013915 0.999895 -0.004100 163 162 166
0.523878 -0.383645 -0.016815 0.013915 0.999895 -0.004100 163 162 166
0.315889 -0.376922 0.798655 0.013915 0.999895 -0.004100 163 162 166
0.383354 -0.460881 0.816349 0.969038 -0.005538 0.246850 163 162 166
0.591052 -0.466630 0.000879 0.969038 -0.005538 0.246850 163 162 166
0.591634 -0.384033 0.000445 0.969038 -0.005538 0.246850 163 162 166
0.383936 -0.378283 0.815915 0.969038 -0.005538 0.246850 163 162 166
-0.143717 -0.377896 0.798655 -0.002120 0.999997 0.000735 163 162 166
-0.143426 -0.377944 0.865227 -0.002120 0.999997 0.000735 163 162 166
0.315889 -0.376971 0.865228 -0.002120 0.999997 0.000735 163 162 166
0.315889 -0.376922 0.798655 -0.002120 0.999997 0.000735 163 162 166
0.315889 -0.459520 0.799089 -0.013972 -0.999894 0.004091 163 162 166
0.523295 -0.466243 -0.016381 -0.013972 -0.999894 0.004091 163 162 166
0.591052 -0.466630 0.000879 -0.013972 -0.999894 0.004091 163 162 166
0.383354 -0.460881 0.816349 -0.013972 -0.999894 0.004091 163 162 166
-0.480502 -0.291762 1.666207 -0.995743 0.052890 -0.075494 139 146 255
-0.459301 -0.155168 1.482268 -0.995743 0.052890 -0.075494 139 146 255
-0.420390 -0.360972 0.824860 -0.995743 0.052890 -0.075494 139 146 255
0.460384 -0.198949 0.785114 1.000000 0.000000 -0.000000 139 146 255
0.460384 -0.368875 0.818597 1.000000 0.000000 -0.000000 139 146 255
0.460384 -0.368875 0.763716 1.000000 0.000000 -0.000000 139 146 255
0.460384 -0.198949 0.730233 1.000000 0.000000 -0.000000 139 146 255
-0.420390 -0.191045 0.791377 -0.998390 -0.010967 -0.055660 139 146 255
-0.420390 -0.360972 0.824860 -0.998390 -0.010967 -0.055660 139 146 255
-0.459301 -0.155168 1.482268 -0.998390 -0.010967 -0.055660 139 146 255
0.460384 0.000000 0.772709 1.000000 0.000000 -0.000000 139 146 255
0.460384 0.000000 0.717828 1.000000 0.000000 -0.000000 139 146 255
-0.288212 0.000000 0.717828 0.000000 0.000000 -1.000000 139 146 255
-0.288212 -0.198949 0.730233 0.000000 -0.128056 -0.991760 139 146 255
-0.386114 -0.198949 0.730233 0.000000 -0.128056 -0.991760 139 146 255
-0.386114 0.000000 0.717828 0.000000 0.000000 -1.000000 139 146 255
-0.480502 -0.141202 1.758427 -0.996455 0.043943 -0.071743 139 146 255
-0.469506 -0.152399 1.598844 -0.996455 0.043943 -0.071743 139 146 255
-0.480502 -0.291762 1.666207 -0.996455 0.043943 -0.071743 139 146 255
0.460384 0.000000 0.717828 0.000000 0.000000 -1.000000 139 146 255
0.460384 -0.198949 0.730233 0.000000 -0.128056 -0.991760 139 146 255
-0.459301 -0.155168 1.482268 -0.995470 0.036008 -0.087999 139 146 255
-0.480502 -0.291762 1.666207 -0.995470 0.036008 -0.087999 139 146 255
-0.469506 -0.152399 1.598844 -0.995470 0.036008 -0.087999 139 146 255
-0.382600 -0.291762 1.721088 -0.431257 -0.471236 0.769341 139 146 255
-0.382600 -0.141202 1.813308 -0.464949 -0.309580 0.829432 139 146 255
-0.480502 -0.141202 1.758427 -0.459181 -0.343608 0.819178 139 146 255
-0.480502 -0.291762 1.666207 -0.431257 -0.471236 0.769341 139 146 255
-0.382600 -0.141202 1.813308 0.996429 -0.033235 0.077517 139 146 255
-0.371604 -0.152399 1.653725 0.996033 -0.035524 0.081515 139 146 255
-0.366985 0.000000 1.668740 0.996734 0.000000 0.080569 139 146 255
-0.382600 0.000000 1.842205 0.996734 0.000000 0.080569 139 146 255
-0.480502 -0.141202 1.758427 -0.996366 0.027720 -0.080541 139 146 255
-0.480502 0.000000 1.787324 -0.996366 0.027720 -0.080541 139 146 255
-0.464887 0.000000 1.613859 -0.996366 0.027720 -0.080541 139 146 255
-0.469506 -0.152399 1.598844 -0.996366 0.027720 -0.080541 139 146 255
-0.420390 -0.191045 0.791377 -0.998474 0.000095 -0.055221 139 146 255
-0.459301 -0.155168 1.482268 -0.998474 0.000095 -0.055221 139 146 255
-0.458963 -0.000000 1.489163 -0.998474 0.000095 -0.055221 139 146 255
-0.420390 0.000000 0.778972 -0.998474 0.000095 -0.055221 139 146 255
-0.382600 0.000000 1.842205 -0.488968 0.000000 0.872280 139 146 255
-0.480502 0.000000 1.787324 -0.488968 0.000000 0.872280 139 146 255
-0.361399 -0.155168 1.537149 -0.488633 -0.037667 0.871676 139 146 255
-0.361061 -0.000000 1.544043 -0.488633 -0.037667 0.871676 139 146 255
-0.458963 -0.000000 1.489163 -0.488633 -0.037667 0.871676 139 146 255
-0.459301 -0.155168 1.482268 -0.488633 -0.037667 0.871676 139 146 255
-0.361399 -0.155168 1.537149 0.012688 0.999663 -0.022635 139 146 255
-0.459301 -0.155168 1.482268 0.012688 0.999663 -0.022635 139 146 255
-0.469506 -0.152399 1.598844 0.012688 0.999663 -0.022635 139 146 255
-0.371604 -0.152399 1.653725 0.012688 0.999663 -0.022635 139 146 255
-0.386114 -0.368875 0.763716 -0.054786 -0.993704 0.097732 139 146 255
-0.288212 -0.368875 0.818597 -0.054786 -0.993704 0.097732 139 146 255
-0.322488 -0.360972 0.879741 -0.054786 -0.993704 0.097732 139 146 255
-0.420390 -0.360972 0.824860 -0.054786 -0.993704 0.097732 139 146 255
-0.420390 -0.360972 0.824860 -0.044156 -0.995914 0.078770 139 146 255
-0.322488 -0.360972 0.879741 -0.044156 -0.995914 0.078770 139 146 255
-0.382600 -0.291762 1.721088 -0.044156 -0.995914 0.078770 139 146 255
-0.480502 -0.291762 1.666207 -0.044156 -0.995914 0.078770 139 146 255
-0.288212 -0.368875 0.763716 0.000000 -1.000000 0.000000 139 146 255
-0.288212 -0.368875 0.818597 0.000000 -1.000000 0.000000 139 146 255
-0.386114 -0.368875 0.763716 0.000000 -1.000000 0.000000 139 146 255
0.460384 -0.368875 0.818597 0.000000 -1.000000 0.000000 139 146 255
0.460384 -0.368875 0.763716 0.000000 -1.000000 0.000000 139 146 255
-0.371604 -0.152399 1.653725 0.487749 0.070945 -0.870096 139 146 255
-0.469506 -0.152399 1.598844 0.487749 0.070945 -0.870096 139 146 255
-0.464887 0.000000 1.613859 0.487749 0.070945 -0.870096 139 146 255
-0.366985 0.000000 1.668740 0.487749 0.070945 -0.870096 139 146 255
-0.288212 -0.368875 0.763716 0.000000 -0.193304 -0.981109 139 146 255
-0.386114 -0.368875 0.763716 0.000000 -0.193304 -0.981109 139 146 255
0.460384 -0.368875 0.763716 0.000000 -0.193304 -0.981109 139 146 255
-0.386114 -0.198949 0.730233 -0.873562 -0.094094 -0.477530 139 146 255
-0.386114 -0.368875 0.763716 -0.873562 -0.094094 -0.477530 139 146 255
-0.420390 -0.360972 0.824860 -0.873562 -0.094094 -0.477530 139 146 255
-0.420390 -0.191045 0.791377 -0.873562 -0.094094 -0.477530 139 146 255
-0.386114 0.000000 0.717828 -0.872728 -0.030995 -0.487222 139 146 255
-0.386114 -0.198949 0.730233 -0.872728 -0.030995 -0.487222 139 146 255
-0.420390 -0.191045 0.791377 -0.872728 -0.030995 -0.487222 139 146 255
-0.420390 0.000000 0.778972 -0.872728 -0.030995 -0.487222 139 146 255
0.460384 -0.198949 0.785114 0.000000 0.128056 0.991760 139 146 255
0.460384 0.000000 0.772709 0.000000 0.000000 1.000000 139 146 255
-0.288212 0.000000 0.772709 0.497665 0.000000 0.867336 139 146 255
-0.288212 -0.198949 0.785114 0.497513 0.111209 0.860286 139 146 255
0.460384 -0.368875 0.818597 0.000000 0.193304 0.981109 139 146 255
-0.288212 -0.368875 0.818597 0.515702 0.165624 0.840602 139 146 255
-0.322488 -0.191045 0.846258 0.957976 0.035890 0.284463 139 146 255
-0.361399 -0.155168 1.537149 0.997162 -0.028779 0.069124 139 146 255
-0.322488 -0.360972 0.879741 0.963530 0.047060 0.263375 139 146 255
-0.382600 -0.291762 1.721088 0.996033 -0.045106 0.076510 139 146 255
-0.322488 0.000000 0.833853 0.957915 0.000000 0.286996 139 146 255
-0.361061 -0.000000 1.544043 0.998474 0.000000 0.055208 139 146 255
-0.210891 0.460881 0.816349 -0.969038 0.005538 0.246850 163 162 166
-0.418589 0.466630 0.000879 -0.969038 0.005538 0.246850 163 162 166
-0.419171 0.384033 0.000445 -0.969038 0.005538 0.246850 163 162 166
-0.211473 0.378283 0.815915 -0.969038 0.005538 0.246850 163 162 166
-0.211473 0.378283 0.815915 -0.007053 -0.999961 -0.005254 163 162 166
-0.419171 0.384033 0.000445 -0.007053 -0.999961 -0.005254 163 162 166
-0.351415 0.383645 -0.016815 -0.007053 -0.999961 -0.005254 163 162 166
-0.143717 0.377896 0.798655 -0.007053 -0.999961 -0.005254 163 162 166
-0.143717 0.377896 0.798655 0.969038 -0.005538 -0.246850 163 162 166
-0.351415 0.383645 -0.016815 0.969038 -0.005538 -0.246850 163 162 166
-0.350833 0.466243 -0.016381 0.969038 -0.005538 -0.246850 163 162 166
-0.143135 0.460494 0.799089 0.969038 -0.005538 -0.246850 163 162 166
-0.143135 0.460494 0.799089 0.007053 0.999961 0.005254 163 162 166
-0.350833 0.466243 -0.016381 0.007053 0.999961 0.005254 163 162 166
-0.418589 0.466630 0.000879 0.007053 0.999961 0.005254 163 162 166
-0.210891 0.460881 0.816349 0.007053 0.999961 0.005254 163 162 166
-0.418589 0.466630 0.000879 -0.246812 0.006832 -0.969039 163 162 166
-0.350833 0.466243 -0.016381 -0.246812 0.006832 -0.969039 163 162 166
-0.351415 0.383645 -0.016815 -0.246812 0.006832 -0.969039 163 162 166
-0.419171 0.384033 0.000445 -0.246812 0.006832 -0.969039 163 162 166
-0.143135 0.460494 0.799089 0.000013 0.005254 -0.999986 163 162 166
0.315889 0.459520 0.799089 0.000013 0.005254 -0.999986 163 162 166
0.315889 0.376922 0.798655 0.000013 0.005254 -0.999986 163 162 166
-0.143717 0.377896 0.798655 0.000013 0.005254 -0.999986 163 162 166
-0.143717 0.377896 0.798655 -0.005523 -0.999984 0.000755 163 162 166
-0.143426 0.377944 0.865227 -0.005523 -0.999984 0.000755 163 162 166
-0.211473 0.378283 0.815915 -0.005523 -0.999984 0.000755 163 162 166
-0.211473 0.378283 0.815915 -0.588449 -0.002173 0.808531 163 162 166
-0.143426 0.377944 0.865227 -0.588449 -0.002173 0.808531 163 162 166
-0.143426 0.460542 0.865661 -0.588449 -0.002173 0.808531 163 162 166
-0.210891 0.460881 0.816349 -0.588449 -0.002173 0.808531 163 162 166
-0.210891 0.460881 0.816349 0.005535 0.999984 -0.000706 163 162 166
-0.143426 0.460542 0.865661 0.005535 0.999984 -0.000706 163 162 166
-0.143135 0.460494 0.799089 0.005535 0.999984 -0.000706 163 162 166
0.315889 0.459520 0.799089 1.000000 -0.000000 0.000000 140 140 140
0.315889 0.459568 0.865662 1.000000 -0.000000 0.000000 140 140 140
0.315889 0.376971 0.865228 1.000000 -0.000000 0.000000 140 140 140
0.315889 0.376922 0.798655 1.000000 -0.000000 0.000000 140 140 140
-0.143426 0.460542 0.865661 0.002121 0.999998 -0.000726 163 162 166
0.315889 0.459568 0.865662 0.002121 0.999998 -0.000726 163 162 166
0.315889 0.459520 0.799089 0.002121 0.999998 -0.000726 163 162 166
-0.143135 0.460494 0.799089 0.002121 0.999998 -0.000726 163 162 166
-0.143426 0.377944 0.865227 -0.000013 -0.005254 0.999986 163 162 166
0.315889 0.376971 0.865228 -0.000013 -0.005254 0.999986 163 162 166
0.315889 0.459568 0.865662 -0.000013 -0.005254 0.999986 163 162 166
-0.143426 0.460542 0.865661 -0.000013 -0.005254 0.999986 163 162 166
0.315889 0.376922 0.798655 0.019813 -0.999803 0.000731 163 162 166
0.383936 0.378283 0.815915 0.019813 -0.999803 0.000731 163 162 166
0.315889 0.376971 0.865228 0.019813 -0.999803 0.000731 163 162 166
0.383936 0.378283 0.815915 0.588475 -0.002173 0.808512 163 162 166
0.383354 0.460881 0.816349 0.588475 -0.002173 0.808512 163 162 166
0.315889 0.459568 0.865662 0.588475 -0.002173 0.808512 163 162 166
0.315889 0.376971 0.865228 0.588475 -0.002173 0.808512 163 162 166
0.315889 0.376922 0.798655 -0.969056 -0.002120 -0.246833 163 162 166
0.315889 0.459520 0.799089 -0.969056 -0.002120 -0.246833 163 162 166
0.523295 0.466243 -0.016381 -0.969056 -0.002120 -0.246833 163 162 166
0.523878 0.383645 -0.016815 -0.969056 -0.002120 -0.246833 163 162 166
0.591052 0.466630 0.000879 0.246811 0.006832 -0.969039 163 162 166
0.591634 0.384033 0.000445 0.246811 0.006832 -0.969039 163 162 166
0.523878 0.383645 -0.016815 0.246811 0.006832 -0.969039 163 162 166
0.523295 0.466243 -0.016381 0.246811 0.006832 -0.969039 163 162 166
0.383354 0.460881 0.816349 -0.019984 0.999800 -0.000731 163 162 166
0.315889 0.459520 0.799089 -0.019984 0.999800 -0.000731 163 162 166
0.315889 0.459568 0.865662 -0.019984 0.999800 -0.000731 163 162 166
0.383936 0.378283 0.815915 0.013915 -0.999895 -0.004100 163 162 166
0.315889 0.376922 0.798655 0.013915 -0.999895 -0.004100 163 162 166
0.523878 0.383645 -0.016815 0.013915 -0.999895 -0.004100 163 162 166
0.591634 0.384033 0.000445 0.013915 -0.999895 -0.004100 163 162 166
0.383354 0.460881 0.816349 0.969038 0.005538 0.246850 163 162 166
0.383936 0.378283 0.815915 0.969038 0.005538 0.246850 163 162 166
0.591634 0.384033 0.000445 0.969038 0.005538 0.246850 163 162 166
0.591052 0.466630 0.000879 0.969038 0.005538 0.246850 163 162 166
-0.143717 0.377896 0.798655 -0.002120 -0.999997 0.000735 163 162 166
0.315889 0.376922 0.798655 -0.002120 -0.999997 0.000735 163 162 166
0.315889 0.376971 0.865228 -0.002120 -0.999997 0.000735 163 162 166
-0.143426 0.377944 0.865227 -0.002120 -0.999997 0.000735 163 162 166
0.315889 0.459520 0.799089 -0.013972 0.999894 0.004091 163 162 166
0.383354 0.460881 0.816349 -0.013972 0.999894 0.004091 163 162 166
0.591052 0.466630 0.000879 -0.013972 0.999894 0.004091 163 162 166
0.523295 0.466243 -0.016381 -0.013972 0.999894 0.004091 163 162 166
-0.480502 0.291762 1.666207 -0.995743 -0.052890 -0.075494 139 146 255
-0.420390 0.360972 0.824860 -0.995743 -0.052890 -0.075494 139 146 255
-0.459301 0.155168 1.482268 -0.995743 -0.052890 -0.075494 139 146 255
0.460384 0.198949 0.785114 1.000000 0.000000 0.000000 139 146 255
0.460384 0.198949 0.730233 1.000000 0.000000 0.000000 139 146 255
0.460384 0.368875 0.763716 1.000000 0.000000 0.000000 139 146 255
0.460384 0.368875 0.818597 1.000000 0.000000 0.000000 139 146 255
-0.420390 0.191045 0.791377 -0.998390 0.010967 -0.055660 139 146 255
-0.459301 0.155168 1.482268 -0.998390 0.010967 -0.055660 139 146 255
-0.420390 0.360972 0.824860 -0.998390 0.010967 -0.055660 139 146 255
-0.386114 0.198949 0.730233 0.000000 0.128056 -0.991760 139 146 255
-0.288212 0.198949 0.730233 0.000000 0.128056 -0.991760 139 146 255
-0.480502 0.141202 1.758427 -0.996455 -0.043943 -0.071743 139 146 255
-0.480502 0.291762 1.666207 -0.996455 -0.043943 -0.071743 139 146 255
-0.469506 0.152399 1.598844 -0.996455 -0.043943 -0.071743 139 146 255
0.460384 0.198949 0.730233 0.000000 0.128056 -0.991760 139 146 255
-0.459301 0.155168 1.482268 -0.995470 -0.036008 -0.087999 139 146 255
-0.469506 0.152399 1.598844 -0.995470 -0.036008 -0.087999 139 146 255
-0.480502 0.291762 1.666207 -0.995470 -0.036008 -0.087999 139 146 255
-0.382600 0.291762 1.721088 -0.431257 0.471236 0.769341 139 146 255
-0.480502 0.291762 1.666207 -0.431257 0.471236 0.769341 139 146 255
-0.480502 0.141202 1.758427 -0.459181 0.343608 0.819178 139 146 255
-0.382600 0.141202 1.813308 -0.464949 0.309580 0.829432 139 146 255
-0.382600 0.141202 1.813308 0.996429 0.033235 0.077517 139 146 255
-0.371604 0.152399 1.653725 0.996033 0.035524 0.081515 139 146 255
-0.480502 0.141202 1.758427 -0.996366 -0.027720 -0.080541 139 146 255
-0.469506 0.152399 1.598844 -0.996366 -0.027720 -0.080541 139 146 255
-0.464887 0.000000 1.613859 -0.996366 -0.027720 -0.080541 139 146 255
-0.480502 0.000000 1.787324 -0.996366 -0.027720 -0.080541 139 146 255
-0.420390 0.191045 0.791377 -0.998474 -0.000095 -0.055221 139 146 255
-0.420390 0.000000 0.778972 -0.998474 -0.000095 -0.055221 139 146 255
-0.458963 -0.000000 1.489163 -0.998474 -0.000095 -0.055221 139 146 255
-0.459301 0.155168 1.482268 -0.998474 -0.000095 -0.055221 139 146 255
-0.361399 0.155168 1.537149 -0.488633 0.037667 0.871676 139 146 255
-0.459301 0.155168 1.482268 -0.488633 0.037667 0.871676 139 146 255
-0.458963 -0.000000 1.489163 -0.488633 0.037667 0.871676 139 146 255
-0.361061 -0.000000 1.544043 -0.488633 0.037667 0.871676 139 146 255
-0.361399 0.155168 1.537149 0.012688 -0.999663 -0.022635 139 146 255
-0.371604 0.152399 1.653725 0.012688 -0.999663 -0.022635 139 146 255
-0.469506 0.152399 1.598844 0.012688 -0.999663 -0.022635 139 146 255
-0.459301 0.155168 1.482268 0.012688 -0.999663 -0.022635 139 146 255
-0.386114 0.368875 0.763716 -0.054786 0.993704 0.097732 139 146 255
-0.420390 0.360972 0.824860 -0.054786 0.993704 0.097732 139 146 255
-0.322488 0.360972 0.879741 -0.054786 0.993704 0.097732 139 146 255
-0.288212 0.368875 0.818597 -0.054786 0.993704 0.097732 139 146 255
-0.420390 0.360972 0.824860 -0.044156 0.995914 0.078770 139 146 255
-0.480502 0.291762 1.666207 -0.044156 0.995914 0.078770 139 146 255
-0.382600 0.291762 1.721088 -0.044156 0.995914 0.078770 139 146 255
-0.322488 0.360972 0.879741 -0.044156 0.995914 0.078770 139 146 255
-0.288212 0.368875 0.763716 -0.000000 1.000000 0.000000 139 146 255
-0.386114 0.368875 0.763716 -0.000000 1.000000 0.000000 139 146 255
-0.288212 0.368875 0.818597 -0.000000 1.000000 0.000000 139 146 255
0.460384 0.368875 0.818597 -0.000000 1.000000 0.000000 139 146 255
0.460384 0.368875 0.763716 -0.000000 1.000000 0.000000 139 146 255
-0.371604 0.152399 1.653725 0.487749 -0.070945 -0.870096 139 146 255
-0.366985 0.000000 1.668740 0.487749 -0.070945 -0.870096 139 146 255
-0.464887 0.000000 1.613859 0.487749 -0.070945 -0.870096 139 146 255
-0.469506 0.152399 1.598844 0.487749 -0.070945 -0.870096 139 146 255
-0.386114 0.368875 0.763716 0.000000 0.193304 -0.981109 139 146 255
-0.288212 0.368875 0.763716 0.000000 0.193304 -0.981109 139 146 255
0.460384 0.368875 0.763716 0.000000 0.193304 -0.981109 139 146 255
-0.386114 0.198949 0.730233 -0.873562 0.094094 -0.477530 139 146 255
-0.420390 0.191045 0.791377 -0.873562 0.094094 -0.477530 139 146 255
-0.420390 0.360972 0.824860 -0.873562 0.094094 -0.477530 139 146 255
-0.386114 0.368875 0.763716 -0.873562 0.094094 -0.477530 139 146 255
-0.386114 0.000000 0.717828 -0.872728 0.030995 -0.487222 139 146 255
-0.420390 0.000000 0.778972 -0.872728 0.030995 -0.487222 139 146 255
-0.420390 0.191045 0.791377 -0.872728 0.030995 -0.487222 139 146 255
-0.386114 0.198949 0.730233 -0.872728 0.030995 -0.487222 139 146 255
0.460384 0.198949 0.785114 0.000000 -0.128056 0.991760 139 146 255
-0.288212 0.198949 0.785114 0.497513 -0.111209 0.860286 139 146 255
0.460384 0.368875 0.818597 0.000000 -0.193304 0.981109 139 146 255
-0.288212 0.368875 0.818597 0.515702 -0.165624 0.840602 139 146 255
-0.322488 0.191045 0.846258 0.957976 -0.035890 0.284463 139 146 255
-0.322488 0.360972 0.879741 0.963530 -0.047060 0.263375 139 146 255
-0.361399 0.155168 1.537149 0.997162 0.028779 0.069124 139 146 255
-0.382600 0.291762 1.721088 0.996033 0.045106 0.076510 139 146 255
4 0 1 2 3
4 4 5 6 7
4 8 9 10 11
4 12 13 14 15
4 16 17 18 19
4 20 21 22 23
3 24 25 26
4 27 28 29 30
3 31 32 33
4 34 35 36 37
4 38 39 40 41
4 42 43 44 45
3 46 47 48
4 49 50 51 52
4 53 54 55 56
4 57 58 59 60
3 61 62 63
4 64 65 66 67
4 68 69 70 71
4 72 73 74 75
4 76 77 78 79
3 80 81 82
4 83 84 85 86
3 87 88 89
4 90 83 86 91
4 92 93 94 95
3 96 97 98
4 93 92 99 100
3 101 102 103
4 104 105 106 107
4 108 109 110 111
4 112 113 114 115
4 116 117 118 119
4 105 120 121 106
4 122 123 124 125
4 126 127 128 129
4 130 131 132 133
4 134 135 136 137
3 138 139 140
4 141 139 138 142
4 143 144 145 146
4 93 147 148 94
4 147 93 100 149
4 150 151 152 153
4 154 155 156 157
4 158 159 160 161
4 162 158 161 163
3 164 165 166
3 166 165 167
3 165 109 167
3 108 167 109
4 161 160 168 164
4 163 161 164 166
4 164 168 169 165
4 170 171 172 173
4 174 175 176 177
4 178 179 180 181
4 182 183 184 185
4 186 187 188 189
4 190 191 192 193
3 194 195 196
4 197 198 199 200
3 201 202 203
4 204 205 206 207
4 208 209 210 211
4 212 213 214 215
3 216 217 218
4 219 220 221 222
4 223 224 225 226
4 227 228 229 230
3 231 232 233
4 234 235 236 237
4 238 239 240 241
4 242 243 244 245
4 246 247 248 249
3 250 251 252
4 253 254 255 256
3 257 258 259
4 90 91 254 253
4 92 95 260 261
3 262 263 264
4 261 265 99 92
3 266 267 268
4 269 270 271 272
4 273 111 110 274
4 275 276 277 278
4 279 280 281 282
4 272 271 121 120
4 283 284 285 286
4 287 288 289 290
4 291 292 293 294
4 295 296 297 298
3 299 300 301
4 302 303 299 301
4 304 305 306 307
4 261 260 308 309
4 309 310 265 261
4 311 312 313 314
4 315 316 317 318
4 319 320 160 159
4 321 322 320 319
3 323 324 325
3 324 326 325
3 325 326 274
3 273 274 326
4 320 323 168 160
4 322 324 323 320
4 323 325 169 168
