ply
format ascii 1.0
comment Created by Blender 2.69 (sub 0) - www.blender.org, source file: 'chair.blend'
element vertex 155
property float x
property float y
property float z
property uchar red
property uchar green
property uchar blue
element face 108
property list uchar uint vertex_indices
end_header
-0.419171 -0.384033 0.000445 163 162 166
-0.418589 -0.466630 0.000879 163 162 166
-0.210891 -0.460881 0.816349 163 162 166
-0.211473 -0.378283 0.815915 163 162 166
-0.143717 -0.377896 0.798655 163 162 166
-0.351415 -0.383645 -0.016815 163 162 166
-0.143135 -0.460494 0.799089 163 162 166
-0.350833 -0.466243 -0.016381 163 162 166
0.315889 -0.376922 0.798655 163 162 166
0.315889 -0.459520 0.799089 163 162 166
-0.143426 -0.377944 0.865227 163 162 166
-0.143426 -0.460542 0.865661 163 162 166
0.315889 -0.459520 0.799089 140 140 140
0.315889 -0.376922 0.798655 140 140 140
0.315889 -0.376971 0.865228 140 140 140
0.315889 -0.459568 0.865662 140 140 140
0.315889 -0.459568 0.865662 163 162 166
0.315889 -0.376971 0.865228 163 162 166
0.383936 -0.378283 0.815915 163 162 166
0.383354 -0.460881 0.816349 163 162 166
0.523878 -0.383645 -0.016815 163 162 166
0.523295 -0.466243 -0.016381 163 162 166
0.591052 -0.466630 0.000879 163 162 166
0.591634 -0.384033 0.000445 163 162 166
-0.386114 -0.368875 0.763716 114 145 199
-0.288212 -0.368875 0.818597 114 145 199
-0.322488 -0.360972 0.879741 114 145 199
-0.420390 -0.360972 0.824860 114 145 199
0.460384 -0.198949 0.785114 146 186 255
0.460384 -0.368875 0.818597 146 186 255
0.460384 -0.368875 0.763716 146 186 255
0.460384 -0.198949 0.730233 146 186 255
0.460384 -0.368875 0.818597 114 145 199
-0.288212 -0.368875 0.763716 114 145 199
0.460384 -0.368875 0.763716 114 145 199
-0.288212 -0.198949 0.730233 146 186 255
-0.288212 0.000000 0.717828 146 186 255
0.460384 0.000000 0.717828 146 186 255
0.460384 0.000000 0.772709 146 186 255
-0.288212 0.000000 0.772709 146 186 255
-0.288212 -0.198949 0.785114 146 186 255
-0.386114 -0.198949 0.730233 146 186 255
-0.386114 0.000000 0.717828 146 186 255
-0.288212 -0.368875 0.763716 146 186 255
-0.288212 -0.368875 0.818597 146 186 255
-0.322488 -0.191045 0.846258 146 186 255
-0.322488 -0.360972 0.879741 146 186 255
-0.420390 -0.191045 0.791377 146 186 255
-0.420390 0.000000 0.778972 146 186 255
-0.386114 -0.368875 0.763716 146 186 255
-0.382600 -0.141202 1.813308 126 160 219
-0.371604 -0.152399 1.653725 126 160 219
-0.366985 0.000000 1.668740 126 160 219
-0.382600 0.000000 1.842205 126 160 219
-0.420390 -0.360972 0.824860 146 186 255
-0.322488 -0.191045 0.846258 126 160 219
-0.322488 0.000000 0.833853 126 160 219
-0.361061 -0.000000 1.544043 126 160 219
-0.361399 -0.155168 1.537149 126 160 219
-0.322488 0.000000 0.833853 146 186 255
-0.382600 -0.141202 1.813308 146 186 255
-0.382600 0.000000 1.842205 146 186 255
-0.480502 0.000000 1.787324 146 186 255
-0.480502 -0.141202 1.758427 146 186 255
-0.382600 -0.291762 1.721088 146 186 255
-0.480502 -0.291762 1.666207 146 186 255
-0.420390 -0.191045 0.791377 115 147 201
-0.459301 -0.155168 1.482268 115 147 201
-0.458963 -0.000000 1.489163 115 147 201
-0.420390 0.000000 0.778972 115 147 201
-0.480502 -0.141202 1.758427 115 147 201
-0.480502 0.000000 1.787324 115 147 201
-0.464887 0.000000 1.613859 115 147 201
-0.469506 -0.152399 1.598844 115 147 201
-0.382600 -0.291762 1.721088 114 145 199
-0.480502 -0.291762 1.666207 114 145 199
-0.361399 -0.155168 1.537149 91 115 158
-0.459301 -0.155168 1.482268 91 115 158
-0.469506 -0.152399 1.598844 91 115 158
-0.371604 -0.152399 1.653725 91 115 158
-0.464887 0.000000 1.613859 91 115 158
-0.366985 0.000000 1.668740 91 115 158
-0.361061 -0.000000 1.544043 91 115 158
-0.458963 -0.000000 1.489163 91 115 158
-0.322488 -0.360972 0.879741 126 160 219
-0.382600 -0.291762 1.721088 126 160 219
-0.420390 -0.360972 0.824860 115 147 201
-0.480502 -0.291762 1.666207 115 147 201
-0.210891 0.460881 0.816349 163 162 166
-0.418589 0.466630 0.000879 163 162 166
-0.419171 0.384033 0.000445 163 162 166
-0.211473 0.378283 0.815915 163 162 166
-0.351415 0.383645 -0.016815 163 162 166
-0.143717 0.377896 0.798655 163 162 166
-0.350833 0.466243 -0.016381 163 162 166
-0.143135 0.460494 0.799089 163 162 166
0.315889 0.459520 0.799089 163 162 166
0.315889 0.376922 0.798655 163 162 166
-0.143426 0.377944 0.865227 163 162 166
-0.143426 0.460542 0.865661 163 162 166
0.315889 0.459520 0.799089 140 140 140
0.315889 0.459568 0.865662 140 140 140
0.315889 0.376971 0.865228 140 140 140
0.315889 0.376922 0.798655 140 140 140
0.315889 0.459568 0.865662 163 162 166
0.315889 0.376971 0.865228 163 162 166
0.383936 0.378283 0.815915 163 162 166
0.383354 0.460881 0.816349 163 162 166
0.523295 0.466243 -0.016381 163 162 166
0.523878 0.383645 -0.016815 163 162 166
0.591052 0.466630 0.000879 163 162 166
0.591634 0.384033 0.000445 163 162 166
-0.386114 0.368875 0.763716 114 145 199
-0.420390 0.360972 0.824860 114 145 199
-0.322488 0.360972 0.879741 114 145 199
-0.288212 0.368875 0.818597 114 145 199
0.460384 0.198949 0.785114 146 186 255
0.460384 0.198949 0.730233 146 186 255
0.460384 0.368875 0.763716 146 186 255
0.460384 0.368875 0.818597 146 186 255
0.460384 0.368875 0.818597 114 145 199
0.460384 0.368875 0.763716 114 145 199
-0.288212 0.368875 0.763716 114 145 199
-0.288212 0.198949 0.730233 146 186 255
-0.288212 0.198949 0.785114 146 186 255
-0.386114 0.198949 0.730233 146 186 255
-0.288212 0.368875 0.763716 146 186 255
-0.288212 0.368875 0.818597 146 186 255
-0.322488 0.360972 0.879741 146 186 255
-0.322488 0.191045 0.846258 146 186 255
-0.420390 0.191045 0.791377 146 186 255
-0.386114 0.368875 0.763716 146 186 255
-0.382600 0.141202 1.813308 126 160 219
-0.371604 0.152399 1.653725 126 160 219
-0.420390 0.360972 0.824860 146 186 255
-0.322488 0.191045 0.846258 126 160 219
-0.361399 0.155168 1.537149 126 160 219
-0.382600 0.141202 1.813308 146 186 255
-0.480502 0.141202 1.758427 146 186 255
-0.382600 0.291762 1.721088 146 186 255
-0.480502 0.291762 1.666207 146 186 255
-0.420390 0.191045 0.791377 115 147 201
-0.459301 0.155168 1.482268 115 147 201
-0.480502 0.141202 1.758427 115 147 201
-0.469506 0.152399 1.598844 115 147 201
-0.480502 0.291762 1.666207 114 145 199
-0.382600 0.291762 1.721088 114 145 199
-0.361399 0.155168 1.537149 91 115 158
-0.371604 0.152399 1.653725 91 115 158
-0.469506 0.152399 1.598844 91 115 158
-0.459301 0.155168 1.482268 91 115 158
-0.322488 0.360972 0.879741 126 160 219
-0.382600 0.291762 1.721088 126 160 219
-0.420390 0.360972 0.824860 115 147 201
-0.480502 0.291762 1.666207 115 147 201
4 0 1 2 3
4 3 4 5 0
4 4 6 7 5
4 1 7 6 2
4 1 0 5 7
4 6 4 8 9
3 4 3 10
4 3 2 11 10
3 2 6 11
4 12 13 14 15
4 11 6 9 16
4 10 11 16 17
3 8 17 18
4 18 17 16 19
4 8 20 21 9
4 22 21 20 23
3 19 16 9
4 18 23 20 8
4 19 22 23 18
4 4 10 17 8
4 9 21 22 19
4 24 25 26 27
4 28 29 30 31
4 32 25 33 34
4 35 36 37 31
4 28 38 39 40
4 36 35 41 42
4 38 28 31 37
4 43 35 31 30
4 29 28 40 44
4 44 40 45 46
4 42 41 47 48
4 35 43 49 41
4 50 51 52 53
4 41 49 54 47
4 55 56 57 58
3 33 25 24
4 40 39 59 45
4 60 61 62 63
4 64 60 63 65
4 66 67 68 69
4 70 71 72 73
4 27 26 74 75
4 76 77 78 79
4 79 78 80 81
4 76 82 83 77
3 55 58 84
3 84 58 85
3 58 51 85
3 50 85 51
3 66 86 67
3 87 67 86
3 67 87 73
3 70 73 87
4 88 89 90 91
4 91 90 92 93
4 93 92 94 95
4 95 94 89 88
4 89 94 92 90
4 95 96 97 93
3 93 98 91
4 91 98 99 88
3 88 99 95
4 100 101 102 103
4 99 104 96 95
4 98 105 104 99
3 97 106 105
4 106 107 104 105
4 97 96 108 109
4 110 111 109 108
3 107 96 104
4 106 97 109 111
4 107 106 111 110
4 93 97 105 98
4 96 107 110 108
4 112 113 114 115
4 116 117 118 119
4 120 121 122 115
4 123 117 37 36
4 116 124 39 38
4 36 42 125 123
4 38 37 117 116
4 126 118 117 123
4 119 127 124 116
4 127 128 129 124
4 42 48 130 125
4 123 125 131 126
4 132 53 52 133
4 125 130 134 131
4 135 136 57 56
3 122 112 115
4 124 129 59 39
4 137 138 62 61
4 139 140 138 137
4 141 69 68 142
4 143 144 72 71
4 113 145 146 114
4 147 148 149 150
4 148 81 80 149
4 147 150 83 82
3 135 151 136
3 151 152 136
3 136 152 133
3 132 133 152
3 141 142 153
3 154 153 142
3 142 144 154
3 143 154 144
