<?xml version="1.0" encoding="UTF-8" standalone="no"?>
<!-- Created with Inkscape (http://www.inkscape.org/) -->

<svg
   xmlns:dc="http://purl.org/dc/elements/1.1/"
   xmlns:cc="http://creativecommons.org/ns#"
   xmlns:rdf="http://www.w3.org/1999/02/22-rdf-syntax-ns#"
   xmlns:svg="http://www.w3.org/2000/svg"
   xmlns="http://www.w3.org/2000/svg"
   xmlns:sodipodi="http://sodipodi.sourceforge.net/DTD/sodipodi-0.dtd"
   xmlns:inkscape="http://www.inkscape.org/namespaces/inkscape"
   width="512"
   height="256"
   id="svg2"
   version="1.1"
   inkscape:version="0.48.5 r10040"
   sodipodi:docname="nekrokodilu.svg"
   inkscape:export-filename="/home/neil/c/finvenkisto/src/data/nekrokodilu.png"
   inkscape:export-xdpi="90"
   inkscape:export-ydpi="90">
  <defs
     id="defs4" />
  <sodipodi:namedview
     id="base"
     pagecolor="#ee72fd"
     bordercolor="#666666"
     borderopacity="1.0"
     inkscape:pageopacity="0"
     inkscape:pageshadow="2"
     inkscape:zoom="1.3243076"
     inkscape:cx="302.89306"
     inkscape:cy="62.286098"
     inkscape:document-units="px"
     inkscape:current-layer="layer1"
     showgrid="false"
     inkscape:window-width="1600"
     inkscape:window-height="834"
     inkscape:window-x="0"
     inkscape:window-y="27"
     inkscape:window-maximized="1"
     fit-margin-top="0"
     fit-margin-left="0"
     fit-margin-right="0"
     fit-margin-bottom="0"
     showguides="true"
     inkscape:guide-bbox="true"
     inkscape:snap-global="false">
    <sodipodi:guide
       position="-19.204438,128.02959"
       orientation="0,448"
       id="guide3844" />
    <sodipodi:guide
       position="511.21054,271.08506"
       orientation="-256,0"
       id="guide3846" />
    <sodipodi:guide
       position="71.635409,186.83289"
       orientation="0,-448"
       id="guide3848" />
    <sodipodi:guide
       position="64.939596,224.26814"
       orientation="256,0"
       id="guide3850" />
  </sodipodi:namedview>
  <metadata
     id="metadata7">
    <rdf:RDF>
      <cc:Work
         rdf:about="">
        <dc:format>image/svg+xml</dc:format>
        <dc:type
           rdf:resource="http://purl.org/dc/dcmitype/StillImage" />
        <dc:title />
      </cc:Work>
    </rdf:RDF>
  </metadata>
  <g
     inkscape:label="Layer 1"
     inkscape:groupmode="layer"
     id="layer1"
     transform="translate(-282.21875,-97.499997)">
    <path
       style="fill:#008000;fill-opacity:0.30875579;stroke:none"
       d="m 350.33821,213.04925 439.96167,-95.14406 0.86266,216.71702 -439.96166,-95.14406 z"
       id="rect3857"
       inkscape:connector-curvature="0"
       sodipodi:nodetypes="ccccc" />
    <path
       inkscape:connector-curvature="0"
       id="path2990"
       style="font-size:40px;font-style:normal;font-weight:normal;line-height:125%;letter-spacing:0px;word-spacing:0px;fill:#008000;fill-opacity:1;stroke:#ffffff;stroke-width:0.82899517;stroke-miterlimit:4;stroke-opacity:1;stroke-dasharray:none;font-family:Sans"
       d="m 349.42742,212.93984 8.95661,0 21.79897,20.99451 0,-20.99451 6.45406,0 0,25.09592 -8.95672,0 -21.79887,-20.9945 0,20.9945 -6.45406,0 0,-25.09592" />
    <path
       inkscape:connector-curvature="0"
       id="path2992"
       style="font-size:40px;font-style:normal;font-weight:normal;line-height:125%;letter-spacing:0px;word-spacing:0px;fill:#008000;fill-opacity:1;stroke:#ffffff;stroke-width:1.00901556;stroke-miterlimit:4;stroke-opacity:1;stroke-dasharray:none;font-family:Sans"
       d="m 390.67731,207.06486 31.10169,0 0,4.23108 -24.44644,0 0,11.00074 23.42508,0 0,4.23107 -23.42508,0 0,13.46472 25.03951,0 0,4.23108 -31.69476,0 0,-37.15869" />
    <path
       inkscape:connector-curvature="0"
       id="path2994"
       style="font-size:40px;font-style:normal;font-weight:normal;line-height:125%;letter-spacing:0px;word-spacing:0px;fill:#008000;fill-opacity:1;stroke:#ffffff;stroke-width:1.2821213;stroke-miterlimit:4;stroke-opacity:1;stroke-dasharray:none;font-family:Sans"
       d="m 448.85205,193.9444 6.55091,0 0,25.76029 21.72842,-25.76029 8.43193,0 -24.03098,28.41389 25.74983,32.53714 -8.6265,0 -23.2527,-29.35282 0,29.35282 -6.55091,0 0,-60.95103" />
    <path
       inkscape:connector-curvature="0"
       id="path2996"
       style="font-size:40px;font-style:normal;font-weight:normal;line-height:125%;letter-spacing:0px;word-spacing:0px;fill:#008000;fill-opacity:1;stroke:#ffffff;stroke-width:1.41681504;stroke-miterlimit:4;stroke-opacity:1;stroke-dasharray:none;font-family:Sans"
       d="m 509.02903,228.34829 c 1.40023,0.73386 2.75741,2.30157 4.07154,4.70306 1.33558,2.40161 2.67128,5.70375 4.00695,9.90649 l 6.62427,20.41335 -7.01203,0 -6.17199,-19.16252 c -1.59417,-5.00325 -3.14524,-8.32209 -4.65318,-9.95653 -1.48645,-1.63438 -3.52218,-2.45159 -6.10729,-2.45161 l -7.10907,0 0,31.57066 -6.52736,0 0,-74.69889 14.73507,0 c 5.51491,1.1e-4 9.62951,1.78459 12.34388,5.35354 2.71434,3.56906 4.07153,8.95591 4.07156,16.16057 -3e-5,4.70312 -0.71089,8.60566 -2.13271,11.70763 -1.40032,3.10211 -3.44682,5.25349 -6.13964,6.45425 m -16.3508,-31.37053 0,26.51735 8.20771,0 c 3.14519,6e-5 5.51491,-1.11736 7.10906,-3.3522 1.61564,-2.2681 2.42351,-5.58695 2.42353,-9.9565 -2e-5,-4.36948 -0.80789,-7.65495 -2.42353,-9.85648 -1.59415,-2.23472 -3.96387,-3.35209 -7.10906,-3.35217 l -8.20771,0" />
    <path
       inkscape:connector-curvature="0"
       id="path2998"
       style="font-size:40px;font-style:normal;font-weight:normal;line-height:125%;letter-spacing:0px;word-spacing:0px;fill:#008000;fill-opacity:1;stroke:#ffffff;stroke-width:1.50170207;stroke-miterlimit:4;stroke-opacity:1;stroke-dasharray:none;font-family:Sans"
       d="m 541.01015,190.56062 c -4.71257,9e-5 -8.46117,3.09028 -11.24585,9.27054 -2.76328,6.1804 -4.14489,14.60297 -4.14489,25.26782 0,10.62715 1.38161,19.03094 4.14489,25.21124 2.78468,6.18039 6.53328,9.27052 11.24585,9.27052 4.71251,0 8.43971,-3.09013 11.18154,-9.27052 2.76327,-6.1803 4.14486,-14.58409 4.14491,-25.21124 -5e-5,-10.66485 -1.38164,-19.08742 -4.14491,-25.26782 -2.74183,-6.18026 -6.46903,-9.27045 -11.18154,-9.27054 m 0,-9.2705 c 6.72606,1e-4 12.10264,3.97588 16.12976,11.92729 4.02702,7.91395 6.04055,18.54112 6.04059,31.88157 -4e-5,13.30279 -2.01357,23.92995 -6.04059,31.88148 -4.02712,7.91387 -9.4037,11.87079 -16.12976,11.87079 -6.74754,0 -12.14555,-3.95692 -16.19407,-11.87079 -4.02705,-7.91383 -6.04058,-18.54098 -6.04058,-31.88148 0,-13.34045 2.01353,-23.96762 6.04058,-31.88157 4.04852,-7.95141 9.44653,-11.92719 16.19407,-11.92729" />
    <path
       inkscape:connector-curvature="0"
       id="path3000"
       style="font-size:40px;font-style:normal;font-weight:normal;line-height:125%;letter-spacing:0px;word-spacing:0px;fill:#008000;fill-opacity:1;stroke:#ffffff;stroke-width:1.67616725;stroke-miterlimit:4;stroke-opacity:1;stroke-dasharray:none;font-family:Sans"
       d="m 566.06445,171.71575 6.47421,0 0,44.54969 21.47391,-44.54969 8.33314,0 -23.74947,49.1388 25.44814,56.26952 -8.52545,0 -22.98027,-50.76259 0,50.76259 -6.47421,0 0,-105.40832" />
    <path
       inkscape:connector-curvature="0"
       id="path3002"
       style="font-size:40px;font-style:normal;font-weight:normal;line-height:125%;letter-spacing:0px;word-spacing:0px;fill:#008000;fill-opacity:1;stroke:#ffffff;stroke-width:1.75526214;stroke-miterlimit:4;stroke-opacity:1;stroke-dasharray:none;font-family:Sans"
       d="m 617.94374,178.14715 c -4.68181,1.3e-4 -8.40597,4.24967 -11.17245,12.74863 -2.74525,8.49918 -4.11785,20.08169 -4.11785,34.74774 0,14.61425 1.3726,26.17093 4.11785,34.66995 2.76648,8.49913 6.49064,12.74861 11.17245,12.74861 4.68177,0 8.38466,-4.24948 11.10869,-12.74861 2.74516,-8.49902 4.11781,-20.0557 4.11784,-34.66995 -3e-5,-14.66605 -1.37268,-26.24856 -4.11784,-34.74774 -2.72403,-8.49896 -6.42692,-12.7485 -11.10869,-12.74863 m 0,-12.74858 c 6.68218,1.2e-4 12.02367,5.46752 16.02456,16.40214 4.00077,10.88307 6.00117,25.49731 6.00123,43.84281 -6e-5,18.29372 -2.00046,32.90796 -6.00123,43.84273 -4.00089,10.88297 -9.34238,16.32444 -16.02456,16.32444 -6.70347,0 -12.06626,-5.44147 -16.08833,-16.32444 -4.00087,-10.88293 -6.00121,-25.49716 -6.00121,-43.84273 0,-18.3455 2.00034,-32.95974 6.00121,-43.84281 4.02207,-10.93462 9.38486,-16.40202 16.08833,-16.40214" />
    <path
       inkscape:connector-curvature="0"
       id="path3004"
       style="font-size:40px;font-style:normal;font-weight:normal;line-height:125%;letter-spacing:0px;word-spacing:0px;fill:#008000;fill-opacity:1;stroke:#ffffff;stroke-width:1.88378918;stroke-miterlimit:4;stroke-opacity:1;stroke-dasharray:none;font-family:Sans"
       d="m 646.31174,170.70387 0,104.22843 7.76814,0 c 6.5583,8e-5 11.355,-4.18941 14.39017,-12.56843 3.05622,-8.37892 4.58445,-21.60572 4.58447,-39.68044 -2e-5,-17.95487 -1.52825,-31.09183 -4.58447,-39.41104 -3.03517,-8.37889 -7.83187,-12.56838 -14.39017,-12.56852 l -7.76814,0 m -6.43097,-14.90264 13.21216,0 c 9.21139,1.8e-4 15.97134,5.4166 20.27994,16.24931 4.3085,10.773 6.46277,27.65063 6.46283,50.63289 -6e-5,23.1021 -2.16494,40.06951 -6.49465,50.90229 -4.32986,10.83286 -11.0792,16.24921 -20.24812,16.24921 l -13.21216,0 0,-134.0337" />
    <path
       inkscape:connector-curvature="0"
       id="path3006"
       style="font-size:40px;font-style:normal;font-weight:normal;line-height:125%;letter-spacing:0px;word-spacing:0px;fill:#008000;fill-opacity:1;stroke:#ffffff;stroke-width:2.00231314;stroke-miterlimit:4;stroke-opacity:1;stroke-dasharray:none;font-family:Sans"
       d="m 683.28222,150.52104 6.54175,0 0,148.86563 -6.54175,0 0,-148.86563" />
    <path
       inkscape:connector-curvature="0"
       id="path3008"
       style="font-size:40px;font-style:normal;font-weight:normal;line-height:125%;letter-spacing:0px;word-spacing:0px;fill:#008000;fill-opacity:1;stroke:#ffffff;stroke-width:1.97729373;stroke-miterlimit:4;stroke-opacity:1;stroke-dasharray:none;font-family:Sans"
       d="m 695.88375,151.57643 6.42434,0 0,130.99097 23.12129,0 0,16.83178 -29.54563,0 0,-147.82275" />
    <path
       inkscape:connector-curvature="0"
       id="path3010"
       style="font-size:40px;font-style:normal;font-weight:normal;line-height:125%;letter-spacing:0px;word-spacing:0px;fill:#008000;fill-opacity:1;stroke:#ffffff;stroke-width:2.05852771;stroke-miterlimit:4;stroke-opacity:1;stroke-dasharray:none;font-family:Sans"
       d="m 721.59798,145.2097 6.43196,0 0,97.69795 c 0,17.23454 0.91887,29.65764 2.75661,37.26954 1.83766,7.54004 4.81608,11.31009 8.9351,11.31009 4.09789,0 7.06571,-3.77005 8.90348,-11.31009 1.83768,-7.6119 2.75651,-20.035 2.75658,-37.26954 l 0,-97.69795 6.43204,0 0,100.39084 c -4e-5,20.96864 -1.53147,36.80279 -4.59432,47.50244 -3.04178,10.69975 -7.54104,16.04963 -13.49778,16.04963 -5.97788,0 -10.49824,-5.34988 -13.56108,-16.04963 -3.04177,-10.69965 -4.56266,-26.5338 -4.56259,-47.50244 l 0,-100.39084" />
    <path
       inkscape:connector-curvature="0"
       id="path3012"
       style="font-size:40px;font-style:normal;font-weight:normal;line-height:125%;letter-spacing:0px;word-spacing:0px;fill:#008000;fill-opacity:1;stroke:#ffffff;stroke-width:2.14064121;stroke-miterlimit:4;stroke-opacity:1;stroke-dasharray:none;font-family:Sans"
       d="m 763.4806,282.46937 6.41541,0 0,29.6628 -6.41541,0 0,-29.6628 m 0,-144.69383 6.41541,0 0,76.49275 -0.63207,41.69139 -5.11969,0 -0.66365,-41.69139 0,-76.49275" />
    <path
       inkscape:connector-curvature="0"
       id="path3014"
       style="font-size:40px;font-style:normal;font-weight:normal;line-height:125%;letter-spacing:0px;word-spacing:0px;fill:#008000;fill-opacity:1;stroke:#ffffff;stroke-width:2.178828;stroke-miterlimit:4;stroke-opacity:1;stroke-dasharray:none;font-family:Sans"
       d="m 773.23611,285.70279 6.37167,0 0,30.94096 -6.37167,0 0,-30.94096 m 0,-150.9286 6.37167,0 0,79.78877 -0.62774,43.48786 -5.08481,0 -0.65912,-43.48786 0,-79.78877" />
    <path
       inkscape:connector-curvature="0"
       id="path3016"
       style="font-size:40px;font-style:normal;font-weight:normal;line-height:125%;letter-spacing:0px;word-spacing:0px;fill:#008000;fill-opacity:1;stroke:#ffffff;stroke-width:2.19752431;stroke-miterlimit:4;stroke-opacity:1;stroke-dasharray:none;font-family:Sans"
       d="m 782.98043,286.56452 6.3504,0 0,31.5801 -6.3504,0 0,-31.5801 m 0,-154.04632 6.3504,0 0,81.43697 -0.6257,44.38618 -5.06776,0 -0.65694,-44.38618 0,-81.43697" />
    <path
       style="fill:#008000;fill-opacity:1;stroke:#ffffff;stroke-width:2.14064121;stroke-miterlimit:4;stroke-opacity:1"
       d="m 349.28006,210.42698 441.6731,-106.69132 0,27.32188 -441.6731,83.28286 z"
       id="rect3032"
       inkscape:connector-curvature="0"
       sodipodi:nodetypes="ccccc" />
    <path
       sodipodi:nodetypes="ccccc"
       inkscape:connector-curvature="0"
       id="path3855"
       d="m 349.28006,240.33887 441.6731,106.69132 0,-27.32188 -441.6731,-83.28286 z"
       style="fill:#008000;fill-opacity:1;stroke:#ffffff;stroke-width:2.14064121;stroke-miterlimit:4;stroke-opacity:1" />
  </g>
</svg>
