<?xml version="1.0" encoding="UTF-8" standalone="no"?>
<!-- Created with Inkscape (http://www.inkscape.org/) -->

<svg
   xmlns:dc="http://purl.org/dc/elements/1.1/"
   xmlns:cc="http://creativecommons.org/ns#"
   xmlns:rdf="http://www.w3.org/1999/02/22-rdf-syntax-ns#"
   xmlns:svg="http://www.w3.org/2000/svg"
   xmlns="http://www.w3.org/2000/svg"
   xmlns:sodipodi="http://sodipodi.sourceforge.net/DTD/sodipodi-0.dtd"
   xmlns:inkscape="http://www.inkscape.org/namespaces/inkscape"
   width="448"
   height="256"
   id="svg2"
   version="1.1"
   inkscape:version="0.48.5 r10040"
   sodipodi:docname="nekrokodilu.svg"
   inkscape:export-filename="/home/neil/c/finvenkisto/src/data/nekrokodilu.png"
   inkscape:export-xdpi="90"
   inkscape:export-ydpi="90">
  <defs
     id="defs4" />
  <sodipodi:namedview
     id="base"
     pagecolor="#ee72fd"
     bordercolor="#666666"
     borderopacity="1.0"
     inkscape:pageopacity="0"
     inkscape:pageshadow="2"
     inkscape:zoom="1.3243076"
     inkscape:cx="301.38284"
     inkscape:cy="62.286098"
     inkscape:document-units="px"
     inkscape:current-layer="layer1"
     showgrid="false"
     inkscape:window-width="1366"
     inkscape:window-height="702"
     inkscape:window-x="0"
     inkscape:window-y="27"
     inkscape:window-maximized="1"
     fit-margin-top="0"
     fit-margin-left="0"
     fit-margin-right="0"
     fit-margin-bottom="0"
     showguides="true"
     inkscape:guide-bbox="true"
     inkscape:snap-global="false">
    <sodipodi:guide
       position="-19.204438,128.02959"
       orientation="0,448"
       id="guide3844" />
    <sodipodi:guide
       position="448,0"
       orientation="-256,0"
       id="guide3846" />
    <sodipodi:guide
       position="71.635409,186.83289"
       orientation="0,-448"
       id="guide3848" />
    <sodipodi:guide
       position="56.110105,252.44832"
       orientation="256,0"
       id="guide3850" />
  </sodipodi:namedview>
  <metadata
     id="metadata7">
    <rdf:RDF>
      <cc:Work
         rdf:about="">
        <dc:format>image/svg+xml</dc:format>
        <dc:type
           rdf:resource="http://purl.org/dc/dcmitype/StillImage" />
        <dc:title></dc:title>
      </cc:Work>
    </rdf:RDF>
  </metadata>
  <g
     inkscape:label="Layer 1"
     inkscape:groupmode="layer"
     id="layer1"
     transform="translate(-282.21875,-97.499997)">
    <path
       transform="translate(282.21875,97.499997)"
       style="fill:#008000;fill-opacity:0.30875576;stroke:none;stroke-width:0.50000000000000000;stroke-linecap:round;stroke-linejoin:bevel;stroke-miterlimit:4;stroke-opacity:1"
       d="M 60.408923,115.54925 445.51581,20.405196 446.27092,237.12221 61.164035,141.97815 z"
       id="rect3857"
       inkscape:connector-curvature="0"
       sodipodi:nodetypes="ccccc" />
    <path
       inkscape:connector-curvature="0"
       id="path2990"
       style="font-size:40px;font-style:normal;font-weight:normal;line-height:125%;letter-spacing:0px;word-spacing:0px;fill:#008000;fill-opacity:1;stroke:#ffffff;stroke-width:0.82899517;stroke-miterlimit:4;stroke-opacity:1;stroke-dasharray:none;font-family:Sans"
       d="m 341.83045,212.93984 7.83989,0 19.08105,20.99451 0,-20.99451 5.64937,0 0,25.09592 -7.83999,0 -19.08097,-20.9945 0,20.9945 -5.64936,0 0,-25.09592" />
    <path
       inkscape:connector-curvature="0"
       id="path2992"
       style="font-size:40px;font-style:normal;font-weight:normal;line-height:125%;letter-spacing:0px;word-spacing:0px;fill:#008000;fill-opacity:1;stroke:#ffffff;stroke-width:1.00901556;stroke-miterlimit:4;stroke-opacity:1;stroke-dasharray:none;font-family:Sans"
       d="m 377.93727,207.06486 27.22391,0 0,4.23108 -21.39844,0 0,11.00074 20.50442,0 0,4.23107 -20.50442,0 0,13.46472 21.91756,0 0,4.23108 -27.74303,0 0,-37.15869" />
    <path
       inkscape:connector-curvature="0"
       id="path2994"
       style="font-size:40px;font-style:normal;font-weight:normal;line-height:125%;letter-spacing:0px;word-spacing:0px;fill:#008000;fill-opacity:1;stroke:#ffffff;stroke-width:1.2821213;stroke-miterlimit:4;stroke-opacity:1;stroke-dasharray:none;font-family:Sans"
       d="m 428.85873,193.9444 5.73414,0 0,25.76029 19.01931,-25.76029 7.38062,0 -21.03477,28.41389 22.53931,32.53714 -7.55093,0 -20.35354,-29.35282 0,29.35282 -5.73414,0 0,-60.95103" />
    <path
       inkscape:connector-curvature="0"
       id="path2996"
       style="font-size:40px;font-style:normal;font-weight:normal;line-height:125%;letter-spacing:0px;word-spacing:0px;fill:#008000;fill-opacity:1;stroke:#ffffff;stroke-width:1.41681504;stroke-miterlimit:4;stroke-opacity:1;stroke-dasharray:none;font-family:Sans"
       d="m 481.5328,228.34829 c 1.22565,0.73386 2.41361,2.30157 3.5639,4.70306 1.16906,2.40161 2.33822,5.70375 3.50736,9.90649 l 5.79835,20.41335 -6.13777,0 -5.40246,-19.16252 c -1.39541,-5.00325 -2.75308,-8.32209 -4.07301,-9.95653 -1.30113,-1.63438 -3.08304,-2.45159 -5.34583,-2.45161 l -6.22271,0 0,31.57066 -5.71352,0 0,-74.69889 12.89789,0 c 4.8273,1.1e-4 8.42889,1.78459 10.80483,5.35354 2.37592,3.56906 3.56389,8.95591 3.56392,16.16057 -3e-5,4.70312 -0.62226,8.60566 -1.8668,11.70763 -1.22573,3.10211 -3.01707,5.25349 -5.37415,6.45425 m -14.31217,-31.37053 0,26.51735 7.18437,0 c 2.75304,6e-5 4.8273,-1.11736 6.2227,-3.3522 1.41419,-2.2681 2.12134,-5.58695 2.12136,-9.9565 -2e-5,-4.36948 -0.70717,-7.65495 -2.12136,-9.85648 -1.3954,-2.23472 -3.46966,-3.35209 -6.2227,-3.35217 l -7.18437,0" />
    <path
       inkscape:connector-curvature="0"
       id="path2998"
       style="font-size:40px;font-style:normal;font-weight:normal;line-height:125%;letter-spacing:0px;word-spacing:0px;fill:#008000;fill-opacity:1;stroke:#ffffff;stroke-width:1.50170207;stroke-miterlimit:4;stroke-opacity:1;stroke-dasharray:none;font-family:Sans"
       d="m 509.52649,190.56062 c -4.125,9e-5 -7.40623,3.09028 -9.84371,9.27054 -2.41875,6.1804 -3.6281,14.60297 -3.6281,25.26782 0,10.62715 1.20935,19.03094 3.6281,25.21124 2.43748,6.18039 5.71871,9.27052 9.84371,9.27052 4.12495,0 7.38744,-3.09013 9.78741,-9.27052 2.41875,-6.1803 3.62808,-14.58409 3.62813,-25.21124 -5e-5,-10.66485 -1.20938,-19.08742 -3.62813,-25.26782 -2.39997,-6.18026 -5.66246,-9.27045 -9.78741,-9.27054 m 0,-9.2705 c 5.88744,1e-4 10.59367,3.97588 14.11869,11.92729 3.52492,7.91395 5.28741,18.54112 5.28744,31.88157 -3e-5,13.30279 -1.76252,23.92995 -5.28744,31.88148 -3.52502,7.91387 -8.23125,11.87079 -14.11869,11.87079 -5.90625,0 -10.63123,-3.95692 -14.17498,-11.87079 -3.52495,-7.91383 -5.28744,-18.54098 -5.28744,-31.88148 0,-13.34045 1.76249,-23.96762 5.28744,-31.88157 3.54375,-7.95141 8.26873,-11.92719 14.17498,-11.92729" />
    <path
       inkscape:connector-curvature="0"
       id="path3000"
       style="font-size:40px;font-style:normal;font-weight:normal;line-height:125%;letter-spacing:0px;word-spacing:0px;fill:#008000;fill-opacity:1;stroke:#ffffff;stroke-width:1.67616725;stroke-miterlimit:4;stroke-opacity:1;stroke-dasharray:none;font-family:Sans"
       d="m 531.457,171.71575 5.66699,0 0,44.54969 18.79654,-44.54969 7.29415,0 -20.78837,49.1388 22.27525,56.26952 -7.46249,0 -20.11508,-50.76259 0,50.76259 -5.66699,0 0,-105.40832" />
    <path
       inkscape:connector-curvature="0"
       id="path3002"
       style="font-size:40px;font-style:normal;font-weight:normal;line-height:125%;letter-spacing:0px;word-spacing:0px;fill:#008000;fill-opacity:1;stroke:#ffffff;stroke-width:1.75526226;stroke-miterlimit:4;stroke-opacity:1;stroke-dasharray:none;font-family:Sans"
       d="m 576.86793,178.14715 c -4.09807,1.3e-4 -7.3579,4.24967 -9.77946,12.74863 -2.40296,8.49918 -3.60443,20.08169 -3.60443,34.74774 0,14.61425 1.20147,26.17093 3.60443,34.66995 2.42156,8.49913 5.68139,12.74861 9.77946,12.74861 4.09805,0 7.33926,-4.24948 9.72365,-12.74861 2.4029,-8.49902 3.60441,-20.0557 3.60443,-34.66995 -2e-5,-14.66605 -1.20153,-26.24856 -3.60443,-34.74774 -2.38439,-8.49896 -5.6256,-12.7485 -9.72365,-12.74863 m 0,-12.74858 c 5.84905,1.2e-4 10.52455,5.46752 14.02661,16.40214 3.50195,10.88307 5.25294,25.49731 5.25299,43.84281 -5e-5,18.29372 -1.75104,32.90796 -5.25299,43.84273 -3.50206,10.88297 -8.17756,16.32444 -14.02661,16.32444 -5.86767,0 -10.56182,-5.44147 -14.08242,-16.32444 -3.50203,-10.88293 -5.25297,-25.49716 -5.25297,-43.84273 0,-18.3455 1.75094,-32.95974 5.25297,-43.84281 3.5206,-10.93462 8.21475,-16.40202 14.08242,-16.40214" />
    <path
       inkscape:connector-curvature="0"
       id="path3004"
       style="font-size:40px;font-style:normal;font-weight:normal;line-height:125%;letter-spacing:0px;word-spacing:0px;fill:#008000;fill-opacity:1;stroke:#ffffff;stroke-width:1.88378918;stroke-miterlimit:4;stroke-opacity:1;stroke-dasharray:none;font-family:Sans"
       d="m 601.69899,170.70387 0,104.22843 6.7996,0 c 5.74061,8e-5 9.93925,-4.18941 12.59599,-12.56843 2.67517,-8.37892 4.01286,-21.60572 4.01288,-39.68044 -2e-5,-17.95487 -1.33771,-31.09183 -4.01288,-39.41104 -2.65674,-8.37889 -6.85538,-12.56838 -12.59599,-12.56852 l -6.7996,0 m -5.62915,-14.90264 11.56486,0 c 8.0629,1.8e-4 13.98002,5.4166 17.75142,16.24931 3.77131,10.773 5.65698,27.65063 5.65704,50.63289 -6e-5,23.1021 -1.89502,40.06951 -5.6849,50.90229 -3.79,10.83286 -9.69784,16.24921 -17.72356,16.24921 l -11.56486,0 0,-134.0337" />
    <path
       inkscape:connector-curvature="0"
       id="path3006"
       style="font-size:40px;font-style:normal;font-weight:normal;line-height:125%;letter-spacing:0px;word-spacing:0px;fill:#008000;fill-opacity:1;stroke:#ffffff;stroke-width:2.00231314;stroke-miterlimit:4;stroke-opacity:1;stroke-dasharray:none;font-family:Sans"
       d="m 634.05996,150.52104 5.72612,0 0,148.86563 -5.72612,0 0,-148.86563" />
    <path
       inkscape:connector-curvature="0"
       id="path3008"
       style="font-size:40px;font-style:normal;font-weight:normal;line-height:125%;letter-spacing:0px;word-spacing:0px;fill:#008000;fill-opacity:1;stroke:#ffffff;stroke-width:1.97729373;stroke-miterlimit:4;stroke-opacity:1;stroke-dasharray:none;font-family:Sans"
       d="m 645.09032,151.57643 5.62335,0 0,130.99097 20.23851,0 0,16.83178 -25.86186,0 0,-147.82275" />
    <path
       inkscape:connector-curvature="0"
       id="path3010"
       style="font-size:40px;font-style:normal;font-weight:normal;line-height:125%;letter-spacing:0px;word-spacing:0px;fill:#008000;fill-opacity:1;stroke:#ffffff;stroke-width:2.05852771;stroke-miterlimit:4;stroke-opacity:1;stroke-dasharray:none;font-family:Sans"
       d="m 667.59848,145.2097 5.63002,0 0,97.69795 c 0,17.23454 0.80431,29.65764 2.41291,37.26954 1.60854,7.54004 4.21561,11.31009 7.82107,11.31009 3.58696,0 6.18475,-3.77005 7.79338,-11.31009 1.60856,-7.6119 2.41283,-20.035 2.41289,-37.26954 l 0,-97.69795 5.63009,0 0,100.39084 c -4e-5,20.96864 -1.34053,36.80279 -4.0215,47.50244 -2.66253,10.69975 -6.60082,16.04963 -11.81486,16.04963 -5.23256,0 -9.18931,-5.34988 -11.87027,-16.04963 -2.66252,-10.69965 -3.99379,-26.5338 -3.99373,-47.50244 l 0,-100.39084" />
    <path
       inkscape:connector-curvature="0"
       id="path3012"
       style="font-size:40px;font-style:normal;font-weight:normal;line-height:125%;letter-spacing:0px;word-spacing:0px;fill:#008000;fill-opacity:1;stroke:#ffffff;stroke-width:2.14064121;stroke-miterlimit:4;stroke-opacity:1;stroke-dasharray:none;font-family:Sans"
       d="m 704.25915,282.46937 5.61552,0 0,29.6628 -5.61552,0 0,-29.6628 m 0,-144.69383 5.61552,0 0,76.49275 -0.55326,41.69139 -4.48136,0 -0.5809,-41.69139 0,-76.49275" />
    <path
       inkscape:connector-curvature="0"
       id="path3014"
       style="font-size:40px;font-style:normal;font-weight:normal;line-height:125%;letter-spacing:0px;word-spacing:0px;fill:#008000;fill-opacity:1;stroke:#ffffff;stroke-width:2.178828;stroke-miterlimit:4;stroke-opacity:1;stroke-dasharray:none;font-family:Sans"
       d="m 712.79833,285.70279 5.57724,0 0,30.94096 -5.57724,0 0,-30.94096 m 0,-150.9286 5.57724,0 0,79.78877 -0.54947,43.48786 -4.45083,0 -0.57694,-43.48786 0,-79.78877" />
    <path
       inkscape:connector-curvature="0"
       id="path3016"
       style="font-size:40px;font-style:normal;font-weight:normal;line-height:125%;letter-spacing:0px;word-spacing:0px;fill:#008000;fill-opacity:1;stroke:#ffffff;stroke-width:2.19752431;stroke-miterlimit:4;stroke-opacity:1;stroke-dasharray:none;font-family:Sans"
       d="m 721.32772,286.56452 5.55862,0 0,31.5801 -5.55862,0 0,-31.5801 m 0,-154.04632 5.55862,0 0,81.43697 -0.54768,44.38618 -4.43591,0 -0.57503,-44.38618 0,-81.43697" />
    <path
       style="fill:#008000;fill-opacity:1;stroke:#ffffff;stroke-width:2.14064121;stroke-miterlimit:4;stroke-opacity:1"
       d="m 341.70146,210.42698 386.60494,-106.69132 0,27.32188 -386.60494,83.28286 z"
       id="rect3032"
       inkscape:connector-curvature="0"
       sodipodi:nodetypes="ccccc" />
    <path
       sodipodi:nodetypes="ccccc"
       inkscape:connector-curvature="0"
       id="path3855"
       d="m 341.70146,240.33887 386.60494,106.69132 0,-27.32188 -386.60494,-83.28286 z"
       style="fill:#008000;fill-opacity:1;stroke:#ffffff;stroke-width:2.14064121;stroke-miterlimit:4;stroke-opacity:1" />
  </g>
</svg>
