ply
format ascii 1.0
comment Created by Blender 2.69 (sub 0) - www.blender.org, source file: 'person.blend'
element vertex 184
property float x
property float y
property float z
property float nx
property float ny
property float nz
property float s
property float t
element face 80
property list uchar uint vertex_indices
end_header
-0.240377 -0.341934 1.452102 0.000000 -0.447188 0.894406 0.401761 0.256259
0.222897 -0.341934 1.452102 0.000000 -0.447188 0.894406 0.401761 0.389349
0.096900 -0.197400 1.452102 0.000000 0.000000 1.000000 0.443283 0.353152
-0.128774 -0.197400 1.452102 0.000000 0.000000 1.000000 0.443282 0.288320
0.222897 -0.341934 1.278841 0.000000 -1.000000 0.000000 0.245161 0.048546
0.320000 -0.341934 0.652102 0.577349 -0.577349 -0.577349 0.266042 0.183324
0.320000 -0.341934 1.452102 0.577349 -0.577349 0.577349 0.266043 0.011286
0.222897 -0.341934 1.452102 0.000000 -0.447188 0.894406 0.245161 0.011286
-0.185140 -0.210405 1.849118 -0.577349 -0.577349 0.577349 0.439266 0.782146
0.139315 -0.210405 1.849118 0.577349 -0.577349 0.577349 0.439266 0.875356
0.139315 0.000000 1.849118 0.707083 0.000000 0.707083 0.499712 0.875356
-0.185140 0.000000 1.849118 -0.707083 0.000000 0.707083 0.500005 0.782146
0.139315 0.000000 1.527774 0.707083 0.000000 -0.707083 0.499713 0.967673
0.139315 -0.210405 1.527774 0.577319 -0.577349 -0.577349 0.439267 0.967673
-0.128774 -0.197400 1.527774 0.000000 0.000031 -1.000000 0.362251 0.971409
0.096900 -0.197400 1.527774 0.000000 0.000031 -1.000000 0.427081 0.971409
-0.185140 -0.210405 1.527774 -0.577319 -0.577349 -0.577349 0.346056 0.967673
0.096900 0.000000 1.527774 0.000000 0.000000 -1.000000 0.499713 0.979858
0.096900 -0.197400 1.527774 0.000000 0.000031 -1.000000 0.443003 0.979858
-0.185140 -0.210405 1.849118 -0.577349 -0.577349 0.577349 0.346055 0.875356
0.320000 0.000000 1.452102 0.707083 0.000000 0.707083 0.499994 0.417244
0.320000 -0.341934 1.452102 0.577349 -0.577349 0.577349 0.401761 0.417246
0.320000 -0.341934 0.652102 0.577349 -0.577349 -0.577349 0.401765 0.647075
0.320000 0.000000 0.652102 0.707083 0.000000 -0.707083 0.499998 0.647074
-0.240377 -0.281781 0.652102 0.000000 0.000000 -1.000000 0.145535 0.196259
-0.320000 -0.341934 0.652102 -0.577349 -0.577349 -0.577349 0.128412 0.183323
-0.320000 0.000000 0.652102 -0.707083 0.000000 -0.707083 0.128412 0.256855
-0.240377 -0.053018 0.652102 0.000000 0.000000 -1.000000 0.145534 0.245454
0.222897 -0.281781 0.652102 0.000000 0.000000 -1.000000 0.245160 0.196260
0.222897 -0.053018 0.652102 0.000000 0.000000 -1.000000 0.245159 0.245455
0.320000 0.000000 0.652102 0.707083 0.000000 -0.707083 0.266041 0.256856
-0.240377 -0.053018 0.652102 0.000000 0.000000 -1.000000 0.145533 0.525918
-0.320000 0.000000 0.652102 -0.707083 0.000000 -0.707083 0.128411 0.537319
0.320000 0.000000 0.652102 0.707083 0.000000 -0.707083 0.266041 0.537319
0.222897 -0.053018 0.652102 0.000000 0.000000 -1.000000 0.245159 0.525918
-0.128774 0.000000 1.527774 0.000000 0.000000 -1.000000 0.499711 0.673637
-0.128774 -0.197400 1.527774 0.000000 0.000031 -1.000000 0.443002 0.673637
-0.185140 -0.210405 1.527774 -0.577319 -0.577349 -0.577349 0.439266 0.689830
-0.185140 0.000000 1.527774 -0.707083 0.000000 -0.707083 0.499712 0.689830
-0.240377 -0.341934 1.278841 0.000000 -1.000000 0.000000 0.145536 0.048545
-0.240377 -0.341934 1.452102 0.000000 -0.447188 0.894406 0.145536 0.011286
-0.320000 -0.341934 1.452102 -0.577349 -0.577349 0.577349 0.128413 0.011286
-0.320000 -0.341934 0.652102 -0.577349 -0.577349 -0.577349 0.401761 0.003563
-0.320000 -0.341934 1.452102 -0.577349 -0.577349 0.577349 0.401761 0.233384
-0.320000 0.000000 1.452102 -0.707083 0.000000 0.707083 0.499991 0.233384
-0.320000 0.000000 0.652102 -0.707083 0.000000 -0.707083 0.499991 0.003563
-0.128774 0.000000 1.452102 0.000000 0.000000 1.000000 0.499991 0.288320
0.096900 0.000000 1.452102 0.000000 0.000000 1.000000 0.499993 0.353151
-0.240377 -0.053018 0.000000 -0.577349 0.577349 -0.577349 0.145533 0.385685
-0.240377 -0.053018 0.652102 -0.707083 0.707083 0.000000 0.145533 0.525918
0.222897 -0.053018 0.652102 0.707083 0.707083 0.000000 0.245159 0.525918
0.222897 -0.053018 0.000000 0.577349 0.577349 -0.577349 0.245159 0.385686
-0.240377 -0.281781 0.000000 -0.577349 -0.577349 -0.577349 0.145534 0.336491
0.222897 -0.281781 0.000000 0.577349 -0.577349 -0.577349 0.245159 0.336491
0.222897 -0.281781 0.652102 0.707083 -0.707083 0.000000 0.245160 0.196260
-0.240377 -0.281781 0.652102 -0.707083 -0.707083 0.000000 0.145535 0.196259
0.222897 -0.281781 0.652102 0.707083 -0.707083 0.000000 0.294353 0.525918
0.222897 -0.281781 0.000000 0.577349 -0.577349 -0.577349 0.294353 0.385685
-0.240377 -0.281781 0.652102 -0.707083 -0.707083 0.000000 0.096339 0.525918
-0.240377 -0.281781 0.000000 -0.577349 -0.577349 -0.577349 0.096339 0.385686
-0.128774 -0.197400 1.452102 -0.707083 -0.707083 0.000000 0.362251 0.993148
0.096900 -0.197400 1.452102 0.707083 -0.707083 0.000000 0.427082 0.993148
0.096900 -0.197400 1.527774 0.707083 -0.707083 0.000000 0.427081 0.971409
-0.128774 -0.197400 1.527774 -0.707083 -0.707083 0.000000 0.362251 0.971409
0.096900 0.000000 1.452102 1.000000 0.000000 0.000000 0.499713 1.001597
0.096900 0.000000 1.527774 1.000000 0.000000 0.000000 0.499713 0.979858
0.096900 -0.197400 1.527774 0.707083 -0.707083 0.000000 0.443003 0.979858
0.096900 -0.197400 1.452102 0.707083 -0.707083 0.000000 0.443003 1.001597
-0.128774 0.000000 1.452102 -1.000000 0.000000 0.000000 0.499711 0.651898
-0.128774 -0.197400 1.452102 -0.707083 -0.707083 0.000000 0.443002 0.651898
-0.128774 -0.197400 1.527774 -0.707083 -0.707083 0.000000 0.443002 0.673637
-0.128774 0.000000 1.527774 -1.000000 0.000000 0.000000 0.499711 0.673637
0.222897 -0.341934 1.278841 0.890194 0.454360 -0.032868 0.304842 0.647357
0.222897 -0.432880 1.278841 0.715323 -0.698325 0.025208 0.271014 0.649805
0.222897 -0.473305 0.720135 0.573626 -0.599719 -0.557878 0.271013 0.858704
0.222897 -0.382359 0.720135 0.581225 0.554216 -0.595782 0.304841 0.856256
-0.240377 -0.341934 1.452102 -0.707083 0.000000 0.707083 0.064333 0.585191
-0.240377 -0.341934 1.278841 -0.890194 0.454360 -0.032868 0.064333 0.649804
-0.240377 -0.432880 1.278841 -0.715323 -0.698325 0.025208 0.098249 0.649804
-0.240377 -0.432880 1.452102 -0.577349 -0.577349 0.577349 0.098249 0.585192
0.222897 -0.341934 1.278841 0.890194 0.454360 -0.032868 0.304930 0.649805
0.222897 -0.341934 1.452102 0.707083 0.000000 0.707083 0.304930 0.585192
0.222897 -0.432880 1.452102 0.577349 -0.577349 0.577349 0.271014 0.585192
-0.240377 -0.341934 1.278841 -0.890194 0.454360 -0.032868 0.064421 0.647357
-0.240377 -0.382359 0.720135 -0.581225 0.554216 -0.595782 0.064421 0.856256
-0.240377 -0.473305 0.720135 -0.573626 -0.599719 -0.557878 0.098248 0.858704
0.222897 -0.341934 1.452102 0.707083 0.000000 0.707083 0.271014 0.551276
-0.240377 -0.341934 1.452102 -0.707083 0.000000 0.707083 0.098249 0.551276
-0.240377 -0.382359 0.720135 -0.581225 0.554216 -0.595782 0.098248 0.892620
0.222897 -0.382359 0.720135 0.581225 0.554216 -0.595782 0.271013 0.892620
-0.240377 -0.341934 1.278841 -0.890194 0.454360 -0.032868 0.098248 0.978327
0.222897 -0.341934 1.278841 0.890194 0.454360 -0.032868 0.271013 0.978327
-0.240377 0.341934 1.452102 0.000000 0.447188 0.894406 0.598239 0.256259
-0.128774 0.197400 1.452102 0.000000 0.000000 1.000000 0.556718 0.288320
0.096900 0.197400 1.452102 0.000000 0.000000 1.000000 0.556717 0.353152
0.222897 0.341934 1.452102 0.000000 0.447188 0.894406 0.598239 0.389349
0.222897 0.341934 1.278841 0.000000 1.000000 0.000000 0.754839 0.048546
0.320000 0.341934 1.452102 0.577349 0.577349 0.577349 0.733957 0.011286
0.320000 0.341934 0.652102 0.577349 0.577349 -0.577349 0.733958 0.183324
0.222897 0.341934 1.452102 0.000000 0.447188 0.894406 0.754839 0.011286
-0.185140 0.210405 1.849118 -0.577349 0.577349 0.577349 0.560734 0.782146
-0.185140 0.000000 1.849118 -0.707083 0.000000 0.707083 0.499995 0.782146
0.139315 0.000000 1.849118 0.707083 0.000000 0.707083 0.500288 0.875356
0.139315 0.210405 1.849118 0.577349 0.577349 0.577349 0.560734 0.875356
0.139315 0.000000 1.527774 0.707083 0.000000 -0.707083 0.500287 0.967673
0.139315 0.210405 1.527774 0.577319 0.577349 -0.577349 0.560733 0.967673
-0.128774 0.197400 1.527774 0.000000 -0.000031 -1.000000 0.637749 0.971409
-0.185140 0.210405 1.527774 -0.577319 0.577349 -0.577349 0.653944 0.967673
0.096900 0.197400 1.527774 0.000000 -0.000031 -1.000000 0.572919 0.971409
0.096900 0.000000 1.527774 0.000000 0.000000 -1.000000 0.500287 0.979858
0.096900 0.197400 1.527774 0.000000 -0.000031 -1.000000 0.556997 0.979858
-0.185140 0.210405 1.849118 -0.577349 0.577349 0.577349 0.653945 0.875356
0.320000 0.000000 1.452102 0.707083 0.000000 0.707083 0.500006 0.417244
0.320000 0.000000 0.652102 0.707083 0.000000 -0.707083 0.500002 0.647074
0.320000 0.341934 0.652102 0.577349 0.577349 -0.577349 0.598235 0.647075
0.320000 0.341934 1.452102 0.577349 0.577349 0.577349 0.598239 0.417246
-0.240377 0.281781 0.652102 0.000000 0.000000 -1.000000 0.854465 0.196259
-0.240377 0.053018 0.652102 0.000000 0.000000 -1.000000 0.854466 0.245454
-0.320000 0.000000 0.652102 -0.707083 0.000000 -0.707083 0.871588 0.256855
-0.320000 0.341934 0.652102 -0.577349 0.577349 -0.577349 0.871588 0.183323
0.222897 0.281781 0.652102 0.000000 0.000000 -1.000000 0.754840 0.196260
0.222897 0.053018 0.652102 0.000000 0.000000 -1.000000 0.754841 0.245455
0.320000 0.000000 0.652102 0.707083 0.000000 -0.707083 0.733959 0.256856
-0.240377 0.053018 0.652102 0.000000 0.000000 -1.000000 0.854467 0.525918
0.222897 0.053018 0.652102 0.000000 0.000000 -1.000000 0.754841 0.525918
0.320000 0.000000 0.652102 0.707083 0.000000 -0.707083 0.733959 0.537319
-0.320000 0.000000 0.652102 -0.707083 0.000000 -0.707083 0.871589 0.537319
-0.128774 0.000000 1.527774 0.000000 0.000000 -1.000000 0.500288 0.673637
-0.185140 0.000000 1.527774 -0.707083 0.000000 -0.707083 0.500288 0.689830
-0.185140 0.210405 1.527774 -0.577319 0.577349 -0.577349 0.560734 0.689830
-0.128774 0.197400 1.527774 0.000000 -0.000031 -1.000000 0.556998 0.673637
-0.240377 0.341934 1.278841 0.000000 1.000000 0.000000 0.854464 0.048545
-0.240377 0.341934 1.452102 0.000000 0.447188 0.894406 0.854464 0.011286
-0.320000 0.341934 1.452102 -0.577349 0.577349 0.577349 0.871587 0.011286
-0.320000 0.341934 0.652102 -0.577349 0.577349 -0.577349 0.598239 0.003563
-0.320000 0.000000 0.652102 -0.707083 0.000000 -0.707083 0.500009 0.003563
-0.320000 0.000000 1.452102 -0.707083 0.000000 0.707083 0.500009 0.233384
-0.320000 0.341934 1.452102 -0.577349 0.577349 0.577349 0.598239 0.233384
-0.128774 0.000000 1.452102 0.000000 0.000000 1.000000 0.500009 0.288320
0.096900 0.000000 1.452102 0.000000 0.000000 1.000000 0.500007 0.353151
-0.240377 0.053018 0.000000 -0.577349 -0.577349 -0.577349 0.854467 0.385685
0.222897 0.053018 0.000000 0.577349 -0.577349 -0.577349 0.754841 0.385686
0.222897 0.053018 0.652102 0.707083 -0.707083 0.000000 0.754841 0.525918
-0.240377 0.053018 0.652102 -0.707083 -0.707083 0.000000 0.854467 0.525918
-0.240377 0.281781 0.000000 -0.577349 0.577349 -0.577349 0.854466 0.336491
-0.240377 0.281781 0.652102 -0.707083 0.707083 0.000000 0.854465 0.196259
0.222897 0.281781 0.652102 0.707083 0.707083 0.000000 0.754840 0.196260
0.222897 0.281781 0.000000 0.577349 0.577349 -0.577349 0.754841 0.336491
0.222897 0.281781 0.000000 0.577349 0.577349 -0.577349 0.705647 0.385685
0.222897 0.281781 0.652102 0.707083 0.707083 0.000000 0.705647 0.525918
-0.240377 0.281781 0.652102 -0.707083 0.707083 0.000000 0.903661 0.525918
-0.240377 0.281781 0.000000 -0.577349 0.577349 -0.577349 0.903661 0.385686
-0.128774 0.197400 1.452102 -0.707083 0.707083 0.000000 0.637749 0.993148
-0.128774 0.197400 1.527774 -0.707083 0.707083 0.000000 0.637749 0.971409
0.096900 0.197400 1.527774 0.707083 0.707083 0.000000 0.572919 0.971409
0.096900 0.197400 1.452102 0.707083 0.707083 0.000000 0.572918 0.993148
0.096900 0.000000 1.452102 1.000000 0.000000 0.000000 0.500287 1.001597
0.096900 0.197400 1.452102 0.707083 0.707083 0.000000 0.556997 1.001597
0.096900 0.197400 1.527774 0.707083 0.707083 0.000000 0.556997 0.979858
0.096900 0.000000 1.527774 1.000000 0.000000 0.000000 0.500287 0.979858
-0.128774 0.000000 1.452102 -1.000000 0.000000 0.000000 0.500288 0.651898
-0.128774 0.000000 1.527774 -1.000000 0.000000 0.000000 0.500288 0.673637
-0.128774 0.197400 1.527774 -0.707083 0.707083 0.000000 0.556998 0.673637
-0.128774 0.197400 1.452102 -0.707083 0.707083 0.000000 0.556998 0.651898
0.222897 0.341934 1.278841 0.890194 -0.454360 -0.032868 0.695158 0.647357
0.222897 0.382359 0.720135 0.581225 -0.554216 -0.595782 0.695159 0.856256
0.222897 0.473305 0.720135 0.573626 0.599719 -0.557878 0.728987 0.858704
0.222897 0.432880 1.278841 0.715323 0.698325 0.025208 0.728986 0.649805
-0.240377 0.341934 1.452102 -0.707083 0.000000 0.707083 0.935667 0.585191
-0.240377 0.432880 1.452102 -0.577349 0.577349 0.577349 0.901751 0.585192
-0.240377 0.432880 1.278841 -0.715323 0.698325 0.025208 0.901751 0.649804
-0.240377 0.341934 1.278841 -0.890194 -0.454360 -0.032868 0.935667 0.649804
0.222897 0.341934 1.278841 0.890194 -0.454360 -0.032868 0.695070 0.649805
0.222897 0.432880 1.452102 0.577349 0.577349 0.577349 0.728986 0.585192
0.222897 0.341934 1.452102 0.707083 0.000000 0.707083 0.695070 0.585192
-0.240377 0.473305 0.720135 -0.573626 0.599719 -0.557878 0.901752 0.858704
-0.240377 0.382359 0.720135 -0.581225 -0.554216 -0.595782 0.935579 0.856256
-0.240377 0.341934 1.278841 -0.890194 -0.454360 -0.032868 0.935579 0.647357
-0.240377 0.341934 1.452102 -0.707083 0.000000 0.707083 0.901751 0.551276
0.222897 0.341934 1.452102 0.707083 0.000000 0.707083 0.728986 0.551276
0.222897 0.382359 0.720135 0.581225 -0.554216 -0.595782 0.728987 0.892620
-0.240377 0.382359 0.720135 -0.581225 -0.554216 -0.595782 0.901752 0.892620
0.222897 0.341934 1.278841 0.890194 -0.454360 -0.032868 0.728987 0.978327
-0.240377 0.341934 1.278841 -0.890194 -0.454360 -0.032868 0.901752 0.978327
4 0 1 2 3
3 4 5 6
3 7 4 6
4 8 9 10 11
4 12 10 9 13
4 14 15 13 16
4 17 12 13 18
4 16 13 9 19
4 20 21 22 23
4 24 25 26 27
4 25 24 28 5
4 29 30 5 28
4 31 32 33 34
4 35 36 37 38
4 38 37 8 11
4 39 25 5 4
3 40 41 39
3 41 25 39
4 42 43 44 45
3 43 0 44
4 3 46 44 0
4 20 47 2 1
3 21 20 1
4 48 49 50 51
4 52 53 54 55
4 53 52 48 51
4 50 56 57 51
4 58 49 48 59
4 60 61 62 63
4 64 65 66 67
4 68 69 70 71
4 72 73 74 75
4 76 77 78 79
4 80 81 82 73
4 78 83 84 85
4 79 82 86 87
4 82 79 78 73
4 73 78 85 74
4 85 88 89 74
4 89 88 90 91
4 92 93 94 95
3 96 97 98
3 99 97 96
4 100 101 102 103
4 104 105 103 102
4 106 107 105 108
4 109 110 105 104
4 107 111 103 105
4 112 113 114 115
4 116 117 118 119
4 119 98 120 116
4 121 120 98 122
4 123 124 125 126
4 127 128 129 130
4 128 101 100 129
4 98 119 131 96
3 132 131 133
3 131 119 133
4 134 135 136 137
3 137 136 92
4 93 92 136 138
4 112 95 94 139
3 115 95 112
4 140 141 142 143
4 144 145 146 147
4 147 141 140 144
4 142 141 148 149
4 150 151 140 143
4 152 153 154 155
4 156 157 158 159
4 160 161 162 163
4 164 165 166 167
4 168 169 170 171
4 172 167 173 174
4 170 175 176 177
4 169 178 179 173
4 173 167 170 169
4 167 166 175 170
4 175 166 180 181
4 180 182 183 181
