ply
format ascii 1.0
comment Created by Blender 2.69 (sub 0) - www.blender.org, source file: 'person.blend'
element vertex 164
property float x
property float y
property float z
property float nx
property float ny
property float nz
property float s
property float t
element face 80
property list uchar uint vertex_indices
end_header
-0.240377 -0.281781 0.652102 -0.301492 -0.301492 -0.904508 0.096339 0.525918
-0.240377 -0.053018 0.652102 -0.301492 0.301492 -0.904508 0.145533 0.525918
-0.240377 -0.053018 0.000000 -0.577349 0.577349 -0.577349 0.145533 0.385685
-0.240377 -0.281781 0.000000 -0.577349 -0.577349 -0.577349 0.096339 0.385686
0.222897 -0.053018 0.652102 0.301492 0.301492 -0.904508 0.245159 0.525918
0.222897 -0.281781 0.652102 0.301492 -0.301492 -0.904508 0.294353 0.525918
0.222897 -0.281781 0.000000 0.577349 -0.577349 -0.577349 0.294353 0.385685
0.222897 -0.053018 0.000000 0.577349 0.577349 -0.577349 0.245159 0.385686
0.222897 -0.281781 0.000000 0.577349 -0.577349 -0.577349 0.245159 0.336491
-0.240377 -0.281781 0.000000 -0.577349 -0.577349 -0.577349 0.145534 0.336491
0.222897 -0.341934 1.278841 0.698111 -0.715476 -0.025758 0.304842 0.647357
0.222897 -0.432880 1.278841 0.715323 -0.698325 0.025208 0.271014 0.649805
0.222897 -0.473305 0.720135 0.573626 -0.599719 -0.557878 0.271013 0.858704
0.222897 -0.382359 0.720135 0.581225 0.554216 -0.595782 0.304841 0.856256
-0.240377 -0.341934 1.452102 -0.301492 -0.301492 0.904508 0.064333 0.585191
-0.240377 -0.341934 1.278841 -0.698111 -0.715476 -0.025758 0.064333 0.649804
-0.240377 -0.432880 1.278841 -0.715323 -0.698325 0.025208 0.098249 0.649804
-0.240377 -0.432880 1.452102 -0.577349 -0.577349 0.577349 0.098249 0.585192
0.222897 -0.341934 1.278841 0.698111 -0.715476 -0.025758 0.304930 0.649805
0.222897 -0.341934 1.452102 0.301492 -0.301492 0.904508 0.304930 0.585192
0.222897 -0.432880 1.452102 0.577349 -0.577349 0.577349 0.271014 0.585192
-0.240377 -0.341934 1.278841 -0.698111 -0.715476 -0.025758 0.064421 0.647357
-0.240377 -0.382359 0.720135 -0.581225 0.554216 -0.595782 0.064421 0.856256
-0.240377 -0.473305 0.720135 -0.573626 -0.599719 -0.557878 0.098248 0.858704
-0.240377 -0.341934 1.452102 -0.301492 -0.301492 0.904508 0.401761 0.256259
0.222897 -0.341934 1.452102 0.301492 -0.301492 0.904508 0.401761 0.389349
0.096900 -0.197400 1.452102 0.301492 -0.301492 0.904508 0.443283 0.353152
-0.128774 -0.197400 1.452102 -0.301492 -0.301492 0.904508 0.443282 0.288320
0.222897 -0.341934 1.278841 0.698111 -0.715476 -0.025758 0.245161 0.048546
0.320000 -0.341934 0.652102 0.577349 -0.577349 -0.577349 0.266042 0.183324
0.320000 -0.341934 1.452102 0.577349 -0.577349 0.577349 0.266043 0.011286
0.222897 -0.341934 1.452102 0.301492 -0.301492 0.904508 0.245161 0.011286
-0.185140 -0.210405 1.849118 -0.577349 -0.577349 0.577349 0.439266 0.782146
0.139315 -0.210405 1.849118 0.577349 -0.577349 0.577349 0.439266 0.875356
0.139315 0.000000 1.849118 0.707083 0.000000 0.707083 0.499712 0.875356
-0.185140 0.000000 1.849118 -0.707083 0.000000 0.707083 0.500005 0.782146
-0.128774 -0.197400 1.452102 -0.301492 -0.301492 0.904508 0.362251 0.993148
0.096900 -0.197400 1.452102 0.301492 -0.301492 0.904508 0.427082 0.993148
0.096900 -0.197400 1.527774 0.301492 -0.301462 -0.904538 0.427081 0.971409
-0.128774 -0.197400 1.527774 -0.301492 -0.301462 -0.904538 0.362251 0.971409
0.139315 0.000000 1.527774 0.707083 0.000000 -0.707083 0.499713 0.967673
0.139315 -0.210405 1.527774 0.577319 -0.577349 -0.577349 0.439267 0.967673
-0.185140 -0.210405 1.527774 -0.577319 -0.577349 -0.577349 0.346056 0.967673
0.096900 0.000000 1.527774 0.707083 0.000000 -0.707083 0.499713 0.979858
0.096900 -0.197400 1.527774 0.301492 -0.301462 -0.904538 0.443003 0.979858
-0.185140 -0.210405 1.849118 -0.577349 -0.577349 0.577349 0.346055 0.875356
0.320000 0.000000 1.452102 0.707083 0.000000 0.707083 0.499994 0.417244
0.320000 -0.341934 1.452102 0.577349 -0.577349 0.577349 0.401761 0.417246
0.320000 -0.341934 0.652102 0.577349 -0.577349 -0.577349 0.401765 0.647075
0.320000 0.000000 0.652102 0.707083 0.000000 -0.707083 0.499998 0.647074
0.222897 -0.281781 0.652102 0.301492 -0.301492 -0.904508 0.245160 0.196260
-0.240377 -0.281781 0.652102 -0.301492 -0.301492 -0.904508 0.145535 0.196259
-0.320000 -0.341934 0.652102 -0.577349 -0.577349 -0.577349 0.128412 0.183323
-0.320000 0.000000 0.652102 -0.707083 0.000000 -0.707083 0.128412 0.256855
-0.240377 -0.053018 0.652102 -0.301492 0.301492 -0.904508 0.145534 0.245454
0.222897 -0.053018 0.652102 0.301492 0.301492 -0.904508 0.245159 0.245455
0.320000 0.000000 0.652102 0.707083 0.000000 -0.707083 0.266041 0.256856
-0.320000 0.000000 0.652102 -0.707083 0.000000 -0.707083 0.128411 0.537319
0.320000 0.000000 0.652102 0.707083 0.000000 -0.707083 0.266041 0.537319
0.096900 0.000000 1.452102 0.707083 0.000000 0.707083 0.499713 1.001597
0.096900 -0.197400 1.452102 0.301492 -0.301492 0.904508 0.443003 1.001597
-0.128774 0.000000 1.527774 -0.707083 0.000000 -0.707083 0.499711 0.673637
-0.128774 -0.197400 1.527774 -0.301492 -0.301462 -0.904538 0.443002 0.673637
-0.185140 -0.210405 1.527774 -0.577319 -0.577349 -0.577349 0.439266 0.689830
-0.185140 0.000000 1.527774 -0.707083 0.000000 -0.707083 0.499712 0.689830
-0.128774 0.000000 1.452102 -0.707083 0.000000 0.707083 0.499711 0.651898
-0.128774 -0.197400 1.452102 -0.301492 -0.301492 0.904508 0.443002 0.651898
-0.240377 -0.341934 1.278841 -0.698111 -0.715476 -0.025758 0.145536 0.048545
-0.240377 -0.341934 1.452102 -0.301492 -0.301492 0.904508 0.145536 0.011286
-0.320000 -0.341934 1.452102 -0.577349 -0.577349 0.577349 0.128413 0.011286
-0.320000 -0.341934 0.652102 -0.577349 -0.577349 -0.577349 0.401761 0.003563
-0.320000 -0.341934 1.452102 -0.577349 -0.577349 0.577349 0.401761 0.233384
-0.320000 0.000000 1.452102 -0.707083 0.000000 0.707083 0.499991 0.233384
-0.320000 0.000000 0.652102 -0.707083 0.000000 -0.707083 0.499991 0.003563
-0.128774 0.000000 1.452102 -0.707083 0.000000 0.707083 0.499991 0.288320
0.096900 0.000000 1.452102 0.707083 0.000000 0.707083 0.499993 0.353151
0.222897 -0.341934 1.452102 0.301492 -0.301492 0.904508 0.271014 0.551276
-0.240377 -0.341934 1.452102 -0.301492 -0.301492 0.904508 0.098249 0.551276
-0.240377 -0.382359 0.720135 -0.581225 0.554216 -0.595782 0.098248 0.892620
0.222897 -0.382359 0.720135 0.581225 0.554216 -0.595782 0.271013 0.892620
-0.240377 -0.341934 1.278841 -0.698111 -0.715476 -0.025758 0.098248 0.978327
0.222897 -0.341934 1.278841 0.698111 -0.715476 -0.025758 0.271013 0.978327
-0.240377 0.281781 0.652102 -0.301492 0.301492 -0.904508 0.903661 0.525918
-0.240377 0.281781 0.000000 -0.577349 0.577349 -0.577349 0.903661 0.385686
-0.240377 0.053018 0.000000 -0.577349 -0.577349 -0.577349 0.854467 0.385685
-0.240377 0.053018 0.652102 -0.301492 -0.301492 -0.904508 0.854467 0.525918
0.222897 0.053018 0.652102 0.301492 -0.301492 -0.904508 0.754841 0.525918
0.222897 0.053018 0.000000 0.577349 -0.577349 -0.577349 0.754841 0.385686
0.222897 0.281781 0.000000 0.577349 0.577349 -0.577349 0.705647 0.385685
0.222897 0.281781 0.652102 0.301492 0.301492 -0.904508 0.705647 0.525918
0.222897 0.281781 0.000000 0.577349 0.577349 -0.577349 0.754841 0.336491
-0.240377 0.281781 0.000000 -0.577349 0.577349 -0.577349 0.854466 0.336491
0.222897 0.341934 1.278841 0.698111 0.715476 -0.025758 0.695158 0.647357
0.222897 0.382359 0.720135 0.581225 -0.554216 -0.595782 0.695159 0.856256
0.222897 0.473305 0.720135 0.573626 0.599719 -0.557878 0.728987 0.858704
0.222897 0.432880 1.278841 0.715323 0.698325 0.025208 0.728986 0.649805
-0.240377 0.341934 1.452102 -0.301492 0.301492 0.904508 0.935667 0.585191
-0.240377 0.432880 1.452102 -0.577349 0.577349 0.577349 0.901751 0.585192
-0.240377 0.432880 1.278841 -0.715323 0.698325 0.025208 0.901751 0.649804
-0.240377 0.341934 1.278841 -0.698111 0.715476 -0.025758 0.935667 0.649804
0.222897 0.341934 1.278841 0.698111 0.715476 -0.025758 0.695070 0.649805
0.222897 0.432880 1.452102 0.577349 0.577349 0.577349 0.728986 0.585192
0.222897 0.341934 1.452102 0.301492 0.301492 0.904508 0.695070 0.585192
-0.240377 0.473305 0.720135 -0.573626 0.599719 -0.557878 0.901752 0.858704
-0.240377 0.382359 0.720135 -0.581225 -0.554216 -0.595782 0.935579 0.856256
-0.240377 0.341934 1.278841 -0.698111 0.715476 -0.025758 0.935579 0.647357
-0.240377 0.341934 1.452102 -0.301492 0.301492 0.904508 0.598239 0.256259
-0.128774 0.197400 1.452102 -0.301492 0.301492 0.904508 0.556718 0.288320
0.096900 0.197400 1.452102 0.301492 0.301492 0.904508 0.556717 0.353152
0.222897 0.341934 1.452102 0.301492 0.301492 0.904508 0.598239 0.389349
0.222897 0.341934 1.278841 0.698111 0.715476 -0.025758 0.754839 0.048546
0.320000 0.341934 1.452102 0.577349 0.577349 0.577349 0.733957 0.011286
0.320000 0.341934 0.652102 0.577349 0.577349 -0.577349 0.733958 0.183324
0.222897 0.341934 1.452102 0.301492 0.301492 0.904508 0.754839 0.011286
-0.185140 0.210405 1.849118 -0.577349 0.577349 0.577349 0.560734 0.782146
-0.185140 0.000000 1.849118 -0.707083 0.000000 0.707083 0.499995 0.782146
0.139315 0.000000 1.849118 0.707083 0.000000 0.707083 0.500288 0.875356
0.139315 0.210405 1.849118 0.577349 0.577349 0.577349 0.560734 0.875356
-0.128774 0.197400 1.452102 -0.301492 0.301492 0.904508 0.637749 0.993148
-0.128774 0.197400 1.527774 -0.301492 0.301462 -0.904538 0.637749 0.971409
0.096900 0.197400 1.527774 0.301492 0.301462 -0.904538 0.572919 0.971409
0.096900 0.197400 1.452102 0.301492 0.301492 0.904508 0.572918 0.993148
0.139315 0.000000 1.527774 0.707083 0.000000 -0.707083 0.500287 0.967673
0.139315 0.210405 1.527774 0.577319 0.577349 -0.577349 0.560733 0.967673
-0.185140 0.210405 1.527774 -0.577319 0.577349 -0.577349 0.653944 0.967673
0.096900 0.000000 1.527774 0.707083 0.000000 -0.707083 0.500287 0.979858
0.096900 0.197400 1.527774 0.301492 0.301462 -0.904538 0.556997 0.979858
-0.185140 0.210405 1.849118 -0.577349 0.577349 0.577349 0.653945 0.875356
0.320000 0.000000 1.452102 0.707083 0.000000 0.707083 0.500006 0.417244
0.320000 0.000000 0.652102 0.707083 0.000000 -0.707083 0.500002 0.647074
0.320000 0.341934 0.652102 0.577349 0.577349 -0.577349 0.598235 0.647075
0.320000 0.341934 1.452102 0.577349 0.577349 0.577349 0.598239 0.417246
-0.240377 0.281781 0.652102 -0.301492 0.301492 -0.904508 0.854465 0.196259
0.222897 0.281781 0.652102 0.301492 0.301492 -0.904508 0.754840 0.196260
-0.240377 0.053018 0.652102 -0.301492 -0.301492 -0.904508 0.854466 0.245454
-0.320000 0.000000 0.652102 -0.707083 0.000000 -0.707083 0.871588 0.256855
-0.320000 0.341934 0.652102 -0.577349 0.577349 -0.577349 0.871588 0.183323
0.222897 0.053018 0.652102 0.301492 -0.301492 -0.904508 0.754841 0.245455
0.320000 0.000000 0.652102 0.707083 0.000000 -0.707083 0.733959 0.256856
0.320000 0.000000 0.652102 0.707083 0.000000 -0.707083 0.733959 0.537319
-0.320000 0.000000 0.652102 -0.707083 0.000000 -0.707083 0.871589 0.537319
0.096900 0.000000 1.452102 0.707083 0.000000 0.707083 0.500287 1.001597
0.096900 0.197400 1.452102 0.301492 0.301492 0.904508 0.556997 1.001597
-0.128774 0.000000 1.527774 -0.707083 0.000000 -0.707083 0.500288 0.673637
-0.185140 0.000000 1.527774 -0.707083 0.000000 -0.707083 0.500288 0.689830
-0.185140 0.210405 1.527774 -0.577319 0.577349 -0.577349 0.560734 0.689830
-0.128774 0.197400 1.527774 -0.301492 0.301462 -0.904538 0.556998 0.673637
-0.128774 0.000000 1.452102 -0.707083 0.000000 0.707083 0.500288 0.651898
-0.128774 0.197400 1.452102 -0.301492 0.301492 0.904508 0.556998 0.651898
-0.240377 0.341934 1.278841 -0.698111 0.715476 -0.025758 0.854464 0.048545
-0.240377 0.341934 1.452102 -0.301492 0.301492 0.904508 0.854464 0.011286
-0.320000 0.341934 1.452102 -0.577349 0.577349 0.577349 0.871587 0.011286
-0.320000 0.341934 0.652102 -0.577349 0.577349 -0.577349 0.598239 0.003563
-0.320000 0.000000 0.652102 -0.707083 0.000000 -0.707083 0.500009 0.003563
-0.320000 0.000000 1.452102 -0.707083 0.000000 0.707083 0.500009 0.233384
-0.320000 0.341934 1.452102 -0.577349 0.577349 0.577349 0.598239 0.233384
-0.128774 0.000000 1.452102 -0.707083 0.000000 0.707083 0.500009 0.288320
0.096900 0.000000 1.452102 0.707083 0.000000 0.707083 0.500007 0.353151
-0.240377 0.341934 1.452102 -0.301492 0.301492 0.904508 0.901751 0.551276
0.222897 0.341934 1.452102 0.301492 0.301492 0.904508 0.728986 0.551276
0.222897 0.382359 0.720135 0.581225 -0.554216 -0.595782 0.728987 0.892620
-0.240377 0.382359 0.720135 -0.581225 -0.554216 -0.595782 0.901752 0.892620
0.222897 0.341934 1.278841 0.698111 0.715476 -0.025758 0.728987 0.978327
-0.240377 0.341934 1.278841 -0.698111 0.715476 -0.025758 0.901752 0.978327
4 0 1 2 3
4 4 5 6 7
4 8 9 2 7
4 10 11 12 13
4 14 15 16 17
4 18 19 20 11
4 16 21 22 23
4 24 25 26 27
3 28 29 30
3 31 28 30
4 32 33 34 35
4 36 37 38 39
4 40 34 33 41
4 39 38 41 42
4 43 40 41 44
4 42 41 33 45
4 46 47 48 49
4 9 8 50 51
4 51 52 53 54
4 52 51 50 29
4 55 56 29 50
4 1 57 58 4
4 59 43 44 60
4 61 62 63 64
4 65 66 62 61
4 2 1 4 7
4 64 63 32 35
4 67 52 29 28
3 68 69 67
3 69 52 67
4 70 71 72 73
3 71 24 72
4 27 74 72 24
4 46 75 26 25
3 47 46 25
4 17 20 76 77
4 20 17 16 11
4 11 16 23 12
4 23 78 79 12
4 79 78 80 81
4 82 83 84 85
4 86 87 88 89
4 90 87 84 91
4 92 93 94 95
4 96 97 98 99
4 100 95 101 102
4 98 103 104 105
4 106 107 108 109
3 110 111 112
3 113 111 110
4 114 115 116 117
4 118 119 120 121
4 122 123 117 116
4 119 124 123 120
4 125 126 123 122
4 124 127 117 123
4 128 129 130 131
4 91 132 133 90
4 132 134 135 136
4 136 112 133 132
4 137 133 112 138
4 85 86 139 140
4 141 142 126 125
4 143 144 145 146
4 147 143 146 148
4 84 87 86 85
4 144 115 114 145
4 112 136 149 110
3 150 149 151
3 149 136 151
4 152 153 154 155
3 155 154 106
4 107 106 154 156
4 128 109 108 157
3 131 109 128
4 97 158 159 101
4 101 95 98 97
4 95 94 103 98
4 103 94 160 161
4 160 162 163 161
