ply
format ascii 1.0
comment Created by Blender 2.69 (sub 0) - www.blender.org, source file: 'person.blend'
element vertex 224
property float x
property float y
property float z
property float nx
property float ny
property float nz
element face 80
property list uchar uint vertex_indices
end_header
-0.240377 -0.281781 0.652102 -1.000000 0.000000 0.000000
-0.240377 -0.053018 0.652102 -1.000000 0.000000 0.000000
-0.240377 -0.053018 0.000000 -1.000000 0.000000 0.000000
-0.240377 -0.281781 0.000000 -1.000000 0.000000 0.000000
0.222897 -0.053018 0.652102 1.000000 0.000000 -0.000000
0.222897 -0.281781 0.652102 1.000000 0.000000 -0.000000
0.222897 -0.281781 0.000000 1.000000 0.000000 -0.000000
0.222897 -0.053018 0.000000 1.000000 0.000000 -0.000000
0.222897 -0.281781 0.000000 0.000000 -0.000000 -1.000000
-0.240377 -0.281781 0.000000 0.000000 -0.000000 -1.000000
-0.240377 -0.053018 0.000000 0.000000 -0.000000 -1.000000
0.222897 -0.053018 0.000000 0.000000 -0.000000 -1.000000
0.222897 -0.341934 1.278841 1.000000 0.000000 -0.000000
0.222897 -0.432880 1.278841 1.000000 0.000000 -0.000000
0.222897 -0.473305 0.720135 1.000000 0.000000 -0.000000
0.222897 -0.382359 0.720135 1.000000 0.000000 -0.000000
-0.240377 -0.341934 1.452102 -1.000000 0.000000 0.000000
-0.240377 -0.341934 1.278841 -1.000000 0.000000 0.000000
-0.240377 -0.432880 1.278841 -1.000000 0.000000 0.000000
-0.240377 -0.432880 1.452102 -1.000000 0.000000 0.000000
0.222897 -0.341934 1.452102 1.000000 -0.000000 0.000000
0.222897 -0.432880 1.452102 1.000000 -0.000000 0.000000
-0.240377 -0.382359 0.720135 -1.000000 0.000000 0.000000
-0.240377 -0.473305 0.720135 -1.000000 0.000000 0.000000
-0.240377 -0.341934 1.452102 0.000000 0.000000 1.000000
0.222897 -0.341934 1.452102 0.000000 0.000000 1.000000
0.096900 -0.197400 1.452102 0.000000 0.000000 1.000000
-0.128774 -0.197400 1.452102 0.000000 0.000000 1.000000
0.222897 -0.341934 1.278841 -0.000000 -1.000000 -0.000000
0.320000 -0.341934 0.652102 -0.000000 -1.000000 -0.000000
0.320000 -0.341934 1.452102 -0.000000 -1.000000 -0.000000
0.222897 -0.341934 1.452102 -0.000000 -1.000000 0.000000
-0.185140 -0.210405 1.849118 0.000000 0.000000 1.000000
0.139315 -0.210405 1.849118 0.000000 0.000000 1.000000
0.139315 0.000000 1.849118 0.000000 0.000000 1.000000
-0.185140 0.000000 1.849118 0.000000 0.000000 1.000000
-0.128774 -0.197400 1.452102 0.000000 -1.000000 -0.000000
0.096900 -0.197400 1.452102 0.000000 -1.000000 -0.000000
0.096900 -0.197400 1.527774 0.000000 -1.000000 -0.000000
-0.128774 -0.197400 1.527774 0.000000 -1.000000 -0.000000
0.139315 0.000000 1.527774 1.000000 -0.000000 0.000000
0.139315 0.000000 1.849118 1.000000 -0.000000 0.000000
0.139315 -0.210405 1.849118 1.000000 -0.000000 0.000000
0.139315 -0.210405 1.527774 1.000000 -0.000000 0.000000
-0.128774 -0.197400 1.527774 0.000000 0.000055 -1.000000
0.096900 -0.197400 1.527774 0.000000 0.000055 -1.000000
0.139315 -0.210405 1.527774 0.000000 0.000055 -1.000000
-0.185140 -0.210405 1.527774 0.000000 0.000055 -1.000000
0.096900 0.000000 1.527774 -0.000017 0.000000 -1.000000
0.139315 0.000000 1.527774 -0.000017 0.000000 -1.000000
0.139315 -0.210405 1.527774 -0.000017 0.000000 -1.000000
0.096900 -0.197400 1.527774 -0.000017 0.000000 -1.000000
-0.185140 -0.210405 1.527774 0.000000 -1.000000 -0.000000
0.139315 -0.210405 1.527774 0.000000 -1.000000 -0.000000
0.139315 -0.210405 1.849118 0.000000 -1.000000 -0.000000
-0.185140 -0.210405 1.849118 0.000000 -1.000000 -0.000000
0.320000 0.000000 1.452102 1.000000 0.000000 -0.000000
0.320000 -0.341934 1.452102 1.000000 0.000000 -0.000000
0.320000 -0.341934 0.652102 1.000000 0.000000 -0.000000
0.320000 0.000000 0.652102 1.000000 0.000000 -0.000000
-0.240377 -0.281781 0.000000 0.000000 -1.000000 -0.000000
0.222897 -0.281781 0.000000 0.000000 -1.000000 -0.000000
0.222897 -0.281781 0.652102 0.000000 -1.000000 -0.000000
-0.240377 -0.281781 0.652102 0.000000 -1.000000 -0.000000
-0.240377 -0.281781 0.652102 0.000000 -0.000000 -1.000000
-0.320000 -0.341934 0.652102 0.000000 -0.000000 -1.000000
-0.320000 0.000000 0.652102 0.000000 -0.000000 -1.000000
-0.240377 -0.053018 0.652102 0.000000 -0.000000 -1.000000
0.222897 -0.281781 0.652102 -0.000000 0.000000 -1.000000
0.320000 -0.341934 0.652102 -0.000000 0.000000 -1.000000
0.222897 -0.053018 0.652102 0.000000 0.000000 -1.000000
0.320000 0.000000 0.652102 0.000000 0.000000 -1.000000
0.096900 0.000000 1.452102 1.000000 -0.000000 0.000000
0.096900 0.000000 1.527774 1.000000 -0.000000 0.000000
0.096900 -0.197400 1.527774 1.000000 -0.000000 0.000000
0.096900 -0.197400 1.452102 1.000000 -0.000000 0.000000
-0.128774 0.000000 1.527774 0.000013 0.000000 -1.000000
-0.128774 -0.197400 1.527774 0.000013 0.000000 -1.000000
-0.185140 -0.210405 1.527774 0.000013 0.000000 -1.000000
-0.185140 0.000000 1.527774 0.000013 0.000000 -1.000000
-0.128774 0.000000 1.452102 -1.000000 0.000000 -0.000000
-0.128774 -0.197400 1.452102 -1.000000 0.000000 -0.000000
-0.128774 -0.197400 1.527774 -1.000000 0.000000 -0.000000
-0.128774 0.000000 1.527774 -1.000000 0.000000 -0.000000
-0.240377 -0.053018 0.000000 0.000000 1.000000 0.000000
-0.240377 -0.053018 0.652102 0.000000 1.000000 0.000000
0.222897 -0.053018 0.652102 0.000000 1.000000 0.000000
0.222897 -0.053018 0.000000 0.000000 1.000000 0.000000
-0.185140 0.000000 1.527774 -1.000000 0.000000 -0.000000
-0.185140 -0.210405 1.527774 -1.000000 0.000000 -0.000000
-0.185140 -0.210405 1.849118 -1.000000 0.000000 -0.000000
-0.185140 0.000000 1.849118 -1.000000 0.000000 -0.000000
-0.240377 -0.341934 1.278841 -0.000000 -1.000000 0.000000
-0.320000 -0.341934 0.652102 -0.000000 -1.000000 0.000000
-0.240377 -0.341934 1.452102 0.000000 -1.000000 0.000000
-0.320000 -0.341934 1.452102 0.000000 -1.000000 0.000000
-0.320000 -0.341934 0.652102 -1.000000 -0.000000 0.000000
-0.320000 -0.341934 1.452102 -1.000000 -0.000000 0.000000
-0.320000 0.000000 1.452102 -1.000000 -0.000000 0.000000
-0.320000 0.000000 0.652102 -1.000000 -0.000000 0.000000
-0.320000 -0.341934 1.452102 0.000000 0.000000 1.000000
-0.320000 0.000000 1.452102 0.000000 0.000000 1.000000
-0.128774 0.000000 1.452102 -0.000000 0.000000 1.000000
0.320000 0.000000 1.452102 0.000000 -0.000000 1.000000
0.096900 0.000000 1.452102 0.000000 -0.000000 1.000000
0.320000 -0.341934 1.452102 -0.000000 0.000000 1.000000
-0.240377 -0.432880 1.452102 0.000000 0.000000 1.000000
0.222897 -0.432880 1.452102 0.000000 0.000000 1.000000
0.222897 -0.432880 1.452102 0.000000 -1.000000 0.000000
-0.240377 -0.432880 1.452102 0.000000 -1.000000 0.000000
-0.240377 -0.432880 1.278841 0.000000 -1.000000 0.000000
0.222897 -0.432880 1.278841 0.000000 -1.000000 0.000000
0.222897 -0.432880 1.278841 0.000000 -0.997393 0.072166
-0.240377 -0.432880 1.278841 0.000000 -0.997393 0.072166
-0.240377 -0.473305 0.720135 0.000000 -0.997393 0.072166
0.222897 -0.473305 0.720135 0.000000 -0.997393 0.072166
-0.240377 -0.473305 0.720135 -0.000000 0.000000 -1.000000
-0.240377 -0.382359 0.720135 -0.000000 0.000000 -1.000000
0.222897 -0.382359 0.720135 -0.000000 0.000000 -1.000000
0.222897 -0.473305 0.720135 -0.000000 0.000000 -1.000000
0.222897 -0.382359 0.720135 0.000000 0.997393 -0.072166
-0.240377 -0.382359 0.720135 0.000000 0.997393 -0.072166
-0.240377 -0.341934 1.278841 0.000000 0.997393 -0.072166
0.222897 -0.341934 1.278841 0.000000 0.997393 -0.072166
-0.240377 0.281781 0.652102 -1.000000 0.000000 0.000000
-0.240377 0.281781 0.000000 -1.000000 0.000000 0.000000
-0.240377 0.053018 0.000000 -1.000000 0.000000 0.000000
-0.240377 0.053018 0.652102 -1.000000 0.000000 0.000000
0.222897 0.053018 0.652102 1.000000 0.000000 0.000000
0.222897 0.053018 0.000000 1.000000 0.000000 0.000000
0.222897 0.281781 0.000000 1.000000 0.000000 0.000000
0.222897 0.281781 0.652102 1.000000 0.000000 0.000000
0.222897 0.281781 0.000000 0.000000 0.000000 -1.000000
0.222897 0.053018 0.000000 0.000000 0.000000 -1.000000
-0.240377 0.053018 0.000000 0.000000 0.000000 -1.000000
-0.240377 0.281781 0.000000 0.000000 0.000000 -1.000000
0.222897 0.341934 1.278841 1.000000 0.000000 0.000000
0.222897 0.382359 0.720135 1.000000 0.000000 0.000000
0.222897 0.473305 0.720135 1.000000 0.000000 0.000000
0.222897 0.432880 1.278841 1.000000 0.000000 0.000000
-0.240377 0.341934 1.452102 -1.000000 0.000000 0.000000
-0.240377 0.432880 1.452102 -1.000000 0.000000 0.000000
-0.240377 0.432880 1.278841 -1.000000 0.000000 0.000000
-0.240377 0.341934 1.278841 -1.000000 0.000000 0.000000
0.222897 0.432880 1.452102 1.000000 0.000000 0.000000
0.222897 0.341934 1.452102 1.000000 0.000000 0.000000
-0.240377 0.473305 0.720135 -1.000000 0.000000 0.000000
-0.240377 0.382359 0.720135 -1.000000 0.000000 0.000000
-0.240377 0.341934 1.452102 0.000000 0.000000 1.000000
-0.128774 0.197400 1.452102 0.000000 0.000000 1.000000
0.096900 0.197400 1.452102 0.000000 0.000000 1.000000
0.222897 0.341934 1.452102 0.000000 0.000000 1.000000
0.222897 0.341934 1.278841 0.000000 1.000000 -0.000000
0.320000 0.341934 1.452102 0.000000 1.000000 -0.000000
0.320000 0.341934 0.652102 0.000000 1.000000 -0.000000
0.222897 0.341934 1.452102 0.000000 1.000000 -0.000000
-0.185140 0.210405 1.849118 0.000000 0.000000 1.000000
0.139315 0.210405 1.849118 0.000000 0.000000 1.000000
-0.128774 0.197400 1.452102 0.000000 1.000000 0.000000
-0.128774 0.197400 1.527774 0.000000 1.000000 0.000000
0.096900 0.197400 1.527774 0.000000 1.000000 0.000000
0.096900 0.197400 1.452102 0.000000 1.000000 0.000000
0.139315 0.210405 1.527774 1.000000 0.000000 0.000000
0.139315 0.210405 1.849118 1.000000 0.000000 0.000000
-0.128774 0.197400 1.527774 0.000000 -0.000055 -1.000000
-0.185140 0.210405 1.527774 0.000000 -0.000055 -1.000000
0.139315 0.210405 1.527774 0.000000 -0.000055 -1.000000
0.096900 0.197400 1.527774 0.000000 -0.000055 -1.000000
0.096900 0.197400 1.527774 -0.000017 0.000000 -1.000000
0.139315 0.210405 1.527774 -0.000017 0.000000 -1.000000
-0.185140 0.210405 1.527774 0.000000 1.000000 0.000000
-0.185140 0.210405 1.849118 0.000000 1.000000 0.000000
0.139315 0.210405 1.849118 0.000000 1.000000 0.000000
0.139315 0.210405 1.527774 0.000000 1.000000 0.000000
0.320000 0.341934 0.652102 1.000000 0.000000 0.000000
0.320000 0.341934 1.452102 1.000000 0.000000 0.000000
-0.240377 0.281781 0.000000 0.000000 1.000000 0.000000
-0.240377 0.281781 0.652102 0.000000 1.000000 0.000000
0.222897 0.281781 0.652102 0.000000 1.000000 0.000000
0.222897 0.281781 0.000000 0.000000 1.000000 0.000000
-0.240377 0.281781 0.652102 0.000000 0.000000 -1.000000
-0.240377 0.053018 0.652102 0.000000 0.000000 -1.000000
-0.320000 0.341934 0.652102 0.000000 0.000000 -1.000000
0.320000 0.341934 0.652102 0.000000 0.000000 -1.000000
0.222897 0.281781 0.652102 0.000000 0.000000 -1.000000
0.222897 0.053018 0.652102 -0.000000 0.000000 -1.000000
0.096900 0.197400 1.452102 1.000000 0.000000 0.000000
0.096900 0.197400 1.527774 1.000000 0.000000 0.000000
-0.185140 0.210405 1.527774 0.000013 0.000000 -1.000000
-0.128774 0.197400 1.527774 0.000013 0.000000 -1.000000
-0.128774 0.197400 1.527774 -1.000000 -0.000000 0.000000
-0.128774 0.197400 1.452102 -1.000000 -0.000000 0.000000
-0.240377 0.053018 0.000000 0.000000 -1.000000 -0.000000
0.222897 0.053018 0.000000 0.000000 -1.000000 -0.000000
0.222897 0.053018 0.652102 0.000000 -1.000000 -0.000000
-0.240377 0.053018 0.652102 0.000000 -1.000000 -0.000000
-0.185140 0.210405 1.849118 -1.000000 -0.000000 0.000000
-0.185140 0.210405 1.527774 -1.000000 -0.000000 0.000000
-0.320000 0.341934 0.652102 0.000000 1.000000 0.000000
-0.240377 0.341934 1.278841 0.000000 1.000000 0.000000
-0.240377 0.341934 1.452102 -0.000000 1.000000 0.000000
-0.320000 0.341934 1.452102 -0.000000 1.000000 0.000000
-0.320000 0.341934 0.652102 -1.000000 0.000000 -0.000000
-0.320000 0.341934 1.452102 -1.000000 0.000000 -0.000000
-0.320000 0.341934 1.452102 0.000000 -0.000000 1.000000
0.320000 0.341934 1.452102 0.000000 -0.000000 1.000000
-0.240377 0.432880 1.452102 0.000000 0.000000 1.000000
0.222897 0.432880 1.452102 0.000000 0.000000 1.000000
0.222897 0.432880 1.452102 -0.000000 1.000000 0.000000
0.222897 0.432880 1.278841 -0.000000 1.000000 0.000000
-0.240377 0.432880 1.278841 -0.000000 1.000000 0.000000
-0.240377 0.432880 1.452102 -0.000000 1.000000 0.000000
0.222897 0.432880 1.278841 0.000000 0.997393 0.072166
0.222897 0.473305 0.720135 0.000000 0.997393 0.072166
-0.240377 0.473305 0.720135 0.000000 0.997393 0.072166
-0.240377 0.432880 1.278841 0.000000 0.997393 0.072166
-0.240377 0.473305 0.720135 0.000000 0.000000 -1.000000
0.222897 0.473305 0.720135 0.000000 0.000000 -1.000000
0.222897 0.382359 0.720135 0.000000 0.000000 -1.000000
-0.240377 0.382359 0.720135 0.000000 0.000000 -1.000000
0.222897 0.382359 0.720135 0.000000 -0.997393 -0.072166
0.222897 0.341934 1.278841 0.000000 -0.997393 -0.072166
-0.240377 0.341934 1.278841 0.000000 -0.997393 -0.072166
-0.240377 0.382359 0.720135 0.000000 -0.997393 -0.072166
4 0 1 2 3
4 4 5 6 7
4 8 9 10 11
4 12 13 14 15
4 16 17 18 19
4 12 20 21 13
4 18 17 22 23
4 24 25 26 27
3 28 29 30
3 31 28 30
4 32 33 34 35
4 36 37 38 39
4 40 41 42 43
4 44 45 46 47
4 48 49 50 51
4 52 53 54 55
4 56 57 58 59
4 60 61 62 63
4 64 65 66 67
4 65 64 68 69
4 70 71 69 68
4 67 66 71 70
4 72 73 74 75
4 76 77 78 79
4 80 81 82 83
4 84 85 86 87
4 88 89 90 91
4 92 93 29 28
3 94 95 92
3 95 93 92
4 96 97 98 99
3 100 24 101
4 27 102 101 24
4 103 104 26 25
3 105 103 25
4 106 107 25 24
4 108 109 110 111
4 112 113 114 115
4 116 117 118 119
4 120 121 122 123
4 124 125 126 127
4 128 129 130 131
4 132 133 134 135
4 136 137 138 139
4 140 141 142 143
4 136 139 144 145
4 142 146 147 143
4 148 149 150 151
3 152 153 154
3 155 153 152
4 156 35 34 157
4 158 159 160 161
4 40 162 163 41
4 164 165 166 167
4 48 168 169 49
4 170 171 172 173
4 56 59 174 175
4 176 177 178 179
4 180 181 66 182
4 182 183 184 180
4 185 184 183 71
4 181 185 71 66
4 72 186 187 73
4 76 79 188 189
4 80 83 190 191
4 192 193 194 195
4 88 91 196 197
4 154 198 199 152
3 200 199 201
3 199 198 201
4 202 99 98 203
3 204 101 148
4 149 148 101 102
4 103 151 150 104
3 205 151 103
4 206 148 151 207
4 208 209 210 211
4 212 213 214 215
4 216 217 218 219
4 220 221 222 223
