ply
format ascii 1.0
comment Created by Blender 2.69 (sub 0) - www.blender.org, source file: 'table.blend'
element vertex 138
property float x
property float y
property float z
property float nx
property float ny
property float nz
property uchar red
property uchar green
property uchar blue
element face 48
property list uchar uint vertex_indices
end_header
-0.500000 -0.500000 0.851466 0.000000 -1.000000 -0.000000 105 31 20
0.500000 -0.500000 0.851466 0.000000 -1.000000 -0.000000 105 31 20
0.500000 -0.500000 1.000000 0.000000 -1.000000 -0.000000 105 31 20
-0.500000 -0.500000 1.000000 0.000000 -1.000000 -0.000000 105 31 20
0.500000 0.000000 0.851466 0.000000 0.000000 -1.000000 105 31 20
0.500000 -0.500000 0.851466 0.000000 0.000000 -1.000000 105 31 20
-0.264387 -0.390405 0.851466 0.000000 0.000000 -1.000000 105 31 20
-0.264387 -0.290405 0.851466 0.000000 0.000000 -1.000000 105 31 20
0.500000 -0.500000 1.000000 -0.000000 0.000000 1.000000 105 31 20
0.500000 0.000000 1.000000 -0.000000 0.000000 1.000000 105 31 20
-0.500000 0.000000 1.000000 -0.000000 0.000000 1.000000 105 31 20
-0.500000 -0.500000 1.000000 -0.000000 0.000000 1.000000 105 31 20
-0.500000 0.000000 0.851466 -1.000000 0.000000 -0.000000 105 31 20
-0.500000 -0.500000 0.851466 -1.000000 0.000000 -0.000000 105 31 20
-0.500000 -0.500000 1.000000 -1.000000 0.000000 -0.000000 105 31 20
-0.500000 0.000000 1.000000 -1.000000 0.000000 -0.000000 105 31 20
-0.264387 -0.290405 0.851466 1.000000 0.000000 -0.000000 105 31 20
-0.264387 -0.390405 0.851466 1.000000 0.000000 -0.000000 105 31 20
-0.264387 -0.390405 0.000000 1.000000 0.000000 -0.000000 105 31 20
-0.264387 -0.290405 0.000000 1.000000 0.000000 -0.000000 105 31 20
-0.500000 -0.500000 0.851466 0.000000 -0.000000 -1.000000 105 31 20
-0.364387 -0.390405 0.851466 0.000000 -0.000000 -1.000000 105 31 20
-0.500000 0.000000 0.851466 0.000000 0.000000 -1.000000 105 31 20
-0.364387 -0.290405 0.851466 0.000000 0.000000 -1.000000 105 31 20
-0.364387 -0.390405 0.000000 -0.000000 0.000000 -1.000000 105 31 20
-0.364387 -0.290405 0.000000 -0.000000 0.000000 -1.000000 105 31 20
-0.264387 -0.290405 0.000000 -0.000000 0.000000 -1.000000 105 31 20
-0.264387 -0.390405 0.000000 -0.000000 0.000000 -1.000000 105 31 20
-0.264387 -0.390405 0.851466 0.000000 -1.000000 0.000000 105 31 20
-0.364387 -0.390405 0.851466 0.000000 -1.000000 0.000000 105 31 20
-0.364387 -0.390405 0.000000 0.000000 -1.000000 0.000000 105 31 20
-0.264387 -0.390405 0.000000 0.000000 -1.000000 0.000000 105 31 20
-0.364387 -0.290405 0.851466 0.000000 1.000000 -0.000000 105 31 20
-0.264387 -0.290405 0.851466 0.000000 1.000000 -0.000000 105 31 20
-0.264387 -0.290405 0.000000 0.000000 1.000000 -0.000000 105 31 20
-0.364387 -0.290405 0.000000 0.000000 1.000000 -0.000000 105 31 20
-0.364387 -0.390405 0.851466 -1.000000 0.000000 0.000000 105 31 20
-0.364387 -0.290405 0.851466 -1.000000 0.000000 0.000000 105 31 20
-0.364387 -0.290405 0.000000 -1.000000 0.000000 0.000000 105 31 20
-0.364387 -0.390405 0.000000 -1.000000 0.000000 0.000000 105 31 20
1.500000 -0.500000 0.851466 -0.000000 -1.000000 0.000000 105 31 20
1.500000 -0.500000 1.000000 -0.000000 -1.000000 0.000000 105 31 20
1.264387 -0.290405 0.851466 0.000000 0.000000 -1.000000 105 31 20
1.264387 -0.390405 0.851466 0.000000 0.000000 -1.000000 105 31 20
1.500000 -0.500000 1.000000 0.000000 0.000000 1.000000 105 31 20
1.500000 0.000000 1.000000 0.000000 0.000000 1.000000 105 31 20
1.500000 -0.500000 1.000000 1.000000 0.000000 0.000000 105 31 20
1.500000 -0.500000 0.851466 1.000000 0.000000 0.000000 105 31 20
1.500000 0.000000 0.851466 1.000000 0.000000 0.000000 105 31 20
1.500000 0.000000 1.000000 1.000000 0.000000 0.000000 105 31 20
1.264387 -0.290405 0.851466 -1.000000 0.000000 0.000000 105 31 20
1.264387 -0.290405 0.000000 -1.000000 0.000000 0.000000 105 31 20
1.264387 -0.390405 0.000000 -1.000000 0.000000 0.000000 105 31 20
1.264387 -0.390405 0.851466 -1.000000 0.000000 0.000000 105 31 20
1.364387 -0.390405 0.851466 -0.000000 0.000000 -1.000000 105 31 20
1.500000 -0.500000 0.851466 -0.000000 0.000000 -1.000000 105 31 20
1.500000 0.000000 0.851466 0.000000 0.000000 -1.000000 105 31 20
1.364387 -0.290405 0.851466 0.000000 0.000000 -1.000000 105 31 20
1.364387 -0.390405 0.000000 0.000000 -0.000000 -1.000000 105 31 20
1.264387 -0.390405 0.000000 0.000000 -0.000000 -1.000000 105 31 20
1.264387 -0.290405 0.000000 0.000000 -0.000000 -1.000000 105 31 20
1.364387 -0.290405 0.000000 0.000000 -0.000000 -1.000000 105 31 20
1.264387 -0.390405 0.851466 -0.000000 -1.000000 0.000000 105 31 20
1.264387 -0.390405 0.000000 -0.000000 -1.000000 0.000000 105 31 20
1.364387 -0.390405 0.000000 -0.000000 -1.000000 0.000000 105 31 20
1.364387 -0.390405 0.851466 -0.000000 -1.000000 0.000000 105 31 20
1.364387 -0.290405 0.851466 -0.000000 1.000000 0.000000 105 31 20
1.364387 -0.290405 0.000000 -0.000000 1.000000 0.000000 105 31 20
1.264387 -0.290405 0.000000 -0.000000 1.000000 0.000000 105 31 20
1.264387 -0.290405 0.851466 -0.000000 1.000000 0.000000 105 31 20
1.364387 -0.390405 0.851466 1.000000 0.000000 0.000000 105 31 20
1.364387 -0.390405 0.000000 1.000000 0.000000 0.000000 105 31 20
1.364387 -0.290405 0.000000 1.000000 0.000000 0.000000 105 31 20
1.364387 -0.290405 0.851466 1.000000 0.000000 0.000000 105 31 20
0.500000 0.500000 1.000000 -0.000000 1.000000 0.000000 105 31 20
0.500000 0.500000 0.851466 -0.000000 1.000000 0.000000 105 31 20
-0.500000 0.500000 0.851466 -0.000000 1.000000 0.000000 105 31 20
-0.500000 0.500000 1.000000 -0.000000 1.000000 0.000000 105 31 20
-0.264387 0.290405 0.851466 0.000000 -0.000000 -1.000000 105 31 20
-0.264387 0.390405 0.851466 0.000000 -0.000000 -1.000000 105 31 20
0.500000 0.500000 0.851466 0.000000 -0.000000 -1.000000 105 31 20
0.500000 0.500000 1.000000 0.000000 -0.000000 1.000000 105 31 20
-0.500000 0.500000 1.000000 0.000000 -0.000000 1.000000 105 31 20
-0.500000 0.500000 1.000000 -1.000000 0.000000 0.000000 105 31 20
-0.500000 0.500000 0.851466 -1.000000 0.000000 0.000000 105 31 20
-0.264387 0.290405 0.851466 1.000000 0.000000 0.000000 105 31 20
-0.264387 0.290405 0.000000 1.000000 0.000000 0.000000 105 31 20
-0.264387 0.390405 0.000000 1.000000 0.000000 0.000000 105 31 20
-0.264387 0.390405 0.851466 1.000000 0.000000 0.000000 105 31 20
-0.364387 0.390405 0.851466 0.000000 0.000000 -1.000000 105 31 20
-0.500000 0.500000 0.851466 0.000000 0.000000 -1.000000 105 31 20
-0.364387 0.290405 0.851466 -0.000000 0.000000 -1.000000 105 31 20
-0.364387 0.390405 0.000000 0.000000 0.000000 -1.000000 105 31 20
-0.264387 0.390405 0.000000 0.000000 0.000000 -1.000000 105 31 20
-0.264387 0.290405 0.000000 0.000000 0.000000 -1.000000 105 31 20
-0.364387 0.290405 0.000000 0.000000 0.000000 -1.000000 105 31 20
-0.264387 0.390405 0.851466 -0.000000 1.000000 0.000000 105 31 20
-0.264387 0.390405 0.000000 -0.000000 1.000000 0.000000 105 31 20
-0.364387 0.390405 0.000000 -0.000000 1.000000 0.000000 105 31 20
-0.364387 0.390405 0.851466 -0.000000 1.000000 0.000000 105 31 20
-0.364387 0.290405 0.851466 -0.000000 -1.000000 0.000000 105 31 20
-0.364387 0.290405 0.000000 -0.000000 -1.000000 0.000000 105 31 20
-0.264387 0.290405 0.000000 -0.000000 -1.000000 0.000000 105 31 20
-0.264387 0.290405 0.851466 -0.000000 -1.000000 0.000000 105 31 20
-0.364387 0.390405 0.851466 -1.000000 0.000000 0.000000 105 31 20
-0.364387 0.390405 0.000000 -1.000000 0.000000 0.000000 105 31 20
-0.364387 0.290405 0.000000 -1.000000 0.000000 0.000000 105 31 20
-0.364387 0.290405 0.851466 -1.000000 0.000000 0.000000 105 31 20
1.500000 0.500000 1.000000 0.000000 1.000000 -0.000000 105 31 20
1.500000 0.500000 0.851466 0.000000 1.000000 -0.000000 105 31 20
1.264387 0.390405 0.851466 -0.000000 0.000000 -1.000000 105 31 20
1.264387 0.290405 0.851466 -0.000000 0.000000 -1.000000 105 31 20
1.500000 0.500000 1.000000 0.000000 0.000000 1.000000 105 31 20
1.500000 0.500000 1.000000 1.000000 0.000000 -0.000000 105 31 20
1.500000 0.500000 0.851466 1.000000 0.000000 -0.000000 105 31 20
1.264387 0.290405 0.851466 -1.000000 0.000000 0.000000 105 31 20
1.264387 0.390405 0.851466 -1.000000 0.000000 0.000000 105 31 20
1.264387 0.390405 0.000000 -1.000000 0.000000 0.000000 105 31 20
1.264387 0.290405 0.000000 -1.000000 0.000000 0.000000 105 31 20
1.500000 0.500000 0.851466 0.000000 0.000000 -1.000000 105 31 20
1.364387 0.390405 0.851466 0.000000 0.000000 -1.000000 105 31 20
1.364387 0.290405 0.851466 0.000000 -0.000000 -1.000000 105 31 20
1.364387 0.390405 0.000000 0.000000 0.000000 -1.000000 105 31 20
1.364387 0.290405 0.000000 0.000000 0.000000 -1.000000 105 31 20
1.264387 0.290405 0.000000 0.000000 0.000000 -1.000000 105 31 20
1.264387 0.390405 0.000000 0.000000 0.000000 -1.000000 105 31 20
1.264387 0.390405 0.851466 0.000000 1.000000 -0.000000 105 31 20
1.364387 0.390405 0.851466 0.000000 1.000000 -0.000000 105 31 20
1.364387 0.390405 0.000000 0.000000 1.000000 -0.000000 105 31 20
1.264387 0.390405 0.000000 0.000000 1.000000 -0.000000 105 31 20
1.364387 0.290405 0.851466 0.000000 -1.000000 0.000000 105 31 20
1.264387 0.290405 0.851466 0.000000 -1.000000 0.000000 105 31 20
1.264387 0.290405 0.000000 0.000000 -1.000000 0.000000 105 31 20
1.364387 0.290405 0.000000 0.000000 -1.000000 0.000000 105 31 20
1.364387 0.390405 0.851466 1.000000 0.000000 -0.000000 105 31 20
1.364387 0.290405 0.851466 1.000000 0.000000 -0.000000 105 31 20
1.364387 0.290405 0.000000 1.000000 0.000000 -0.000000 105 31 20
1.364387 0.390405 0.000000 1.000000 0.000000 -0.000000 105 31 20
4 0 1 2 3
4 4 5 6 7
4 8 9 10 11
4 12 13 14 15
4 16 17 18 19
4 5 20 21 6
4 22 4 7 23
4 20 22 23 21
4 24 25 26 27
4 28 29 30 31
4 32 33 34 35
4 36 37 38 39
4 2 1 40 41
4 4 42 43 5
4 8 44 45 9
4 46 47 48 49
4 50 51 52 53
4 5 43 54 55
4 56 57 42 4
4 55 54 57 56
4 58 59 60 61
4 62 63 64 65
4 66 67 68 69
4 70 71 72 73
4 74 75 76 77
4 4 78 79 80
4 81 82 10 9
4 83 84 12 15
4 85 86 87 88
4 80 79 89 90
4 22 91 78 4
4 90 89 91 22
4 92 93 94 95
4 96 97 98 99
4 100 101 102 103
4 104 105 106 107
4 74 108 109 75
4 4 80 110 111
4 81 9 45 112
4 113 49 48 114
4 115 116 117 118
4 80 119 120 110
4 56 4 111 121
4 119 56 121 120
4 122 123 124 125
4 126 127 128 129
4 130 131 132 133
4 134 135 136 137
