ply
format ascii 1.0
comment Created by Blender 2.69 (sub 0) - www.blender.org, source file: 'toilet.blend'
element vertex 50
property float x
property float y
property float z
property uchar red
property uchar green
property uchar blue
element face 48
property list uchar uint vertex_indices
end_header
-0.500000 -0.500000 0.851466 138 41 27
0.500000 -0.500000 0.851466 138 41 27
0.500000 -0.500000 1.000000 138 41 27
-0.500000 -0.500000 1.000000 138 41 27
0.500000 0.000000 0.851466 138 41 27
-0.264387 -0.390405 0.851466 138 41 27
-0.264387 -0.290405 0.851466 138 41 27
0.500000 0.000000 1.000000 138 41 27
-0.500000 0.000000 1.000000 138 41 27
-0.500000 0.000000 0.851466 138 41 27
-0.264387 -0.390405 0.000000 138 41 27
-0.264387 -0.290405 0.000000 138 41 27
-0.364387 -0.390405 0.851466 138 41 27
-0.364387 -0.290405 0.851466 138 41 27
-0.364387 -0.390405 0.000000 138 41 27
-0.364387 -0.290405 0.000000 138 41 27
1.500000 -0.500000 0.851466 138 41 27
1.500000 -0.500000 1.000000 138 41 27
1.264387 -0.290405 0.851466 138 41 27
1.264387 -0.390405 0.851466 138 41 27
1.500000 0.000000 1.000000 138 41 27
1.500000 0.000000 0.851466 138 41 27
1.264387 -0.290405 0.000000 138 41 27
1.264387 -0.390405 0.000000 138 41 27
1.364387 -0.390405 0.851466 138 41 27
1.364387 -0.290405 0.851466 138 41 27
1.364387 -0.390405 0.000000 138 41 27
1.364387 -0.290405 0.000000 138 41 27
0.500000 0.500000 1.000000 138 41 27
0.500000 0.500000 0.851466 138 41 27
-0.500000 0.500000 0.851466 138 41 27
-0.500000 0.500000 1.000000 138 41 27
-0.264387 0.290405 0.851466 138 41 27
-0.264387 0.390405 0.851466 138 41 27
-0.264387 0.290405 0.000000 138 41 27
-0.264387 0.390405 0.000000 138 41 27
-0.364387 0.390405 0.851466 138 41 27
-0.364387 0.290405 0.851466 138 41 27
-0.364387 0.390405 0.000000 138 41 27
-0.364387 0.290405 0.000000 138 41 27
1.500000 0.500000 1.000000 138 41 27
1.500000 0.500000 0.851466 138 41 27
1.264387 0.390405 0.851466 138 41 27
1.264387 0.290405 0.851466 138 41 27
1.264387 0.390405 0.000000 138 41 27
1.264387 0.290405 0.000000 138 41 27
1.364387 0.390405 0.851466 138 41 27
1.364387 0.290405 0.851466 138 41 27
1.364387 0.390405 0.000000 138 41 27
1.364387 0.290405 0.000000 138 41 27
4 0 1 2 3
4 4 1 5 6
4 2 7 8 3
4 9 0 3 8
4 6 5 10 11
4 1 0 12 5
4 9 4 6 13
4 0 9 13 12
4 14 15 11 10
4 5 12 14 10
4 13 6 11 15
4 12 13 15 14
4 2 1 16 17
4 4 18 19 1
4 2 17 20 7
4 17 16 21 20
4 18 22 23 19
4 1 19 24 16
4 21 25 18 4
4 16 24 25 21
4 26 23 22 27
4 19 23 26 24
4 25 27 22 18
4 24 26 27 25
4 28 29 30 31
4 4 32 33 29
4 28 31 8 7
4 31 30 9 8
4 32 34 35 33
4 29 33 36 30
4 9 37 32 4
4 30 36 37 9
4 38 35 34 39
4 33 35 38 36
4 37 39 34 32
4 36 38 39 37
4 28 40 41 29
4 4 29 42 43
4 28 7 20 40
4 40 20 21 41
4 43 42 44 45
4 29 41 46 42
4 21 4 43 47
4 41 21 47 46
4 48 49 45 44
4 42 46 48 44
4 47 43 45 49
4 46 47 49 48
