ply
format ascii 1.0
comment Created by Blender 2.69 (sub 0) - www.blender.org, source file: 'table.blend'
element vertex 58
property float x
property float y
property float z
property uchar red
property uchar green
property uchar blue
element face 48
property list uchar uint vertex_indices
end_header
-0.500000 -0.500000 0.851466 138 41 27
0.500000 -0.500000 0.851466 138 41 27
0.500000 -0.500000 1.000000 138 41 27
-0.500000 -0.500000 1.000000 138 41 27
0.500000 0.000000 0.851466 138 41 27
-0.264387 -0.390405 0.851466 138 41 27
-0.264387 -0.290405 0.851466 138 41 27
0.500000 -0.500000 1.000000 105 31 20
0.500000 0.000000 1.000000 105 31 20
-0.500000 0.000000 1.000000 105 31 20
-0.500000 -0.500000 1.000000 105 31 20
-0.500000 0.000000 0.851466 138 41 27
-0.500000 0.000000 1.000000 138 41 27
-0.264387 -0.390405 0.000000 138 41 27
-0.264387 -0.290405 0.000000 138 41 27
-0.364387 -0.390405 0.851466 138 41 27
-0.364387 -0.290405 0.851466 138 41 27
-0.364387 -0.390405 0.000000 138 41 27
-0.364387 -0.290405 0.000000 138 41 27
1.500000 -0.500000 0.851466 138 41 27
1.500000 -0.500000 1.000000 138 41 27
1.264387 -0.290405 0.851466 138 41 27
1.264387 -0.390405 0.851466 138 41 27
1.500000 -0.500000 1.000000 105 31 20
1.500000 0.000000 1.000000 105 31 20
1.500000 0.000000 0.851466 138 41 27
1.500000 0.000000 1.000000 138 41 27
1.264387 -0.290405 0.000000 138 41 27
1.264387 -0.390405 0.000000 138 41 27
1.364387 -0.390405 0.851466 138 41 27
1.364387 -0.290405 0.851466 138 41 27
1.364387 -0.390405 0.000000 138 41 27
1.364387 -0.290405 0.000000 138 41 27
0.500000 0.500000 1.000000 138 41 27
0.500000 0.500000 0.851466 138 41 27
-0.500000 0.500000 0.851466 138 41 27
-0.500000 0.500000 1.000000 138 41 27
-0.264387 0.290405 0.851466 138 41 27
-0.264387 0.390405 0.851466 138 41 27
0.500000 0.500000 1.000000 105 31 20
-0.500000 0.500000 1.000000 105 31 20
-0.264387 0.290405 0.000000 138 41 27
-0.264387 0.390405 0.000000 138 41 27
-0.364387 0.390405 0.851466 138 41 27
-0.364387 0.290405 0.851466 138 41 27
-0.364387 0.390405 0.000000 138 41 27
-0.364387 0.290405 0.000000 138 41 27
1.500000 0.500000 1.000000 138 41 27
1.500000 0.500000 0.851466 138 41 27
1.264387 0.390405 0.851466 138 41 27
1.264387 0.290405 0.851466 138 41 27
1.500000 0.500000 1.000000 105 31 20
1.264387 0.390405 0.000000 138 41 27
1.264387 0.290405 0.000000 138 41 27
1.364387 0.390405 0.851466 138 41 27
1.364387 0.290405 0.851466 138 41 27
1.364387 0.390405 0.000000 138 41 27
1.364387 0.290405 0.000000 138 41 27
4 0 1 2 3
4 4 1 5 6
4 7 8 9 10
4 11 0 3 12
4 6 5 13 14
4 1 0 15 5
4 11 4 6 16
4 0 11 16 15
4 17 18 14 13
4 5 15 17 13
4 16 6 14 18
4 15 16 18 17
4 2 1 19 20
4 4 21 22 1
4 7 23 24 8
4 20 19 25 26
4 21 27 28 22
4 1 22 29 19
4 25 30 21 4
4 19 29 30 25
4 31 28 27 32
4 22 28 31 29
4 30 32 27 21
4 29 31 32 30
4 33 34 35 36
4 4 37 38 34
4 39 40 9 8
4 36 35 11 12
4 37 41 42 38
4 34 38 43 35
4 11 44 37 4
4 35 43 44 11
4 45 42 41 46
4 38 42 45 43
4 44 46 41 37
4 43 45 46 44
4 33 47 48 34
4 4 34 49 50
4 39 8 24 51
4 47 26 25 48
4 50 49 52 53
4 34 48 54 49
4 25 4 50 55
4 48 25 55 54
4 56 57 53 52
4 49 54 56 52
4 55 50 53 57
4 54 55 57 56
