ply
format ascii 1.0
comment Created by Blender 2.69 (sub 0) - www.blender.org, source file: 'teaset.blend'
element vertex 680
property float x
property float y
property float z
property uchar red
property uchar green
property uchar blue
element face 980
property list uchar uint vertex_indices
end_header
0.086186 -0.149391 1.296141 255 255 255
0.020882 -0.171631 1.296141 255 255 255
0.020585 -0.169243 1.305255 255 255 255
0.084996 -0.147329 1.305255 255 255 255
0.084996 -0.147329 1.305255 130 159 186
0.020585 -0.169243 1.305255 130 159 186
0.020952 -0.172064 1.308293 130 159 186
0.086391 -0.149747 1.308293 130 159 186
0.021611 -0.177657 1.305255 130 159 186
0.089224 -0.154654 1.305255 130 159 186
0.089224 -0.154654 1.305255 121 143 163
0.021611 -0.177657 1.305255 121 143 163
0.022399 -0.183933 1.296141 121 143 163
0.092343 -0.160059 1.296141 121 143 163
-0.044845 -0.167284 1.296141 255 255 255
-0.044213 -0.164928 1.305255 255 255 255
-0.044213 -0.164928 1.305255 130 159 186
-0.044935 -0.167620 1.308293 130 159 186
-0.046408 -0.173116 1.305255 130 159 186
-0.048032 -0.179173 1.296141 130 159 186
0.022399 -0.183933 1.296141 130 159 186
-0.103932 -0.138171 1.296141 255 255 255
-0.102480 -0.136252 1.305255 255 255 255
-0.102480 -0.136252 1.305255 130 159 186
-0.104210 -0.138511 1.308293 130 159 186
-0.107578 -0.143025 1.305255 130 159 186
-0.046408 -0.173116 1.305255 121 143 163
-0.107578 -0.143025 1.305255 121 143 163
-0.111400 -0.148065 1.296141 121 143 163
-0.048032 -0.179173 1.296141 121 143 163
-0.149355 -0.086249 1.296141 255 255 255
-0.147293 -0.085058 1.305255 255 255 255
-0.147293 -0.085058 1.305255 130 159 186
-0.149711 -0.086454 1.308293 130 159 186
-0.154618 -0.089286 1.305255 130 159 186
-0.154618 -0.089286 1.305255 121 143 163
-0.160023 -0.092406 1.296141 121 143 163
-0.173934 -0.016891 1.296141 255 255 255
-0.170192 -0.018940 1.305255 255 255 255
-0.170192 -0.018940 1.305255 130 159 186
-0.172320 -0.020510 1.308293 130 159 186
-0.177658 -0.021610 1.305255 130 159 186
-0.177658 -0.021610 1.305255 121 143 163
-0.183897 -0.022462 1.296141 121 143 163
-0.169341 0.048409 1.296141 255 255 255
-0.165795 0.045715 1.305255 255 255 255
-0.165795 0.045715 1.305255 130 159 186
-0.167871 0.045370 1.308293 130 159 186
-0.173121 0.046417 1.305255 130 159 186
-0.173121 0.046417 1.305255 121 143 163
-0.179137 0.047969 1.296141 121 143 163
-0.138915 0.105221 1.296141 255 255 255
-0.136544 0.102987 1.305255 255 255 255
-0.136544 0.102987 1.305255 130 159 186
-0.138557 0.104290 1.308293 130 159 186
-0.143030 0.107586 1.305255 130 159 186
-0.143030 0.107586 1.305255 121 143 163
-0.148029 0.111337 1.296141 121 143 163
-0.086213 0.149293 1.296141 255 255 255
-0.085022 0.147230 1.305255 255 255 255
-0.085022 0.147230 1.305255 130 159 186
-0.086418 0.149648 1.308293 130 159 186
-0.089250 0.154555 1.305255 130 159 186
-0.089250 0.154555 1.305255 121 143 163
-0.092370 0.159960 1.296141 121 143 163
-0.020909 0.171532 1.296141 255 255 255
-0.020611 0.169144 1.305255 255 255 255
-0.020611 0.169144 1.305255 130 159 186
-0.020979 0.171966 1.308293 130 159 186
-0.021637 0.177558 1.305255 130 159 186
-0.021637 0.177558 1.305255 121 143 163
-0.022425 0.183835 1.296141 121 143 163
0.044818 0.167185 1.296141 255 255 255
0.044187 0.164830 1.305255 255 255 255
0.044187 0.164830 1.305255 130 159 186
0.044908 0.167522 1.308293 130 159 186
0.046382 0.173017 1.305255 130 159 186
0.048005 0.179074 1.296141 130 159 186
-0.022425 0.183835 1.296141 130 159 186
0.103906 0.138072 1.296141 255 255 255
0.102454 0.136153 1.305255 255 255 255
0.102454 0.136153 1.305255 130 159 186
0.104183 0.138413 1.308293 130 159 186
0.107551 0.142926 1.305255 130 159 186
0.111373 0.147967 1.296141 130 159 186
0.149329 0.086150 1.296141 255 255 255
0.147266 0.084960 1.305255 255 255 255
0.147266 0.084960 1.305255 130 159 186
0.149684 0.086355 1.308293 130 159 186
0.154591 0.089187 1.305255 130 159 186
0.159996 0.092307 1.296141 130 159 186
0.171568 0.020846 1.296141 255 255 255
0.169180 0.020548 1.305255 255 255 255
0.169180 0.020548 1.305255 130 159 186
0.172002 0.020916 1.308293 130 159 186
0.177594 0.021575 1.305255 130 159 186
0.183871 0.022363 1.296141 130 159 186
0.167221 -0.044881 1.296141 255 255 255
0.164866 -0.044249 1.305255 255 255 255
0.164866 -0.044249 1.305255 130 159 186
0.167558 -0.044971 1.308293 130 159 186
0.173054 -0.046444 1.305255 130 159 186
0.179110 -0.048068 1.296141 130 159 186
0.138109 -0.103968 1.296141 255 255 255
0.136190 -0.102516 1.305255 255 255 255
0.136190 -0.102516 1.305255 130 159 186
0.138449 -0.104246 1.308293 130 159 186
0.142962 -0.107614 1.305255 130 159 186
0.148003 -0.111436 1.296141 130 159 186
0.092343 -0.160059 1.296141 130 159 186
0.092343 -0.160059 1.296141 147 181 212
0.022399 -0.183933 1.296141 147 181 212
0.025137 -0.206434 1.247777 147 181 212
0.103631 -0.179615 1.247777 147 181 212
0.027467 -0.226042 1.200317 147 181 212
0.113524 -0.196754 1.200317 147 181 212
0.029218 -0.239916 1.154581 147 181 212
0.120502 -0.208844 1.154581 147 181 212
0.029791 -0.245179 1.111391 147 181 212
0.123129 -0.213395 1.111391 147 181 212
-0.048032 -0.179173 1.296141 147 181 212
-0.053925 -0.201157 1.247777 147 181 212
-0.059067 -0.220337 1.200317 147 181 212
-0.062675 -0.233796 1.154581 147 181 212
-0.064058 -0.238956 1.111391 147 181 212
-0.111400 -0.148065 1.296141 147 181 212
-0.125026 -0.166179 1.247777 147 181 212
-0.136851 -0.181992 1.200317 147 181 212
-0.145307 -0.193130 1.154581 147 181 212
-0.148436 -0.197401 1.111391 147 181 212
-0.160023 -0.092406 1.296141 147 181 212
-0.179579 -0.103694 1.247777 147 181 212
-0.196718 -0.113586 1.200317 147 181 212
-0.208808 -0.120564 1.154581 147 181 212
-0.213359 -0.123191 1.111391 147 181 212
-0.183897 -0.022462 1.296141 147 181 212
-0.206398 -0.025200 1.247777 147 181 212
-0.226006 -0.027530 1.200317 147 181 212
-0.239880 -0.029281 1.154581 147 181 212
-0.245143 -0.029853 1.111391 147 181 212
-0.179137 0.047969 1.296141 147 181 212
-0.201121 0.053863 1.247777 147 181 212
-0.220300 0.059004 1.200317 147 181 212
-0.233760 0.062612 1.154581 147 181 212
-0.238920 0.063996 1.111391 147 181 212
-0.148029 0.111337 1.296141 147 181 212
-0.166143 0.124963 1.247777 147 181 212
-0.181956 0.136788 1.200317 147 181 212
-0.193094 0.145244 1.154581 147 181 212
-0.197365 0.148373 1.111391 147 181 212
-0.092370 0.159960 1.296141 147 181 212
-0.103658 0.179517 1.247777 147 181 212
-0.113550 0.196655 1.200317 147 181 212
-0.120528 0.208745 1.154581 147 181 212
-0.123155 0.213296 1.111391 147 181 212
-0.022425 0.183835 1.296141 147 181 212
-0.025164 0.206335 1.247777 147 181 212
-0.027494 0.225943 1.200317 147 181 212
-0.029244 0.239817 1.154581 147 181 212
-0.029817 0.245080 1.111391 147 181 212
0.048005 0.179074 1.296141 147 181 212
0.053899 0.201058 1.247777 147 181 212
0.059040 0.220238 1.200317 147 181 212
0.062648 0.233697 1.154581 147 181 212
0.064032 0.238857 1.111391 147 181 212
0.111373 0.147967 1.296141 147 181 212
0.124999 0.166080 1.247777 147 181 212
0.136824 0.181893 1.200317 147 181 212
0.145280 0.193031 1.154581 147 181 212
0.148409 0.197302 1.111391 147 181 212
0.159996 0.092307 1.296141 147 181 212
0.179553 0.103595 1.247777 147 181 212
0.196692 0.113487 1.200317 147 181 212
0.208781 0.120465 1.154581 147 181 212
0.213333 0.123092 1.111391 147 181 212
0.183871 0.022363 1.296141 147 181 212
0.206371 0.025101 1.247777 147 181 212
0.225979 0.027431 1.200317 147 181 212
0.239853 0.029182 1.154581 147 181 212
0.245116 0.029755 1.111391 147 181 212
0.179110 -0.048068 1.296141 147 181 212
0.201094 -0.053961 1.247777 147 181 212
0.220274 -0.059103 1.200317 147 181 212
0.233733 -0.062711 1.154581 147 181 212
0.238893 -0.064094 1.111391 147 181 212
0.148003 -0.111436 1.296141 147 181 212
0.166116 -0.125062 1.247777 147 181 212
0.181930 -0.136887 1.200317 147 181 212
0.193068 -0.145343 1.154581 147 181 212
0.197338 -0.148472 1.111391 147 181 212
0.028629 -0.235610 1.074876 147 181 212
0.118326 -0.205075 1.074876 147 181 212
0.118326 -0.205075 1.074876 126 155 181
0.028629 -0.235610 1.074876 126 155 181
0.026155 -0.214569 1.047886 126 155 181
0.107736 -0.186727 1.047886 126 155 181
0.023561 -0.193502 1.029550 126 155 181
0.097146 -0.168379 1.029550 126 155 181
0.022399 -0.183933 1.019016 126 155 181
0.092343 -0.160059 1.019016 126 155 181
-0.061562 -0.229646 1.074876 147 181 212
-0.061562 -0.229646 1.074876 126 155 181
-0.056060 -0.209120 1.047886 126 155 181
-0.050558 -0.188595 1.029550 126 155 181
-0.048032 -0.179173 1.019016 126 155 181
-0.142643 -0.189697 1.074876 147 181 212
-0.142643 -0.189697 1.074876 126 155 181
-0.129976 -0.172715 1.047886 126 155 181
-0.117192 -0.155770 1.029550 126 155 181
-0.111400 -0.148065 1.019016 126 155 181
-0.205039 -0.118389 1.074876 147 181 212
-0.205039 -0.118389 1.074876 126 155 181
-0.186691 -0.107798 1.047886 126 155 181
-0.168343 -0.097208 1.029550 126 155 181
-0.160023 -0.092406 1.019016 126 155 181
-0.235574 -0.028692 1.074876 147 181 212
-0.235574 -0.028692 1.074876 126 155 181
-0.214533 -0.026217 1.047886 126 155 181
-0.193466 -0.023623 1.029550 126 155 181
-0.183897 -0.022462 1.019016 126 155 181
-0.229610 0.061500 1.074876 147 181 212
-0.229610 0.061500 1.074876 126 155 181
-0.209084 0.055997 1.047886 126 155 181
-0.188558 0.050495 1.029550 126 155 181
-0.179137 0.047969 1.019016 126 155 181
-0.189660 0.142581 1.074876 147 181 212
-0.189660 0.142581 1.074876 126 155 181
-0.172679 0.129913 1.047886 126 155 181
-0.155734 0.117129 1.029550 126 155 181
-0.148029 0.111337 1.019016 126 155 181
-0.118353 0.204976 1.074876 147 181 212
-0.118353 0.204976 1.074876 126 155 181
-0.107762 0.186628 1.047886 126 155 181
-0.097172 0.168281 1.029550 126 155 181
-0.092370 0.159960 1.019016 126 155 181
-0.028655 0.235512 1.074876 147 181 212
-0.028655 0.235512 1.074876 126 155 181
-0.026181 0.214471 1.047886 126 155 181
-0.023587 0.193403 1.029550 126 155 181
-0.022426 0.183835 1.019016 126 155 181
0.061536 0.229547 1.074876 147 181 212
0.061536 0.229547 1.074876 126 155 181
0.056033 0.209022 1.047886 126 155 181
0.050531 0.188496 1.029550 126 155 181
0.048005 0.179074 1.019015 126 155 181
0.142617 0.189598 1.074876 147 181 212
0.142617 0.189598 1.074876 126 155 181
0.129949 0.172616 1.047886 126 155 181
0.117165 0.155671 1.029550 126 155 181
0.111373 0.147967 1.019015 126 155 181
0.205012 0.118290 1.074876 147 181 212
0.205012 0.118290 1.074876 126 155 181
0.186664 0.107700 1.047886 126 155 181
0.168317 0.097110 1.029550 126 155 181
0.159996 0.092307 1.019015 126 155 181
0.235548 0.028593 1.074876 147 181 212
0.235548 0.028593 1.074876 126 155 181
0.214507 0.026118 1.047886 126 155 181
0.193440 0.023525 1.029550 126 155 181
0.183871 0.022363 1.019015 126 155 181
0.229583 -0.061598 1.074876 147 181 212
0.229583 -0.061598 1.074876 126 155 181
0.209058 -0.056096 1.047886 126 155 181
0.188532 -0.050594 1.029550 126 155 181
0.179110 -0.048068 1.019015 126 155 181
0.189634 -0.142679 1.074876 147 181 212
0.189634 -0.142679 1.074876 126 155 181
0.172652 -0.130012 1.047886 126 155 181
0.155707 -0.117228 1.029550 126 155 181
0.148003 -0.111436 1.019016 126 155 181
0.021892 -0.179770 1.012233 126 155 181
0.090250 -0.156432 1.012233 126 155 181
0.019150 -0.157461 1.006314 126 155 181
0.079085 -0.137088 1.006314 126 155 181
0.012456 -0.102450 1.002128 126 155 181
0.051419 -0.089157 1.002128 126 155 181
-0.046949 -0.175135 1.012233 126 155 181
-0.041146 -0.153488 1.006314 126 155 181
-0.026771 -0.099863 1.002128 126 155 181
-0.108878 -0.144714 1.012233 126 155 181
-0.095345 -0.126768 1.006314 126 155 181
-0.062031 -0.082482 1.002128 126 155 181
-0.156396 -0.090312 1.012233 126 155 181
-0.137052 -0.079147 1.006314 126 155 181
-0.089121 -0.051482 1.002128 126 155 181
-0.179734 -0.021955 1.012233 126 155 181
-0.157425 -0.019213 1.006314 126 155 181
-0.102414 -0.012518 1.002128 126 155 181
-0.175099 0.046887 1.012233 126 155 181
-0.153452 0.041084 1.006314 126 155 181
-0.099827 0.026708 1.002128 126 155 181
-0.144678 0.108816 1.012233 126 155 181
-0.126732 0.095283 1.006314 126 155 181
-0.082446 0.061969 1.002128 126 155 181
-0.090276 0.156333 1.012233 126 155 181
-0.079111 0.136990 1.006314 126 155 181
-0.051445 0.089058 1.002128 126 155 181
-0.021919 0.179671 1.012233 126 155 181
-0.019177 0.157362 1.006314 126 155 181
-0.012482 0.102351 1.002128 126 155 181
0.046923 0.175036 1.012233 126 155 181
0.041120 0.153389 1.006314 126 155 181
0.026744 0.099764 1.002128 126 155 181
0.108852 0.144615 1.012233 126 155 181
0.095319 0.126669 1.006314 126 155 181
0.062005 0.082383 1.002128 126 155 181
0.156369 0.090214 1.012233 126 155 181
0.137026 0.079049 1.006314 126 155 181
0.089094 0.051383 1.002128 126 155 181
0.179708 0.021856 1.012233 126 155 181
0.157399 0.019114 1.006314 126 155 181
0.102387 0.012420 1.002128 126 155 181
-0.096532 -0.128325 1.296141 130 159 186
-0.138688 -0.080092 1.296141 130 159 186
0.175072 -0.046985 1.012233 126 155 181
0.153425 -0.041182 1.006314 126 155 181
0.099800 -0.026807 1.002128 126 155 181
-0.041657 -0.155394 1.296141 130 159 186
0.144651 -0.108914 1.012233 126 155 181
0.126705 -0.095381 1.006314 126 155 181
0.082419 -0.062067 1.002128 126 155 181
0.019399 -0.159403 1.296141 130 159 186
0.080029 -0.138724 1.296141 130 159 186
-0.098527 0.170627 1.249995 147 181 212
-0.115582 0.158603 1.254264 147 181 212
-0.146162 0.211583 1.253772 147 181 212
-0.127301 0.220479 1.249502 147 181 212
-0.168615 0.250484 1.250241 147 181 212
-0.168615 0.250484 1.250241 134 160 183
-0.148563 0.257317 1.246464 134 160 183
-0.127301 0.220479 1.249502 134 160 183
-0.148563 0.257317 1.246464 129 159 186
-0.168615 0.250484 1.250241 129 159 186
-0.182407 0.274378 1.240798 129 159 186
-0.182407 0.274378 1.240798 147 181 212
-0.161740 0.280145 1.238253 147 181 212
-0.148563 0.257317 1.246464 147 181 212
-0.161740 0.280145 1.238253 129 159 186
-0.187127 0.282556 1.222241 129 159 186
-0.166255 0.287968 1.222241 129 159 186
-0.115582 0.158603 1.254264 129 159 186
-0.119450 0.151440 1.263789 129 159 186
-0.154052 0.211390 1.263132 129 159 186
-0.146162 0.211583 1.253772 129 159 186
-0.179091 0.254771 1.258616 129 159 186
-0.194361 0.281226 1.246300 129 159 186
-0.199492 0.290115 1.222241 129 159 186
-0.111313 0.151207 1.273314 129 159 186
-0.149938 0.218126 1.272575 129 159 186
-0.177604 0.266058 1.266909 129 159 186
-0.194270 0.294931 1.251801 129 159 186
-0.199852 0.304602 1.222241 129 159 186
-0.092370 0.159960 1.277666 129 159 186
-0.132760 0.229937 1.276763 129 159 186
-0.161657 0.280003 1.270769 129 159 186
-0.178938 0.309942 1.254264 129 159 186
-0.184726 0.319969 1.222241 129 159 186
-0.075314 0.171985 1.273314 129 159 186
-0.113940 0.238904 1.272575 129 159 186
-0.141606 0.286836 1.266909 129 159 186
-0.158271 0.315709 1.251801 129 159 186
-0.163853 0.325380 1.222241 129 159 186
-0.071447 0.179147 1.263789 129 159 186
-0.106050 0.239097 1.263132 129 159 186
-0.131088 0.282478 1.258616 129 159 186
-0.146358 0.308932 1.246300 129 159 186
-0.151489 0.317822 1.222241 129 159 186
-0.071447 0.179147 1.263789 147 181 212
-0.079583 0.179381 1.254264 147 181 212
-0.110164 0.232362 1.253772 147 181 212
-0.110164 0.232362 1.253772 129 159 186
-0.132616 0.271262 1.250241 129 159 186
-0.146408 0.295156 1.240798 129 159 186
-0.151129 0.303335 1.222241 129 159 186
-0.127301 0.220479 1.249502 129 159 186
-0.079583 0.179381 1.254264 129 159 186
-0.184459 0.277934 1.194734 129 159 186
-0.163833 0.283772 1.197115 129 159 186
-0.176127 0.263498 1.163121 129 159 186
-0.156239 0.270615 1.166816 129 159 186
-0.161514 0.238181 1.131918 129 159 186
-0.142858 0.247432 1.136517 129 159 186
-0.140210 0.201272 1.105643 129 159 186
-0.123155 0.213296 1.111391 129 159 186
-0.196249 0.284497 1.189396 129 159 186
-0.186233 0.267145 1.154992 129 159 186
-0.168953 0.237205 1.121901 129 159 186
-0.144078 0.194109 1.092916 129 159 186
-0.195993 0.297917 1.184059 129 159 186
-0.184295 0.277650 1.146863 129 159 186
-0.164387 0.243159 1.111883 129 159 186
-0.135941 0.193876 1.080213 129 159 186
-0.180621 0.312858 1.181596 129 159 186
-0.168184 0.291310 1.143168 129 159 186
-0.184295 0.277650 1.146863 147 181 212
-0.168184 0.291310 1.143168 147 181 212
-0.147045 0.254686 1.107285 147 181 212
-0.164387 0.243159 1.111883 147 181 212
-0.116998 0.202629 1.074441 147 181 212
-0.135941 0.193876 1.080213 147 181 212
-0.184726 0.319969 1.222241 147 181 212
-0.163853 0.325380 1.222241 147 181 212
-0.159995 0.318696 1.184059 147 181 212
-0.180621 0.312858 1.181596 147 181 212
-0.148296 0.298428 1.146863 147 181 212
-0.128389 0.263937 1.111883 147 181 212
-0.099943 0.214654 1.080213 147 181 212
-0.148246 0.312204 1.189396 129 159 186
-0.159995 0.318696 1.184059 129 159 186
-0.138231 0.294852 1.154992 129 159 186
-0.148296 0.298428 1.146863 129 159 186
-0.120950 0.264912 1.121901 129 159 186
-0.128389 0.263937 1.111883 129 159 186
-0.096075 0.221816 1.092916 129 159 186
-0.099943 0.214654 1.080213 129 159 186
-0.148461 0.298712 1.194734 129 159 186
-0.140128 0.284276 1.163121 129 159 186
-0.125515 0.258959 1.131918 129 159 186
-0.104212 0.222050 1.105643 129 159 186
0.104657 -0.181393 1.176012 108 133 156
0.065053 -0.204252 1.160165 108 133 156
0.100671 -0.257075 1.177819 108 133 156
0.134211 -0.232596 1.189643 108 133 156
0.122590 -0.275520 1.215426 108 133 156
0.146977 -0.254713 1.222241 108 133 156
0.138681 -0.283867 1.259273 108 133 156
0.153996 -0.266874 1.261818 108 133 156
0.157018 -0.306750 1.296141 108 133 156
0.166228 -0.288066 1.296141 108 133 156
0.051854 -0.211871 1.125268 108 133 156
0.093719 -0.272560 1.151954 108 133 156
0.119809 -0.291726 1.200317 108 133 156
0.140159 -0.300933 1.253854 108 133 156
0.164695 -0.331615 1.296141 108 133 156
0.065053 -0.204252 1.090288 108 133 156
0.110605 -0.274285 1.126089 108 133 156
0.135274 -0.297495 1.185209 108 133 156
0.154156 -0.310678 1.248352 108 133 156
0.182385 -0.350700 1.296141 108 133 156
0.104657 -0.181393 1.074441 108 133 156
0.148619 -0.257558 1.114264 108 133 156
0.165448 -0.286715 1.178393 108 133 156
0.176531 -0.305916 1.245889 108 133 156
0.203171 -0.352070 1.296141 108 133 156
0.144261 -0.158534 1.090288 108 133 156
0.182118 -0.233008 1.126089 108 133 156
0.189876 -0.265979 1.185209 108 133 156
0.191847 -0.288923 1.248352 108 133 156
0.212381 -0.333386 1.296141 108 133 156
0.157460 -0.150916 1.125268 108 133 156
0.189070 -0.217523 1.151954 108 133 156
0.192617 -0.249702 1.200317 108 133 156
0.190409 -0.271928 1.253854 108 133 156
0.204704 -0.308521 1.296141 108 133 156
0.144261 -0.158534 1.160165 108 133 156
0.172185 -0.215798 1.177819 108 133 156
0.177193 -0.244004 1.215426 108 133 156
0.176372 -0.262112 1.259273 108 133 156
0.187014 -0.289437 1.296141 108 133 156
0.166228 -0.288066 1.296141 147 181 212
0.157018 -0.306750 1.296141 147 181 212
0.162752 -0.314533 1.301560 147 181 212
0.170661 -0.295747 1.301314 147 181 212
0.167736 -0.318388 1.303449 147 181 212
0.173945 -0.301436 1.303038 147 181 212
0.173945 -0.301436 1.303038 106 131 153
0.167736 -0.318388 1.303449 106 131 153
0.169880 -0.317340 1.301725 106 131 153
0.174889 -0.303072 1.301314 106 131 153
0.164695 -0.331615 1.296141 147 181 212
0.171693 -0.340848 1.302135 147 181 212
0.176498 -0.342816 1.304352 147 181 212
0.177403 -0.338027 1.302464 147 181 212
0.177403 -0.338027 1.302464 106 131 153
0.182385 -0.350700 1.296141 147 181 212
0.189966 -0.361683 1.302710 147 181 212
0.193267 -0.362621 1.305255 147 181 212
0.176498 -0.342816 1.304352 106 131 153
0.193267 -0.362621 1.305255 106 131 153
0.191553 -0.354888 1.303285 106 131 153
0.203171 -0.352070 1.296141 147 181 212
0.210231 -0.364302 1.302956 147 181 212
0.211052 -0.365724 1.305666 147 181 212
0.211052 -0.365724 1.305666 106 131 153
0.206414 -0.357688 1.303613 106 131 153
0.212381 -0.333386 1.296141 147 181 212
0.218099 -0.345444 1.302710 147 181 212
0.217261 -0.348772 1.305255 147 181 212
0.217261 -0.348772 1.305255 106 131 153
0.211423 -0.343420 1.303285 106 131 153
0.204704 -0.308521 1.296141 147 181 212
0.209199 -0.319200 1.302135 147 181 212
0.208499 -0.324344 1.304352 147 181 212
0.208499 -0.324344 1.304352 106 131 153
0.203900 -0.322733 1.302464 106 131 153
0.187014 -0.289437 1.296141 147 181 212
0.190885 -0.298295 1.301560 147 181 212
0.191730 -0.304538 1.303449 147 181 212
0.191730 -0.304538 1.303449 106 131 153
0.189750 -0.305871 1.301725 106 131 153
0.005039 -0.041835 1.382440 178 218 255
0.020958 -0.036382 1.382440 178 218 255
-0.000013 -0.000049 1.388516 178 218 255
0.020958 -0.036382 1.382440 130 159 186
0.005039 -0.041835 1.382440 130 159 186
0.004814 -0.039917 1.367742 130 159 186
0.019997 -0.034718 1.367742 130 159 186
0.002916 -0.024194 1.349513 130 159 186
0.012108 -0.021050 1.349513 130 159 186
0.002971 -0.024569 1.333091 130 159 186
0.012301 -0.021384 1.333091 130 159 186
-0.010934 -0.040787 1.382440 178 218 255
-0.010934 -0.040787 1.382440 130 159 186
-0.010432 -0.038914 1.367742 130 159 186
-0.006321 -0.023581 1.349513 130 159 186
-0.006418 -0.023940 1.333091 130 159 186
-0.025289 -0.033704 1.382440 178 218 255
-0.025289 -0.033704 1.382440 130 159 186
-0.024135 -0.032156 1.367742 130 159 186
-0.014627 -0.019491 1.349513 130 159 186
-0.014863 -0.019789 1.333091 130 159 186
-0.036346 -0.021020 1.382440 178 218 255
-0.036346 -0.021020 1.382440 130 159 186
-0.034682 -0.020060 1.367742 130 159 186
-0.021014 -0.012171 1.349513 130 159 186
-0.021348 -0.012364 1.333091 130 159 186
-0.041799 -0.005102 1.382440 178 218 255
-0.041799 -0.005102 1.382440 130 159 186
-0.039881 -0.004877 1.367742 130 159 186
-0.024158 -0.002978 1.349513 130 159 186
-0.024533 -0.003034 1.333091 130 159 186
-0.040751 0.010871 1.382440 178 218 255
-0.040751 0.010871 1.382440 130 159 186
-0.038878 0.010369 1.367742 130 159 186
-0.023545 0.006259 1.349513 130 159 186
-0.023904 0.006355 1.333091 130 159 186
-0.033668 0.025227 1.382440 178 218 255
-0.033668 0.025227 1.382440 130 159 186
-0.032120 0.024073 1.367742 130 159 186
-0.019455 0.014564 1.349513 130 159 186
-0.019752 0.014800 1.333091 130 159 186
-0.020984 0.036283 1.382440 178 218 255
-0.020984 0.036283 1.382440 130 159 186
-0.020024 0.034619 1.367742 130 159 186
-0.012134 0.020951 1.349513 130 159 186
-0.012327 0.021285 1.333091 130 159 186
-0.005066 0.041736 1.382440 178 218 255
-0.005066 0.041736 1.382440 130 159 186
-0.004840 0.039818 1.367742 130 159 186
-0.002942 0.024095 1.349513 130 159 186
-0.002998 0.024471 1.333091 130 159 186
0.010907 0.040688 1.382440 178 218 255
0.010907 0.040688 1.382440 130 159 186
0.010405 0.038815 1.367742 130 159 186
0.006295 0.023482 1.349513 130 159 186
0.006391 0.023841 1.333091 130 159 186
0.025263 0.033606 1.382440 178 218 255
0.025263 0.033606 1.382440 130 159 186
0.024109 0.032058 1.367742 130 159 186
0.014600 0.019393 1.349513 130 159 186
0.014836 0.019690 1.333091 130 159 186
0.036320 0.020922 1.382440 178 218 255
0.036320 0.020922 1.382440 130 159 186
0.034655 0.019961 1.367742 130 159 186
0.020987 0.012072 1.349513 130 159 186
0.021321 0.012265 1.333091 130 159 186
0.041772 0.005003 1.382440 178 218 255
0.041772 0.005003 1.382440 130 159 186
0.039854 0.004778 1.367742 130 159 186
0.024131 0.002880 1.349513 130 159 186
0.024507 0.002935 1.333091 130 159 186
0.040724 -0.010970 1.382440 178 218 255
0.040724 -0.010970 1.382440 130 159 186
0.038851 -0.010468 1.367742 130 159 186
0.023518 -0.006358 1.349513 130 159 186
0.023877 -0.006454 1.333091 130 159 186
0.033642 -0.025326 1.382440 178 218 255
0.033642 -0.025326 1.382440 130 159 186
0.032094 -0.024171 1.367742 130 159 186
0.019429 -0.014663 1.349513 130 159 186
0.019726 -0.014899 1.333091 130 159 186
0.012301 -0.021384 1.333091 178 218 255
0.002971 -0.024569 1.333091 178 218 255
0.006798 -0.055970 1.322088 178 218 255
0.028080 -0.048721 1.322088 178 218 255
0.012322 -0.101200 1.314616 178 218 255
0.050762 -0.088019 1.314616 178 218 255
0.017254 -0.141775 1.307144 178 218 255
0.071163 -0.123363 1.307144 178 218 255
0.019399 -0.159403 1.296141 178 218 255
0.080029 -0.138724 1.296141 178 218 255
-0.006418 -0.023940 1.333091 178 218 255
-0.014623 -0.054549 1.322088 178 218 255
-0.026431 -0.098595 1.314616 178 218 255
-0.037027 -0.138121 1.307144 178 218 255
-0.041657 -0.155394 1.296141 178 218 255
-0.014863 -0.019789 1.333091 178 218 255
-0.033883 -0.045064 1.322088 178 218 255
-0.061290 -0.081466 1.314616 178 218 255
-0.085857 -0.114133 1.307144 178 218 255
-0.096532 -0.128325 1.296141 178 218 255
-0.021348 -0.012364 1.333091 178 218 255
-0.048685 -0.028142 1.322088 178 218 255
-0.087983 -0.050825 1.314616 178 218 255
-0.123327 -0.071225 1.307144 178 218 255
-0.138688 -0.080092 1.296141 178 218 255
-0.024533 -0.003034 1.333091 178 218 255
-0.055934 -0.006861 1.322088 178 218 255
-0.101164 -0.012385 1.314616 178 218 255
-0.141739 -0.017317 1.307144 178 218 255
-0.159367 -0.019462 1.296141 178 218 255
-0.023904 0.006355 1.333091 178 218 255
-0.054513 0.014561 1.322088 178 218 255
-0.098559 0.026368 1.314616 178 218 255
-0.138085 0.036964 1.307144 178 218 255
-0.155358 0.041595 1.296141 178 218 255
-0.019752 0.014800 1.333091 178 218 255
-0.045028 0.033820 1.322088 178 218 255
-0.081430 0.061228 1.314616 178 218 255
-0.114097 0.085794 1.307144 178 218 255
-0.128289 0.096469 1.296141 178 218 255
-0.012327 0.021285 1.333091 178 218 255
-0.028106 0.048622 1.322088 178 218 255
-0.050789 0.087920 1.314616 178 218 255
-0.071189 0.123265 1.307144 178 218 255
-0.080055 0.138625 1.296141 178 218 255
-0.002998 0.024471 1.333091 178 218 255
-0.006825 0.055871 1.322088 178 218 255
-0.012349 0.101101 1.314616 178 218 255
-0.017281 0.141676 1.307144 178 218 255
-0.019426 0.159305 1.296141 178 218 255
0.006391 0.023841 1.333091 178 218 255
0.014597 0.054450 1.322088 178 218 255
0.026405 0.098497 1.314616 178 218 255
0.037000 0.138023 1.307144 178 218 255
0.041631 0.155296 1.296141 178 218 255
0.014836 0.019690 1.333091 178 218 255
0.033857 0.044965 1.322088 178 218 255
0.061264 0.081367 1.314616 178 218 255
0.085830 0.114034 1.307144 178 218 255
0.096506 0.128226 1.296141 178 218 255
0.021321 0.012265 1.333091 178 218 255
0.048658 0.028043 1.322088 178 218 255
0.087956 0.050726 1.314616 178 218 255
0.123301 0.071127 1.307144 178 218 255
0.138662 0.079993 1.296141 178 218 255
0.024507 0.002935 1.333091 178 218 255
0.055907 0.006762 1.322088 178 218 255
0.101137 0.012286 1.314616 178 218 255
0.141712 0.017218 1.307144 178 218 255
0.159341 0.019363 1.296141 178 218 255
0.023877 -0.006454 1.333091 178 218 255
0.054487 -0.014659 1.322088 178 218 255
0.098533 -0.026467 1.314616 178 218 255
0.138059 -0.037063 1.307144 178 218 255
0.155332 -0.041694 1.296141 178 218 255
0.019726 -0.014899 1.333091 178 218 255
0.045001 -0.033919 1.322088 178 218 255
0.081403 -0.061326 1.314616 178 218 255
0.114071 -0.085893 1.307144 178 218 255
0.128262 -0.096568 1.296141 178 218 255
-0.159367 -0.019462 1.296141 130 159 186
-0.155358 0.041595 1.296141 130 159 186
-0.128289 0.096469 1.296141 130 159 186
-0.080055 0.138625 1.296141 130 159 186
-0.019426 0.159305 1.296141 130 159 186
0.041631 0.155296 1.296141 130 159 186
0.096506 0.128226 1.296141 130 159 186
0.138662 0.079993 1.296141 130 159 186
0.159341 0.019363 1.296141 130 159 186
0.155332 -0.041694 1.296141 130 159 186
0.128262 -0.096568 1.296141 130 159 186
0.206414 -0.357688 1.303613 92 113 133
0.211423 -0.343420 1.303285 92 113 133
0.191553 -0.354888 1.303285 92 113 133
0.203900 -0.322733 1.302464 92 113 133
0.177403 -0.338027 1.302464 92 113 133
0.189750 -0.305871 1.301725 92 113 133
0.169880 -0.317340 1.301725 92 113 133
0.174889 -0.303072 1.301314 92 113 133
3 0 1 2
3 3 0 2
3 4 5 6
3 6 7 4
3 7 6 8
3 8 9 7
3 10 11 12
3 12 13 10
3 1 14 15
3 15 2 1
3 5 16 17
3 17 6 5
3 6 17 18
3 18 8 6
3 8 18 19
3 19 20 8
3 14 21 22
3 22 15 14
3 16 23 24
3 24 17 16
3 17 24 25
3 25 18 17
3 26 27 28
3 28 29 26
3 21 30 31
3 31 22 21
3 23 32 33
3 33 24 23
3 24 33 34
3 34 25 24
3 27 35 36
3 36 28 27
3 30 37 38
3 38 31 30
3 32 39 40
3 40 33 32
3 33 40 41
3 41 34 33
3 35 42 43
3 43 36 35
3 37 44 45
3 45 38 37
3 39 46 47
3 47 40 39
3 40 47 48
3 48 41 40
3 42 49 50
3 50 43 42
3 44 51 52
3 52 45 44
3 46 53 54
3 54 47 46
3 47 54 55
3 55 48 47
3 49 56 57
3 57 50 49
3 51 58 59
3 59 52 51
3 53 60 61
3 61 54 53
3 54 61 62
3 62 55 54
3 56 63 64
3 64 57 56
3 58 65 66
3 66 59 58
3 60 67 68
3 68 61 60
3 61 68 69
3 69 62 61
3 63 70 71
3 71 64 63
3 65 72 73
3 73 66 65
3 67 74 75
3 75 68 67
3 68 75 76
3 76 69 68
3 69 76 77
3 77 78 69
3 72 79 80
3 80 73 72
3 74 81 82
3 82 75 74
3 75 82 83
3 83 76 75
3 76 83 84
3 84 77 76
3 79 85 86
3 86 80 79
3 81 87 88
3 88 82 81
3 82 88 89
3 89 83 82
3 83 89 90
3 90 84 83
3 85 91 92
3 92 86 85
3 87 93 94
3 94 88 87
3 88 94 95
3 95 89 88
3 89 95 96
3 96 90 89
3 91 97 98
3 98 92 91
3 93 99 100
3 100 94 93
3 94 100 101
3 101 95 94
3 95 101 102
3 102 96 95
3 97 103 104
3 104 98 97
3 99 105 106
3 106 100 99
3 100 106 107
3 107 101 100
3 101 107 108
3 108 102 101
3 103 0 3
3 3 104 103
3 105 4 7
3 7 106 105
3 106 7 9
3 9 107 106
3 107 9 109
3 109 108 107
3 110 111 112
3 112 113 110
3 113 112 114
3 114 115 113
3 115 114 116
3 116 117 115
3 117 116 118
3 118 119 117
3 111 120 121
3 121 112 111
3 112 121 122
3 122 114 112
3 114 122 123
3 123 116 114
3 116 123 124
3 124 118 116
3 120 125 126
3 126 121 120
3 121 126 127
3 127 122 121
3 122 127 128
3 128 123 122
3 123 128 129
3 129 124 123
3 125 130 131
3 131 126 125
3 126 131 132
3 132 127 126
3 127 132 133
3 133 128 127
3 128 133 134
3 134 129 128
3 130 135 136
3 136 131 130
3 131 136 137
3 137 132 131
3 132 137 138
3 138 133 132
3 133 138 139
3 139 134 133
3 135 140 141
3 141 136 135
3 136 141 142
3 142 137 136
3 137 142 143
3 143 138 137
3 138 143 144
3 144 139 138
3 140 145 146
3 146 141 140
3 141 146 147
3 147 142 141
3 142 147 148
3 148 143 142
3 143 148 149
3 149 144 143
3 145 150 151
3 151 146 145
3 146 151 152
3 152 147 146
3 147 152 153
3 153 148 147
3 148 153 154
3 154 149 148
3 150 155 156
3 156 151 150
3 151 156 157
3 157 152 151
3 152 157 158
3 158 153 152
3 153 158 159
3 159 154 153
3 155 160 161
3 161 156 155
3 156 161 162
3 162 157 156
3 157 162 163
3 163 158 157
3 158 163 164
3 164 159 158
3 160 165 166
3 166 161 160
3 161 166 167
3 167 162 161
3 162 167 168
3 168 163 162
3 163 168 169
3 169 164 163
3 165 170 171
3 171 166 165
3 166 171 172
3 172 167 166
3 167 172 173
3 173 168 167
3 168 173 174
3 174 169 168
3 170 175 176
3 176 171 170
3 171 176 177
3 177 172 171
3 172 177 178
3 178 173 172
3 173 178 179
3 179 174 173
3 175 180 181
3 181 176 175
3 176 181 182
3 182 177 176
3 177 182 183
3 183 178 177
3 178 183 184
3 184 179 178
3 180 185 186
3 186 181 180
3 181 186 187
3 187 182 181
3 182 187 188
3 188 183 182
3 183 188 189
3 189 184 183
3 185 110 113
3 113 186 185
3 186 113 115
3 115 187 186
3 187 115 117
3 117 188 187
3 188 117 119
3 119 189 188
3 119 118 190
3 190 191 119
3 192 193 194
3 194 195 192
3 195 194 196
3 196 197 195
3 197 196 198
3 198 199 197
3 118 124 200
3 200 190 118
3 193 201 202
3 202 194 193
3 194 202 203
3 203 196 194
3 196 203 204
3 204 198 196
3 124 129 205
3 205 200 124
3 201 206 207
3 207 202 201
3 202 207 208
3 208 203 202
3 203 208 209
3 209 204 203
3 129 134 210
3 210 205 129
3 206 211 212
3 212 207 206
3 207 212 213
3 213 208 207
3 208 213 214
3 214 209 208
3 134 139 215
3 215 210 134
3 211 216 217
3 217 212 211
3 212 217 218
3 218 213 212
3 213 218 219
3 219 214 213
3 139 144 220
3 220 215 139
3 216 221 222
3 222 217 216
3 217 222 223
3 223 218 217
3 218 223 224
3 224 219 218
3 144 149 225
3 225 220 144
3 221 226 227
3 227 222 221
3 222 227 228
3 228 223 222
3 223 228 229
3 229 224 223
3 149 154 230
3 230 225 149
3 226 231 232
3 232 227 226
3 227 232 233
3 233 228 227
3 228 233 234
3 234 229 228
3 154 159 235
3 235 230 154
3 231 236 237
3 237 232 231
3 232 237 238
3 238 233 232
3 233 238 239
3 239 234 233
3 159 164 240
3 240 235 159
3 236 241 242
3 242 237 236
3 237 242 243
3 243 238 237
3 238 243 244
3 244 239 238
3 164 169 245
3 245 240 164
3 241 246 247
3 247 242 241
3 242 247 248
3 248 243 242
3 243 248 249
3 249 244 243
3 169 174 250
3 250 245 169
3 246 251 252
3 252 247 246
3 247 252 253
3 253 248 247
3 248 253 254
3 254 249 248
3 174 179 255
3 255 250 174
3 251 256 257
3 257 252 251
3 252 257 258
3 258 253 252
3 253 258 259
3 259 254 253
3 179 184 260
3 260 255 179
3 256 261 262
3 262 257 256
3 257 262 263
3 263 258 257
3 258 263 264
3 264 259 258
3 184 189 265
3 265 260 184
3 261 266 267
3 267 262 261
3 262 267 268
3 268 263 262
3 263 268 269
3 269 264 263
3 189 119 191
3 191 265 189
3 266 192 195
3 195 267 266
3 267 195 197
3 197 268 267
3 268 197 199
3 199 269 268
3 199 198 270
3 270 271 199
3 271 270 272
3 272 273 271
3 273 272 274
3 274 275 273
3 198 204 276
3 276 270 198
3 270 276 277
3 277 272 270
3 272 277 278
3 278 274 272
3 204 209 279
3 279 276 204
3 276 279 280
3 280 277 276
3 277 280 281
3 281 278 277
3 209 214 282
3 282 279 209
3 279 282 283
3 283 280 279
3 280 283 284
3 284 281 280
3 214 219 285
3 285 282 214
3 282 285 286
3 286 283 282
3 283 286 287
3 287 284 283
3 219 224 288
3 288 285 219
3 285 288 289
3 289 286 285
3 286 289 290
3 290 287 286
3 224 229 291
3 291 288 224
3 288 291 292
3 292 289 288
3 289 292 293
3 293 290 289
3 229 234 294
3 294 291 229
3 291 294 295
3 295 292 291
3 292 295 296
3 296 293 292
3 234 239 297
3 297 294 234
3 294 297 298
3 298 295 294
3 295 298 299
3 299 296 295
3 239 244 300
3 300 297 239
3 297 300 301
3 301 298 297
3 298 301 302
3 302 299 298
3 244 249 303
3 303 300 244
3 300 303 304
3 304 301 300
3 301 304 305
3 305 302 301
3 249 254 306
3 306 303 249
3 303 306 307
3 307 304 303
3 304 307 308
3 308 305 304
3 254 259 309
3 309 306 254
3 306 309 310
3 310 307 306
3 307 310 311
3 311 308 307
4 23 312 313 32
3 259 264 314
3 314 309 259
3 309 314 315
3 315 310 309
3 310 315 316
3 316 311 310
4 16 317 312 23
3 264 269 318
3 318 314 264
3 314 318 319
3 319 315 314
3 315 319 320
3 320 316 315
4 5 321 317 16
3 269 199 271
3 271 318 269
3 318 271 273
3 273 319 318
3 319 273 275
3 275 320 319
4 4 322 321 5
3 323 324 325
3 325 326 323
3 326 325 327
3 328 329 330
3 331 332 333
3 334 335 336
3 337 333 338
3 338 339 337
3 340 341 342
3 342 343 340
3 343 342 344
3 344 332 343
3 332 344 345
3 345 333 332
3 333 345 346
3 346 338 333
3 341 347 348
3 348 342 341
3 342 348 349
3 349 344 342
3 344 349 350
3 350 345 344
3 345 350 351
3 351 346 345
3 347 352 353
3 353 348 347
3 348 353 354
3 354 349 348
3 349 354 355
3 355 350 349
3 350 355 356
3 356 351 350
3 352 357 358
3 358 353 352
3 353 358 359
3 359 354 353
3 354 359 360
3 360 355 354
3 355 360 361
3 361 356 355
3 357 362 363
3 363 358 357
3 358 363 364
3 364 359 358
3 359 364 365
3 365 360 359
3 360 365 366
3 366 361 360
3 367 368 369
3 370 363 362
3 363 370 371
3 371 364 363
3 364 371 372
3 372 365 364
3 365 372 373
3 373 366 365
3 368 323 326
3 374 370 375
3 370 374 331
3 331 371 370
3 371 331 337
3 337 372 371
3 372 337 339
3 339 373 372
3 339 338 376
3 376 377 339
3 377 376 378
3 378 379 377
3 379 378 380
3 380 381 379
3 381 380 382
3 382 383 381
3 338 346 384
3 384 376 338
3 376 384 385
3 385 378 376
3 378 385 386
3 386 380 378
3 380 386 387
3 387 382 380
3 346 351 388
3 388 384 346
3 384 388 389
3 389 385 384
3 385 389 390
3 390 386 385
3 386 390 391
3 391 387 386
3 351 356 392
3 392 388 351
3 388 392 393
3 393 389 388
3 394 395 396
3 396 397 394
3 397 396 398
3 398 399 397
3 400 401 402
3 402 403 400
3 403 402 404
3 404 395 403
3 395 404 405
3 405 396 395
3 396 405 406
3 406 398 396
3 361 366 407
3 407 408 361
3 408 407 409
3 409 410 408
3 410 409 411
3 411 412 410
3 412 411 413
3 413 414 412
3 366 373 415
3 415 407 366
3 407 415 416
3 416 409 407
3 409 416 417
3 417 411 409
3 411 417 418
3 418 413 411
3 373 339 377
3 377 415 373
3 415 377 379
3 379 416 415
3 416 379 381
3 381 417 416
3 417 381 383
3 383 418 417
3 419 420 421
3 421 422 419
3 422 421 423
3 423 424 422
3 424 423 425
3 425 426 424
3 426 425 427
3 427 428 426
3 420 429 430
3 430 421 420
3 421 430 431
3 431 423 421
3 423 431 432
3 432 425 423
3 425 432 433
3 433 427 425
3 429 434 435
3 435 430 429
3 430 435 436
3 436 431 430
3 431 436 437
3 437 432 431
3 432 437 438
3 438 433 432
3 434 439 440
3 440 435 434
3 435 440 441
3 441 436 435
3 436 441 442
3 442 437 436
3 437 442 443
3 443 438 437
3 439 444 445
3 445 440 439
3 440 445 446
3 446 441 440
3 441 446 447
3 447 442 441
3 442 447 448
3 448 443 442
3 444 449 450
3 450 445 444
3 445 450 451
3 451 446 445
3 446 451 452
3 452 447 446
3 447 452 453
3 453 448 447
3 449 454 455
3 455 450 449
3 450 455 456
3 456 451 450
3 451 456 457
3 457 452 451
3 452 457 458
3 458 453 452
3 454 419 422
3 422 455 454
3 455 422 424
3 424 456 455
3 456 424 426
3 426 457 456
3 457 426 428
3 428 458 457
3 459 460 461
3 461 462 459
3 462 461 463
3 463 464 462
3 465 466 467
3 467 468 465
3 460 469 470
3 470 461 460
3 461 470 471
3 471 463 461
3 463 471 472
3 473 467 466
3 469 474 475
3 475 470 469
3 470 475 476
3 476 471 470
3 477 478 479
3 479 473 477
3 474 480 481
3 481 475 474
3 475 481 482
3 482 476 475
3 478 483 484
3 484 479 478
3 480 485 486
3 486 481 480
3 481 486 487
3 487 482 481
3 483 488 489
3 489 484 483
3 485 490 491
3 491 486 485
3 486 491 492
3 492 487 486
3 488 493 494
3 494 489 488
3 490 495 496
3 496 491 490
3 491 496 497
3 497 492 491
3 493 498 499
3 499 494 493
3 495 459 462
3 462 496 495
3 496 462 464
3 464 497 496
3 498 465 468
3 468 499 498
3 500 501 502
3 503 504 505
3 505 506 503
3 506 505 507
3 507 508 506
3 508 507 509
3 509 510 508
3 511 500 502
3 504 512 513
3 513 505 504
3 505 513 514
3 514 507 505
3 507 514 515
3 515 509 507
3 516 511 502
3 512 517 518
3 518 513 512
3 513 518 519
3 519 514 513
3 514 519 520
3 520 515 514
3 521 516 502
3 517 522 523
3 523 518 517
3 518 523 524
3 524 519 518
3 519 524 525
3 525 520 519
3 526 521 502
3 522 527 528
3 528 523 522
3 523 528 529
3 529 524 523
3 524 529 530
3 530 525 524
3 531 526 502
3 527 532 533
3 533 528 527
3 528 533 534
3 534 529 528
3 529 534 535
3 535 530 529
3 536 531 502
3 532 537 538
3 538 533 532
3 533 538 539
3 539 534 533
3 534 539 540
3 540 535 534
3 541 536 502
3 537 542 543
3 543 538 537
3 538 543 544
3 544 539 538
3 539 544 545
3 545 540 539
3 546 541 502
3 542 547 548
3 548 543 542
3 543 548 549
3 549 544 543
3 544 549 550
3 550 545 544
3 551 546 502
3 547 552 553
3 553 548 547
3 548 553 554
3 554 549 548
3 549 554 555
3 555 550 549
3 556 551 502
3 552 557 558
3 558 553 552
3 553 558 559
3 559 554 553
3 554 559 560
3 560 555 554
3 561 556 502
3 557 562 563
3 563 558 557
3 558 563 564
3 564 559 558
3 559 564 565
3 565 560 559
3 566 561 502
3 562 567 568
3 568 563 562
3 563 568 569
3 569 564 563
3 564 569 570
3 570 565 564
3 571 566 502
3 567 572 573
3 573 568 567
3 568 573 574
3 574 569 568
3 569 574 575
3 575 570 569
3 576 571 502
3 572 577 578
3 578 573 572
3 573 578 579
3 579 574 573
3 574 579 580
3 580 575 574
3 501 576 502
3 577 503 506
3 506 578 577
3 578 506 508
3 508 579 578
3 579 508 510
3 510 580 579
3 581 582 583
3 583 584 581
3 584 583 585
3 585 586 584
3 586 585 587
3 587 588 586
3 588 587 589
3 589 590 588
3 582 591 592
3 592 583 582
3 583 592 593
3 593 585 583
3 585 593 594
3 594 587 585
3 587 594 595
3 595 589 587
3 591 596 597
3 597 592 591
3 592 597 598
3 598 593 592
3 593 598 599
3 599 594 593
3 594 599 600
3 600 595 594
3 596 601 602
3 602 597 596
3 597 602 603
3 603 598 597
3 598 603 604
3 604 599 598
3 599 604 605
3 605 600 599
3 601 606 607
3 607 602 601
3 602 607 608
3 608 603 602
3 603 608 609
3 609 604 603
3 604 609 610
3 610 605 604
3 606 611 612
3 612 607 606
3 607 612 613
3 613 608 607
3 608 613 614
3 614 609 608
3 609 614 615
3 615 610 609
3 611 616 617
3 617 612 611
3 612 617 618
3 618 613 612
3 613 618 619
3 619 614 613
3 614 619 620
3 620 615 614
3 616 621 622
3 622 617 616
3 617 622 623
3 623 618 617
3 618 623 624
3 624 619 618
3 619 624 625
3 625 620 619
3 621 626 627
3 627 622 621
3 622 627 628
3 628 623 622
3 623 628 629
3 629 624 623
3 624 629 630
3 630 625 624
3 626 631 632
3 632 627 626
3 627 632 633
3 633 628 627
3 628 633 634
3 634 629 628
3 629 634 635
3 635 630 629
3 631 636 637
3 637 632 631
3 632 637 638
3 638 633 632
3 633 638 639
3 639 634 633
3 634 639 640
3 640 635 634
3 636 641 642
3 642 637 636
3 637 642 643
3 643 638 637
3 638 643 644
3 644 639 638
3 639 644 645
3 645 640 639
3 641 646 647
3 647 642 641
3 642 647 648
3 648 643 642
3 643 648 649
3 649 644 643
3 644 649 650
3 650 645 644
3 646 651 652
3 652 647 646
3 647 652 653
3 653 648 647
3 648 653 654
3 654 649 648
3 649 654 655
3 655 650 649
3 651 656 657
3 657 652 651
3 652 657 658
3 658 653 652
3 653 658 659
3 659 654 653
3 654 659 660
3 660 655 654
3 656 581 584
3 584 657 656
3 657 584 586
3 586 658 657
3 658 586 588
3 588 659 658
3 659 588 590
3 590 660 659
4 32 313 661 39
4 39 661 662 46
4 46 662 663 53
4 53 663 664 60
4 60 664 665 67
4 67 665 666 74
4 74 666 667 81
4 81 667 668 87
4 87 668 669 93
4 93 669 670 99
4 99 670 671 105
4 322 4 105 671
3 672 673 674
4 673 675 676 674
4 675 677 678 676
3 677 679 678
