ply
format ascii 1.0
comment Created by Blender 2.69 (sub 0) - www.blender.org, source file: 'toilet.blend'
element vertex 236
property float x
property float y
property float z
property uchar red
property uchar green
property uchar blue
element face 157
property list uchar uint vertex_indices
end_header
0.487105 0.322536 0.683244 186 187 189
0.487477 0.322536 0.587578 186 187 189
0.165357 0.363154 0.633389 186 187 189
0.654134 0.203198 0.683244 186 187 189
0.645798 0.203199 0.587578 186 187 189
0.645798 0.203199 0.587578 178 180 181
0.541383 0.196092 0.494621 178 180 181
0.487477 0.322536 0.587578 178 180 181
-0.020076 0.191545 0.384504 168 170 171
0.359179 0.284514 0.494621 168 170 171
0.401905 0.196108 0.384504 168 170 171
0.238686 0.341285 0.580122 186 187 189
0.359179 0.284514 0.494621 186 187 189
-0.010122 0.221991 0.545612 186 187 189
-0.275919 0.381144 1.201853 168 170 171
-0.606310 0.381184 1.201853 168 170 171
-0.590059 0.343555 1.314751 168 170 171
-0.292179 0.343520 1.282240 168 170 171
-0.275919 0.381144 1.201853 193 195 196
-0.308411 0.381148 0.687254 193 195 196
-0.602838 0.381183 0.686441 193 195 196
-0.606310 0.381184 1.201853 193 195 196
0.311885 -0.000042 0.318539 201 203 204
0.370875 -0.000049 -0.003881 201 203 204
0.311895 0.083745 0.318539 201 203 204
-0.293826 0.200582 0.346404 168 170 171
-0.301615 0.222062 0.442798 168 170 171
0.359179 0.284514 0.494621 188 190 191
0.487477 0.322536 0.587578 188 190 191
0.541383 0.196092 0.494621 188 190 191
0.311904 0.162748 0.318539 178 180 181
0.401905 0.196108 0.384504 178 180 181
0.311895 0.083745 0.318539 178 180 181
-0.318466 0.246527 -0.003881 201 203 204
-0.284764 0.195169 0.234268 201 203 204
0.311904 0.162748 0.318539 201 203 204
0.370894 0.162741 -0.003881 201 203 204
-0.263277 0.255016 0.602567 186 187 189
-0.225068 0.275739 0.686252 186 187 189
-0.013154 0.240357 0.617998 186 187 189
-0.030732 0.276653 0.685750 251 253 255
-0.225068 0.275739 0.686252 251 253 255
-0.308455 0.000031 0.687254 251 253 255
-0.308411 0.381148 0.687254 251 253 255
-0.275964 0.000027 1.201853 193 195 196
-0.308455 0.000031 0.687254 193 195 196
-0.292220 0.000029 1.282240 168 170 171
-0.275964 0.000027 1.201853 168 170 171
-0.292220 0.000029 1.282240 251 253 255
-0.292179 0.343520 1.282240 251 253 255
-0.590059 0.343555 1.314751 251 253 255
-0.590100 0.000064 1.314751 251 253 255
-0.590059 0.343555 1.314751 255 255 255
-0.606310 0.381184 1.201853 255 255 255
-0.606355 0.000066 1.201853 255 255 255
-0.590100 0.000064 1.314751 255 255 255
0.726029 -0.000091 0.683244 186 187 189
0.708459 -0.000089 0.587578 186 187 189
-0.606355 0.000066 1.201853 193 195 196
-0.602883 0.000065 0.686441 193 195 196
0.615091 -0.000078 0.494621 178 180 181
0.429891 -0.000056 0.384504 178 180 181
-0.513387 0.381173 0.575675 193 195 196
-0.513432 0.000055 0.575675 193 195 196
-0.385190 0.273801 0.542839 151 152 153
-0.385223 0.000040 0.542839 151 152 153
-0.513432 0.000055 0.575675 151 152 153
-0.513387 0.381173 0.575675 151 152 153
0.708459 -0.000089 0.587578 178 180 181
0.311885 -0.000042 0.318539 178 180 181
-0.301615 0.222062 0.442798 151 152 153
-0.301641 0.000030 0.442798 151 152 153
-0.293826 0.200582 0.346404 151 152 153
-0.293850 0.000029 0.346404 151 152 153
-0.284764 0.195169 0.234268 151 152 153
-0.284787 0.000028 0.234268 151 152 153
0.311904 0.162748 0.318539 168 170 171
-0.284764 0.195169 0.234268 168 170 171
0.541383 0.196092 0.494621 168 170 171
-0.225068 0.275739 0.686252 193 195 196
-0.263277 0.255016 0.602567 193 195 196
0.155364 0.368338 0.685249 186 187 189
-0.030732 0.276653 0.685750 186 187 189
-0.010122 0.221991 0.545612 188 190 191
-0.038817 0.205947 0.468709 188 190 191
-0.301615 0.222062 0.442798 186 187 189
-0.252301 0.241526 0.557752 186 187 189
-0.513387 0.381173 0.575675 161 162 163
-0.263277 0.255016 0.602567 161 162 163
-0.252301 0.241526 0.557752 161 162 163
-0.385190 0.273801 0.542839 161 162 163
-0.385190 0.273801 0.542839 186 187 189
-0.301615 0.222062 0.442798 188 190 191
-0.038817 0.205947 0.468709 168 170 171
-0.318466 0.246527 -0.003881 151 152 153
-0.318495 0.000032 -0.003881 151 152 153
-0.118342 0.000008 0.685249 251 253 255
0.487105 0.322536 0.683244 251 253 255
0.155364 0.368338 0.685249 251 253 255
0.183709 0.293562 0.685249 251 253 255
0.448690 0.256977 0.683244 251 253 255
0.654134 0.203198 0.683244 251 253 255
0.582106 0.161655 0.683244 251 253 255
0.726029 -0.000091 0.683244 251 253 255
0.639534 -0.000081 0.683244 251 253 255
-0.034916 -0.000002 0.685249 251 253 255
0.035063 0.220327 0.685750 251 253 255
0.448690 0.256977 0.683244 163 165 166
0.183709 0.293562 0.685249 163 165 166
0.183709 0.293562 0.616357 163 165 166
0.448690 0.256977 0.614352 163 165 166
0.582106 0.161655 0.683244 163 165 166
0.582106 0.161655 0.614352 163 165 166
0.639534 -0.000081 0.683244 163 165 166
0.639534 -0.000081 0.614352 163 165 166
0.035063 0.220327 0.685750 163 165 166
-0.034916 -0.000002 0.685249 163 165 166
-0.034916 -0.000002 0.616357 163 165 166
0.035063 0.220327 0.616859 163 165 166
0.448690 0.256977 0.614352 141 142 143
0.183709 0.293562 0.616357 141 142 143
0.144370 0.111809 0.345132 141 142 143
0.244547 0.097978 0.343127 141 142 143
0.582106 0.161655 0.614352 141 142 143
0.294986 0.061941 0.343127 141 142 143
0.639534 -0.000081 0.614352 141 142 143
0.316696 -0.000043 0.343127 141 142 143
0.035063 0.220327 0.616859 141 142 143
-0.034916 -0.000002 0.616357 141 142 143
0.061718 -0.000013 0.345132 141 142 143
0.088174 0.084123 0.345634 141 142 143
0.088174 0.084123 0.345634 0 152 214
0.061718 -0.000013 0.345132 0 152 214
0.316696 -0.000043 0.343127 0 152 214
0.144370 0.111809 0.345132 0 152 214
0.244547 0.097978 0.343127 0 152 214
0.294986 0.061941 0.343127 0 152 214
0.487029 -0.322667 0.683244 186 187 189
0.165272 -0.363209 0.633389 186 187 189
0.487401 -0.322667 0.587578 186 187 189
0.654086 -0.203368 0.683244 186 187 189
0.645751 -0.203367 0.587578 186 187 189
0.645751 -0.203367 0.587578 178 180 181
0.487401 -0.322667 0.587578 178 180 181
0.541337 -0.196235 0.494621 178 180 181
-0.020121 -0.191556 0.384504 168 170 171
0.401859 -0.196219 0.384504 168 170 171
0.359112 -0.284614 0.494621 168 170 171
0.238605 -0.341357 0.580122 186 187 189
-0.010174 -0.222005 0.545612 186 187 189
0.359112 -0.284614 0.494621 186 187 189
-0.276009 -0.381096 1.201853 168 170 171
-0.292260 -0.343467 1.282240 168 170 171
-0.590140 -0.343432 1.314751 168 170 171
-0.606400 -0.381057 1.201853 168 170 171
-0.602927 -0.381058 0.686441 193 195 196
-0.308500 -0.381092 0.687254 193 195 196
-0.276009 -0.381096 1.201853 193 195 196
-0.606400 -0.381057 1.201853 193 195 196
0.311875 -0.083834 0.318539 201 203 204
-0.301667 -0.222007 0.442798 168 170 171
-0.293874 -0.200529 0.346404 168 170 171
0.359112 -0.284614 0.494621 188 190 191
0.541337 -0.196235 0.494621 188 190 191
0.487401 -0.322667 0.587578 188 190 191
0.311866 -0.162838 0.318539 178 180 181
0.311875 -0.083834 0.318539 178 180 181
0.401859 -0.196219 0.384504 178 180 181
-0.318524 -0.246468 -0.003881 201 203 204
0.370856 -0.162844 -0.003881 201 203 204
0.311866 -0.162838 0.318539 201 203 204
-0.284810 -0.195118 0.234268 201 203 204
-0.263337 -0.254970 0.602567 186 187 189
-0.013211 -0.240370 0.617998 186 187 189
-0.225133 -0.275702 0.686252 186 187 189
-0.030797 -0.276662 0.685750 251 253 255
-0.225133 -0.275702 0.686252 251 253 255
-0.308500 -0.381092 0.687254 251 253 255
-0.292220 0.000029 1.282240 255 255 255
-0.275964 0.000027 1.201853 255 255 255
-0.590140 -0.343432 1.314751 251 253 255
-0.292260 -0.343467 1.282240 251 253 255
-0.590140 -0.343432 1.314751 255 255 255
-0.606400 -0.381057 1.201853 255 255 255
-0.513477 -0.381068 0.575675 193 195 196
-0.385255 -0.273727 0.542839 151 152 153
-0.513477 -0.381068 0.575675 151 152 153
-0.301667 -0.222007 0.442798 151 152 153
-0.293874 -0.200529 0.346404 151 152 153
-0.284810 -0.195118 0.234268 151 152 153
0.311866 -0.162838 0.318539 168 170 171
-0.284810 -0.195118 0.234268 168 170 171
0.541337 -0.196235 0.494621 168 170 171
-0.263337 -0.254970 0.602567 193 195 196
-0.225133 -0.275702 0.686252 193 195 196
0.155277 -0.368391 0.685249 186 187 189
-0.030797 -0.276662 0.685750 186 187 189
-0.010174 -0.222005 0.545612 188 190 191
-0.038865 -0.205954 0.468709 188 190 191
-0.301667 -0.222007 0.442798 186 187 189
-0.252358 -0.241483 0.557752 186 187 189
-0.513477 -0.381068 0.575675 161 162 163
-0.252358 -0.241483 0.557752 161 162 163
-0.263337 -0.254970 0.602567 161 162 163
-0.385255 -0.273727 0.542839 161 162 163
-0.385255 -0.273727 0.542839 186 187 189
-0.301667 -0.222007 0.442798 188 190 191
-0.038865 -0.205954 0.468709 168 170 171
-0.318524 -0.246468 -0.003881 151 152 153
0.487029 -0.322667 0.683244 251 253 255
0.448630 -0.257099 0.683244 251 253 255
0.183640 -0.293621 0.685249 251 253 255
0.155277 -0.368391 0.685249 251 253 255
0.654086 -0.203368 0.683244 251 253 255
0.582068 -0.161808 0.683244 251 253 255
0.035011 -0.220352 0.685750 251 253 255
0.448630 -0.257099 0.683244 163 165 166
0.448630 -0.257099 0.614352 163 165 166
0.183640 -0.293621 0.616357 163 165 166
0.183640 -0.293621 0.685249 163 165 166
0.582068 -0.161808 0.683244 163 165 166
0.582068 -0.161808 0.614352 163 165 166
0.035011 -0.220352 0.685750 163 165 166
0.035011 -0.220352 0.616859 163 165 166
0.448630 -0.257099 0.614352 141 142 143
0.244524 -0.098052 0.343127 141 142 143
0.144344 -0.111860 0.345132 141 142 143
0.183640 -0.293621 0.616357 141 142 143
0.582068 -0.161808 0.614352 141 142 143
0.294971 -0.062027 0.343127 141 142 143
0.035011 -0.220352 0.616859 141 142 143
0.088154 -0.084160 0.345634 141 142 143
0.088154 -0.084160 0.345634 0 152 214
0.144344 -0.111860 0.345132 0 152 214
0.244524 -0.098052 0.343127 0 152 214
0.294971 -0.062027 0.343127 0 152 214
3 0 1 2
4 3 4 1 0
3 5 6 7
3 8 9 10
3 11 12 13
4 14 15 16 17
4 18 19 20 21
3 22 23 24
3 8 25 26
3 27 28 29
3 30 31 32
4 33 34 35 36
3 37 38 39
3 40 41 42
3 41 43 42
4 19 18 44 45
4 14 17 46 47
4 48 49 50 51
4 52 53 54 55
4 56 57 4 3
4 58 21 20 59
4 60 61 31 6
3 23 36 24
4 62 63 59 20
4 64 65 66 67
3 35 24 36
4 68 60 6 5
4 61 69 32 31
4 70 71 65 64
4 71 70 72 73
4 74 75 73 72
3 76 77 8
3 8 77 25
3 10 76 8
3 78 10 9
3 62 79 80
3 62 19 79
3 20 19 62
3 11 2 1
3 81 39 82
3 83 27 84
3 85 86 39
3 39 86 37
3 87 88 89
3 90 87 89
3 91 86 85
3 38 82 39
3 11 13 2
3 39 2 13
3 39 13 85
3 84 92 83
3 26 93 8
3 93 9 8
3 39 81 2
3 81 0 2
3 75 74 94
3 75 94 95
3 40 42 96
4 97 98 99 100
4 101 97 100 102
4 103 101 102 104
4 40 96 105 106
4 98 40 106 99
4 107 108 109 110
4 111 107 110 112
4 113 111 112 114
4 115 116 117 118
4 108 115 118 109
4 119 120 121 122
4 123 119 122 124
4 125 123 124 126
4 127 128 129 130
4 120 127 130 121
3 131 132 133
3 134 131 133
3 135 134 133
3 133 136 135
3 11 1 12
3 137 138 139
4 140 137 139 141
3 142 143 144
3 145 146 147
3 148 149 150
4 151 152 153 154
4 155 156 157 158
3 22 159 23
3 145 160 161
3 162 163 164
3 165 166 167
4 168 169 170 171
3 172 173 174
3 175 42 176
3 176 42 177
4 54 55 178 179
4 44 157 156 45
4 151 47 46 152
4 48 51 180 181
4 182 55 54 183
4 56 140 141 57
4 58 59 155 158
4 60 144 167 61
3 23 159 169
4 184 155 59 63
4 185 186 66 65
3 170 169 159
4 68 142 144 60
4 61 167 166 69
4 187 185 65 71
4 71 73 188 187
4 189 188 73 75
3 190 145 191
3 145 161 191
3 146 145 190
3 192 147 146
3 184 193 194
3 184 194 156
3 184 156 155
3 148 139 138
3 195 196 173
3 197 198 162
3 199 173 200
3 173 172 200
3 201 202 203
3 204 202 201
3 205 199 200
3 174 173 196
3 148 138 149
3 173 149 138
3 173 199 149
3 198 197 206
3 160 145 207
3 207 145 147
3 173 138 195
3 195 138 137
3 75 208 189
3 75 95 208
3 175 96 42
4 209 210 211 212
4 213 214 210 209
4 103 104 214 213
4 175 215 105 96
4 212 211 215 175
4 216 217 218 219
4 220 221 217 216
4 113 114 221 220
4 222 223 117 116
4 219 218 223 222
4 224 225 226 227
4 228 229 225 224
4 125 126 229 228
4 230 231 129 128
4 227 226 231 230
3 232 133 132
3 233 133 232
3 234 133 233
3 133 234 235
3 148 150 139
