ply
format ascii 1.0
comment Created by Blender 2.69 (sub 0) - www.blender.org, source file: 'toilet.blend'
element vertex 89
property float x
property float y
property float z
property uchar red
property uchar green
property uchar blue
element face 62
property list uchar uint vertex_indices
end_header
0.000000 0.291986 0.243666 255 255 255
0.197947 0.197947 0.243666 255 255 255
0.305070 0.305070 0.000000 255 255 255
0.000000 0.450000 0.000000 255 255 255
0.291986 0.000000 0.243666 255 255 255
0.197947 -0.197947 0.243666 255 255 255
0.305070 -0.305070 0.000000 255 255 255
0.450000 -0.000000 0.000000 255 255 255
0.000000 -0.291986 0.243666 255 255 255
-0.197947 -0.197947 0.243666 255 255 255
-0.305070 -0.305070 0.000000 255 255 255
-0.000000 -0.450000 0.000000 255 255 255
-0.305070 0.305070 0.000000 255 255 255
-0.450000 0.000000 0.000000 255 255 255
-0.291986 0.000000 0.243666 255 255 255
-0.197947 0.197947 0.243666 255 255 255
0.000000 0.450000 0.654417 255 255 255
-0.373120 0.305070 0.654417 255 255 255
-0.264941 0.215033 0.654417 255 255 255
-0.001942 0.317189 0.654417 255 255 255
-0.000000 -0.450000 0.654417 255 255 255
0.305070 -0.305070 0.654417 255 255 255
0.213091 -0.215033 0.654417 255 255 255
-0.001942 -0.317189 0.654417 255 255 255
0.450000 -0.000000 0.654417 255 255 255
0.305070 0.305070 0.654417 255 255 255
0.213091 0.215033 0.654417 198 198 198
0.315247 0.000000 0.654417 254 254 254
-0.127017 -0.100239 0.452081 255 255 255
-0.004418 -0.147860 0.452081 255 255 255
-0.004418 -0.147860 0.452081 255 255 255
-0.127017 -0.100239 0.452081 255 255 255
-0.373120 -0.305070 0.654417 255 255 255
-0.373120 0.000000 0.654417 255 255 255
-0.001942 0.317189 0.654417 150 150 150
-0.127017 0.100239 0.452081 148 148 148
-0.004418 0.147860 0.452081 148 148 148
0.213091 -0.215033 0.654417 150 150 150
0.095821 -0.100239 0.452081 192 192 192
-0.004418 -0.147860 0.452081 148 148 148
0.315247 0.000000 0.654417 151 151 151
0.213091 0.215033 0.654417 191 191 191
0.095821 0.100239 0.452081 148 148 148
0.143442 0.000000 0.452081 148 148 148
-0.264941 0.000000 0.654417 194 194 194
-0.264941 -0.215033 0.654417 194 194 194
-0.127017 -0.100239 0.452081 148 148 148
-0.127017 0.000000 0.452081 150 150 150
-0.127017 0.100239 0.452081 255 255 255
-0.127017 0.000000 0.452081 255 255 255
-0.127017 0.000000 0.452081 255 255 255
-0.127017 0.100239 0.452081 255 255 255
-0.004418 0.147860 0.452081 255 255 255
-0.004418 0.147860 0.452081 255 255 255
0.095821 -0.100239 0.452081 255 255 255
0.095821 -0.100239 0.452081 255 255 255
0.143442 0.000000 0.452081 255 255 255
0.095821 0.100239 0.452081 255 255 255
0.095821 0.100239 0.452081 255 255 255
0.143442 0.000000 0.452081 255 255 255
-0.264941 -0.215033 0.654417 255 255 255
-0.264941 0.000000 0.654417 255 255 255
-0.264941 0.000000 1.379823 255 255 255
-0.264941 -0.215033 1.379823 255 255 255
-0.264941 0.215033 0.654417 255 255 255
-0.373120 0.305070 0.654417 255 255 255
-0.373120 0.305070 1.379823 255 255 255
-0.264941 0.215033 1.379823 255 255 255
-0.004418 0.000000 0.452081 115 115 115
0.143442 0.000000 0.452081 148 148 148
0.095821 0.100239 0.452081 148 148 148
-0.004418 0.147860 0.452081 148 148 148
-0.127017 0.000000 0.452081 115 115 115
-0.127017 0.100239 0.452081 148 148 148
-0.004418 -0.147860 0.452081 148 148 148
0.095821 -0.100239 0.452081 192 192 192
-0.127017 -0.100239 0.452081 148 148 148
-0.264941 -0.215033 0.654417 255 255 255
-0.264941 0.000000 0.654417 255 255 255
-0.373120 -0.305070 0.654417 255 255 255
-0.373120 0.000000 0.654417 255 255 255
-0.373120 0.000000 1.379823 255 255 255
-0.373120 -0.305070 1.379823 255 255 255
-0.456253 0.305070 0.654417 255 255 255
-0.456253 0.305070 1.379823 255 255 255
-0.456253 -0.305070 1.379823 255 255 255
-0.456253 -0.305070 0.654417 255 255 255
-0.456253 0.000000 0.654417 255 255 255
-0.456253 0.000000 1.379823 255 255 255
4 0 1 2 3
4 4 5 6 7
4 8 9 10 11
4 12 13 14 15
4 16 17 18 19
4 3 12 15 0
4 5 8 11 6
4 20 21 22 23
4 1 4 7 2
4 9 14 13 10
4 24 25 26 27
4 28 29 30 31
4 16 25 1 0
4 24 21 5 4
4 20 32 9 8
4 33 17 15 14
4 17 16 0 15
4 21 20 8 5
4 25 24 4 1
4 32 33 14 9
4 34 18 35 36
4 23 37 38 39
4 40 41 42 43
4 44 45 46 47
4 48 49 50 51
4 32 20 23 45
4 21 24 27 22
4 25 16 19 26
4 52 48 51 53
4 29 54 55 30
4 56 57 58 59
4 49 28 31 50
4 18 44 47 35
4 45 23 39 46
4 37 40 43 38
4 41 34 36 42
4 60 61 62 63
4 64 65 66 67
4 68 69 70 71
4 72 68 71 73
4 74 75 69 68
4 76 74 68 72
4 54 56 59 55
4 57 52 53 58
4 18 17 65 64
4 77 78 61 60
4 78 18 64 61
4 32 77 60 79
4 33 32 79 80
4 17 33 80 65
4 81 82 63 62
4 66 81 62 67
4 61 64 67 62
4 79 60 63 82
4 66 65 83 84
4 79 82 85 86
4 87 86 85 88
4 83 87 88 84
4 82 81 88 85
4 81 66 84 88
4 80 79 86 87
4 65 80 87 83
